<?xml version="1.0" encoding="UTF-8" standalone="no"?>
<svg
   xmlns:dc="http://purl.org/dc/elements/1.1/"
   xmlns:cc="http://creativecommons.org/ns#"
   xmlns:rdf="http://www.w3.org/1999/02/22-rdf-syntax-ns#"
   xmlns:svg="http://www.w3.org/2000/svg"
   xmlns="http://www.w3.org/2000/svg"
   xmlns:sodipodi="http://sodipodi.sourceforge.net/DTD/sodipodi-0.dtd"
   xmlns:inkscape="http://www.inkscape.org/namespaces/inkscape"
   width="210mm"
   height="297mm"
   viewBox="0 0 210 297"
   version="1.1"
   id="svg7612"
   sodipodi:docname="fig01.27.svg"
   inkscape:version="1.0.1 (3bc2e813f5, 2020-09-07)">
  <defs
     id="defs7606">
    <marker
       style="overflow:visible"
       id="Arrow1Mstart"
       refX="0.0"
       refY="0.0"
       orient="auto"
       inkscape:stockid="Arrow1Mstart"
       inkscape:isstock="true">
      <path
         transform="scale(0.4) translate(10,0)"
         style="fill-rule:evenodd;stroke:#000000;stroke-width:1pt;stroke-opacity:1;fill:#000000;fill-opacity:1"
         d="M 0.0,0.0 L 5.0,-5.0 L -12.5,0.0 L 5.0,5.0 L 0.0,0.0 z "
         id="path861" />
    </marker>
    <marker
       style="overflow:visible"
       id="marker8684"
       refX="0"
       refY="0"
       orient="auto"
       inkscape:stockid="Arrow1Mend"
       inkscape:isstock="true">
      <path
         transform="matrix(-0.4,0,0,-0.4,-4,0)"
         style="fill:#000000;fill-opacity:1;fill-rule:evenodd;stroke:#000000;stroke-width:1pt;stroke-opacity:1"
         d="M 0,0 5,-5 -12.5,0 5,5 Z"
         id="path8682" />
    </marker>
    <marker
       style="overflow:visible"
       id="marker1133"
       refX="0"
       refY="0"
       orient="auto"
       inkscape:stockid="Arrow1Mend"
       inkscape:isstock="true"
       inkscape:collect="always">
      <path
         transform="matrix(-0.4,0,0,-0.4,-4,0)"
         style="fill:#000000;fill-opacity:1;fill-rule:evenodd;stroke:#000000;stroke-width:1pt;stroke-opacity:1"
         d="M 0,0 5,-5 -12.5,0 5,5 Z"
         id="path1131" />
    </marker>
    <marker
       style="overflow:visible"
       id="Arrow1Mend"
       refX="0"
       refY="0"
       orient="auto"
       inkscape:stockid="Arrow1Mend"
       inkscape:isstock="true"
       inkscape:collect="always">
      <path
         transform="matrix(-0.4,0,0,-0.4,-4,0)"
         style="fill:#000000;fill-opacity:1;fill-rule:evenodd;stroke:#000000;stroke-width:1pt;stroke-opacity:1"
         d="M 0,0 5,-5 -12.5,0 5,5 Z"
         id="path864" />
    </marker>
    <defs
       id="id-72438715-da03-4bbd-982b-ab0bed40286f">
      <g
         id="id-32f3383a-2288-433a-94bb-70b7845a9adc">
        <symbol
           overflow="visible"
           id="id-6488908f-53ce-40a6-ac4b-dbcea83efe17">
          <path
             style="stroke:none;stroke-width:0"
             d=""
             id="id-c97c94a9-fb7b-432e-b76d-69e562e229b0" />
        </symbol>
        <symbol
           overflow="visible"
           id="id-ffb082dc-df25-4102-8498-978b3b083acf">
          <path
             style="stroke:none;stroke-width:0"
             d="M 8.25,0.453125 C 7.84375,0.484375 7.8125,0.796875 7.8125,0.890625 7.8125,1.1875 8.046875,1.34375 8.25,1.34375 8.46875,1.34375 8.703125,1.1875 8.703125,0.875 8.703125,0.390625 8.21875,0 7.6875,0 6.765625,0 6.25,1.1875 5.84375,2.5625 5.609375,3.34375 4.453125,7.828125 3.5,13.140625 3.34375,14 2.90625,16.46875 2.546875,17.828125 c -0.140625,0.515625 -0.515625,1.875 -1.03125,1.875 -0.078125,0 -0.34375,-0.01563 -0.5625,-0.21875 0.40625,-0.04687 0.453125,-0.359375 0.453125,-0.4375 0,-0.3125 -0.25,-0.453125 -0.453125,-0.453125 -0.203125,0 -0.4375,0.140625 -0.4375,0.453125 0,0.5 0.484375,0.875 1.015625,0.875 0.90625,0 1.4375,-1.1875 1.84375,-2.546875 0.234375,-0.796875 1.390625,-5.28125 2.34375,-10.578125 0.140625,-0.875 0.59375,-3.34375 0.9375,-4.6875 C 6.8125,1.59375 7.1875,0.21875 7.6875,0.21875 c 0.078125,0 0.34375,0.015625 0.5625,0.234375 z m 0,0"
             id="id-6e4f3ae7-4f1c-47a1-be84-29379261dab7" />
        </symbol>
        <symbol
           overflow="visible"
           id="id-b2689d4c-6452-4f2c-9ce0-40c05273dbe4">
          <path
             style="stroke:none;stroke-width:0"
             d=""
             id="id-6eef2ce0-73a7-4c49-bb1f-b92ddd3b7cef" />
        </symbol>
        <symbol
           overflow="visible"
           id="id-0392aeaf-b4b3-42b3-8975-be8055ede00b">
          <path
             style="stroke:none;stroke-width:0"
             d="m 1.609375,-2.34375 h 0.65625 c 0.109375,0 0.203125,0 0.203125,-0.140625 0,-0.09375 -0.078125,-0.09375 -0.1875,-0.09375 H 1.671875 L 1.875,-3.40625 c 0.03125,-0.09375 0.03125,-0.125 0.03125,-0.125 0,-0.15625 -0.109375,-0.203125 -0.21875,-0.203125 -0.0625,0 -0.21875,0.03125 -0.28125,0.234375 L 1.171875,-2.578125 H 0.53125 c -0.125,0 -0.125,0 -0.15625,0.015625 -0.03125,0.03125 -0.046875,0.109375 -0.046875,0.140625 0.015625,0.078125 0.0625,0.078125 0.1875,0.078125 H 1.125 l -0.359375,1.421875 c -0.03125,0.125 -0.078125,0.328125 -0.078125,0.40625 0,0.34375 0.3125,0.578125 0.671875,0.578125 0.6875,0 1.09375,-0.828125 1.09375,-0.921875 0,-0.015625 -0.015625,-0.09375 -0.109375,-0.09375 -0.078125,0 -0.09375,0.03125 -0.125,0.109375 -0.203125,0.453125 -0.546875,0.703125 -0.84375,0.703125 -0.21875,0 -0.21875,-0.21875 -0.21875,-0.296875 0,-0.078125 0,-0.09375 0.03125,-0.203125 z m 0,0"
             id="id-2f917777-abd4-4e70-9d53-5c5441bd17d5" />
        </symbol>
        <symbol
           overflow="visible"
           id="id-d1ac5506-97e7-433f-aa5a-699a4e195f57">
          <path
             style="stroke:none;stroke-width:0"
             d=""
             id="id-f9cc8b05-576a-499a-a482-109f982f86b4" />
        </symbol>
        <symbol
           overflow="visible"
           id="id-79ab434d-9b8e-4aad-907a-98d0bfca002c">
          <path
             style="stroke:none;stroke-width:0"
             d="m 3.296875,-1.90625 c 0,-0.4375 0,-2.078125 -1.46875,-2.078125 -1.46875,0 -1.46875,1.640625 -1.46875,2.078125 0,0.421875 0,2.03125 1.46875,2.03125 1.46875,0 1.46875,-1.609375 1.46875,-2.03125 z m -1.46875,1.84375 c -0.25,0 -0.65625,-0.125 -0.8125,-0.625 -0.09375,-0.34375 -0.09375,-0.921875 -0.09375,-1.296875 0,-0.40625 0,-0.859375 0.09375,-1.1875 0.140625,-0.53125 0.59375,-0.609375 0.8125,-0.609375 0.265625,0 0.671875,0.125 0.796875,0.578125 0.09375,0.3125 0.09375,0.75 0.09375,1.21875 0,0.375 0,0.984375 -0.09375,1.3125 C 2.453125,-0.140625 2.015625,-0.0625 1.828125,-0.0625 Z m 0,0"
             id="id-a28b1ea6-9ed2-48ef-9043-96ee4fba2288" />
        </symbol>
        <symbol
           overflow="visible"
           id="id-2a6f5ab9-7d45-47ac-bd0c-4d5a8f2a8934">
          <path
             style="stroke:none;stroke-width:0"
             d=""
             id="id-566105dd-c02a-4a97-89e7-21a1e7b5f686" />
        </symbol>
        <symbol
           overflow="visible"
           id="id-a9a115a4-e50e-4b2b-98c6-d87eb28655e3">
          <path
             style="stroke:none;stroke-width:0"
             d="M 3.421875,-3.40625 C 3.25,-3.734375 2.984375,-3.96875 2.578125,-3.96875 1.53125,-3.96875 0.375,-2.71875 0.375,-1.359375 0.375,-0.375 1,0.09375 1.609375,0.09375 c 0.578125,0 1.046875,-0.484375 1.203125,-0.65625 0.09375,0.5 0.546875,0.65625 0.828125,0.65625 0.265625,0 0.484375,-0.109375 0.6875,-0.484375 0.15625,-0.296875 0.28125,-0.859375 0.28125,-0.890625 0,-0.046875 -0.03125,-0.109375 -0.109375,-0.109375 -0.109375,0 -0.125,0.046875 -0.15625,0.21875 C 4.140625,-0.390625 3.953125,-0.125 3.671875,-0.125 c -0.234375,0 -0.28125,-0.21875 -0.28125,-0.40625 0,-0.171875 0.046875,-0.359375 0.125,-0.671875 L 3.734375,-2.125 C 3.796875,-2.34375 3.96875,-3.015625 4,-3.15625 c 0.03125,-0.125 0.09375,-0.34375 0.09375,-0.375 0,-0.140625 -0.125,-0.25 -0.28125,-0.25 -0.125,0 -0.34375,0.0625 -0.390625,0.375 z M 2.84375,-1.09375 C 2.796875,-0.921875 2.796875,-0.921875 2.65625,-0.75 2.328125,-0.359375 1.96875,-0.125 1.625,-0.125 c -0.4375,0 -0.578125,-0.453125 -0.578125,-0.84375 0,-0.4375 0.25,-1.46875 0.46875,-1.90625 0.28125,-0.53125 0.703125,-0.859375 1.0625,-0.859375 0.59375,0 0.734375,0.71875 0.734375,0.78125 0,0.03125 -0.015625,0.09375 -0.03125,0.125 z m 0,0"
             id="id-c44112f5-f0ed-49c4-a1af-09f41a88beac" />
        </symbol>
        <symbol
           overflow="visible"
           id="id-5b35bbe5-4930-4184-bd34-36bcc443cb8e">
          <path
             style="stroke:none;stroke-width:0"
             d="m 1.90625,-3.59375 h 0.859375 c 0.15625,0 0.265625,0 0.265625,-0.15625 0,-0.109375 -0.09375,-0.109375 -0.25,-0.109375 H 1.984375 l 0.359375,-1.5 c 0,-0.140625 -0.109375,-0.25 -0.265625,-0.25 -0.296875,0 -0.359375,0.25 -0.390625,0.34375 l -0.34375,1.40625 H 0.5 c -0.171875,0 -0.28125,0 -0.28125,0.15625 0,0.109375 0.09375,0.109375 0.25,0.109375 h 0.8125 l -0.625,2.453125 c -0.0625,0.265625 -0.0625,0.28125 -0.0625,0.40625 0,0.53125 0.40625,0.828125 0.875,0.828125 0.921875,0 1.453125,-1.28125 1.453125,-1.375 0,-0.046875 -0.03125,-0.109375 -0.109375,-0.109375 -0.09375,0 -0.109375,0.03125 -0.171875,0.1875 C 2.375,-0.5625 1.921875,-0.125 1.484375,-0.125 c -0.1875,0 -0.296875,-0.109375 -0.296875,-0.40625 0,-0.203125 0.03125,-0.3125 0.0625,-0.453125 z m 0,0"
             id="id-5b6d8c96-5948-485e-b5e2-877f0895c0a4" />
        </symbol>
        <symbol
           overflow="visible"
           id="id-dae9b858-5174-4c7a-b207-31cbfb75908c">
          <path
             style="stroke:none;stroke-width:0"
             d="m 4.703125,-5.921875 c 0.03125,-0.125 0.03125,-0.140625 0.03125,-0.171875 0,-0.078125 -0.046875,-0.125 -0.140625,-0.125 -0.125,0 -0.90625,0.0625 -1.09375,0.078125 -0.078125,0.015625 -0.1875,0.03125 -0.1875,0.171875 0,0.125 0.109375,0.125 0.25,0.125 0.421875,0 0.421875,0.0625 0.421875,0.140625 0,0.0625 -0.078125,0.375 -0.125,0.5625 L 3.6875,-4.453125 C 3.59375,-4.109375 3.5,-3.765625 3.421875,-3.40625 3.25,-3.734375 2.984375,-3.96875 2.578125,-3.96875 1.53125,-3.96875 0.375,-2.71875 0.375,-1.359375 0.375,-0.375 1,0.09375 1.609375,0.09375 c 0.578125,0 1.046875,-0.484375 1.203125,-0.65625 0.09375,0.5 0.546875,0.65625 0.828125,0.65625 0.265625,0 0.484375,-0.109375 0.6875,-0.484375 0.15625,-0.296875 0.28125,-0.859375 0.28125,-0.890625 0,-0.046875 -0.03125,-0.109375 -0.109375,-0.109375 -0.109375,0 -0.125,0.046875 -0.15625,0.21875 C 4.140625,-0.390625 3.953125,-0.125 3.671875,-0.125 c -0.234375,0 -0.28125,-0.21875 -0.28125,-0.40625 0,-0.125 0.046875,-0.375 0.046875,-0.40625 z M 2.84375,-1.078125 C 2.8125,-0.9375 2.796875,-0.921875 2.65625,-0.75 2.328125,-0.359375 1.96875,-0.125 1.625,-0.125 c -0.4375,0 -0.578125,-0.453125 -0.578125,-0.84375 0,-0.4375 0.25,-1.46875 0.46875,-1.90625 0.28125,-0.53125 0.703125,-0.859375 1.0625,-0.859375 0.59375,0 0.734375,0.71875 0.734375,0.765625 0,0.046875 -0.015625,0.09375 -0.03125,0.140625 z m 0,0"
             id="id-90a36226-2203-4747-8827-ba52a15a8083" />
        </symbol>
      </g>
    </defs>
    <defs
       id="id-4a563413-1fe0-49f2-baf9-512718d65791">
      <g
         id="id-efa9fc7b-b13d-4499-ac43-62643db74962">
        <symbol
           overflow="visible"
           id="id-53240c57-6033-4723-906d-0d4ff6f7866f">
          <path
             style="stroke:none;stroke-width:0"
             d=""
             id="id-32988063-ded7-417b-9b43-2ae5574753b6" />
        </symbol>
        <symbol
           overflow="visible"
           id="id-f0b5533d-eea1-4339-bb57-cb69ef2bb60d">
          <path
             style="stroke:none;stroke-width:0"
             d="M 3.421875,-3.40625 C 3.25,-3.734375 2.984375,-3.96875 2.578125,-3.96875 1.53125,-3.96875 0.375,-2.71875 0.375,-1.359375 0.375,-0.375 1,0.09375 1.609375,0.09375 c 0.578125,0 1.046875,-0.484375 1.203125,-0.65625 0.09375,0.5 0.546875,0.65625 0.828125,0.65625 0.265625,0 0.484375,-0.109375 0.6875,-0.484375 0.15625,-0.296875 0.28125,-0.859375 0.28125,-0.890625 0,-0.046875 -0.03125,-0.109375 -0.109375,-0.109375 -0.109375,0 -0.125,0.046875 -0.15625,0.21875 C 4.140625,-0.390625 3.953125,-0.125 3.671875,-0.125 c -0.234375,0 -0.28125,-0.21875 -0.28125,-0.40625 0,-0.171875 0.046875,-0.359375 0.125,-0.671875 L 3.734375,-2.125 C 3.796875,-2.34375 3.96875,-3.015625 4,-3.15625 c 0.03125,-0.125 0.09375,-0.34375 0.09375,-0.375 0,-0.140625 -0.125,-0.25 -0.28125,-0.25 -0.125,0 -0.34375,0.0625 -0.390625,0.375 z M 2.84375,-1.09375 C 2.796875,-0.921875 2.796875,-0.921875 2.65625,-0.75 2.328125,-0.359375 1.96875,-0.125 1.625,-0.125 c -0.4375,0 -0.578125,-0.453125 -0.578125,-0.84375 0,-0.4375 0.25,-1.46875 0.46875,-1.90625 0.28125,-0.53125 0.703125,-0.859375 1.0625,-0.859375 0.59375,0 0.734375,0.71875 0.734375,0.78125 0,0.03125 -0.015625,0.09375 -0.03125,0.125 z m 0,0"
             id="id-903eccae-4a06-4b52-9783-619a343f03d8" />
        </symbol>
        <symbol
           overflow="visible"
           id="id-a31a8bba-ad1d-4864-af14-17d78b84ebfe">
          <path
             style="stroke:none;stroke-width:0"
             d="m 1.90625,-3.59375 h 0.859375 c 0.15625,0 0.265625,0 0.265625,-0.15625 0,-0.109375 -0.09375,-0.109375 -0.25,-0.109375 H 1.984375 l 0.359375,-1.5 c 0,-0.140625 -0.109375,-0.25 -0.265625,-0.25 -0.296875,0 -0.359375,0.25 -0.390625,0.34375 l -0.34375,1.40625 H 0.5 c -0.171875,0 -0.28125,0 -0.28125,0.15625 0,0.109375 0.09375,0.109375 0.25,0.109375 h 0.8125 l -0.625,2.453125 c -0.0625,0.265625 -0.0625,0.28125 -0.0625,0.40625 0,0.53125 0.40625,0.828125 0.875,0.828125 0.921875,0 1.453125,-1.28125 1.453125,-1.375 0,-0.046875 -0.03125,-0.109375 -0.109375,-0.109375 -0.09375,0 -0.109375,0.03125 -0.171875,0.1875 C 2.375,-0.5625 1.921875,-0.125 1.484375,-0.125 c -0.1875,0 -0.296875,-0.109375 -0.296875,-0.40625 0,-0.203125 0.03125,-0.3125 0.0625,-0.453125 z m 0,0"
             id="id-5a9eda16-69ea-4c0e-b7e0-1733a1a078e2" />
        </symbol>
        <symbol
           overflow="visible"
           id="id-bf02a6b1-5cf2-45ea-9a9b-b353bde9cff5">
          <path
             style="stroke:none;stroke-width:0"
             d="m 4.703125,-5.921875 c 0.03125,-0.125 0.03125,-0.140625 0.03125,-0.171875 0,-0.078125 -0.046875,-0.125 -0.140625,-0.125 -0.125,0 -0.90625,0.0625 -1.09375,0.078125 -0.078125,0.015625 -0.1875,0.03125 -0.1875,0.171875 0,0.125 0.109375,0.125 0.25,0.125 0.421875,0 0.421875,0.0625 0.421875,0.140625 0,0.0625 -0.078125,0.375 -0.125,0.5625 L 3.6875,-4.453125 C 3.59375,-4.109375 3.5,-3.765625 3.421875,-3.40625 3.25,-3.734375 2.984375,-3.96875 2.578125,-3.96875 1.53125,-3.96875 0.375,-2.71875 0.375,-1.359375 0.375,-0.375 1,0.09375 1.609375,0.09375 c 0.578125,0 1.046875,-0.484375 1.203125,-0.65625 0.09375,0.5 0.546875,0.65625 0.828125,0.65625 0.265625,0 0.484375,-0.109375 0.6875,-0.484375 0.15625,-0.296875 0.28125,-0.859375 0.28125,-0.890625 0,-0.046875 -0.03125,-0.109375 -0.109375,-0.109375 -0.109375,0 -0.125,0.046875 -0.15625,0.21875 C 4.140625,-0.390625 3.953125,-0.125 3.671875,-0.125 c -0.234375,0 -0.28125,-0.21875 -0.28125,-0.40625 0,-0.125 0.046875,-0.375 0.046875,-0.40625 z M 2.84375,-1.078125 C 2.8125,-0.9375 2.796875,-0.921875 2.65625,-0.75 2.328125,-0.359375 1.96875,-0.125 1.625,-0.125 c -0.4375,0 -0.578125,-0.453125 -0.578125,-0.84375 0,-0.4375 0.25,-1.46875 0.46875,-1.90625 0.28125,-0.53125 0.703125,-0.859375 1.0625,-0.859375 0.59375,0 0.734375,0.71875 0.734375,0.765625 0,0.046875 -0.015625,0.09375 -0.03125,0.140625 z m 0,0"
             id="id-87178c52-c1d2-4cc6-8ea6-8a4f73db870f" />
        </symbol>
        <symbol
           overflow="visible"
           id="id-409ecaa0-ec85-4650-ad6e-893d628a25f0">
          <path
             style="stroke:none;stroke-width:0"
             d=""
             id="id-b085fa22-100e-4db2-87f9-0558ae16132d" />
        </symbol>
        <symbol
           overflow="visible"
           id="id-05a1e6fb-1351-4ad5-b974-9907bf270272">
          <path
             style="stroke:none;stroke-width:0"
             d="M 8.25,0.453125 C 7.84375,0.484375 7.8125,0.796875 7.8125,0.890625 7.8125,1.1875 8.046875,1.34375 8.25,1.34375 8.46875,1.34375 8.703125,1.1875 8.703125,0.875 8.703125,0.390625 8.21875,0 7.6875,0 6.765625,0 6.25,1.1875 5.84375,2.5625 5.609375,3.34375 4.453125,7.828125 3.5,13.140625 3.34375,14 2.90625,16.46875 2.546875,17.828125 c -0.140625,0.515625 -0.515625,1.875 -1.03125,1.875 -0.078125,0 -0.34375,-0.01563 -0.5625,-0.21875 0.40625,-0.04687 0.453125,-0.359375 0.453125,-0.4375 0,-0.3125 -0.25,-0.453125 -0.453125,-0.453125 -0.203125,0 -0.4375,0.140625 -0.4375,0.453125 0,0.5 0.484375,0.875 1.015625,0.875 0.90625,0 1.4375,-1.1875 1.84375,-2.546875 0.234375,-0.796875 1.390625,-5.28125 2.34375,-10.578125 0.140625,-0.875 0.59375,-3.34375 0.9375,-4.6875 C 6.8125,1.59375 7.1875,0.21875 7.6875,0.21875 c 0.078125,0 0.34375,0.015625 0.5625,0.234375 z m 0,0"
             id="id-3322ea43-4251-4b21-8e5a-4dae7cc2e6c9" />
        </symbol>
        <symbol
           overflow="visible"
           id="id-92ca95e1-112b-465a-b40d-34a49c1f9075">
          <path
             style="stroke:none;stroke-width:0"
             d=""
             id="id-7bbd7653-30bf-439b-bfa5-1ba94f428e43" />
        </symbol>
        <symbol
           overflow="visible"
           id="id-4644a677-8cda-428d-9692-87d430a36387">
          <path
             style="stroke:none;stroke-width:0"
             d="m 1.609375,-2.34375 h 0.65625 c 0.109375,0 0.203125,0 0.203125,-0.140625 0,-0.09375 -0.078125,-0.09375 -0.1875,-0.09375 H 1.671875 L 1.875,-3.40625 c 0.03125,-0.09375 0.03125,-0.125 0.03125,-0.125 0,-0.15625 -0.109375,-0.203125 -0.21875,-0.203125 -0.0625,0 -0.21875,0.03125 -0.28125,0.234375 L 1.171875,-2.578125 H 0.53125 c -0.125,0 -0.125,0 -0.15625,0.015625 -0.03125,0.03125 -0.046875,0.109375 -0.046875,0.140625 0.015625,0.078125 0.0625,0.078125 0.1875,0.078125 H 1.125 l -0.359375,1.421875 c -0.03125,0.125 -0.078125,0.328125 -0.078125,0.40625 0,0.34375 0.3125,0.578125 0.671875,0.578125 0.6875,0 1.09375,-0.828125 1.09375,-0.921875 0,-0.015625 -0.015625,-0.09375 -0.109375,-0.09375 -0.078125,0 -0.09375,0.03125 -0.125,0.109375 -0.203125,0.453125 -0.546875,0.703125 -0.84375,0.703125 -0.21875,0 -0.21875,-0.21875 -0.21875,-0.296875 0,-0.078125 0,-0.09375 0.03125,-0.203125 z m 0,0"
             id="id-d8e59018-2c98-4df6-9442-73542873629f" />
        </symbol>
        <symbol
           overflow="visible"
           id="id-b3e0601f-59a9-4aab-a19f-d9f65cc389d7">
          <path
             style="stroke:none;stroke-width:0"
             d=""
             id="id-a55798b3-2ab3-40f1-9be5-b320ed2dca9a" />
        </symbol>
        <symbol
           overflow="visible"
           id="id-36d16430-7fc2-44d3-8f16-8fcd1b2fe888">
          <path
             style="stroke:none;stroke-width:0"
             d="m 3.296875,-1.90625 c 0,-0.4375 0,-2.078125 -1.46875,-2.078125 -1.46875,0 -1.46875,1.640625 -1.46875,2.078125 0,0.421875 0,2.03125 1.46875,2.03125 1.46875,0 1.46875,-1.609375 1.46875,-2.03125 z m -1.46875,1.84375 c -0.25,0 -0.65625,-0.125 -0.8125,-0.625 -0.09375,-0.34375 -0.09375,-0.921875 -0.09375,-1.296875 0,-0.40625 0,-0.859375 0.09375,-1.1875 0.140625,-0.53125 0.59375,-0.609375 0.8125,-0.609375 0.265625,0 0.671875,0.125 0.796875,0.578125 0.09375,0.3125 0.09375,0.75 0.09375,1.21875 0,0.375 0,0.984375 -0.09375,1.3125 C 2.453125,-0.140625 2.015625,-0.0625 1.828125,-0.0625 Z m 0,0"
             id="id-67282c90-e4d6-47d4-ad45-45ad8e9b55ec" />
        </symbol>
        <symbol
           overflow="visible"
           id="id-80423ded-f2d9-45fd-9079-73e790c49f58">
          <path
             style="stroke:none;stroke-width:0"
             d=""
             id="id-ca95238b-5172-4148-a0b1-664aebb99463" />
        </symbol>
        <symbol
           overflow="visible"
           id="id-2d96c757-847d-4783-9240-954587e1bdaf">
          <path
             style="stroke:none;stroke-width:0"
             d="M 3.0625,2.140625 C 3.0625,2.09375 3.03125,2.0625 2.984375,2 1.828125,0.9375 1.46875,-0.671875 1.46875,-2.25 1.46875,-3.625 1.734375,-5.3125 3,-6.515625 3.046875,-6.5625 3.0625,-6.578125 3.0625,-6.625 c 0,-0.0625 -0.046875,-0.109375 -0.109375,-0.109375 -0.109375,0 -0.921875,0.65625 -1.40625,1.625 C 1.125,-4.25 0.90625,-3.3125 0.90625,-2.25 c 0,0.640625 0.078125,1.671875 0.578125,2.71875 0.53125,1.109375 1.359375,1.765625 1.46875,1.765625 0.0625,0 0.109375,-0.03125 0.109375,-0.09375 z m 0,0"
             id="id-56257717-5de6-40c5-b752-07b8f015122b" />
        </symbol>
        <symbol
           overflow="visible"
           id="id-77ec1bb9-9f54-4b6d-b515-3d4a40fd3fed">
          <path
             style="stroke:none;stroke-width:0"
             d="M 2.671875,-2.25 C 2.671875,-2.984375 2.5625,-3.96875 2.09375,-4.96875 1.5625,-6.078125 0.734375,-6.734375 0.625,-6.734375 c -0.09375,0 -0.109375,0.078125 -0.109375,0.109375 0,0.046875 0.015625,0.0625 0.078125,0.125 0.53125,0.46875 1.515625,1.6875 1.515625,4.25 0,1.28125 -0.234375,3.0625 -1.53125,4.28125 -0.015625,0.015625 -0.0625,0.0625 -0.0625,0.109375 0,0.015625 0.015625,0.09375 0.109375,0.09375 0.109375,0 0.921875,-0.640625 1.40625,-1.625 C 2.453125,-0.25 2.671875,-1.171875 2.671875,-2.25 Z m 0,0"
             id="id-13757c27-f1b1-4b7e-947b-2f806e04c852" />
        </symbol>
      </g>
    </defs>
  </defs>
  <sodipodi:namedview
     id="base"
     pagecolor="#ffffff"
     bordercolor="#666666"
     borderopacity="1.0"
     inkscape:pageopacity="0.0"
     inkscape:pageshadow="2"
     inkscape:zoom="3.4558744"
     inkscape:cx="308.43825"
     inkscape:cy="392.61669"
     inkscape:document-units="mm"
     inkscape:current-layer="layer1"
     inkscape:document-rotation="0"
     showgrid="false"
     inkscape:window-width="1920"
     inkscape:window-height="1001"
     inkscape:window-x="-9"
     inkscape:window-y="-9"
     inkscape:window-maximized="1"
     inkscape:snap-bbox="true"
     inkscape:object-paths="true"
     inkscape:snap-intersection-paths="true"
     inkscape:snap-smooth-nodes="true"
     inkscape:snap-midpoints="true"
     inkscape:snap-object-midpoints="true"
     inkscape:snap-global="false">
    <inkscape:grid
       type="xygrid"
       id="grid7660" />
  </sodipodi:namedview>
  <metadata
     id="metadata7609">
    <rdf:RDF>
      <cc:Work
         rdf:about="">
        <dc:format>image/svg+xml</dc:format>
        <dc:type
           rdf:resource="http://purl.org/dc/dcmitype/StillImage" />
        <dc:title />
      </cc:Work>
    </rdf:RDF>
  </metadata>
  <g
     inkscape:label="图层 1"
     inkscape:groupmode="layer"
     id="layer1">
    <path
       style="fill:none;stroke:#000000;stroke-width:0.132292;stroke-linecap:butt;stroke-linejoin:miter;stroke-miterlimit:4;stroke-dasharray:none;stroke-opacity:1"
       d="m 94.117495,120.25313 1.151878,-1.15188"
       id="path8657" />
    <path
       style="fill:none;stroke:#000000;stroke-width:0.132292;stroke-linecap:butt;stroke-linejoin:miter;stroke-miterlimit:4;stroke-dasharray:none;stroke-opacity:1;marker-end:url(#marker1133)"
       d="M 59.531249,120.38541 H 106.07904"
       id="path22" />
    <path
       style="fill:none;stroke:#000000;stroke-width:0.132292;stroke-linecap:butt;stroke-linejoin:miter;stroke-miterlimit:4;stroke-dasharray:none;stroke-opacity:1;marker-end:url(#Arrow1Mend)"
       d="M 59.531249,120.38541 V 84.285394"
       id="path24" />
    <path
       style="fill:none;stroke:#000000;stroke-width:0.264583px;stroke-linecap:round;stroke-linejoin:miter;stroke-opacity:1"
       d="m 59.53125,104.51042 c 2.948114,-5.268518 9.047652,-4.28972 14.181437,-1.44565 5.133783,2.84407 9.606779,2.61095 14.079775,-0.0466 4.473006,-2.65758 5.794577,-3.310305 7.471945,-3.729925"
       id="path8852"
       sodipodi:nodetypes="cssc" />
    <g
       id="g8929">
      <path
         style="fill:none;stroke:#000000;stroke-width:0.132292;stroke-linecap:butt;stroke-linejoin:miter;stroke-miterlimit:4;stroke-dasharray:none;stroke-opacity:1"
         d="M 62.281976,120.33865 77.7875,104.775"
         id="path8639"
         sodipodi:nodetypes="cc" />
      <path
         style="fill:none;stroke:#000000;stroke-width:0.132292;stroke-linecap:butt;stroke-linejoin:miter;stroke-miterlimit:4;stroke-dasharray:none;stroke-opacity:1"
         d="M 66.336245,120.25313 81.491667,105.03959"
         id="path8641"
         sodipodi:nodetypes="cc" />
      <path
         style="fill:none;stroke:#000000;stroke-width:0.132292;stroke-linecap:butt;stroke-linejoin:miter;stroke-miterlimit:4;stroke-dasharray:none;stroke-opacity:1"
         d="M 70.304995,120.25313 87.047916,103.45209"
         id="path8643"
         sodipodi:nodetypes="cc" />
      <path
         style="fill:none;stroke:#000000;stroke-width:0.132292;stroke-linecap:butt;stroke-linejoin:miter;stroke-miterlimit:4;stroke-dasharray:none;stroke-opacity:1"
         d="M 74.273745,120.25313 95.25,99.218748"
         id="path8645"
         sodipodi:nodetypes="cc" />
      <path
         style="fill:none;stroke:#000000;stroke-width:0.132292;stroke-linecap:butt;stroke-linejoin:miter;stroke-miterlimit:4;stroke-dasharray:none;stroke-opacity:1"
         d="M 78.242495,120.25313 95.269373,103.22625"
         id="path8647" />
      <path
         style="fill:none;stroke:#000000;stroke-width:0.132292;stroke-linecap:butt;stroke-linejoin:miter;stroke-miterlimit:4;stroke-dasharray:none;stroke-opacity:1"
         d="M 82.211245,120.25313 95.269373,107.195"
         id="path8649" />
      <path
         style="fill:none;stroke:#000000;stroke-width:0.132292;stroke-linecap:butt;stroke-linejoin:miter;stroke-miterlimit:4;stroke-dasharray:none;stroke-opacity:1"
         d="m 86.179995,120.25313 9.089378,-9.08938"
         id="path8653" />
      <path
         style="fill:none;stroke:#000000;stroke-width:0.132292;stroke-linecap:butt;stroke-linejoin:miter;stroke-miterlimit:4;stroke-dasharray:none;stroke-opacity:1"
         d="m 90.063224,120.33865 5.206149,-5.20615"
         id="path8655" />
      <path
         style="fill:none;stroke:#000000;stroke-width:0.132292;stroke-linecap:butt;stroke-linejoin:miter;stroke-miterlimit:4;stroke-dasharray:none;stroke-opacity:1"
         d="m 95.25,120.38542 0,-21.093563"
         id="path7567"
         sodipodi:nodetypes="cc" />
      <path
         style="fill:none;stroke:#000000;stroke-width:0.132292;stroke-linecap:butt;stroke-linejoin:miter;stroke-miterlimit:4;stroke-dasharray:none;stroke-opacity:1"
         d="M 59.531249,119.0625 74.877083,103.71667"
         id="path8883"
         sodipodi:nodetypes="cc" />
      <path
         style="fill:none;stroke:#000000;stroke-width:0.132292;stroke-linecap:butt;stroke-linejoin:miter;stroke-miterlimit:4;stroke-dasharray:none;stroke-opacity:1"
         d="m 59.531249,115.09375 12.700001,-12.7"
         id="path8885"
         sodipodi:nodetypes="cc" />
      <path
         style="fill:none;stroke:#000000;stroke-width:0.132292;stroke-linecap:butt;stroke-linejoin:miter;stroke-miterlimit:4;stroke-dasharray:none;stroke-opacity:1"
         d="m 59.531249,111.125 9.789584,-9.78958"
         id="path8887"
         sodipodi:nodetypes="cc" />
      <path
         style="fill:none;stroke:#000000;stroke-width:0.132292;stroke-linecap:butt;stroke-linejoin:miter;stroke-miterlimit:4;stroke-dasharray:none;stroke-opacity:1"
         d="m 59.531249,107.15625 6.350001,-6.35"
         id="path8889"
         sodipodi:nodetypes="cc" />
    </g>
    <rect
       style="fill:#ffffff;stroke:none;stroke-width:0.132292;stroke-linecap:square;stroke-miterlimit:4;stroke-dasharray:none;stroke-opacity:1"
       id="rect8670"
       width="13.724774"
       height="9.9149647"
       x="70.537926"
       y="107.821" />
    <g
       id="g9409"
       transform="matrix(0.789921,0,0,0.789921,6.1842106,40.214401)"
       style="stroke-width:1.26595">
      <g
         style="fill:#000000;fill-opacity:1;stroke-width:1.26595"
         id="id-c99fb60d-7195-49af-864e-13658a971b6d"
         transform="matrix(0.352778,0,0,0.352778,-19.077498,39.960561)">
        <g
           transform="translate(290.043,136.975)"
           id="g9044"
           style="stroke-width:1.26595">
          <path
             style="stroke:none;stroke-width:0"
             d="M 8.25,0.453125 C 7.84375,0.484375 7.8125,0.796875 7.8125,0.890625 7.8125,1.1875 8.046875,1.34375 8.25,1.34375 8.46875,1.34375 8.703125,1.1875 8.703125,0.875 8.703125,0.390625 8.21875,0 7.6875,0 6.765625,0 6.25,1.1875 5.84375,2.5625 5.609375,3.34375 4.453125,7.828125 3.5,13.140625 3.34375,14 2.90625,16.46875 2.546875,17.828125 c -0.140625,0.515625 -0.515625,1.875 -1.03125,1.875 -0.078125,0 -0.34375,-0.01563 -0.5625,-0.21875 0.40625,-0.04687 0.453125,-0.359375 0.453125,-0.4375 0,-0.3125 -0.25,-0.453125 -0.453125,-0.453125 -0.203125,0 -0.4375,0.140625 -0.4375,0.453125 0,0.5 0.484375,0.875 1.015625,0.875 0.90625,0 1.4375,-1.1875 1.84375,-2.546875 0.234375,-0.796875 1.390625,-5.28125 2.34375,-10.578125 0.140625,-0.875 0.59375,-3.34375 0.9375,-4.6875 C 6.8125,1.59375 7.1875,0.21875 7.6875,0.21875 c 0.078125,0 0.34375,0.015625 0.5625,0.234375 z m 0,0"
             id="id-f3df6c56-19c7-4448-91fa-63a58068293e" />
        </g>
      </g>
      <g
         style="fill:#000000;fill-opacity:1;stroke-width:1.26595"
         id="id-7d9f8a83-75c7-452d-8311-57bc28a4ee3f"
         transform="matrix(0.352778,0,0,0.352778,-19.077498,39.960561)">
        <g
           transform="translate(299.258,139.438)"
           id="g9048"
           style="stroke-width:1.26595">
          <path
             style="stroke:none;stroke-width:0"
             d="m 1.609375,-2.34375 h 0.65625 c 0.109375,0 0.203125,0 0.203125,-0.140625 0,-0.09375 -0.078125,-0.09375 -0.1875,-0.09375 H 1.671875 L 1.875,-3.40625 c 0.03125,-0.09375 0.03125,-0.125 0.03125,-0.125 0,-0.15625 -0.109375,-0.203125 -0.21875,-0.203125 -0.0625,0 -0.21875,0.03125 -0.28125,0.234375 L 1.171875,-2.578125 H 0.53125 c -0.125,0 -0.125,0 -0.15625,0.015625 -0.03125,0.03125 -0.046875,0.109375 -0.046875,0.140625 0.015625,0.078125 0.0625,0.078125 0.1875,0.078125 H 1.125 l -0.359375,1.421875 c -0.03125,0.125 -0.078125,0.328125 -0.078125,0.40625 0,0.34375 0.3125,0.578125 0.671875,0.578125 0.6875,0 1.09375,-0.828125 1.09375,-0.921875 0,-0.015625 -0.015625,-0.09375 -0.109375,-0.09375 -0.078125,0 -0.09375,0.03125 -0.125,0.109375 -0.203125,0.453125 -0.546875,0.703125 -0.84375,0.703125 -0.21875,0 -0.21875,-0.21875 -0.21875,-0.296875 0,-0.078125 0,-0.09375 0.03125,-0.203125 z m 0,0"
             id="id-d952cea3-f0a2-4029-9aa2-527f2556a530" />
        </g>
      </g>
      <g
         style="fill:#000000;fill-opacity:1;stroke-width:1.26595"
         id="id-1bd936db-3933-47c6-adb1-f6bd9b8fc61c"
         transform="matrix(0.352778,0,0,0.352778,-19.077498,39.960561)">
        <g
           transform="translate(295.163,157.398)"
           id="g9052"
           style="stroke-width:1.26595">
          <path
             style="stroke:none;stroke-width:0"
             d="m 3.296875,-1.90625 c 0,-0.4375 0,-2.078125 -1.46875,-2.078125 -1.46875,0 -1.46875,1.640625 -1.46875,2.078125 0,0.421875 0,2.03125 1.46875,2.03125 1.46875,0 1.46875,-1.609375 1.46875,-2.03125 z m -1.46875,1.84375 c -0.25,0 -0.65625,-0.125 -0.8125,-0.625 -0.09375,-0.34375 -0.09375,-0.921875 -0.09375,-1.296875 0,-0.40625 0,-0.859375 0.09375,-1.1875 0.140625,-0.53125 0.59375,-0.609375 0.8125,-0.609375 0.265625,0 0.671875,0.125 0.796875,0.578125 0.09375,0.3125 0.09375,0.75 0.09375,1.21875 0,0.375 0,0.984375 -0.09375,1.3125 C 2.453125,-0.140625 2.015625,-0.0625 1.828125,-0.0625 Z m 0,0"
             id="id-1c419555-d206-4cab-846a-237a69fea1d5" />
        </g>
      </g>
      <g
         style="fill:#000000;fill-opacity:1;stroke-width:1.26595"
         id="id-17364759-230d-474c-b802-e0d02bbafa26"
         transform="matrix(0.352778,0,0,0.352778,-19.077498,39.960561)">
        <g
           transform="translate(304.143,149.179)"
           id="g9056"
           style="stroke-width:1.26595">
          <path
             style="stroke:none;stroke-width:0"
             d="M 3.421875,-3.40625 C 3.25,-3.734375 2.984375,-3.96875 2.578125,-3.96875 1.53125,-3.96875 0.375,-2.71875 0.375,-1.359375 0.375,-0.375 1,0.09375 1.609375,0.09375 c 0.578125,0 1.046875,-0.484375 1.203125,-0.65625 0.09375,0.5 0.546875,0.65625 0.828125,0.65625 0.265625,0 0.484375,-0.109375 0.6875,-0.484375 0.15625,-0.296875 0.28125,-0.859375 0.28125,-0.890625 0,-0.046875 -0.03125,-0.109375 -0.109375,-0.109375 -0.109375,0 -0.125,0.046875 -0.15625,0.21875 C 4.140625,-0.390625 3.953125,-0.125 3.671875,-0.125 c -0.234375,0 -0.28125,-0.21875 -0.28125,-0.40625 0,-0.171875 0.046875,-0.359375 0.125,-0.671875 L 3.734375,-2.125 C 3.796875,-2.34375 3.96875,-3.015625 4,-3.15625 c 0.03125,-0.125 0.09375,-0.34375 0.09375,-0.375 0,-0.140625 -0.125,-0.25 -0.28125,-0.25 -0.125,0 -0.34375,0.0625 -0.390625,0.375 z M 2.84375,-1.09375 C 2.796875,-0.921875 2.796875,-0.921875 2.65625,-0.75 2.328125,-0.359375 1.96875,-0.125 1.625,-0.125 c -0.4375,0 -0.578125,-0.453125 -0.578125,-0.84375 0,-0.4375 0.25,-1.46875 0.46875,-1.90625 0.28125,-0.53125 0.703125,-0.859375 1.0625,-0.859375 0.59375,0 0.734375,0.71875 0.734375,0.78125 0,0.03125 -0.015625,0.09375 -0.03125,0.125 z m 0,0"
             id="id-6e715348-19a8-48ae-870c-0900de60c43d" />
        </g>
      </g>
      <g
         style="fill:#000000;fill-opacity:1;stroke-width:1.26595"
         id="id-fddbed4b-0b16-4aa3-8c39-78f49cbfd783"
         transform="matrix(0.352778,0,0,0.352778,-19.077498,39.960561)">
        <g
           transform="translate(309.025,149.179)"
           id="g9060"
           style="stroke-width:1.26595">
          <path
             style="stroke:none;stroke-width:0"
             d="M 3.0625,2.140625 C 3.0625,2.09375 3.03125,2.0625 2.984375,2 1.828125,0.9375 1.46875,-0.671875 1.46875,-2.25 1.46875,-3.625 1.734375,-5.3125 3,-6.515625 3.046875,-6.5625 3.0625,-6.578125 3.0625,-6.625 c 0,-0.0625 -0.046875,-0.109375 -0.109375,-0.109375 -0.109375,0 -0.921875,0.65625 -1.40625,1.625 C 1.125,-4.25 0.90625,-3.3125 0.90625,-2.25 c 0,0.640625 0.078125,1.671875 0.578125,2.71875 0.53125,1.109375 1.359375,1.765625 1.46875,1.765625 0.0625,0 0.109375,-0.03125 0.109375,-0.09375 z m 0,0"
             id="id-ce37a81a-08d1-4a8b-801e-3210d7a3ae7a" />
        </g>
      </g>
      <g
         style="fill:#000000;fill-opacity:1;stroke-width:1.26595"
         id="id-d4350aec-a0ce-4c3d-bfc0-932f3c1f206b"
         transform="matrix(0.352778,0,0,0.352778,-19.077498,39.960561)">
        <g
           transform="translate(312.609,149.179)"
           id="g9064"
           style="stroke-width:1.26595">
          <path
             style="stroke:none;stroke-width:0"
             d="m 1.90625,-3.59375 h 0.859375 c 0.15625,0 0.265625,0 0.265625,-0.15625 0,-0.109375 -0.09375,-0.109375 -0.25,-0.109375 H 1.984375 l 0.359375,-1.5 c 0,-0.140625 -0.109375,-0.25 -0.265625,-0.25 -0.296875,0 -0.359375,0.25 -0.390625,0.34375 l -0.34375,1.40625 H 0.5 c -0.171875,0 -0.28125,0 -0.28125,0.15625 0,0.109375 0.09375,0.109375 0.25,0.109375 h 0.8125 l -0.625,2.453125 c -0.0625,0.265625 -0.0625,0.28125 -0.0625,0.40625 0,0.53125 0.40625,0.828125 0.875,0.828125 0.921875,0 1.453125,-1.28125 1.453125,-1.375 0,-0.046875 -0.03125,-0.109375 -0.109375,-0.109375 -0.09375,0 -0.109375,0.03125 -0.171875,0.1875 C 2.375,-0.5625 1.921875,-0.125 1.484375,-0.125 c -0.1875,0 -0.296875,-0.109375 -0.296875,-0.40625 0,-0.203125 0.03125,-0.3125 0.0625,-0.453125 z m 0,0"
             id="id-177725ee-d633-44b4-91b7-75ea78d81e42" />
        </g>
      </g>
      <g
         style="fill:#000000;fill-opacity:1;stroke-width:1.26595"
         id="id-a378c9bd-8b6a-4480-b5f1-d445772bcb4a"
         transform="matrix(0.352778,0,0,0.352778,-19.077498,39.960561)">
        <g
           transform="translate(315.936,149.179)"
           id="g9068"
           style="stroke-width:1.26595">
          <path
             style="stroke:none;stroke-width:0"
             d="M 2.671875,-2.25 C 2.671875,-2.984375 2.5625,-3.96875 2.09375,-4.96875 1.5625,-6.078125 0.734375,-6.734375 0.625,-6.734375 c -0.09375,0 -0.109375,0.078125 -0.109375,0.109375 0,0.046875 0.015625,0.0625 0.078125,0.125 0.53125,0.46875 1.515625,1.6875 1.515625,4.25 0,1.28125 -0.234375,3.0625 -1.53125,4.28125 -0.015625,0.015625 -0.0625,0.0625 -0.0625,0.109375 0,0.015625 0.015625,0.09375 0.109375,0.09375 0.109375,0 0.921875,-0.640625 1.40625,-1.625 C 2.453125,-0.25 2.671875,-1.171875 2.671875,-2.25 Z m 0,0"
             id="id-560c375a-4627-4b55-9e9e-7f2d2224acdd" />
        </g>
      </g>
      <g
         style="fill:#000000;fill-opacity:1;stroke-width:1.26595"
         id="id-ea21d554-19ff-4d7e-b508-5c97c3917eab"
         transform="matrix(0.352778,0,0,0.352778,-19.077498,39.960561)">
        <g
           transform="translate(319.52,149.179)"
           id="g9072"
           style="stroke-width:1.26595">
          <path
             style="stroke:none;stroke-width:0"
             d="m 4.703125,-5.921875 c 0.03125,-0.125 0.03125,-0.140625 0.03125,-0.171875 0,-0.078125 -0.046875,-0.125 -0.140625,-0.125 -0.125,0 -0.90625,0.0625 -1.09375,0.078125 -0.078125,0.015625 -0.1875,0.03125 -0.1875,0.171875 0,0.125 0.109375,0.125 0.25,0.125 0.421875,0 0.421875,0.0625 0.421875,0.140625 0,0.0625 -0.078125,0.375 -0.125,0.5625 L 3.6875,-4.453125 C 3.59375,-4.109375 3.5,-3.765625 3.421875,-3.40625 3.25,-3.734375 2.984375,-3.96875 2.578125,-3.96875 1.53125,-3.96875 0.375,-2.71875 0.375,-1.359375 0.375,-0.375 1,0.09375 1.609375,0.09375 c 0.578125,0 1.046875,-0.484375 1.203125,-0.65625 0.09375,0.5 0.546875,0.65625 0.828125,0.65625 0.265625,0 0.484375,-0.109375 0.6875,-0.484375 0.15625,-0.296875 0.28125,-0.859375 0.28125,-0.890625 0,-0.046875 -0.03125,-0.109375 -0.109375,-0.109375 -0.109375,0 -0.125,0.046875 -0.15625,0.21875 C 4.140625,-0.390625 3.953125,-0.125 3.671875,-0.125 c -0.234375,0 -0.28125,-0.21875 -0.28125,-0.40625 0,-0.125 0.046875,-0.375 0.046875,-0.40625 z M 2.84375,-1.078125 C 2.8125,-0.9375 2.796875,-0.921875 2.65625,-0.75 2.328125,-0.359375 1.96875,-0.125 1.625,-0.125 c -0.4375,0 -0.578125,-0.453125 -0.578125,-0.84375 0,-0.4375 0.25,-1.46875 0.46875,-1.90625 0.28125,-0.53125 0.703125,-0.859375 1.0625,-0.859375 0.59375,0 0.734375,0.71875 0.734375,0.765625 0,0.046875 -0.015625,0.09375 -0.03125,0.140625 z m 0,0"
             id="id-b7ff25de-077a-4396-b44b-0c8f9dc3ca8a" />
        </g>
        <g
           transform="translate(324.295,149.179)"
           id="g9075"
           style="stroke-width:1.26595">
          <path
             style="stroke:none;stroke-width:0"
             d="m 1.90625,-3.59375 h 0.859375 c 0.15625,0 0.265625,0 0.265625,-0.15625 0,-0.109375 -0.09375,-0.109375 -0.25,-0.109375 H 1.984375 l 0.359375,-1.5 c 0,-0.140625 -0.109375,-0.25 -0.265625,-0.25 -0.296875,0 -0.359375,0.25 -0.390625,0.34375 l -0.34375,1.40625 H 0.5 c -0.171875,0 -0.28125,0 -0.28125,0.15625 0,0.109375 0.09375,0.109375 0.25,0.109375 h 0.8125 l -0.625,2.453125 c -0.0625,0.265625 -0.0625,0.28125 -0.0625,0.40625 0,0.53125 0.40625,0.828125 0.875,0.828125 0.921875,0 1.453125,-1.28125 1.453125,-1.375 0,-0.046875 -0.03125,-0.109375 -0.109375,-0.109375 -0.09375,0 -0.109375,0.03125 -0.171875,0.1875 C 2.375,-0.5625 1.921875,-0.125 1.484375,-0.125 c -0.1875,0 -0.296875,-0.109375 -0.296875,-0.40625 0,-0.203125 0.03125,-0.3125 0.0625,-0.453125 z m 0,0"
             id="id-27aec1b4-8f9b-4330-9a9d-d11da0657c79" />
        </g>
      </g>
    </g>
    <text
       xml:space="preserve"
       style="font-style:italic;font-size:2.46944px;line-height:1.25;font-family:'Latin Modern Roman';-inkscape-font-specification:'Latin Modern Roman, Italic';stroke-width:0.264583"
       x="57.310955"
       y="87.382805"
       id="text969"><tspan
         sodipodi:role="line"
         id="tspan967"
         x="57.310955"
         y="87.382805"
         style="stroke-width:0.264583">a</tspan></text>
    <text
       xml:space="preserve"
       style="font-style:italic;font-size:2.46944px;line-height:1.25;font-family:'Latin Modern Roman';-inkscape-font-specification:'Latin Modern Roman, Italic';stroke-width:0.264583"
       x="56.756172"
       y="123.28267"
       id="text973"><tspan
         sodipodi:role="line"
         id="tspan971"
         x="56.756172"
         y="123.28267"
         style="stroke-width:0.264583">O</tspan></text>
    <text
       xml:space="preserve"
       style="font-style:italic;font-size:2.46944px;line-height:1.25;font-family:'Latin Modern Roman';-inkscape-font-specification:'Latin Modern Roman, Italic';stroke-width:0.264583"
       x="94.689041"
       y="123.86102"
       id="text977"><tspan
         sodipodi:role="line"
         id="tspan975"
         x="94.689041"
         y="123.86102"
         style="stroke-width:0.264583">t</tspan></text>
    <text
       xml:space="preserve"
       style="font-style:italic;font-size:2.46944px;line-height:1.25;font-family:'Latin Modern Roman';-inkscape-font-specification:'Latin Modern Roman, Italic';stroke-width:0.264583"
       x="102.15312"
       y="118.75146"
       id="text981"><tspan
         sodipodi:role="line"
         id="tspan979"
         x="102.15312"
         y="118.75146"
         style="stroke-width:0.264583">t</tspan></text>
  </g>
</svg>
