<?xml version="1.0" encoding="UTF-8" standalone="no"?>
<svg
   xmlns:dc="http://purl.org/dc/elements/1.1/"
   xmlns:cc="http://creativecommons.org/ns#"
   xmlns:rdf="http://www.w3.org/1999/02/22-rdf-syntax-ns#"
   xmlns:svg="http://www.w3.org/2000/svg"
   xmlns="http://www.w3.org/2000/svg"
   xmlns:sodipodi="http://sodipodi.sourceforge.net/DTD/sodipodi-0.dtd"
   xmlns:inkscape="http://www.inkscape.org/namespaces/inkscape"
   version="1.1"
   id="svg11386"
   width="415.13513"
   height="591.56757"
   viewBox="0 0 415.13513 591.56757"
   sodipodi:docname="fig01.30.svg"
   inkscape:version="1.0.1 (3bc2e813f5, 2020-09-07)">
  <metadata
     id="metadata11392">
    <rdf:RDF>
      <cc:Work
         rdf:about="">
        <dc:format>image/svg+xml</dc:format>
        <dc:type
           rdf:resource="http://purl.org/dc/dcmitype/StillImage" />
        <dc:title></dc:title>
      </cc:Work>
    </rdf:RDF>
  </metadata>
  <defs
     id="defs11390">
    <marker
       style="overflow:visible"
       id="Arrow1Mstart"
       refX="0.0"
       refY="0.0"
       orient="auto"
       inkscape:stockid="Arrow1Mstart"
       inkscape:isstock="true">
      <path
         transform="scale(0.4) translate(10,0)"
         style="fill-rule:evenodd;stroke:#000000;stroke-width:1pt;stroke-opacity:1;fill:#000000;fill-opacity:1"
         d="M 0.0,0.0 L 5.0,-5.0 L -12.5,0.0 L 5.0,5.0 L 0.0,0.0 z "
         id="path861" />
    </marker>
    <marker
       style="overflow:visible;"
       id="marker12054"
       refX="0.0"
       refY="0.0"
       orient="auto"
       inkscape:stockid="Arrow1Mend"
       inkscape:isstock="true">
      <path
         transform="scale(0.4) rotate(180) translate(10,0)"
         style="fill-rule:evenodd;stroke:#000000;stroke-width:1pt;stroke-opacity:1;fill:#000000;fill-opacity:1"
         d="M 0.0,0.0 L 5.0,-5.0 L -12.5,0.0 L 5.0,5.0 L 0.0,0.0 z "
         id="path12052" />
    </marker>
    <marker
       style="overflow:visible;"
       id="Arrow1Mend"
       refX="0.0"
       refY="0.0"
       orient="auto"
       inkscape:stockid="Arrow1Mend"
       inkscape:isstock="true">
      <path
         transform="scale(0.4) rotate(180) translate(10,0)"
         style="fill-rule:evenodd;stroke:#000000;stroke-width:1.0pt;"
         d="M 0.0,0.0 L 5.0,-5.0 L -12.5,0.0 L 5.0,5.0 L 0.0,0.0 z "
         id="path864" />
    </marker>
    <defs
       id="id-ea6c1fe1-fcb7-45a9-9f78-bddeb7809a0c">
      <g
         id="id-a5f5240a-c8bd-466c-b965-77c5ebe49d8c">
        <symbol
           overflow="visible"
           id="id-e4944062-4a8b-43a2-aafe-9295c46ef4ab">
          <path
             style="stroke:none;stroke-width:0"
             d=""
             id="id-855448dd-0048-4730-9d0b-36056f65e42b" />
        </symbol>
        <symbol
           overflow="visible"
           id="id-5b87919b-3c53-48bb-8230-471739055dd4">
          <path
             style="stroke:none;stroke-width:0"
             d="m 4.40625,-2.109375 c 0,-1.328125 -0.8125,-1.859375 -1.578125,-1.859375 -1.21875,0 -2.4375,1.25 -2.4375,2.53125 0,0.921875 0.625,1.53125 1.5,1.53125 0.96875,0 1.703125,-0.5625 1.9375,-0.75 0.109375,0.453125 0.40625,0.75 0.84375,0.75 0.484375,0 0.78125,-0.46875 0.78125,-0.625 0,-0.109375 -0.09375,-0.109375 -0.125,-0.109375 -0.09375,0 -0.109375,0.046875 -0.140625,0.125 -0.09375,0.25 -0.328125,0.390625 -0.484375,0.390625 -0.296875,0 -0.296875,-0.796875 -0.296875,-0.984375 0,-0.109375 0,-0.125 0.09375,-0.234375 0.140625,-0.1875 0.390625,-0.5 0.625,-0.953125 0.265625,-0.53125 0.40625,-1.078125 0.40625,-1.125 0,-0.015625 0,-0.109375 -0.109375,-0.109375 -0.109375,0 -0.109375,0.03125 -0.15625,0.171875 -0.09375,0.3125 -0.296875,1 -0.859375,1.75 z m -0.625,1.1875 C 3.546875,-0.71875 2.828125,-0.125 1.90625,-0.125 c -0.5,0 -0.828125,-0.328125 -0.828125,-0.984375 0,-0.375 0.171875,-1.265625 0.53125,-1.84375 0.234375,-0.359375 0.703125,-0.78125 1.21875,-0.78125 0.609375,0 0.796875,0.53125 0.890625,1.078125 0.0625,0.484375 0.015625,1.34375 0.0625,1.734375 z m 0,0"
             id="id-3a6f185a-53e4-4ae9-8fcd-1e8437ef54da" />
        </symbol>
        <symbol
           overflow="visible"
           id="id-80d7f08e-8847-430c-8d7a-53713b7b3b99">
          <path
             style="stroke:none;stroke-width:0"
             d="m 4.171875,-4.4375 c 0,-0.921875 -0.296875,-1.890625 -1.125,-1.890625 -1.3125,0 -2.671875,2.5625 -2.671875,4.546875 0,0.65625 0.1875,1.875 1.125,1.875 1.3125,0 2.671875,-2.53125 2.671875,-4.53125 z M 1.34375,-3.25 c 0.1875,-0.71875 0.375,-1.375 0.734375,-1.984375 0.21875,-0.359375 0.546875,-0.859375 0.96875,-0.859375 0.484375,0 0.515625,0.765625 0.515625,1.109375 0,0.53125 -0.140625,1.15625 -0.28125,1.734375 z m 1.859375,0.28125 C 3.0625,-2.40625 2.890625,-1.734375 2.53125,-1.09375 2.296875,-0.671875 1.9375,-0.125 1.5,-0.125 1.125,-0.125 1,-0.59375 1,-1.25 1,-1.828125 1.140625,-2.40625 1.28125,-2.96875 Z m 0,0"
             id="id-4bbb0003-8c3e-448a-a80b-1bc8c3325d28" />
        </symbol>
      </g>
    </defs>
  </defs>
  <sodipodi:namedview
     pagecolor="#ffffff"
     bordercolor="#666666"
     borderopacity="1"
     objecttolerance="10"
     gridtolerance="10"
     guidetolerance="10"
     inkscape:pageopacity="0"
     inkscape:pageshadow="2"
     inkscape:window-width="1366"
     inkscape:window-height="705"
     id="namedview11388"
     showgrid="true"
     inkscape:object-paths="true"
     inkscape:snap-intersection-paths="true"
     inkscape:snap-smooth-nodes="true"
     inkscape:snap-midpoints="true"
     inkscape:zoom="4.8296498"
     inkscape:cx="215.00001"
     inkscape:cy="102.28703"
     inkscape:window-x="-8"
     inkscape:window-y="-8"
     inkscape:window-maximized="1"
     inkscape:current-layer="g11394"
     inkscape:document-rotation="0"
     inkscape:snap-global="false">
    <inkscape:grid
       type="xygrid"
       id="grid11412" />
  </sodipodi:namedview>
  <g
     inkscape:groupmode="layer"
     inkscape:label="Image"
     id="g11394">
    <path
       style="fill:none;stroke:#000000;stroke-width:1px;stroke-linecap:butt;stroke-linejoin:miter;stroke-opacity:1"
       d="M 325,155 H 105"
       id="path11414" />
    <path
       style="fill:none;stroke:#000000;stroke-width:1px;stroke-linecap:butt;stroke-linejoin:miter;stroke-opacity:1"
       d="M 325.00001,155 105,90"
       id="path11420" />
    <path
       style="fill:none;stroke:#000000;stroke-width:0.5;stroke-linecap:butt;stroke-linejoin:miter;stroke-opacity:1;stroke-miterlimit:4;stroke-dasharray:none"
       d="M 304.20189,148.8551 318.63634,100"
       id="path11422" />
    <path
       style="fill:none;stroke:#000000;stroke-width:0.5;stroke-linecap:butt;stroke-linejoin:miter;stroke-opacity:1;stroke-miterlimit:4;stroke-dasharray:none"
       d="M 131,98 145.43445,49.1449"
       id="path11422-9" />
    <path
       id="path12015"
       clip-path="none"
       style="fill:none;stroke:#000000;stroke-width:1;stroke-opacity:1;stroke-miterlimit:4;stroke-dasharray:6,2;stroke-dashoffset:0"
       d="m 304.20189,148.8551 c -9.52728,-9.57768 -19.91693,-19.02169 -32.06697,-28.07524 -15.28587,-11.06569 -32.70089,-22.43781 -59.20052,-29.531712 -16.25155,-4.46855 -38.12555,-5.276918 -55.50035,-1.409417 -9.52198,2.163205 -18.02438,4.407485 -26.34759,7.868632"
       sodipodi:nodetypes="ccccc" />
    <path
       style="fill:none;stroke:#000000;stroke-width:1px;stroke-linecap:butt;stroke-linejoin:miter;stroke-opacity:1;marker-end:url(#Arrow1Mend)"
       d="M 131.08646,97.707363 170,82"
       id="path12028"
       sodipodi:nodetypes="cc" />
    <path
       style="fill:none;stroke:#000000;stroke-width:0.5;stroke-linecap:butt;stroke-linejoin:miter;stroke-opacity:1;stroke-miterlimit:4;stroke-dasharray:3,1;stroke-dashoffset:0"
       d="M 131.08646,97.707363 H 182"
       id="path12044" />
    <path
       style="fill:none;stroke:#000000;stroke-width:0.5;stroke-miterlimit:4;stroke-dasharray:none;stroke-dashoffset:0;stroke-opacity:1"
       id="path12046"
       sodipodi:type="arc"
       sodipodi:cx="325"
       sodipodi:cy="155"
       sodipodi:rx="45"
       sodipodi:ry="45"
       sodipodi:start="3.1355777"
       sodipodi:end="3.4319565"
       sodipodi:open="true"
       sodipodi:arc-type="arc"
       d="m 280.00081,155.27067 a 45,45 0 0 1 1.8829,-13.15421" />
    <path
       style="fill:none;stroke:#000000;stroke-width:0.5;stroke-miterlimit:4;stroke-dasharray:none;stroke-dashoffset:0;stroke-opacity:1"
       id="path12048"
       sodipodi:type="arc"
       sodipodi:cx="131.08646"
       sodipodi:cy="97.707359"
       sodipodi:rx="27.292641"
       sodipodi:ry="27.292641"
       sodipodi:start="5.894643"
       sodipodi:end="0"
       sodipodi:arc-type="arc"
       d="m 156.34477,87.367821 a 27.292641,27.292641 0 0 1 2.03433,10.339538"
       sodipodi:open="true" />
    <path
       style="fill:none;stroke:#000000;stroke-width:0.5;stroke-linecap:butt;stroke-linejoin:miter;stroke-miterlimit:4;stroke-dasharray:none;stroke-opacity:1;marker-start:url(#Arrow1Mstart);marker-end:url(#marker12054)"
       d="M 143.42318,58.815322 314.96235,109.33988"
       id="path12050"
       sodipodi:nodetypes="cc" />
    <text
       xml:space="preserve"
       style="font-style:italic;font-variant:normal;font-weight:normal;font-stretch:normal;font-size:12px;line-height:1.25;font-family:sans-serif;-inkscape-font-specification:'sans-serif Italic';text-align:center;text-anchor:middle"
       x="142.81798"
       y="82.254143"
       id="text12192"><tspan
         sodipodi:role="line"
         id="tspan12190"
         x="142.81798"
         y="82.254143" /></text>
    <text
       xml:space="preserve"
       style="font-style:italic;font-size:12px;line-height:1.25;font-family:'Latin Modern Roman';-inkscape-font-specification:'Latin Modern Roman, Italic';text-align:center;text-anchor:middle"
       x="105.78708"
       y="134.70605"
       id="text12206"
       transform="rotate(-22.016164)"><tspan
         sodipodi:role="line"
         id="tspan12204"
         x="105.78708"
         y="134.70605">v<tspan
   style="font-style:normal;font-variant:normal;font-weight:normal;font-stretch:normal;font-size:65%;font-family:'Latin Modern Roman';-inkscape-font-specification:'Latin Modern Roman, ';baseline-shift:sub"
   id="tspan12208">0</tspan></tspan></text>
    <g
       id="g12244"
       transform="rotate(16.822252,199.20112,142.62168)"
       style="stroke:none;stroke-opacity:1">
      <rect
         style="fill:#ffffff;stroke:none;stroke-width:0.5;stroke-miterlimit:4;stroke-dasharray:3, 1;stroke-dashoffset:0;stroke-opacity:1"
         id="rect12236"
         width="15.529077"
         height="11.387989"
         x="203.20193"
         y="72.209183" />
      <text
         xml:space="preserve"
         style="font-size:12px;line-height:1.25;font-family:sans-serif;-inkscape-font-specification:'sans-serif, Normal';text-align:center;text-anchor:middle;stroke:none;stroke-opacity:1"
         x="210.45047"
         y="80.489174"
         id="text12202"><tspan
           sodipodi:role="line"
           id="tspan12200"
           x="210.45047"
           y="80.489174"
           style="font-style:italic;font-variant:normal;font-weight:normal;font-stretch:normal;font-family:'Latin Modern Roman';-inkscape-font-specification:'Latin Modern Roman, Italic';stroke:none;stroke-opacity:1">s</tspan></text>
    </g>
    <g
       style="fill:#000000;fill-opacity:1"
       id="id-e8e79c3b-f241-44e0-af67-688d0f6bc31e"
       transform="matrix(1.33333,0,0,1.33333,70.238455,-29.140528)">
      <g
         transform="translate(148.712,134.765)"
         id="g12320">
        <path
           style="stroke:none;stroke-width:0"
           d="m 4.40625,-2.109375 c 0,-1.328125 -0.8125,-1.859375 -1.578125,-1.859375 -1.21875,0 -2.4375,1.25 -2.4375,2.53125 0,0.921875 0.625,1.53125 1.5,1.53125 0.96875,0 1.703125,-0.5625 1.9375,-0.75 0.109375,0.453125 0.40625,0.75 0.84375,0.75 0.484375,0 0.78125,-0.46875 0.78125,-0.625 0,-0.109375 -0.09375,-0.109375 -0.125,-0.109375 -0.09375,0 -0.109375,0.046875 -0.140625,0.125 -0.09375,0.25 -0.328125,0.390625 -0.484375,0.390625 -0.296875,0 -0.296875,-0.796875 -0.296875,-0.984375 0,-0.109375 0,-0.125 0.09375,-0.234375 0.140625,-0.1875 0.390625,-0.5 0.625,-0.953125 0.265625,-0.53125 0.40625,-1.078125 0.40625,-1.125 0,-0.015625 0,-0.109375 -0.109375,-0.109375 -0.109375,0 -0.109375,0.03125 -0.15625,0.171875 -0.09375,0.3125 -0.296875,1 -0.859375,1.75 z m -0.625,1.1875 C 3.546875,-0.71875 2.828125,-0.125 1.90625,-0.125 c -0.5,0 -0.828125,-0.328125 -0.828125,-0.984375 0,-0.375 0.171875,-1.265625 0.53125,-1.84375 0.234375,-0.359375 0.703125,-0.78125 1.21875,-0.78125 0.609375,0 0.796875,0.53125 0.890625,1.078125 0.0625,0.484375 0.015625,1.34375 0.0625,1.734375 z m 0,0"
           id="id-54ba2019-0b39-4a4c-a1f0-af06b207001b" />
      </g>
    </g>
    <g
       style="fill:#000000;fill-opacity:1"
       id="id-6d824809-f78d-4bc5-a58c-5a78d73f9554"
       transform="matrix(1.33333,0,0,1.33333,-50.681287,-82.97466)">
      <g
         transform="translate(160.769,134.765)"
         id="g12324">
        <path
           style="stroke:none;stroke-width:0"
           d="m 4.171875,-4.4375 c 0,-0.921875 -0.296875,-1.890625 -1.125,-1.890625 -1.3125,0 -2.671875,2.5625 -2.671875,4.546875 0,0.65625 0.1875,1.875 1.125,1.875 1.3125,0 2.671875,-2.53125 2.671875,-4.53125 z M 1.34375,-3.25 c 0.1875,-0.71875 0.375,-1.375 0.734375,-1.984375 0.21875,-0.359375 0.546875,-0.859375 0.96875,-0.859375 0.484375,0 0.515625,0.765625 0.515625,1.109375 0,0.53125 -0.140625,1.15625 -0.28125,1.734375 z m 1.859375,0.28125 C 3.0625,-2.40625 2.890625,-1.734375 2.53125,-1.09375 2.296875,-0.671875 1.9375,-0.125 1.5,-0.125 1.125,-0.125 1,-0.59375 1,-1.25 1,-1.828125 1.140625,-2.40625 1.28125,-2.96875 Z m 0,0"
           id="id-9477e0e2-c06f-4ac3-aec1-80823da65bed" />
      </g>
    </g>
  </g>
</svg>
