<?xml version="1.0" encoding="UTF-8" standalone="no"?>
<svg
   xmlns:ns3="http://www.iki.fi/pav/software/textext/"
   xmlns:dc="http://purl.org/dc/elements/1.1/"
   xmlns:cc="http://creativecommons.org/ns#"
   xmlns:rdf="http://www.w3.org/1999/02/22-rdf-syntax-ns#"
   xmlns:svg="http://www.w3.org/2000/svg"
   xmlns="http://www.w3.org/2000/svg"
   xmlns:sodipodi="http://sodipodi.sourceforge.net/DTD/sodipodi-0.dtd"
   xmlns:inkscape="http://www.inkscape.org/namespaces/inkscape"
   sodipodi:docname="fig01.24.svg"
   inkscape:version="1.0.1 (3bc2e813f5, 2020-09-07)"
   id="svg1338"
   version="1.1"
   viewBox="0 0 210 297"
   height="297mm"
   width="210mm">
  <defs
     id="defs1332">
    <marker
       style="overflow:visible"
       id="marker1133"
       refX="0"
       refY="0"
       orient="auto"
       inkscape:stockid="Arrow1Mend"
       inkscape:isstock="true">
      <path
         transform="matrix(-0.4,0,0,-0.4,-4,0)"
         style="fill:#000000;fill-opacity:1;fill-rule:evenodd;stroke:#000000;stroke-width:1pt;stroke-opacity:1"
         d="M 0,0 5,-5 -12.5,0 5,5 Z"
         id="path1131" />
    </marker>
    <marker
       style="overflow:visible"
       id="Arrow1Mend"
       refX="0"
       refY="0"
       orient="auto"
       inkscape:stockid="Arrow1Mend"
       inkscape:isstock="true"
       inkscape:collect="always">
      <path
         transform="matrix(-0.4,0,0,-0.4,-4,0)"
         style="fill:#000000;fill-opacity:1;fill-rule:evenodd;stroke:#000000;stroke-width:1pt;stroke-opacity:1"
         d="M 0,0 5,-5 -12.5,0 5,5 Z"
         id="path864" />
    </marker>
    <g
       id="g9042">
      <symbol
         overflow="visible"
         id="symbol2230">
        <path
           style="stroke:none;"
           d=""
           id="path3086" />
      </symbol>
      <symbol
         overflow="visible"
         id="symbol3648">
        <path
           style="stroke:none;"
           d="M 4.40625 -6.953125 C 4.34375 -7.09375 4.3125 -7.140625 4.140625 -7.140625 C 3.984375 -7.140625 3.953125 -7.09375 3.890625 -6.953125 L 0.515625 -0.203125 C 0.46875 -0.109375 0.46875 -0.09375 0.46875 -0.078125 C 0.46875 0 0.53125 0 0.6875 0 L 7.609375 0 C 7.765625 0 7.828125 0 7.828125 -0.078125 C 7.828125 -0.09375 7.828125 -0.109375 7.78125 -0.203125 Z M 3.828125 -6.140625 L 6.515625 -0.75 L 1.140625 -0.75 Z M 3.828125 -6.140625 "
           id="path1493" />
      </symbol>
      <symbol
         overflow="visible"
         id="symbol4960">
        <path
           style="stroke:none;"
           d=""
           id="path9157" />
      </symbol>
      <symbol
         overflow="visible"
         id="symbol5818">
        <path
           style="stroke:none;"
           d="M 3.328125 -3.015625 C 3.390625 -3.265625 3.625 -4.1875 4.3125 -4.1875 C 4.359375 -4.1875 4.609375 -4.1875 4.8125 -4.0625 C 4.53125 -4 4.34375 -3.765625 4.34375 -3.515625 C 4.34375 -3.359375 4.453125 -3.171875 4.71875 -3.171875 C 4.9375 -3.171875 5.25 -3.34375 5.25 -3.75 C 5.25 -4.265625 4.671875 -4.40625 4.328125 -4.40625 C 3.75 -4.40625 3.40625 -3.875 3.28125 -3.65625 C 3.03125 -4.3125 2.5 -4.40625 2.203125 -4.40625 C 1.171875 -4.40625 0.59375 -3.125 0.59375 -2.875 C 0.59375 -2.765625 0.703125 -2.765625 0.71875 -2.765625 C 0.796875 -2.765625 0.828125 -2.796875 0.84375 -2.875 C 1.1875 -3.9375 1.84375 -4.1875 2.1875 -4.1875 C 2.375 -4.1875 2.71875 -4.09375 2.71875 -3.515625 C 2.71875 -3.203125 2.546875 -2.546875 2.1875 -1.140625 C 2.03125 -0.53125 1.671875 -0.109375 1.234375 -0.109375 C 1.171875 -0.109375 0.953125 -0.109375 0.734375 -0.234375 C 0.984375 -0.296875 1.203125 -0.5 1.203125 -0.78125 C 1.203125 -1.046875 0.984375 -1.125 0.84375 -1.125 C 0.53125 -1.125 0.296875 -0.875 0.296875 -0.546875 C 0.296875 -0.09375 0.78125 0.109375 1.21875 0.109375 C 1.890625 0.109375 2.25 -0.59375 2.265625 -0.640625 C 2.390625 -0.28125 2.75 0.109375 3.34375 0.109375 C 4.375 0.109375 4.9375 -1.171875 4.9375 -1.421875 C 4.9375 -1.53125 4.859375 -1.53125 4.828125 -1.53125 C 4.734375 -1.53125 4.71875 -1.484375 4.6875 -1.421875 C 4.359375 -0.34375 3.6875 -0.109375 3.375 -0.109375 C 2.984375 -0.109375 2.828125 -0.421875 2.828125 -0.765625 C 2.828125 -0.984375 2.875 -1.203125 2.984375 -1.640625 Z M 3.328125 -3.015625 "
           id="path7404" />
      </symbol>
      <symbol
         overflow="visible"
         id="symbol4593">
        <path
           style="stroke:none;"
           d=""
           id="path7912" />
      </symbol>
      <symbol
         overflow="visible"
         id="symbol1917">
        <path
           style="stroke:none;"
           d="M 2.328125 -4.4375 C 2.328125 -4.625 2.328125 -4.625 2.125 -4.625 C 1.671875 -4.1875 1.046875 -4.1875 0.765625 -4.1875 L 0.765625 -3.9375 C 0.921875 -3.9375 1.390625 -3.9375 1.765625 -4.125 L 1.765625 -0.578125 C 1.765625 -0.34375 1.765625 -0.25 1.078125 -0.25 L 0.8125 -0.25 L 0.8125 0 C 0.9375 0 1.796875 -0.03125 2.046875 -0.03125 C 2.265625 -0.03125 3.140625 0 3.296875 0 L 3.296875 -0.25 L 3.03125 -0.25 C 2.328125 -0.25 2.328125 -0.34375 2.328125 -0.578125 Z M 2.328125 -4.4375 "
           id="path871" />
      </symbol>
    </g>
    <defs
       id="id-43fa0053-6f5d-43b6-ae86-bb5058348a31">
      <g
         id="id-eaacd2c3-8d8d-4b3f-911e-8eecbcf5d7ff">
        <symbol
           overflow="visible"
           id="id-43e49aac-7fc2-4580-a27d-2cf4e0a7e747">
          <path
             style="stroke:none;stroke-width:0"
             d=""
             id="id-98636dfb-48ac-430d-b8c1-639daa26e275" />
        </symbol>
        <symbol
           overflow="visible"
           id="id-1f056cae-b817-42b1-a484-0168c419e6bf">
          <path
             style="stroke:none;stroke-width:0"
             d="M 8.25,0.453125 C 7.84375,0.484375 7.8125,0.796875 7.8125,0.890625 7.8125,1.1875 8.046875,1.34375 8.25,1.34375 8.46875,1.34375 8.703125,1.1875 8.703125,0.875 8.703125,0.390625 8.21875,0 7.6875,0 6.765625,0 6.25,1.1875 5.84375,2.5625 5.609375,3.34375 4.453125,7.828125 3.5,13.140625 3.34375,14 2.90625,16.46875 2.546875,17.828125 c -0.140625,0.515625 -0.515625,1.875 -1.03125,1.875 -0.078125,0 -0.34375,-0.01563 -0.5625,-0.21875 0.40625,-0.04687 0.453125,-0.359375 0.453125,-0.4375 0,-0.3125 -0.25,-0.453125 -0.453125,-0.453125 -0.203125,0 -0.4375,0.140625 -0.4375,0.453125 0,0.5 0.484375,0.875 1.015625,0.875 0.90625,0 1.4375,-1.1875 1.84375,-2.546875 0.234375,-0.796875 1.390625,-5.28125 2.34375,-10.578125 0.140625,-0.875 0.59375,-3.34375 0.9375,-4.6875 C 6.8125,1.59375 7.1875,0.21875 7.6875,0.21875 c 0.078125,0 0.34375,0.015625 0.5625,0.234375 z m 0,0"
             id="id-090e69fe-f2c0-47a3-8e95-b18a8b6bed6b" />
        </symbol>
        <symbol
           overflow="visible"
           id="id-ba87b61f-c75c-4734-be53-debafbac8ced">
          <path
             style="stroke:none;stroke-width:0"
             d=""
             id="id-5db46020-f48f-469a-b2ac-bbff81d55a28" />
        </symbol>
        <symbol
           overflow="visible"
           id="id-d9f5afb0-c0b1-4bd7-bca5-4c9465f37e80">
          <path
             style="stroke:none;stroke-width:0"
             d="m 1.609375,-2.34375 h 0.65625 c 0.109375,0 0.203125,0 0.203125,-0.140625 0,-0.09375 -0.078125,-0.09375 -0.1875,-0.09375 H 1.671875 L 1.875,-3.40625 c 0.03125,-0.09375 0.03125,-0.125 0.03125,-0.125 0,-0.15625 -0.109375,-0.203125 -0.21875,-0.203125 -0.0625,0 -0.21875,0.03125 -0.28125,0.234375 L 1.171875,-2.578125 H 0.53125 c -0.125,0 -0.125,0 -0.15625,0.015625 -0.03125,0.03125 -0.046875,0.109375 -0.046875,0.140625 0.015625,0.078125 0.0625,0.078125 0.1875,0.078125 H 1.125 l -0.359375,1.421875 c -0.03125,0.125 -0.078125,0.328125 -0.078125,0.40625 0,0.34375 0.3125,0.578125 0.671875,0.578125 0.6875,0 1.09375,-0.828125 1.09375,-0.921875 0,-0.015625 -0.015625,-0.09375 -0.109375,-0.09375 -0.078125,0 -0.09375,0.03125 -0.125,0.109375 -0.203125,0.453125 -0.546875,0.703125 -0.84375,0.703125 -0.21875,0 -0.21875,-0.21875 -0.21875,-0.296875 0,-0.078125 0,-0.09375 0.03125,-0.203125 z m 0,0"
             id="id-00a3c6f8-bac2-4e60-876f-796fcf6c3f0c" />
        </symbol>
        <symbol
           overflow="visible"
           id="id-9ed8cf89-ce94-437a-a9dd-e1355f45bec0">
          <path
             style="stroke:none;stroke-width:0"
             d=""
             id="id-4f811cf4-e58a-41fe-a04a-e385b2fd0df9" />
        </symbol>
        <symbol
           overflow="visible"
           id="id-e7c1e260-372d-48f8-865b-f12d849a58b8">
          <path
             style="stroke:none;stroke-width:0"
             d="m 3.296875,-1.90625 c 0,-0.4375 0,-2.078125 -1.46875,-2.078125 -1.46875,0 -1.46875,1.640625 -1.46875,2.078125 0,0.421875 0,2.03125 1.46875,2.03125 1.46875,0 1.46875,-1.609375 1.46875,-2.03125 z m -1.46875,1.84375 c -0.25,0 -0.65625,-0.125 -0.8125,-0.625 -0.09375,-0.34375 -0.09375,-0.921875 -0.09375,-1.296875 0,-0.40625 0,-0.859375 0.09375,-1.1875 0.140625,-0.53125 0.59375,-0.609375 0.8125,-0.609375 0.265625,0 0.671875,0.125 0.796875,0.578125 0.09375,0.3125 0.09375,0.75 0.09375,1.21875 0,0.375 0,0.984375 -0.09375,1.3125 C 2.453125,-0.140625 2.015625,-0.0625 1.828125,-0.0625 Z m 0,0"
             id="id-a50c1113-6117-4e8d-bfd6-10ea25b78100" />
        </symbol>
        <symbol
           overflow="visible"
           id="id-f77d847a-1d1d-4501-9fee-c29b7fe1f07c">
          <path
             style="stroke:none;stroke-width:0"
             d=""
             id="id-b4ae628f-c6c3-429d-bbaa-ec204c0d48b6" />
        </symbol>
        <symbol
           overflow="visible"
           id="id-c0e6843d-1ebf-402d-b108-5e3bd64d8053">
          <path
             style="stroke:none;stroke-width:0"
             d="m 4.3125,-3.3125 c 0,-0.625 -0.328125,-0.65625 -0.40625,-0.65625 -0.234375,0 -0.46875,0.234375 -0.46875,0.4375 0,0.140625 0.09375,0.21875 0.15625,0.265625 0.234375,0.21875 0.3125,0.515625 0.3125,0.75 0,0.390625 -0.5625,2.390625 -1.59375,2.390625 -0.6875,0 -0.6875,-0.625 -0.6875,-0.796875 0,-0.375 0.140625,-0.84375 0.453125,-1.65625 0.140625,-0.375 0.171875,-0.46875 0.171875,-0.625 0,-0.453125 -0.328125,-0.765625 -0.765625,-0.765625 -0.859375,0 -1.21875,1.28125 -1.21875,1.390625 0,0.078125 0.0625,0.109375 0.125,0.109375 0.09375,0 0.109375,-0.0625 0.140625,-0.171875 0.1875,-0.65625 0.546875,-1.09375 0.921875,-1.09375 0.171875,0 0.21875,0.109375 0.21875,0.296875 0,0.140625 -0.046875,0.3125 -0.125,0.515625 -0.3125,0.875 -0.53125,1.4375 -0.53125,1.890625 0,0.84375 0.640625,1.125 1.25,1.125 1.515625,0 2.046875,-2.828125 2.046875,-3.40625 z m 0,0"
             id="id-f58aa494-fa2e-4420-a689-be8e76ded74b" />
        </symbol>
        <symbol
           overflow="visible"
           id="id-6f9c955d-eb88-4a8e-bb6b-ca889dbf826d">
          <path
             style="stroke:none;stroke-width:0"
             d="m 1.90625,-3.59375 h 0.859375 c 0.15625,0 0.265625,0 0.265625,-0.15625 0,-0.109375 -0.09375,-0.109375 -0.25,-0.109375 H 1.984375 l 0.359375,-1.5 c 0,-0.140625 -0.109375,-0.25 -0.265625,-0.25 -0.296875,0 -0.359375,0.25 -0.390625,0.34375 l -0.34375,1.40625 H 0.5 c -0.171875,0 -0.28125,0 -0.28125,0.15625 0,0.109375 0.09375,0.109375 0.25,0.109375 h 0.8125 l -0.625,2.453125 c -0.0625,0.265625 -0.0625,0.28125 -0.0625,0.40625 0,0.53125 0.40625,0.828125 0.875,0.828125 0.921875,0 1.453125,-1.28125 1.453125,-1.375 0,-0.046875 -0.03125,-0.109375 -0.109375,-0.109375 -0.09375,0 -0.109375,0.03125 -0.171875,0.1875 C 2.375,-0.5625 1.921875,-0.125 1.484375,-0.125 c -0.1875,0 -0.296875,-0.109375 -0.296875,-0.40625 0,-0.203125 0.03125,-0.3125 0.0625,-0.453125 z m 0,0"
             id="id-4ef85e13-16e7-49af-8169-1e7f6df9306d" />
        </symbol>
        <symbol
           overflow="visible"
           id="id-77b38404-f39c-4b49-873c-777070dade92">
          <path
             style="stroke:none;stroke-width:0"
             d="m 4.703125,-5.921875 c 0.03125,-0.125 0.03125,-0.140625 0.03125,-0.171875 0,-0.078125 -0.046875,-0.125 -0.140625,-0.125 -0.125,0 -0.90625,0.0625 -1.09375,0.078125 -0.078125,0.015625 -0.1875,0.03125 -0.1875,0.171875 0,0.125 0.109375,0.125 0.25,0.125 0.421875,0 0.421875,0.0625 0.421875,0.140625 0,0.0625 -0.078125,0.375 -0.125,0.5625 L 3.6875,-4.453125 C 3.59375,-4.109375 3.5,-3.765625 3.421875,-3.40625 3.25,-3.734375 2.984375,-3.96875 2.578125,-3.96875 1.53125,-3.96875 0.375,-2.71875 0.375,-1.359375 0.375,-0.375 1,0.09375 1.609375,0.09375 c 0.578125,0 1.046875,-0.484375 1.203125,-0.65625 0.09375,0.5 0.546875,0.65625 0.828125,0.65625 0.265625,0 0.484375,-0.109375 0.6875,-0.484375 0.15625,-0.296875 0.28125,-0.859375 0.28125,-0.890625 0,-0.046875 -0.03125,-0.109375 -0.109375,-0.109375 -0.109375,0 -0.125,0.046875 -0.15625,0.21875 C 4.140625,-0.390625 3.953125,-0.125 3.671875,-0.125 c -0.234375,0 -0.28125,-0.21875 -0.28125,-0.40625 0,-0.125 0.046875,-0.375 0.046875,-0.40625 z M 2.84375,-1.078125 C 2.8125,-0.9375 2.796875,-0.921875 2.65625,-0.75 2.328125,-0.359375 1.96875,-0.125 1.625,-0.125 c -0.4375,0 -0.578125,-0.453125 -0.578125,-0.84375 0,-0.4375 0.25,-1.46875 0.46875,-1.90625 0.28125,-0.53125 0.703125,-0.859375 1.0625,-0.859375 0.59375,0 0.734375,0.71875 0.734375,0.765625 0,0.046875 -0.015625,0.09375 -0.03125,0.140625 z m 0,0"
             id="id-c5a747fc-4d98-4712-b4fa-6b70d84167ad" />
        </symbol>
        <symbol
           overflow="visible"
           id="id-46550dff-c57f-4e17-bfd5-1c91180f1ea4">
          <path
             style="stroke:none;stroke-width:0"
             d=""
             id="id-9e4e6730-3e0d-4b15-84f3-e63ea9283129" />
        </symbol>
        <symbol
           overflow="visible"
           id="id-fde97b07-dc55-4e68-a1d4-523ebbaa084b">
          <path
             style="stroke:none;stroke-width:0"
             d="M 3.0625,2.140625 C 3.0625,2.09375 3.03125,2.0625 2.984375,2 1.828125,0.9375 1.46875,-0.671875 1.46875,-2.25 1.46875,-3.625 1.734375,-5.3125 3,-6.515625 3.046875,-6.5625 3.0625,-6.578125 3.0625,-6.625 c 0,-0.0625 -0.046875,-0.109375 -0.109375,-0.109375 -0.109375,0 -0.921875,0.65625 -1.40625,1.625 C 1.125,-4.25 0.90625,-3.3125 0.90625,-2.25 c 0,0.640625 0.078125,1.671875 0.578125,2.71875 0.53125,1.109375 1.359375,1.765625 1.46875,1.765625 0.0625,0 0.109375,-0.03125 0.109375,-0.09375 z m 0,0"
             id="id-64d70819-cb40-470b-8ad5-701e71d1aa16" />
        </symbol>
        <symbol
           overflow="visible"
           id="id-ee2997ad-c3e3-47ea-ae2c-65c233a0f47f">
          <path
             style="stroke:none;stroke-width:0"
             d="M 2.671875,-2.25 C 2.671875,-2.984375 2.5625,-3.96875 2.09375,-4.96875 1.5625,-6.078125 0.734375,-6.734375 0.625,-6.734375 c -0.09375,0 -0.109375,0.078125 -0.109375,0.109375 0,0.046875 0.015625,0.0625 0.078125,0.125 0.53125,0.46875 1.515625,1.6875 1.515625,4.25 0,1.28125 -0.234375,3.0625 -1.53125,4.28125 -0.015625,0.015625 -0.0625,0.0625 -0.0625,0.109375 0,0.015625 0.015625,0.09375 0.109375,0.09375 0.109375,0 0.921875,-0.640625 1.40625,-1.625 C 2.453125,-0.25 2.671875,-1.171875 2.671875,-2.25 Z m 0,0"
             id="id-c5b0da8e-c680-488e-98cd-7bfbad155ba4" />
        </symbol>
      </g>
    </defs>
    <defs
       id="id-4608e824-b24c-40f6-9555-06308bf91a01">
      <g
         id="id-ffac2260-1537-417b-9bdf-da2e389bc19e">
        <symbol
           overflow="visible"
           id="id-1f129c37-4b4e-4a47-ada8-f2e2399aec09">
          <path
             style="stroke:none;stroke-width:0"
             d=""
             id="id-7e511775-8177-4f69-8fab-508ae4eb9182" />
        </symbol>
        <symbol
           overflow="visible"
           id="id-501ded8e-01b9-442b-9d05-3ecddba594f3">
          <path
             style="stroke:none;stroke-width:0"
             d="m 6.796875,-3.890625 c 0,-1.40625 -0.953125,-2.4375 -2.359375,-2.4375 -2,0 -3.984375,2.0625 -3.984375,4.109375 0,1.46875 1.015625,2.421875 2.359375,2.421875 2,0 3.984375,-2 3.984375,-4.09375 z M 2.875,-0.078125 c -0.859375,0 -1.5625,-0.640625 -1.5625,-1.90625 0,-0.46875 0.15625,-1.796875 0.890625,-2.828125 0.65625,-0.875 1.515625,-1.265625 2.171875,-1.265625 0.875,0 1.609375,0.640625 1.609375,1.859375 C 5.984375,-3.640625 5.75,-2.328125 5,-1.3125 4.328125,-0.421875 3.5,-0.078125 2.875,-0.078125 Z m 0,0"
             id="id-f964e47c-c3d8-471c-bc79-6f4c5a69cda1" />
        </symbol>
        <symbol
           overflow="visible"
           id="id-aebd8d5b-4188-421b-a48f-d6c33b398e3a">
          <path
             style="stroke:none;stroke-width:0"
             d="m 1.90625,-3.59375 h 0.859375 c 0.15625,0 0.265625,0 0.265625,-0.15625 0,-0.109375 -0.09375,-0.109375 -0.25,-0.109375 H 1.984375 l 0.359375,-1.5 c 0,-0.140625 -0.109375,-0.25 -0.265625,-0.25 -0.296875,0 -0.359375,0.25 -0.390625,0.34375 l -0.34375,1.40625 H 0.5 c -0.171875,0 -0.28125,0 -0.28125,0.15625 0,0.109375 0.09375,0.109375 0.25,0.109375 h 0.8125 l -0.625,2.453125 c -0.0625,0.265625 -0.0625,0.28125 -0.0625,0.40625 0,0.53125 0.40625,0.828125 0.875,0.828125 0.921875,0 1.453125,-1.28125 1.453125,-1.375 0,-0.046875 -0.03125,-0.109375 -0.109375,-0.109375 -0.09375,0 -0.109375,0.03125 -0.171875,0.1875 C 2.375,-0.5625 1.921875,-0.125 1.484375,-0.125 c -0.1875,0 -0.296875,-0.109375 -0.296875,-0.40625 0,-0.203125 0.03125,-0.3125 0.0625,-0.453125 z m 0,0"
             id="id-8a836e65-ba8c-4065-8a11-191567d7a34e" />
        </symbol>
        <symbol
           overflow="visible"
           id="id-b43cfce4-df96-41fb-ad31-78577c37ff22">
          <path
             style="stroke:none;stroke-width:0"
             d="m 4.3125,-3.3125 c 0,-0.625 -0.328125,-0.65625 -0.40625,-0.65625 -0.234375,0 -0.46875,0.234375 -0.46875,0.4375 0,0.140625 0.09375,0.21875 0.15625,0.265625 0.234375,0.21875 0.3125,0.515625 0.3125,0.75 0,0.390625 -0.5625,2.390625 -1.59375,2.390625 -0.6875,0 -0.6875,-0.625 -0.6875,-0.796875 0,-0.375 0.140625,-0.84375 0.453125,-1.65625 0.140625,-0.375 0.171875,-0.46875 0.171875,-0.625 0,-0.453125 -0.328125,-0.765625 -0.765625,-0.765625 -0.859375,0 -1.21875,1.28125 -1.21875,1.390625 0,0.078125 0.0625,0.109375 0.125,0.109375 0.09375,0 0.109375,-0.0625 0.140625,-0.171875 0.1875,-0.65625 0.546875,-1.09375 0.921875,-1.09375 0.171875,0 0.21875,0.109375 0.21875,0.296875 0,0.140625 -0.046875,0.3125 -0.125,0.515625 -0.3125,0.875 -0.53125,1.4375 -0.53125,1.890625 0,0.84375 0.640625,1.125 1.25,1.125 1.515625,0 2.046875,-2.828125 2.046875,-3.40625 z m 0,0"
             id="id-42bd2ab6-2271-4935-b434-5f12e6e6d197" />
        </symbol>
        <symbol
           overflow="visible"
           id="id-2648838c-e2c4-4619-9e52-d036ce826561">
          <path
             style="stroke:none;stroke-width:0"
             d=""
             id="id-8b37b2e3-be9d-492f-b54a-e0ffdf56f5c3" />
        </symbol>
        <symbol
           overflow="visible"
           id="id-83445c15-16e0-4d90-8139-b3efd4e5764e">
          <path
             style="stroke:none;stroke-width:0"
             d="M 4.09375,-6.21875 C 4.015625,-6.375 3.96875,-6.421875 3.828125,-6.421875 3.703125,-6.421875 3.65625,-6.375 3.59375,-6.25 L 0.5,-0.21875 C 0.453125,-0.140625 0.4375,-0.09375 0.4375,-0.078125 0.4375,0 0.5,0 0.640625,0 h 6.375 c 0.15625,0 0.21875,0 0.21875,-0.078125 0,-0.015625 0,-0.03125 -0.046875,-0.125 z m -0.5625,0.6875 2.5,4.84375 H 1.046875 Z m 0,0"
             id="id-83003b22-c5ea-478a-8560-722fcd4ea16c" />
        </symbol>
        <symbol
           overflow="visible"
           id="id-2ea6e333-2ec4-40ec-9111-2ad0ddf11ece">
          <path
             style="stroke:none;stroke-width:0"
             d=""
             id="id-33fdd31d-d2cd-41f6-a7cb-19a5d918fc8a" />
        </symbol>
        <symbol
           overflow="visible"
           id="id-6ae43973-49bc-46c6-9e4b-214c150a45d8">
          <path
             style="stroke:none;stroke-width:0"
             d="m 2.140625,-3.796875 c 0,-0.1875 -0.015625,-0.1875 -0.203125,-0.1875 -0.390625,0.390625 -1,0.390625 -1.21875,0.390625 v 0.234375 c 0.15625,0 0.5625,0 0.921875,-0.171875 v 3.015625 c 0,0.203125 0,0.28125 -0.625,0.28125 h -0.25 V 0 c 0.328125,-0.03125 0.796875,-0.03125 1.125,-0.03125 0.328125,0 0.796875,0 1.125,0.03125 v -0.234375 h -0.25 c -0.625,0 -0.625,-0.078125 -0.625,-0.28125 z m 0,0"
             id="id-485cca4f-e71b-44d1-a9ed-0b40d92ba5b2" />
        </symbol>
        <symbol
           overflow="visible"
           id="id-582102b3-33a2-4b7e-ae04-9f3c06241918">
          <path
             style="stroke:none;stroke-width:0"
             d="M 3.21875,-1.125 H 3 C 2.984375,-1.03125 2.921875,-0.640625 2.84375,-0.578125 2.796875,-0.53125 2.3125,-0.53125 2.21875,-0.53125 H 1.109375 L 1.875,-1.15625 C 2.078125,-1.328125 2.609375,-1.703125 2.796875,-1.890625 2.96875,-2.0625 3.21875,-2.375 3.21875,-2.796875 c 0,-0.75 -0.671875,-1.1875 -1.484375,-1.1875 -0.765625,0 -1.296875,0.515625 -1.296875,1.078125 0,0.296875 0.25,0.34375 0.3125,0.34375 0.15625,0 0.328125,-0.109375 0.328125,-0.328125 C 1.078125,-3.015625 1,-3.21875 0.734375,-3.21875 0.875,-3.515625 1.234375,-3.75 1.65625,-3.75 c 0.625,0 0.953125,0.46875 0.953125,0.953125 0,0.421875 -0.28125,0.859375 -0.6875,1.25 L 0.5,-0.25 C 0.4375,-0.1875 0.4375,-0.1875 0.4375,0 h 2.59375 z m 0,0"
             id="id-14eebf21-9e99-4096-9743-96730a56c918" />
        </symbol>
      </g>
    </defs>
  </defs>
  <sodipodi:namedview
     id="base"
     pagecolor="#ffffff"
     bordercolor="#666666"
     borderopacity="1.0"
     inkscape:pageopacity="0.0"
     inkscape:pageshadow="2"
     inkscape:zoom="3.5422668"
     inkscape:cx="307.3757"
     inkscape:cy="394.2882"
     inkscape:document-units="mm"
     inkscape:current-layer="layer1"
     inkscape:document-rotation="0"
     showgrid="false"
     inkscape:window-width="1366"
     inkscape:window-height="705"
     inkscape:window-x="-8"
     inkscape:window-y="-8"
     inkscape:window-maximized="1" />
  <metadata
     id="metadata1335">
    <rdf:RDF>
      <cc:Work
         rdf:about="">
        <dc:format>image/svg+xml</dc:format>
        <dc:type
           rdf:resource="http://purl.org/dc/dcmitype/StillImage" />
        <dc:title />
      </cc:Work>
    </rdf:RDF>
  </metadata>
  <g
     inkscape:label="图层 1"
     inkscape:groupmode="layer"
     id="layer1">
    <path
       style="fill:none;stroke:#000000;stroke-width:0.264583px;stroke-linecap:butt;stroke-linejoin:miter;stroke-opacity:1"
       d="m 56.696874,100.3432 c 6.047998,-0.839998 7.62538,-7.80269 15.521378,-7.97069 5.711323,-0.121518 15.959996,9.66 22.679995,11.844"
       id="path26"
       sodipodi:nodetypes="csc" />
    <path
       style="fill:none;stroke:#000000;stroke-width:0.13229167;stroke-linecap:butt;stroke-linejoin:miter;stroke-opacity:1;stroke-miterlimit:4;stroke-dasharray:none"
       d="m 56.628314,98.822108 h 6.514761 v 21.774402"
       id="path28" />
    <path
       style="fill:none;stroke:#000000;stroke-width:0.13229167;stroke-linecap:butt;stroke-linejoin:miter;stroke-opacity:1;stroke-miterlimit:4;stroke-dasharray:none"
       d="m 63.143075,98.822108 0.0032,-4.798626 h 6.131999 v 26.573028"
       id="path30"
       sodipodi:nodetypes="cccc" />
    <path
       style="fill:none;stroke:#000000;stroke-width:0.13229167;stroke-linecap:butt;stroke-linejoin:miter;stroke-opacity:1;stroke-miterlimit:4;stroke-dasharray:none"
       d="m 94.898246,104.21651 v 16.40912"
       id="path1400" />
    <g
       style="fill:#000000;fill-opacity:1"
       id="id-be899ec6-348f-400a-9116-fb1e0e55d4c8"
       transform="matrix(0.352778,0,0,0.352778,53.753518,60.379627)">
      <g
         transform="translate(133.768,167.641)"
         id="g6575" />
    </g>
    <path
       style="fill:none;stroke:#000000;stroke-width:0.132292;stroke-linecap:butt;stroke-linejoin:miter;stroke-miterlimit:4;stroke-dasharray:none;stroke-opacity:1;marker-end:url(#marker1133)"
       d="m 56.6732,120.62768 h 46.54779"
       id="path22" />
    <path
       style="fill:none;stroke:#000000;stroke-width:0.132292;stroke-linecap:butt;stroke-linejoin:miter;stroke-miterlimit:4;stroke-dasharray:none;stroke-opacity:1;marker-end:url(#Arrow1Mend)"
       d="M 56.6732,120.62768 V 84.527659"
       id="path24" />
    <g
       transform="matrix(0.352778,0,0,0.352778,75.13701,106.14537)"
       ns3:version="1.3.0"
       ns3:texconverter="pdflatex"
       ns3:pdfconverter="inkscape"
       ns3:text="\\scriptsize\n$$\n\\int_0^t v(t)dt\n$$"
       ns3:preamble="C:\Program Files\Inkscape\share\inkscape\extensions\inkscapeMadeEasy\basicLatexPackages.tex"
       ns3:scale="1.0"
       ns3:alignment="middle center"
       ns3:inkscapeversion="1.0.1"
       ns3:jacobian_sqrt="0.352778"
       id="g1273">
      <defs
         id="id-3f9ff679-da75-435d-861e-18ea1545801e">
        <g
           id="id-e396bfd5-2588-40fd-a95f-90f447724f82">
          <symbol
             overflow="visible"
             id="id-9eb45798-a10c-4de4-93f9-42091c17d713">
            <path
               style="stroke:none;stroke-width:0"
               d=""
               id="id-122a29f0-540f-4f9b-b8aa-6a8ad9956fb1" />
          </symbol>
          <symbol
             overflow="visible"
             id="id-8fc52b90-3b10-4c9f-a85b-0de03c5fd603">
            <path
               style="stroke:none;stroke-width:0"
               d="M 7,0.375 C 6.78125,0.40625 6.671875,0.578125 6.671875,0.734375 c 0,0.25 0.21875,0.359375 0.359375,0.359375 C 7.1875,1.09375 7.390625,1 7.390625,0.71875 7.390625,0.3125 6.96875,0 6.546875,0 5.5,0 5.046875,1.6875 4.5625,3.609375 3.984375,5.78125 3.5,7.953125 3.0625,10.15625 2.890625,11.0625 2.5,13.078125 2.171875,14.109375 2.0625,14.40625 1.78125,15.296875 1.375,15.296875 c -0.015625,0 -0.265625,0 -0.4375,-0.1875 C 1.15625,15.078125 1.25,14.90625 1.25,14.75 c 0,-0.25 -0.203125,-0.359375 -0.34375,-0.359375 -0.171875,0 -0.375,0.09375 -0.375,0.375 0,0.40625 0.40625,0.71875 0.859375,0.71875 1.03125,0 1.46875,-1.671875 1.9375,-3.421875 C 3.921875,9.84375 4.4375,7.59375 4.875,5.328125 c 0.203125,-1.03125 0.5625,-2.9375 0.921875,-4 0.078125,-0.25 0.359375,-1.140625 0.75,-1.140625 0.03125,0 0.265625,0 0.453125,0.1875 z m 0,0"
               id="id-32372718-6f43-4885-a81e-5472e6701651" />
          </symbol>
          <symbol
             overflow="visible"
             id="id-4f34b5a2-6243-422b-909e-ed1870ad8dd8">
            <path
               style="stroke:none;stroke-width:0"
               d=""
               id="id-8df62257-b2dd-4ebe-b4ac-abd58fe564d9" />
          </symbol>
          <symbol
             overflow="visible"
             id="id-1ac5caec-5d06-469c-966d-cc7e9d113412">
            <path
               style="stroke:none;stroke-width:0"
               d="m 1.5625,-1.921875 h 0.59375 c 0.109375,0 0.109375,0 0.125,-0.03125 C 2.3125,-1.96875 2.328125,-2.03125 2.328125,-2.0625 2.328125,-2.140625 2.25,-2.140625 2.171875,-2.140625 H 1.625 L 1.71875,-2.5625 C 1.75,-2.6875 1.8125,-2.921875 1.8125,-2.953125 1.8125,-3.03125 1.75,-3.125 1.625,-3.125 c -0.078125,0 -0.203125,0.0625 -0.234375,0.1875 -0.03125,0.09375 0.03125,-0.140625 -0.203125,0.796875 H 0.59375 c -0.09375,0 -0.171875,0 -0.171875,0.125 0,0.09375 0.0625,0.09375 0.15625,0.09375 H 1.125 L 0.84375,-0.75 c -0.03125,0.109375 -0.078125,0.265625 -0.078125,0.328125 0,0.28125 0.265625,0.484375 0.625,0.484375 0.59375,0 0.96875,-0.6875 0.96875,-0.78125 0,-0.0625 -0.09375,-0.0625 -0.109375,-0.0625 -0.078125,0 -0.09375,0.015625 -0.109375,0.078125 -0.171875,0.359375 -0.46875,0.59375 -0.734375,0.59375 -0.15625,0 -0.203125,-0.125 -0.203125,-0.265625 0,-0.078125 0,-0.09375 0.015625,-0.140625 z m 0,0"
               id="id-275dcd7b-94cf-42cf-af3b-a01304eea48d" />
          </symbol>
          <symbol
             overflow="visible"
             id="id-d66e9acc-ff33-4251-afd2-8d04599b3426">
            <path
               style="stroke:none;stroke-width:0"
               d=""
               id="id-a110868d-2bac-42c5-941f-eb48b82a1fdb" />
          </symbol>
          <symbol
             overflow="visible"
             id="id-92ad119c-332c-49ce-a4f0-aa1fce3dfe6a">
            <path
               style="stroke:none;stroke-width:0"
               d="M 3,-1.59375 C 3,-1.953125 3,-3.3125 1.6875,-3.3125 c -1.296875,0 -1.296875,1.359375 -1.296875,1.71875 0,0.359375 0,1.703125 1.296875,1.703125 C 3,0.109375 3,-1.234375 3,-1.59375 Z M 1.6875,-0.0625 C 1.515625,-0.0625 1.09375,-0.125 0.96875,-0.625 0.890625,-0.890625 0.890625,-1.25 0.890625,-1.65625 c 0,-0.375 0,-0.71875 0.078125,-1 0.125,-0.421875 0.515625,-0.5 0.71875,-0.5 0.375,0 0.640625,0.1875 0.734375,0.546875 C 2.5,-2.359375 2.5,-1.953125 2.5,-1.65625 c 0,0.34375 0,0.75 -0.078125,1.046875 C 2.296875,-0.125 1.890625,-0.0625 1.6875,-0.0625 Z m 0,0"
               id="id-3ed62690-8ca8-477a-9ecd-5cbec5654760" />
          </symbol>
          <symbol
             overflow="visible"
             id="id-f70cd426-0c89-477b-a9bc-07f31b6653a1">
            <path
               style="stroke:none;stroke-width:0"
               d=""
               id="id-80b44b91-842c-4fea-847c-b725e2482950" />
          </symbol>
          <symbol
             overflow="visible"
             id="id-636ab1af-b629-449b-9563-c45f227da677">
            <path
               style="stroke:none;stroke-width:0"
               d="m 3.71875,-2.53125 c 0,-0.546875 -0.328125,-0.546875 -0.34375,-0.546875 -0.1875,0 -0.375,0.1875 -0.375,0.375 0,0.109375 0.0625,0.171875 0.109375,0.203125 0.125,0.109375 0.265625,0.28125 0.265625,0.5625 0,0.3125 -0.46875,1.8125 -1.296875,1.8125 -0.5625,0 -0.5625,-0.5 -0.5625,-0.625 0,-0.3125 0.125,-0.703125 0.390625,-1.359375 C 1.953125,-2.25 2,-2.359375 2,-2.46875 2,-2.84375 1.6875,-3.078125 1.34375,-3.078125 0.640625,-3.078125 0.328125,-2.125 0.328125,-2 c 0,0.078125 0.09375,0.078125 0.125,0.078125 0.09375,0 0.09375,-0.03125 0.125,-0.109375 C 0.734375,-2.59375 1.03125,-2.875 1.3125,-2.875 c 0.125,0 0.171875,0.078125 0.171875,0.234375 0,0.171875 -0.046875,0.3125 -0.125,0.46875 -0.296875,0.78125 -0.375,1.078125 -0.375,1.328125 0,0.6875 0.546875,0.90625 1.078125,0.90625 1.171875,0 1.65625,-2.015625 1.65625,-2.59375 z m 0,0"
               id="id-3a96b626-3648-44f8-805d-4f52f7ab6e06" />
          </symbol>
          <symbol
             overflow="visible"
             id="id-bc362cf9-5b42-4fb8-80b4-0ef7f4d5b648">
            <path
               style="stroke:none;stroke-width:0"
               d="m 1.71875,-2.75 h 0.703125 c 0.140625,0 0.21875,0 0.21875,-0.15625 C 2.640625,-3 2.5625,-3 2.4375,-3 H 1.78125 l 0.25,-1.03125 C 2.046875,-4.0625 2.0625,-4.109375 2.0625,-4.125 c 0,-0.140625 -0.109375,-0.234375 -0.25,-0.234375 -0.171875,0 -0.265625,0.125 -0.328125,0.296875 C 1.4375,-3.875 1.53125,-4.21875 1.21875,-3 H 0.515625 c -0.125,0 -0.21875,0 -0.21875,0.15625 C 0.296875,-2.75 0.375,-2.75 0.5,-2.75 H 1.15625 L 0.75,-1.109375 C 0.703125,-0.9375 0.640625,-0.6875 0.640625,-0.59375 c 0,0.40625 0.359375,0.65625 0.75,0.65625 0.78125,0 1.21875,-0.96875 1.21875,-1.0625 0,-0.09375 -0.09375,-0.09375 -0.109375,-0.09375 -0.09375,0 -0.09375,0.015625 -0.15625,0.140625 -0.1875,0.4375 -0.546875,0.828125 -0.921875,0.828125 -0.15625,0 -0.25,-0.09375 -0.25,-0.34375 0,-0.0625 0.03125,-0.21875 0.046875,-0.28125 z m 0,0"
               id="id-e05d7dcf-bfd2-46b1-846c-86c2217b5f39" />
          </symbol>
          <symbol
             overflow="visible"
             id="id-335fc839-2437-431f-bdba-befc00d92f47">
            <path
               style="stroke:none;stroke-width:0"
               d="M 3.984375,-4.625 C 3.984375,-4.640625 4,-4.734375 4,-4.734375 4,-4.78125 3.984375,-4.84375 3.890625,-4.84375 3.75,-4.84375 3.171875,-4.78125 3,-4.765625 c -0.046875,0 -0.15625,0.015625 -0.15625,0.15625 0,0.09375 0.109375,0.09375 0.1875,0.09375 0.328125,0 0.328125,0.0625 0.328125,0.109375 0,0.046875 0,0.09375 -0.015625,0.15625 L 2.9375,-2.65625 c -0.140625,-0.234375 -0.375,-0.421875 -0.71875,-0.421875 -0.890625,0 -1.796875,0.984375 -1.796875,1.984375 0,0.6875 0.453125,1.15625 1.0625,1.15625 0.375,0 0.703125,-0.203125 0.984375,-0.484375 C 2.59375,0 3,0.0625 3.1875,0.0625 c 0.25,0 0.421875,-0.140625 0.546875,-0.359375 0.15625,-0.28125 0.25,-0.671875 0.25,-0.703125 0,-0.09375 -0.09375,-0.09375 -0.109375,-0.09375 -0.109375,0 -0.109375,0.03125 -0.15625,0.21875 C 3.625,-0.53125 3.5,-0.125 3.203125,-0.125 3.03125,-0.125 2.96875,-0.28125 2.96875,-0.46875 c 0,-0.125 0.015625,-0.1875 0.046875,-0.28125 z M 2.5,-0.875 C 2.453125,-0.671875 2.296875,-0.53125 2.140625,-0.40625 2.078125,-0.34375 1.796875,-0.125 1.5,-0.125 c -0.265625,0 -0.515625,-0.1875 -0.515625,-0.671875 0,-0.375 0.203125,-1.140625 0.375,-1.421875 0.3125,-0.5625 0.671875,-0.65625 0.859375,-0.65625 0.484375,0 0.625,0.53125 0.625,0.609375 0,0.015625 -0.015625,0.078125 -0.015625,0.09375 z m 0,0"
               id="id-332aecf3-d8b2-498a-b487-4e35b8c5fca7" />
          </symbol>
          <symbol
             overflow="visible"
             id="id-f68efaae-db2b-4eef-98e9-4fa0e043eb5e">
            <path
               style="stroke:none;stroke-width:0"
               d=""
               id="id-4eccfeaf-3a4f-4e49-a6bb-dee3f2633d14" />
          </symbol>
          <symbol
             overflow="visible"
             id="id-4c90c76b-bd8b-4214-b35f-e87588488d00">
            <path
               style="stroke:none;stroke-width:0"
               d="M 2.46875,-5.21875 C 1.15625,-4.296875 0.796875,-2.8125 0.796875,-1.75 c 0,0.984375 0.296875,2.515625 1.671875,3.484375 0.0625,0 0.140625,0 0.140625,-0.078125 0,-0.046875 -0.015625,-0.0625 -0.0625,-0.109375 C 1.609375,0.703125 1.28125,-0.46875 1.28125,-1.734375 1.28125,-3.625 2,-4.546875 2.5625,-5.0625 2.59375,-5.09375 2.609375,-5.109375 2.609375,-5.140625 2.609375,-5.21875 2.53125,-5.21875 2.46875,-5.21875 Z m 0,0"
               id="id-0e6e5958-d632-402b-be20-4f9f82c35996" />
          </symbol>
          <symbol
             overflow="visible"
             id="id-328998e7-4314-4314-9d8a-4b77a8fdeffd">
            <path
               style="stroke:none;stroke-width:0"
               d="m 0.625,-5.21875 c -0.046875,0 -0.125,0 -0.125,0.078125 0,0.03125 0.015625,0.046875 0.0625,0.109375 0.59375,0.546875 1.265625,1.484375 1.265625,3.28125 0,1.453125 -0.453125,2.5625 -1.203125,3.234375 -0.125,0.125 -0.125,0.125 -0.125,0.171875 0,0.03125 0.015625,0.078125 0.078125,0.078125 0.09375,0 0.75,-0.453125 1.21875,-1.328125 0.296875,-0.578125 0.5,-1.328125 0.5,-2.140625 C 2.296875,-2.71875 2,-4.25 0.625,-5.21875 Z m 0,0"
               id="id-f518dd47-f0ac-403c-8ea2-5e0279bca0e7" />
          </symbol>
        </g>
      </defs>
      <g
         id="id-4ee63f26-1bfd-4b65-b563-79760b8ff8bf"
         transform="translate(-289.536,-135.7)">
        <g
           style="fill:#000000;fill-opacity:1"
           id="id-78452af6-0bb5-40b7-8ffa-8f0749537e2c">
          <g
             transform="translate(289.005,136.362)"
             id="g1238">
            <path
               style="stroke:none;stroke-width:0"
               d="M 7,0.375 C 6.78125,0.40625 6.671875,0.578125 6.671875,0.734375 c 0,0.25 0.21875,0.359375 0.359375,0.359375 C 7.1875,1.09375 7.390625,1 7.390625,0.71875 7.390625,0.3125 6.96875,0 6.546875,0 5.5,0 5.046875,1.6875 4.5625,3.609375 3.984375,5.78125 3.5,7.953125 3.0625,10.15625 2.890625,11.0625 2.5,13.078125 2.171875,14.109375 2.0625,14.40625 1.78125,15.296875 1.375,15.296875 c -0.015625,0 -0.265625,0 -0.4375,-0.1875 C 1.15625,15.078125 1.25,14.90625 1.25,14.75 c 0,-0.25 -0.203125,-0.359375 -0.34375,-0.359375 -0.171875,0 -0.375,0.09375 -0.375,0.375 0,0.40625 0.40625,0.71875 0.859375,0.71875 1.03125,0 1.46875,-1.671875 1.9375,-3.421875 C 3.921875,9.84375 4.4375,7.59375 4.875,5.328125 c 0.203125,-1.03125 0.5625,-2.9375 0.921875,-4 0.078125,-0.25 0.359375,-1.140625 0.75,-1.140625 0.03125,0 0.265625,0 0.453125,0.1875 z m 0,0"
               id="id-34667f6f-b901-4d84-8ef9-e35297421fc5" />
          </g>
        </g>
        <g
           style="fill:#000000;fill-opacity:1"
           id="id-03853877-3c18-4bf0-8502-a1dcb58bf947">
          <g
             transform="translate(296.948,138.825)"
             id="g1242">
            <path
               style="stroke:none;stroke-width:0"
               d="m 1.5625,-1.921875 h 0.59375 c 0.109375,0 0.109375,0 0.125,-0.03125 C 2.3125,-1.96875 2.328125,-2.03125 2.328125,-2.0625 2.328125,-2.140625 2.25,-2.140625 2.171875,-2.140625 H 1.625 L 1.71875,-2.5625 C 1.75,-2.6875 1.8125,-2.921875 1.8125,-2.953125 1.8125,-3.03125 1.75,-3.125 1.625,-3.125 c -0.078125,0 -0.203125,0.0625 -0.234375,0.1875 -0.03125,0.09375 0.03125,-0.140625 -0.203125,0.796875 H 0.59375 c -0.09375,0 -0.171875,0 -0.171875,0.125 0,0.09375 0.0625,0.09375 0.15625,0.09375 H 1.125 L 0.84375,-0.75 c -0.03125,0.109375 -0.078125,0.265625 -0.078125,0.328125 0,0.28125 0.265625,0.484375 0.625,0.484375 0.59375,0 0.96875,-0.6875 0.96875,-0.78125 0,-0.0625 -0.09375,-0.0625 -0.109375,-0.0625 -0.078125,0 -0.09375,0.015625 -0.109375,0.078125 -0.171875,0.359375 -0.46875,0.59375 -0.734375,0.59375 -0.15625,0 -0.203125,-0.125 -0.203125,-0.265625 0,-0.078125 0,-0.09375 0.015625,-0.140625 z m 0,0"
               id="id-407fc7ad-1d7b-4309-9806-0b32ced07bd7" />
          </g>
        </g>
        <g
           style="fill:#000000;fill-opacity:1"
           id="id-c936e109-5921-48ba-a9a3-cf15c35e4b0e">
          <g
             transform="translate(293.516,152.358)"
             id="g1246">
            <path
               style="stroke:none;stroke-width:0"
               d="M 3,-1.59375 C 3,-1.953125 3,-3.3125 1.6875,-3.3125 c -1.296875,0 -1.296875,1.359375 -1.296875,1.71875 0,0.359375 0,1.703125 1.296875,1.703125 C 3,0.109375 3,-1.234375 3,-1.59375 Z M 1.6875,-0.0625 C 1.515625,-0.0625 1.09375,-0.125 0.96875,-0.625 0.890625,-0.890625 0.890625,-1.25 0.890625,-1.65625 c 0,-0.375 0,-0.71875 0.078125,-1 0.125,-0.421875 0.515625,-0.5 0.71875,-0.5 0.375,0 0.640625,0.1875 0.734375,0.546875 C 2.5,-2.359375 2.5,-1.953125 2.5,-1.65625 c 0,0.34375 0,0.75 -0.078125,1.046875 C 2.296875,-0.125 1.890625,-0.0625 1.6875,-0.0625 Z m 0,0"
               id="id-e830c546-d98b-41a1-b643-0f42611e3d54" />
          </g>
        </g>
        <g
           style="fill:#000000;fill-opacity:1"
           id="id-0230d05b-8db7-455c-8d38-289156c2475d">
          <g
             transform="translate(301.614,145.854)"
             id="g1250">
            <path
               style="stroke:none;stroke-width:0"
               d="m 3.71875,-2.53125 c 0,-0.546875 -0.328125,-0.546875 -0.34375,-0.546875 -0.1875,0 -0.375,0.1875 -0.375,0.375 0,0.109375 0.0625,0.171875 0.109375,0.203125 0.125,0.109375 0.265625,0.28125 0.265625,0.5625 0,0.3125 -0.46875,1.8125 -1.296875,1.8125 -0.5625,0 -0.5625,-0.5 -0.5625,-0.625 0,-0.3125 0.125,-0.703125 0.390625,-1.359375 C 1.953125,-2.25 2,-2.359375 2,-2.46875 2,-2.84375 1.6875,-3.078125 1.34375,-3.078125 0.640625,-3.078125 0.328125,-2.125 0.328125,-2 c 0,0.078125 0.09375,0.078125 0.125,0.078125 0.09375,0 0.09375,-0.03125 0.125,-0.109375 C 0.734375,-2.59375 1.03125,-2.875 1.3125,-2.875 c 0.125,0 0.171875,0.078125 0.171875,0.234375 0,0.171875 -0.046875,0.3125 -0.125,0.46875 -0.296875,0.78125 -0.375,1.078125 -0.375,1.328125 0,0.6875 0.546875,0.90625 1.078125,0.90625 1.171875,0 1.65625,-2.015625 1.65625,-2.59375 z m 0,0"
               id="id-454a92cf-aa15-446f-93f0-8c673ee5585c" />
          </g>
        </g>
        <g
           style="fill:#000000;fill-opacity:1"
           id="id-786d6753-07de-48c2-9dda-9addccdc9171">
          <g
             transform="translate(305.85,145.854)"
             id="g1254">
            <path
               style="stroke:none;stroke-width:0"
               d="M 2.46875,-5.21875 C 1.15625,-4.296875 0.796875,-2.8125 0.796875,-1.75 c 0,0.984375 0.296875,2.515625 1.671875,3.484375 0.0625,0 0.140625,0 0.140625,-0.078125 0,-0.046875 -0.015625,-0.0625 -0.0625,-0.109375 C 1.609375,0.703125 1.28125,-0.46875 1.28125,-1.734375 1.28125,-3.625 2,-4.546875 2.5625,-5.0625 2.59375,-5.09375 2.609375,-5.109375 2.609375,-5.140625 2.609375,-5.21875 2.53125,-5.21875 2.46875,-5.21875 Z m 0,0"
               id="id-02b9d3ba-8dab-4b5d-b822-b1616e5a2980" />
          </g>
        </g>
        <g
           style="fill:#000000;fill-opacity:1"
           id="id-a20dae30-aef4-46cf-8c87-3839b82e86be">
          <g
             transform="translate(308.963,145.854)"
             id="g1258">
            <path
               style="stroke:none;stroke-width:0"
               d="m 1.71875,-2.75 h 0.703125 c 0.140625,0 0.21875,0 0.21875,-0.15625 C 2.640625,-3 2.5625,-3 2.4375,-3 H 1.78125 l 0.25,-1.03125 C 2.046875,-4.0625 2.0625,-4.109375 2.0625,-4.125 c 0,-0.140625 -0.109375,-0.234375 -0.25,-0.234375 -0.171875,0 -0.265625,0.125 -0.328125,0.296875 C 1.4375,-3.875 1.53125,-4.21875 1.21875,-3 H 0.515625 c -0.125,0 -0.21875,0 -0.21875,0.15625 C 0.296875,-2.75 0.375,-2.75 0.5,-2.75 H 1.15625 L 0.75,-1.109375 C 0.703125,-0.9375 0.640625,-0.6875 0.640625,-0.59375 c 0,0.40625 0.359375,0.65625 0.75,0.65625 0.78125,0 1.21875,-0.96875 1.21875,-1.0625 0,-0.09375 -0.09375,-0.09375 -0.109375,-0.09375 -0.09375,0 -0.09375,0.015625 -0.15625,0.140625 -0.1875,0.4375 -0.546875,0.828125 -0.921875,0.828125 -0.15625,0 -0.25,-0.09375 -0.25,-0.34375 0,-0.0625 0.03125,-0.21875 0.046875,-0.28125 z m 0,0"
               id="id-5feb33a9-cbad-41a9-93fb-aa41500dc9a2" />
          </g>
        </g>
        <g
           style="fill:#000000;fill-opacity:1"
           id="id-b9f53c91-9f21-47a3-8dec-30c27835aaf9">
          <g
             transform="translate(311.972,145.854)"
             id="g1262">
            <path
               style="stroke:none;stroke-width:0"
               d="m 0.625,-5.21875 c -0.046875,0 -0.125,0 -0.125,0.078125 0,0.03125 0.015625,0.046875 0.0625,0.109375 0.59375,0.546875 1.265625,1.484375 1.265625,3.28125 0,1.453125 -0.453125,2.5625 -1.203125,3.234375 -0.125,0.125 -0.125,0.125 -0.125,0.171875 0,0.03125 0.015625,0.078125 0.078125,0.078125 0.09375,0 0.75,-0.453125 1.21875,-1.328125 0.296875,-0.578125 0.5,-1.328125 0.5,-2.140625 C 2.296875,-2.71875 2,-4.25 0.625,-5.21875 Z m 0,0"
               id="id-11f1dbba-1573-4eda-b2d1-583b6d36c50e" />
          </g>
        </g>
        <g
           style="fill:#000000;fill-opacity:1"
           id="id-57b1a086-706e-45d3-b09e-088329084cf9">
          <g
             transform="translate(315.086,145.854)"
             id="g1266">
            <path
               style="stroke:none;stroke-width:0"
               d="M 3.984375,-4.625 C 3.984375,-4.640625 4,-4.734375 4,-4.734375 4,-4.78125 3.984375,-4.84375 3.890625,-4.84375 3.75,-4.84375 3.171875,-4.78125 3,-4.765625 c -0.046875,0 -0.15625,0.015625 -0.15625,0.15625 0,0.09375 0.109375,0.09375 0.1875,0.09375 0.328125,0 0.328125,0.0625 0.328125,0.109375 0,0.046875 0,0.09375 -0.015625,0.15625 L 2.9375,-2.65625 c -0.140625,-0.234375 -0.375,-0.421875 -0.71875,-0.421875 -0.890625,0 -1.796875,0.984375 -1.796875,1.984375 0,0.6875 0.453125,1.15625 1.0625,1.15625 0.375,0 0.703125,-0.203125 0.984375,-0.484375 C 2.59375,0 3,0.0625 3.1875,0.0625 c 0.25,0 0.421875,-0.140625 0.546875,-0.359375 0.15625,-0.28125 0.25,-0.671875 0.25,-0.703125 0,-0.09375 -0.09375,-0.09375 -0.109375,-0.09375 -0.109375,0 -0.109375,0.03125 -0.15625,0.21875 C 3.625,-0.53125 3.5,-0.125 3.203125,-0.125 3.03125,-0.125 2.96875,-0.28125 2.96875,-0.46875 c 0,-0.125 0.015625,-0.1875 0.046875,-0.28125 z M 2.5,-0.875 C 2.453125,-0.671875 2.296875,-0.53125 2.140625,-0.40625 2.078125,-0.34375 1.796875,-0.125 1.5,-0.125 c -0.265625,0 -0.515625,-0.1875 -0.515625,-0.671875 0,-0.375 0.203125,-1.140625 0.375,-1.421875 0.3125,-0.5625 0.671875,-0.65625 0.859375,-0.65625 0.484375,0 0.625,0.53125 0.625,0.609375 0,0.015625 -0.015625,0.078125 -0.015625,0.09375 z m 0,0"
               id="id-78eefd84-3e0b-4c02-8f0c-08e286b531b1" />
          </g>
          <g
             transform="translate(319.233,145.854)"
             id="g1269">
            <path
               style="stroke:none;stroke-width:0"
               d="m 1.71875,-2.75 h 0.703125 c 0.140625,0 0.21875,0 0.21875,-0.15625 C 2.640625,-3 2.5625,-3 2.4375,-3 H 1.78125 l 0.25,-1.03125 C 2.046875,-4.0625 2.0625,-4.109375 2.0625,-4.125 c 0,-0.140625 -0.109375,-0.234375 -0.25,-0.234375 -0.171875,0 -0.265625,0.125 -0.328125,0.296875 C 1.4375,-3.875 1.53125,-4.21875 1.21875,-3 H 0.515625 c -0.125,0 -0.21875,0 -0.21875,0.15625 C 0.296875,-2.75 0.375,-2.75 0.5,-2.75 H 1.15625 L 0.75,-1.109375 C 0.703125,-0.9375 0.640625,-0.6875 0.640625,-0.59375 c 0,0.40625 0.359375,0.65625 0.75,0.65625 0.78125,0 1.21875,-0.96875 1.21875,-1.0625 0,-0.09375 -0.09375,-0.09375 -0.109375,-0.09375 -0.09375,0 -0.09375,0.015625 -0.15625,0.140625 -0.1875,0.4375 -0.546875,0.828125 -0.921875,0.828125 -0.15625,0 -0.25,-0.09375 -0.25,-0.34375 0,-0.0625 0.03125,-0.21875 0.046875,-0.28125 z m 0,0"
               id="id-178de33c-e3f8-4d08-88dd-81fef6df3970" />
          </g>
        </g>
      </g>
    </g>
    <text
       xml:space="preserve"
       style="font-style:italic;font-size:3.175px;line-height:1.25;font-family:'Latin Modern Roman';-inkscape-font-specification:'Latin Modern Roman, Italic';text-align:center;text-anchor:middle;stroke-width:0.264583"
       x="58.634178"
       y="87.764542"
       id="text1368"><tspan
         sodipodi:role="line"
         id="tspan1366"
         x="58.634178"
         y="87.764542"
         style="font-size:2.46944px;stroke-width:0.264583">v</tspan></text>
    <text
       xml:space="preserve"
       style="font-style:italic;font-size:2.46944px;line-height:1.25;font-family:'Latin Modern Roman';-inkscape-font-specification:'Latin Modern Roman, Italic';text-align:center;text-anchor:middle;stroke-width:0.264583"
       x="79.548286"
       y="106.51254"
       id="text1372"><tspan
         sodipodi:role="line"
         id="tspan1370"
         x="79.548286"
         y="106.51254"
         style="stroke-width:0.264583"></tspan></text>
    <text
       xml:space="preserve"
       style="font-style:italic;font-size:2.46944px;line-height:1.25;font-family:'Latin Modern Roman';-inkscape-font-specification:'Latin Modern Roman, Italic';text-align:center;text-anchor:middle;stroke-width:0.264583"
       x="94.636314"
       y="123.24382"
       id="text1376"><tspan
         sodipodi:role="line"
         id="tspan1374"
         x="94.636314"
         y="123.24382"
         style="stroke-width:0.264583">t</tspan></text>
    <text
       xml:space="preserve"
       style="font-style:italic;font-size:2.46944px;line-height:1.25;font-family:'Latin Modern Roman';-inkscape-font-specification:'Latin Modern Roman, Italic';text-align:center;text-anchor:middle;stroke-width:0.264583"
       x="100.61178"
       y="119.13569"
       id="text1380"><tspan
         sodipodi:role="line"
         id="tspan1378"
         x="100.61178"
         y="119.13569"
         style="stroke-width:0.264583">t</tspan></text>
    <text
       xml:space="preserve"
       style="font-style:italic;font-size:2.46944px;line-height:1.25;font-family:'Latin Modern Roman';-inkscape-font-specification:'Latin Modern Roman, Italic';text-align:center;text-anchor:middle;stroke-width:0.264583"
       x="54.301979"
       y="123.47422"
       id="text1384"><tspan
         sodipodi:role="line"
         id="tspan1382"
         x="54.301979"
         y="123.47422"
         style="stroke-width:0.264583">O</tspan></text>
    <text
       xml:space="preserve"
       style="font-style:italic;font-size:2.46944px;line-height:1.25;font-family:'Latin Modern Roman';-inkscape-font-specification:'Latin Modern Roman, Italic';text-align:center;text-anchor:middle;stroke-width:0.264583"
       x="59.925743"
       y="110.31335"
       id="text1388"><tspan
         sodipodi:role="line"
         id="tspan1386"
         x="59.925743"
         y="110.31335"
         style="font-style:normal;font-variant:normal;font-weight:normal;font-stretch:normal;font-family:'Latin Modern Roman';-inkscape-font-specification:'Latin Modern Roman, ';stroke-width:0.264583">Δ<tspan
   style="font-style:italic;font-variant:normal;font-weight:normal;font-stretch:normal;font-family:'Latin Modern Roman';-inkscape-font-specification:'Latin Modern Roman,  Italic'"
   id="tspan1390">x</tspan><tspan
   style="font-size:65%;baseline-shift:sub"
   id="tspan1392">1</tspan></tspan></text>
    <text
       xml:space="preserve"
       style="font-style:italic;font-size:2.46944px;line-height:1.25;font-family:'Latin Modern Roman';-inkscape-font-specification:'Latin Modern Roman, Italic';text-align:center;text-anchor:middle;stroke-width:0.264583"
       x="66.193573"
       y="107.91404"
       id="text1388-4"><tspan
         sodipodi:role="line"
         id="tspan1386-2"
         x="66.193573"
         y="107.91404"
         style="font-style:normal;font-variant:normal;font-weight:normal;font-stretch:normal;font-family:'Latin Modern Roman';-inkscape-font-specification:'Latin Modern Roman, ';stroke-width:0.264583">Δ<tspan
   style="font-style:italic;font-variant:normal;font-weight:normal;font-stretch:normal;font-family:'Latin Modern Roman';-inkscape-font-specification:'Latin Modern Roman,  Italic';stroke-width:0.264583"
   id="tspan1390-1">x</tspan><tspan
   style="font-size:1.60514px;baseline-shift:sub;stroke-width:0.264583"
   id="tspan1392-7">2</tspan></tspan></text>
    <text
       xml:space="preserve"
       style="font-style:italic;font-size:2.46944px;line-height:1.25;font-family:'Latin Modern Roman';-inkscape-font-specification:'Latin Modern Roman, Italic';text-align:center;text-anchor:middle;stroke-width:0.264583"
       x="59.925743"
       y="123.50138"
       id="text1388-2"><tspan
         sodipodi:role="line"
         id="tspan1386-8"
         x="59.925743"
         y="123.50138"
         style="font-style:normal;font-variant:normal;font-weight:normal;font-stretch:normal;font-family:'Latin Modern Roman';-inkscape-font-specification:'Latin Modern Roman, ';stroke-width:0.264583">Δ<tspan
   style="font-style:italic;font-variant:normal;font-weight:normal;font-stretch:normal;font-family:'Latin Modern Roman';-inkscape-font-specification:'Latin Modern Roman,  Italic';stroke-width:0.264583"
   id="tspan1390-3">t</tspan><tspan
   style="font-size:1.60514px;baseline-shift:sub;stroke-width:0.264583"
   id="tspan1392-1">1</tspan></tspan></text>
    <text
       xml:space="preserve"
       style="font-style:italic;font-size:2.46944px;line-height:1.25;font-family:'Latin Modern Roman';-inkscape-font-specification:'Latin Modern Roman, Italic';text-align:center;text-anchor:middle;stroke-width:0.264583"
       x="66.193573"
       y="123.50138"
       id="text1388-3"><tspan
         sodipodi:role="line"
         id="tspan1386-27"
         x="66.193573"
         y="123.50138"
         style="font-style:normal;font-variant:normal;font-weight:normal;font-stretch:normal;font-family:'Latin Modern Roman';-inkscape-font-specification:'Latin Modern Roman, ';stroke-width:0.264583">Δ<tspan
   style="font-style:italic;font-variant:normal;font-weight:normal;font-stretch:normal;font-family:'Latin Modern Roman';-inkscape-font-specification:'Latin Modern Roman,  Italic';stroke-width:0.264583"
   id="tspan1390-5">t</tspan><tspan
   style="font-size:1.60514px;baseline-shift:sub;stroke-width:0.264583"
   id="tspan1392-70">2</tspan></tspan></text>
  </g>
</svg>
