<?xml version="1.0" encoding="UTF-8" standalone="no"?>
<svg
   xmlns:dc="http://purl.org/dc/elements/1.1/"
   xmlns:cc="http://creativecommons.org/ns#"
   xmlns:rdf="http://www.w3.org/1999/02/22-rdf-syntax-ns#"
   xmlns:svg="http://www.w3.org/2000/svg"
   xmlns="http://www.w3.org/2000/svg"
   xmlns:sodipodi="http://sodipodi.sourceforge.net/DTD/sodipodi-0.dtd"
   xmlns:inkscape="http://www.inkscape.org/namespaces/inkscape"
   width="210mm"
   height="297mm"
   viewBox="0 0 210 297"
   version="1.1"
   id="svg7612"
   sodipodi:docname="fig01.26.svg"
   inkscape:version="1.0.1 (3bc2e813f5, 2020-09-07)">
  <defs
     id="defs7606">
    <marker
       style="overflow:visible"
       id="Arrow1Mstart"
       refX="0.0"
       refY="0.0"
       orient="auto"
       inkscape:stockid="Arrow1Mstart"
       inkscape:isstock="true">
      <path
         transform="scale(0.4) translate(10,0)"
         style="fill-rule:evenodd;stroke:#000000;stroke-width:1pt;stroke-opacity:1;fill:#000000;fill-opacity:1"
         d="M 0.0,0.0 L 5.0,-5.0 L -12.5,0.0 L 5.0,5.0 L 0.0,0.0 z "
         id="path861" />
    </marker>
    <marker
       style="overflow:visible"
       id="marker8684"
       refX="0"
       refY="0"
       orient="auto"
       inkscape:stockid="Arrow1Mend"
       inkscape:isstock="true">
      <path
         transform="matrix(-0.4,0,0,-0.4,-4,0)"
         style="fill:#000000;fill-opacity:1;fill-rule:evenodd;stroke:#000000;stroke-width:1pt;stroke-opacity:1"
         d="M 0,0 5,-5 -12.5,0 5,5 Z"
         id="path8682" />
    </marker>
    <marker
       style="overflow:visible"
       id="marker1133"
       refX="0"
       refY="0"
       orient="auto"
       inkscape:stockid="Arrow1Mend"
       inkscape:isstock="true"
       inkscape:collect="always">
      <path
         transform="matrix(-0.4,0,0,-0.4,-4,0)"
         style="fill:#000000;fill-opacity:1;fill-rule:evenodd;stroke:#000000;stroke-width:1pt;stroke-opacity:1"
         d="M 0,0 5,-5 -12.5,0 5,5 Z"
         id="path1131" />
    </marker>
    <marker
       style="overflow:visible"
       id="Arrow1Mend"
       refX="0"
       refY="0"
       orient="auto"
       inkscape:stockid="Arrow1Mend"
       inkscape:isstock="true"
       inkscape:collect="always">
      <path
         transform="matrix(-0.4,0,0,-0.4,-4,0)"
         style="fill:#000000;fill-opacity:1;fill-rule:evenodd;stroke:#000000;stroke-width:1pt;stroke-opacity:1"
         d="M 0,0 5,-5 -12.5,0 5,5 Z"
         id="path864" />
    </marker>
    <defs
       id="id-72438715-da03-4bbd-982b-ab0bed40286f">
      <g
         id="id-32f3383a-2288-433a-94bb-70b7845a9adc">
        <symbol
           overflow="visible"
           id="id-6488908f-53ce-40a6-ac4b-dbcea83efe17">
          <path
             style="stroke:none;stroke-width:0"
             d=""
             id="id-c97c94a9-fb7b-432e-b76d-69e562e229b0" />
        </symbol>
        <symbol
           overflow="visible"
           id="id-ffb082dc-df25-4102-8498-978b3b083acf">
          <path
             style="stroke:none;stroke-width:0"
             d="M 8.25,0.453125 C 7.84375,0.484375 7.8125,0.796875 7.8125,0.890625 7.8125,1.1875 8.046875,1.34375 8.25,1.34375 8.46875,1.34375 8.703125,1.1875 8.703125,0.875 8.703125,0.390625 8.21875,0 7.6875,0 6.765625,0 6.25,1.1875 5.84375,2.5625 5.609375,3.34375 4.453125,7.828125 3.5,13.140625 3.34375,14 2.90625,16.46875 2.546875,17.828125 c -0.140625,0.515625 -0.515625,1.875 -1.03125,1.875 -0.078125,0 -0.34375,-0.01563 -0.5625,-0.21875 0.40625,-0.04687 0.453125,-0.359375 0.453125,-0.4375 0,-0.3125 -0.25,-0.453125 -0.453125,-0.453125 -0.203125,0 -0.4375,0.140625 -0.4375,0.453125 0,0.5 0.484375,0.875 1.015625,0.875 0.90625,0 1.4375,-1.1875 1.84375,-2.546875 0.234375,-0.796875 1.390625,-5.28125 2.34375,-10.578125 0.140625,-0.875 0.59375,-3.34375 0.9375,-4.6875 C 6.8125,1.59375 7.1875,0.21875 7.6875,0.21875 c 0.078125,0 0.34375,0.015625 0.5625,0.234375 z m 0,0"
             id="id-6e4f3ae7-4f1c-47a1-be84-29379261dab7" />
        </symbol>
        <symbol
           overflow="visible"
           id="id-b2689d4c-6452-4f2c-9ce0-40c05273dbe4">
          <path
             style="stroke:none;stroke-width:0"
             d=""
             id="id-6eef2ce0-73a7-4c49-bb1f-b92ddd3b7cef" />
        </symbol>
        <symbol
           overflow="visible"
           id="id-0392aeaf-b4b3-42b3-8975-be8055ede00b">
          <path
             style="stroke:none;stroke-width:0"
             d="m 1.609375,-2.34375 h 0.65625 c 0.109375,0 0.203125,0 0.203125,-0.140625 0,-0.09375 -0.078125,-0.09375 -0.1875,-0.09375 H 1.671875 L 1.875,-3.40625 c 0.03125,-0.09375 0.03125,-0.125 0.03125,-0.125 0,-0.15625 -0.109375,-0.203125 -0.21875,-0.203125 -0.0625,0 -0.21875,0.03125 -0.28125,0.234375 L 1.171875,-2.578125 H 0.53125 c -0.125,0 -0.125,0 -0.15625,0.015625 -0.03125,0.03125 -0.046875,0.109375 -0.046875,0.140625 0.015625,0.078125 0.0625,0.078125 0.1875,0.078125 H 1.125 l -0.359375,1.421875 c -0.03125,0.125 -0.078125,0.328125 -0.078125,0.40625 0,0.34375 0.3125,0.578125 0.671875,0.578125 0.6875,0 1.09375,-0.828125 1.09375,-0.921875 0,-0.015625 -0.015625,-0.09375 -0.109375,-0.09375 -0.078125,0 -0.09375,0.03125 -0.125,0.109375 -0.203125,0.453125 -0.546875,0.703125 -0.84375,0.703125 -0.21875,0 -0.21875,-0.21875 -0.21875,-0.296875 0,-0.078125 0,-0.09375 0.03125,-0.203125 z m 0,0"
             id="id-2f917777-abd4-4e70-9d53-5c5441bd17d5" />
        </symbol>
        <symbol
           overflow="visible"
           id="id-d1ac5506-97e7-433f-aa5a-699a4e195f57">
          <path
             style="stroke:none;stroke-width:0"
             d=""
             id="id-f9cc8b05-576a-499a-a482-109f982f86b4" />
        </symbol>
        <symbol
           overflow="visible"
           id="id-79ab434d-9b8e-4aad-907a-98d0bfca002c">
          <path
             style="stroke:none;stroke-width:0"
             d="m 3.296875,-1.90625 c 0,-0.4375 0,-2.078125 -1.46875,-2.078125 -1.46875,0 -1.46875,1.640625 -1.46875,2.078125 0,0.421875 0,2.03125 1.46875,2.03125 1.46875,0 1.46875,-1.609375 1.46875,-2.03125 z m -1.46875,1.84375 c -0.25,0 -0.65625,-0.125 -0.8125,-0.625 -0.09375,-0.34375 -0.09375,-0.921875 -0.09375,-1.296875 0,-0.40625 0,-0.859375 0.09375,-1.1875 0.140625,-0.53125 0.59375,-0.609375 0.8125,-0.609375 0.265625,0 0.671875,0.125 0.796875,0.578125 0.09375,0.3125 0.09375,0.75 0.09375,1.21875 0,0.375 0,0.984375 -0.09375,1.3125 C 2.453125,-0.140625 2.015625,-0.0625 1.828125,-0.0625 Z m 0,0"
             id="id-a28b1ea6-9ed2-48ef-9043-96ee4fba2288" />
        </symbol>
        <symbol
           overflow="visible"
           id="id-2a6f5ab9-7d45-47ac-bd0c-4d5a8f2a8934">
          <path
             style="stroke:none;stroke-width:0"
             d=""
             id="id-566105dd-c02a-4a97-89e7-21a1e7b5f686" />
        </symbol>
        <symbol
           overflow="visible"
           id="id-a9a115a4-e50e-4b2b-98c6-d87eb28655e3">
          <path
             style="stroke:none;stroke-width:0"
             d="M 3.421875,-3.40625 C 3.25,-3.734375 2.984375,-3.96875 2.578125,-3.96875 1.53125,-3.96875 0.375,-2.71875 0.375,-1.359375 0.375,-0.375 1,0.09375 1.609375,0.09375 c 0.578125,0 1.046875,-0.484375 1.203125,-0.65625 0.09375,0.5 0.546875,0.65625 0.828125,0.65625 0.265625,0 0.484375,-0.109375 0.6875,-0.484375 0.15625,-0.296875 0.28125,-0.859375 0.28125,-0.890625 0,-0.046875 -0.03125,-0.109375 -0.109375,-0.109375 -0.109375,0 -0.125,0.046875 -0.15625,0.21875 C 4.140625,-0.390625 3.953125,-0.125 3.671875,-0.125 c -0.234375,0 -0.28125,-0.21875 -0.28125,-0.40625 0,-0.171875 0.046875,-0.359375 0.125,-0.671875 L 3.734375,-2.125 C 3.796875,-2.34375 3.96875,-3.015625 4,-3.15625 c 0.03125,-0.125 0.09375,-0.34375 0.09375,-0.375 0,-0.140625 -0.125,-0.25 -0.28125,-0.25 -0.125,0 -0.34375,0.0625 -0.390625,0.375 z M 2.84375,-1.09375 C 2.796875,-0.921875 2.796875,-0.921875 2.65625,-0.75 2.328125,-0.359375 1.96875,-0.125 1.625,-0.125 c -0.4375,0 -0.578125,-0.453125 -0.578125,-0.84375 0,-0.4375 0.25,-1.46875 0.46875,-1.90625 0.28125,-0.53125 0.703125,-0.859375 1.0625,-0.859375 0.59375,0 0.734375,0.71875 0.734375,0.78125 0,0.03125 -0.015625,0.09375 -0.03125,0.125 z m 0,0"
             id="id-c44112f5-f0ed-49c4-a1af-09f41a88beac" />
        </symbol>
        <symbol
           overflow="visible"
           id="id-5b35bbe5-4930-4184-bd34-36bcc443cb8e">
          <path
             style="stroke:none;stroke-width:0"
             d="m 1.90625,-3.59375 h 0.859375 c 0.15625,0 0.265625,0 0.265625,-0.15625 0,-0.109375 -0.09375,-0.109375 -0.25,-0.109375 H 1.984375 l 0.359375,-1.5 c 0,-0.140625 -0.109375,-0.25 -0.265625,-0.25 -0.296875,0 -0.359375,0.25 -0.390625,0.34375 l -0.34375,1.40625 H 0.5 c -0.171875,0 -0.28125,0 -0.28125,0.15625 0,0.109375 0.09375,0.109375 0.25,0.109375 h 0.8125 l -0.625,2.453125 c -0.0625,0.265625 -0.0625,0.28125 -0.0625,0.40625 0,0.53125 0.40625,0.828125 0.875,0.828125 0.921875,0 1.453125,-1.28125 1.453125,-1.375 0,-0.046875 -0.03125,-0.109375 -0.109375,-0.109375 -0.09375,0 -0.109375,0.03125 -0.171875,0.1875 C 2.375,-0.5625 1.921875,-0.125 1.484375,-0.125 c -0.1875,0 -0.296875,-0.109375 -0.296875,-0.40625 0,-0.203125 0.03125,-0.3125 0.0625,-0.453125 z m 0,0"
             id="id-5b6d8c96-5948-485e-b5e2-877f0895c0a4" />
        </symbol>
        <symbol
           overflow="visible"
           id="id-dae9b858-5174-4c7a-b207-31cbfb75908c">
          <path
             style="stroke:none;stroke-width:0"
             d="m 4.703125,-5.921875 c 0.03125,-0.125 0.03125,-0.140625 0.03125,-0.171875 0,-0.078125 -0.046875,-0.125 -0.140625,-0.125 -0.125,0 -0.90625,0.0625 -1.09375,0.078125 -0.078125,0.015625 -0.1875,0.03125 -0.1875,0.171875 0,0.125 0.109375,0.125 0.25,0.125 0.421875,0 0.421875,0.0625 0.421875,0.140625 0,0.0625 -0.078125,0.375 -0.125,0.5625 L 3.6875,-4.453125 C 3.59375,-4.109375 3.5,-3.765625 3.421875,-3.40625 3.25,-3.734375 2.984375,-3.96875 2.578125,-3.96875 1.53125,-3.96875 0.375,-2.71875 0.375,-1.359375 0.375,-0.375 1,0.09375 1.609375,0.09375 c 0.578125,0 1.046875,-0.484375 1.203125,-0.65625 0.09375,0.5 0.546875,0.65625 0.828125,0.65625 0.265625,0 0.484375,-0.109375 0.6875,-0.484375 0.15625,-0.296875 0.28125,-0.859375 0.28125,-0.890625 0,-0.046875 -0.03125,-0.109375 -0.109375,-0.109375 -0.109375,0 -0.125,0.046875 -0.15625,0.21875 C 4.140625,-0.390625 3.953125,-0.125 3.671875,-0.125 c -0.234375,0 -0.28125,-0.21875 -0.28125,-0.40625 0,-0.125 0.046875,-0.375 0.046875,-0.40625 z M 2.84375,-1.078125 C 2.8125,-0.9375 2.796875,-0.921875 2.65625,-0.75 2.328125,-0.359375 1.96875,-0.125 1.625,-0.125 c -0.4375,0 -0.578125,-0.453125 -0.578125,-0.84375 0,-0.4375 0.25,-1.46875 0.46875,-1.90625 0.28125,-0.53125 0.703125,-0.859375 1.0625,-0.859375 0.59375,0 0.734375,0.71875 0.734375,0.765625 0,0.046875 -0.015625,0.09375 -0.03125,0.140625 z m 0,0"
             id="id-90a36226-2203-4747-8827-ba52a15a8083" />
        </symbol>
      </g>
    </defs>
  </defs>
  <sodipodi:namedview
     id="base"
     pagecolor="#ffffff"
     bordercolor="#666666"
     borderopacity="1.0"
     inkscape:pageopacity="0.0"
     inkscape:pageshadow="2"
     inkscape:zoom="3.5779455"
     inkscape:cx="308.43825"
     inkscape:cy="392.61669"
     inkscape:document-units="mm"
     inkscape:current-layer="layer1"
     inkscape:document-rotation="0"
     showgrid="false"
     inkscape:window-width="1301"
     inkscape:window-height="728"
     inkscape:window-x="49"
     inkscape:window-y="0"
     inkscape:window-maximized="0"
     inkscape:snap-bbox="true"
     inkscape:object-paths="true"
     inkscape:snap-intersection-paths="true"
     inkscape:snap-smooth-nodes="true"
     inkscape:snap-midpoints="true"
     inkscape:snap-object-midpoints="true"
     inkscape:snap-global="false">
    <inkscape:grid
       type="xygrid"
       id="grid7660" />
  </sodipodi:namedview>
  <metadata
     id="metadata7609">
    <rdf:RDF>
      <cc:Work
         rdf:about="">
        <dc:format>image/svg+xml</dc:format>
        <dc:type
           rdf:resource="http://purl.org/dc/dcmitype/StillImage" />
        <dc:title></dc:title>
      </cc:Work>
    </rdf:RDF>
  </metadata>
  <g
     inkscape:label="图层 1"
     inkscape:groupmode="layer"
     id="layer1">
    <g
       id="g8668"
       transform="translate(-3.8638565,-25.182182)">
      <path
         style="fill:none;stroke:#000000;stroke-width:0.132292;stroke-linecap:butt;stroke-linejoin:miter;stroke-miterlimit:4;stroke-dasharray:none;stroke-opacity:1"
         d="m 66.145832,145.52083 3.439584,-3.43958"
         id="path8639" />
      <path
         style="fill:none;stroke:#000000;stroke-width:0.132292;stroke-linecap:butt;stroke-linejoin:miter;stroke-miterlimit:4;stroke-dasharray:none;stroke-opacity:1"
         d="m 70.200101,145.43531 8.482034,-8.48203"
         id="path8641" />
      <path
         style="fill:none;stroke:#000000;stroke-width:0.132292;stroke-linecap:butt;stroke-linejoin:miter;stroke-miterlimit:4;stroke-dasharray:none;stroke-opacity:1"
         d="M 74.168851,145.43531 87.611827,131.99234"
         id="path8643" />
      <path
         style="fill:none;stroke:#000000;stroke-width:0.132292;stroke-linecap:butt;stroke-linejoin:miter;stroke-miterlimit:4;stroke-dasharray:none;stroke-opacity:1"
         d="m 78.137601,145.43531 18.403898,-18.4039"
         id="path8645" />
      <path
         style="fill:none;stroke:#000000;stroke-width:0.132292;stroke-linecap:butt;stroke-linejoin:miter;stroke-miterlimit:4;stroke-dasharray:none;stroke-opacity:1"
         d="M 82.106351,145.43531 99.13323,128.40843"
         id="path8647" />
      <path
         style="fill:none;stroke:#000000;stroke-width:0.132292;stroke-linecap:butt;stroke-linejoin:miter;stroke-miterlimit:4;stroke-dasharray:none;stroke-opacity:1"
         d="M 86.075101,145.43531 99.13323,132.37718"
         id="path8649" />
      <path
         style="fill:none;stroke:#000000;stroke-width:0.132292;stroke-linecap:butt;stroke-linejoin:miter;stroke-miterlimit:4;stroke-dasharray:none;stroke-opacity:1"
         d="m 90.043851,145.43531 9.089379,-9.08938"
         id="path8653" />
      <path
         style="fill:none;stroke:#000000;stroke-width:0.132292;stroke-linecap:butt;stroke-linejoin:miter;stroke-miterlimit:4;stroke-dasharray:none;stroke-opacity:1"
         d="m 93.92708,145.52083 5.20615,-5.20615"
         id="path8655" />
      <path
         style="fill:none;stroke:#000000;stroke-width:0.132292;stroke-linecap:butt;stroke-linejoin:miter;stroke-miterlimit:4;stroke-dasharray:none;stroke-opacity:1"
         d="m 97.981351,145.43531 1.151879,-1.15188"
         id="path8657" />
    </g>
    <g
       id="g6962"
       transform="translate(2.8580492,-0.24226505)">
      <path
         style="fill:none;stroke:#000000;stroke-width:0.132292;stroke-linecap:butt;stroke-linejoin:miter;stroke-miterlimit:4;stroke-dasharray:none;stroke-opacity:1;marker-end:url(#marker1133)"
         d="m 56.6732,120.62768 h 46.54779"
         id="path22" />
      <path
         style="fill:none;stroke:#000000;stroke-width:0.132292;stroke-linecap:butt;stroke-linejoin:miter;stroke-miterlimit:4;stroke-dasharray:none;stroke-opacity:1;marker-end:url(#Arrow1Mend)"
         d="M 56.6732,120.62768 V 84.527659"
         id="path24" />
      <g
         style="fill:#000000;fill-opacity:1"
         id="id-9b001993-6fce-4066-a7d1-275504af9236"
         transform="matrix(0.352778,0,0,0.352778,1.3952721,76.363457)">
        <g
           transform="translate(148.712,134.765)"
           id="g6547">
          <path
             style="stroke:none;stroke-width:0"
             d="m 6.796875,-3.890625 c 0,-1.40625 -0.953125,-2.4375 -2.359375,-2.4375 -2,0 -3.984375,2.0625 -3.984375,4.109375 0,1.46875 1.015625,2.421875 2.359375,2.421875 2,0 3.984375,-2 3.984375,-4.09375 z M 2.875,-0.078125 c -0.859375,0 -1.5625,-0.640625 -1.5625,-1.90625 0,-0.46875 0.15625,-1.796875 0.890625,-2.828125 0.65625,-0.875 1.515625,-1.265625 2.171875,-1.265625 0.875,0 1.609375,0.640625 1.609375,1.859375 C 5.984375,-3.640625 5.75,-2.328125 5,-1.3125 4.328125,-0.421875 3.5,-0.078125 2.875,-0.078125 Z m 0,0"
             id="id-0388602a-72ac-41de-a16f-06f1595f746d" />
        </g>
      </g>
      <path
         style="fill:#000000;fill-opacity:1;stroke:none;stroke-width:0"
         d="m 1.90625,-3.59375 h 0.859375 c 0.15625,0 0.265625,0 0.265625,-0.15625 0,-0.109375 -0.09375,-0.109375 -0.25,-0.109375 H 1.984375 l 0.359375,-1.5 c 0,-0.140625 -0.109375,-0.25 -0.265625,-0.25 -0.296875,0 -0.359375,0.25 -0.390625,0.34375 l -0.34375,1.40625 H 0.5 c -0.171875,0 -0.28125,0 -0.28125,0.15625 0,0.109375 0.09375,0.109375 0.25,0.109375 h 0.8125 l -0.625,2.453125 c -0.0625,0.265625 -0.0625,0.28125 -0.0625,0.40625 0,0.53125 0.40625,0.828125 0.875,0.828125 0.921875,0 1.453125,-1.28125 1.453125,-1.375 0,-0.046875 -0.03125,-0.109375 -0.109375,-0.109375 -0.09375,0 -0.109375,0.03125 -0.171875,0.1875 C 2.375,-0.5625 1.921875,-0.125 1.484375,-0.125 c -0.1875,0 -0.296875,-0.109375 -0.296875,-0.40625 0,-0.203125 0.03125,-0.3125 0.0625,-0.453125 z m 0,0"
         id="id-7b807218-df5a-4198-b19d-6056cb0318d5"
         transform="matrix(0.35277801,0,0,0.35277801,100.94393,119.51968)" />
      <g
         style="fill:#000000;fill-opacity:1"
         id="id-3f238a48-ba66-4af1-a909-2d4b4ded6ed7"
         transform="matrix(0.352778,0,0,0.352778,10.731621,24.528046)">
        <g
           transform="translate(133.768,178.6)"
           id="g6579">
          <path
             style="stroke:none;stroke-width:0"
             d="m -6.2216922,-1.4535249 c 0,-0.625 -0.328125,-0.65625 -0.40625,-0.65625 -0.234375,0 -0.46875,0.234375 -0.46875,0.4375 0,0.140625 0.09375,0.21875 0.15625,0.265625 0.234375,0.21875 0.3125,0.515625 0.3125,0.75 0,0.390625 -0.5625,2.390625 -1.59375,2.390625 -0.6875,0 -0.6875,-0.625 -0.6875,-0.796875 0,-0.375 0.140625,-0.84375 0.453125,-1.65625 0.140625,-0.375 0.171875,-0.46875 0.171875,-0.625 0,-0.453125 -0.328125,-0.765625 -0.765625,-0.765625 -0.859375,0 -1.2187498,1.28125 -1.2187498,1.390625 0,0.078125 0.0625,0.109375 0.125,0.109375 0.09375,0 0.109375,-0.0625 0.140625,-0.171875 0.1874998,-0.65625 0.5468748,-1.09375 0.9218748,-1.09375 0.171875,0 0.21875,0.109375 0.21875,0.296875 0,0.140625 -0.046875,0.3125 -0.125,0.515625 -0.3125,0.875 -0.53125,1.4375 -0.53125,1.890625 0,0.84375 0.640625,1.125 1.25,1.125 1.515625,0 2.046875,-2.828125 2.046875,-3.40625 z m 0,0"
             id="id-246a479e-5ae3-4dc2-86e9-e48e3e4ab8e2" />
        </g>
      </g>
    </g>
    <path
       style="fill:#000000;fill-opacity:1;stroke:none;stroke-width:0"
       d="m 96.435477,122.22266 h 0.30316 c 0.0551,0 0.0937,0 0.0937,-0.0551 0,-0.0386 -0.0331,-0.0386 -0.0882,-0.0386 h -0.28112 l 0.12678,-0.52917 c 0,-0.0496 -0.0386,-0.0882 -0.0937,-0.0882 -0.10473,0 -0.126778,0.0882 -0.137798,0.12127 l -0.121271,0.49609 h -0.297659 c -0.0606,0 -0.0992,0 -0.0992,0.0551 0,0.0386 0.0331,0.0386 0.0882,0.0386 H 96.215 l -0.22049,0.8654 c -0.02201,0.0937 -0.02201,0.0992 -0.02201,0.14332 0,0.18741 0.143311,0.29215 0.308681,0.29215 0.32521,0 0.51263,-0.452 0.51263,-0.48507 0,-0.0165 -0.01101,-0.0386 -0.0386,-0.0386 -0.0331,0 -0.0386,0.011 -0.0606,0.0662 -0.0937,0.22599 -0.253561,0.38034 -0.4079,0.38034 -0.0661,0 -0.10473,-0.0386 -0.10473,-0.14332 0,-0.0717 0.01101,-0.11024 0.02209,-0.15985 z m 0,0"
       id="id-7b807218-df5a-4198-b19d-6056cb0318d5-6" />
    <path
       style="fill:none;stroke:#000000;stroke-width:0.264583px;stroke-linecap:butt;stroke-linejoin:miter;stroke-opacity:1"
       d="m 59.53125,120.38542 41.1676,-22.845038"
       id="path7565" />
    <path
       style="fill:none;stroke:#000000;stroke-width:0.13229167;stroke-linecap:butt;stroke-linejoin:miter;stroke-opacity:1;stroke-miterlimit:4;stroke-dasharray:none"
       d="M 95.25,120.38542 V 100.63838"
       id="path7567" />
    <rect
       style="fill:#ffffff;stroke:none;stroke-width:0.132292;stroke-linecap:square;stroke-miterlimit:4;stroke-dasharray:none;stroke-opacity:1"
       id="rect8670"
       width="13.724774"
       height="9.9149647"
       x="80.079895"
       y="109.40524" />
    <g
       id="g8461"
       transform="translate(6.8793008,20.07296)">
      <g
         style="fill:#000000;fill-opacity:1"
         id="id-bc5f0a88-b9e7-4762-892a-ddcb5309efb5"
         transform="matrix(0.352778,0,0,0.352778,-26.344897,42.56781)">
        <g
           transform="translate(286.313,136.975)"
           id="g8283">
          <path
             style="stroke:none;stroke-width:0"
             d="M 8.25,0.453125 C 7.84375,0.484375 7.8125,0.796875 7.8125,0.890625 7.8125,1.1875 8.046875,1.34375 8.25,1.34375 8.46875,1.34375 8.703125,1.1875 8.703125,0.875 8.703125,0.390625 8.21875,0 7.6875,0 6.765625,0 6.25,1.1875 5.84375,2.5625 5.609375,3.34375 4.453125,7.828125 3.5,13.140625 3.34375,14 2.90625,16.46875 2.546875,17.828125 c -0.140625,0.515625 -0.515625,1.875 -1.03125,1.875 -0.078125,0 -0.34375,-0.01563 -0.5625,-0.21875 0.40625,-0.04687 0.453125,-0.359375 0.453125,-0.4375 0,-0.3125 -0.25,-0.453125 -0.453125,-0.453125 -0.203125,0 -0.4375,0.140625 -0.4375,0.453125 0,0.5 0.484375,0.875 1.015625,0.875 0.90625,0 1.4375,-1.1875 1.84375,-2.546875 0.234375,-0.796875 1.390625,-5.28125 2.34375,-10.578125 0.140625,-0.875 0.59375,-3.34375 0.9375,-4.6875 C 6.8125,1.59375 7.1875,0.21875 7.6875,0.21875 c 0.078125,0 0.34375,0.015625 0.5625,0.234375 z m 0,0"
             id="id-1ab8f04d-dd53-4625-b1c1-20e687594961" />
        </g>
      </g>
      <g
         style="fill:#000000;fill-opacity:1"
         id="id-f4763ccf-3983-483a-9d2a-5f8e30918c12"
         transform="matrix(0.352778,0,0,0.352778,-26.344897,42.56781)">
        <g
           transform="translate(295.528,139.438)"
           id="g8287">
          <path
             style="stroke:none;stroke-width:0"
             d="m 1.609375,-2.34375 h 0.65625 c 0.109375,0 0.203125,0 0.203125,-0.140625 0,-0.09375 -0.078125,-0.09375 -0.1875,-0.09375 H 1.671875 L 1.875,-3.40625 c 0.03125,-0.09375 0.03125,-0.125 0.03125,-0.125 0,-0.15625 -0.109375,-0.203125 -0.21875,-0.203125 -0.0625,0 -0.21875,0.03125 -0.28125,0.234375 L 1.171875,-2.578125 H 0.53125 c -0.125,0 -0.125,0 -0.15625,0.015625 -0.03125,0.03125 -0.046875,0.109375 -0.046875,0.140625 0.015625,0.078125 0.0625,0.078125 0.1875,0.078125 H 1.125 l -0.359375,1.421875 c -0.03125,0.125 -0.078125,0.328125 -0.078125,0.40625 0,0.34375 0.3125,0.578125 0.671875,0.578125 0.6875,0 1.09375,-0.828125 1.09375,-0.921875 0,-0.015625 -0.015625,-0.09375 -0.109375,-0.09375 -0.078125,0 -0.09375,0.03125 -0.125,0.109375 -0.203125,0.453125 -0.546875,0.703125 -0.84375,0.703125 -0.21875,0 -0.21875,-0.21875 -0.21875,-0.296875 0,-0.078125 0,-0.09375 0.03125,-0.203125 z m 0,0"
             id="id-f333795e-1fbc-4ffc-9955-92a17bb896d5" />
        </g>
      </g>
      <g
         style="fill:#000000;fill-opacity:1"
         id="id-095ac5d8-1c77-4b27-990a-2b8ea60ddef3"
         transform="matrix(0.352778,0,0,0.352778,-26.344897,42.56781)">
        <g
           transform="translate(291.433,157.398)"
           id="g8291">
          <path
             style="stroke:none;stroke-width:0"
             d="m 3.296875,-1.90625 c 0,-0.4375 0,-2.078125 -1.46875,-2.078125 -1.46875,0 -1.46875,1.640625 -1.46875,2.078125 0,0.421875 0,2.03125 1.46875,2.03125 1.46875,0 1.46875,-1.609375 1.46875,-2.03125 z m -1.46875,1.84375 c -0.25,0 -0.65625,-0.125 -0.8125,-0.625 -0.09375,-0.34375 -0.09375,-0.921875 -0.09375,-1.296875 0,-0.40625 0,-0.859375 0.09375,-1.1875 0.140625,-0.53125 0.59375,-0.609375 0.8125,-0.609375 0.265625,0 0.671875,0.125 0.796875,0.578125 0.09375,0.3125 0.09375,0.75 0.09375,1.21875 0,0.375 0,0.984375 -0.09375,1.3125 C 2.453125,-0.140625 2.015625,-0.0625 1.828125,-0.0625 Z m 0,0"
             id="id-a5cb3c6b-31c9-4058-9a53-db8966679beb" />
        </g>
      </g>
      <g
         transform="matrix(0.352778,0,0,0.352778,79.6342,95.194879)"
         id="g8295"
         style="fill:#000000;fill-opacity:1">
        <path
           style="stroke:none;stroke-width:0"
           d="M 3.421875,-3.40625 C 3.25,-3.734375 2.984375,-3.96875 2.578125,-3.96875 1.53125,-3.96875 0.375,-2.71875 0.375,-1.359375 0.375,-0.375 1,0.09375 1.609375,0.09375 c 0.578125,0 1.046875,-0.484375 1.203125,-0.65625 0.09375,0.5 0.546875,0.65625 0.828125,0.65625 0.265625,0 0.484375,-0.109375 0.6875,-0.484375 0.15625,-0.296875 0.28125,-0.859375 0.28125,-0.890625 0,-0.046875 -0.03125,-0.109375 -0.109375,-0.109375 -0.109375,0 -0.125,0.046875 -0.15625,0.21875 C 4.140625,-0.390625 3.953125,-0.125 3.671875,-0.125 c -0.234375,0 -0.28125,-0.21875 -0.28125,-0.40625 0,-0.171875 0.046875,-0.359375 0.125,-0.671875 L 3.734375,-2.125 C 3.796875,-2.34375 3.96875,-3.015625 4,-3.15625 c 0.03125,-0.125 0.09375,-0.34375 0.09375,-0.375 0,-0.140625 -0.125,-0.25 -0.28125,-0.25 -0.125,0 -0.34375,0.0625 -0.390625,0.375 z M 2.84375,-1.09375 C 2.796875,-0.921875 2.796875,-0.921875 2.65625,-0.75 2.328125,-0.359375 1.96875,-0.125 1.625,-0.125 c -0.4375,0 -0.578125,-0.453125 -0.578125,-0.84375 0,-0.4375 0.25,-1.46875 0.46875,-1.90625 0.28125,-0.53125 0.703125,-0.859375 1.0625,-0.859375 0.59375,0 0.734375,0.71875 0.734375,0.78125 0,0.03125 -0.015625,0.09375 -0.03125,0.125 z m 0,0"
           id="id-38398f59-8c50-4e79-9e0b-71a31030e8b6" />
      </g>
      <g
         transform="matrix(0.352778,0,0,0.352778,81.356463,95.194879)"
         id="g8298"
         style="fill:#000000;fill-opacity:1">
        <path
           style="stroke:none;stroke-width:0"
           d="m 1.90625,-3.59375 h 0.859375 c 0.15625,0 0.265625,0 0.265625,-0.15625 0,-0.109375 -0.09375,-0.109375 -0.25,-0.109375 H 1.984375 l 0.359375,-1.5 c 0,-0.140625 -0.109375,-0.25 -0.265625,-0.25 -0.296875,0 -0.359375,0.25 -0.390625,0.34375 l -0.34375,1.40625 H 0.5 c -0.171875,0 -0.28125,0 -0.28125,0.15625 0,0.109375 0.09375,0.109375 0.25,0.109375 h 0.8125 l -0.625,2.453125 c -0.0625,0.265625 -0.0625,0.28125 -0.0625,0.40625 0,0.53125 0.40625,0.828125 0.875,0.828125 0.921875,0 1.453125,-1.28125 1.453125,-1.375 0,-0.046875 -0.03125,-0.109375 -0.109375,-0.109375 -0.09375,0 -0.109375,0.03125 -0.171875,0.1875 C 2.375,-0.5625 1.921875,-0.125 1.484375,-0.125 c -0.1875,0 -0.296875,-0.109375 -0.296875,-0.40625 0,-0.203125 0.03125,-0.3125 0.0625,-0.453125 z m 0,0"
           id="id-64360f90-1a77-4859-b366-e92c991f0796" />
      </g>
      <g
         transform="matrix(0.352778,0,0,0.352778,82.530508,95.194879)"
         id="g8301"
         style="fill:#000000;fill-opacity:1">
        <path
           style="stroke:none;stroke-width:0"
           d="m 4.703125,-5.921875 c 0.03125,-0.125 0.03125,-0.140625 0.03125,-0.171875 0,-0.078125 -0.046875,-0.125 -0.140625,-0.125 -0.125,0 -0.90625,0.0625 -1.09375,0.078125 -0.078125,0.015625 -0.1875,0.03125 -0.1875,0.171875 0,0.125 0.109375,0.125 0.25,0.125 0.421875,0 0.421875,0.0625 0.421875,0.140625 0,0.0625 -0.078125,0.375 -0.125,0.5625 L 3.6875,-4.453125 C 3.59375,-4.109375 3.5,-3.765625 3.421875,-3.40625 3.25,-3.734375 2.984375,-3.96875 2.578125,-3.96875 1.53125,-3.96875 0.375,-2.71875 0.375,-1.359375 0.375,-0.375 1,0.09375 1.609375,0.09375 c 0.578125,0 1.046875,-0.484375 1.203125,-0.65625 0.09375,0.5 0.546875,0.65625 0.828125,0.65625 0.265625,0 0.484375,-0.109375 0.6875,-0.484375 0.15625,-0.296875 0.28125,-0.859375 0.28125,-0.890625 0,-0.046875 -0.03125,-0.109375 -0.109375,-0.109375 -0.109375,0 -0.125,0.046875 -0.15625,0.21875 C 4.140625,-0.390625 3.953125,-0.125 3.671875,-0.125 c -0.234375,0 -0.28125,-0.21875 -0.28125,-0.40625 0,-0.125 0.046875,-0.375 0.046875,-0.40625 z M 2.84375,-1.078125 C 2.8125,-0.9375 2.796875,-0.921875 2.65625,-0.75 2.328125,-0.359375 1.96875,-0.125 1.625,-0.125 c -0.4375,0 -0.578125,-0.453125 -0.578125,-0.84375 0,-0.4375 0.25,-1.46875 0.46875,-1.90625 0.28125,-0.53125 0.703125,-0.859375 1.0625,-0.859375 0.59375,0 0.734375,0.71875 0.734375,0.765625 0,0.046875 -0.015625,0.09375 -0.03125,0.140625 z m 0,0"
           id="id-181b2f5f-c8d1-4b49-9b76-74760146fae1" />
      </g>
      <g
         transform="matrix(0.352778,0,0,0.352778,84.21467,95.194879)"
         id="g8304"
         style="fill:#000000;fill-opacity:1">
        <path
           style="stroke:none;stroke-width:0"
           d="m 1.90625,-3.59375 h 0.859375 c 0.15625,0 0.265625,0 0.265625,-0.15625 0,-0.109375 -0.09375,-0.109375 -0.25,-0.109375 H 1.984375 l 0.359375,-1.5 c 0,-0.140625 -0.109375,-0.25 -0.265625,-0.25 -0.296875,0 -0.359375,0.25 -0.390625,0.34375 l -0.34375,1.40625 H 0.5 c -0.171875,0 -0.28125,0 -0.28125,0.15625 0,0.109375 0.09375,0.109375 0.25,0.109375 h 0.8125 l -0.625,2.453125 c -0.0625,0.265625 -0.0625,0.28125 -0.0625,0.40625 0,0.53125 0.40625,0.828125 0.875,0.828125 0.921875,0 1.453125,-1.28125 1.453125,-1.375 0,-0.046875 -0.03125,-0.109375 -0.109375,-0.109375 -0.09375,0 -0.109375,0.03125 -0.171875,0.1875 C 2.375,-0.5625 1.921875,-0.125 1.484375,-0.125 c -0.1875,0 -0.296875,-0.109375 -0.296875,-0.40625 0,-0.203125 0.03125,-0.3125 0.0625,-0.453125 z m 0,0"
           id="id-713871f7-32af-4ff6-bd7e-08c2f2ca0d2c" />
      </g>
    </g>
    <path
       style="fill:none;stroke:#000000;stroke-width:0.13229167;stroke-linecap:butt;stroke-linejoin:miter;stroke-opacity:1;stroke-miterlimit:4;stroke-dasharray:none"
       d="m 95.249999,100.63838 h 2.99022"
       id="path8678" />
    <path
       style="fill:none;stroke:#000000;stroke-width:0.132292;stroke-linecap:butt;stroke-linejoin:miter;stroke-miterlimit:4;stroke-dasharray:none;stroke-opacity:1;marker-start:url(#Arrow1Mstart);marker-end:url(#marker8684)"
       d="m 97.45942,100.63838 v 19.74703"
       id="path8680" />
    <rect
       style="fill:#ffffff;stroke:none;stroke-width:0.132292;stroke-linecap:square;stroke-miterlimit:4;stroke-dasharray:none;stroke-opacity:1"
       id="rect8790"
       width="4.3024912"
       height="4.7327404"
       x="95.608002"
       y="108.14552" />
    <g
       id="g8676"
       transform="translate(10.608749,16.289912)"
       style="stroke-width:0.132292;stroke-miterlimit:4;stroke-dasharray:none">
      <g
         transform="matrix(0.352778,0,0,0.352778,85.388715,95.194879)"
         id="g8307"
         style="fill:#000000;fill-opacity:1;stroke-width:0.375;stroke-miterlimit:4;stroke-dasharray:none">
        <path
           style="stroke:none;stroke-width:0.375;stroke-miterlimit:4;stroke-dasharray:none"
           d="M 3.421875,-3.40625 C 3.25,-3.734375 2.984375,-3.96875 2.578125,-3.96875 1.53125,-3.96875 0.375,-2.71875 0.375,-1.359375 0.375,-0.375 1,0.09375 1.609375,0.09375 c 0.578125,0 1.046875,-0.484375 1.203125,-0.65625 0.09375,0.5 0.546875,0.65625 0.828125,0.65625 0.265625,0 0.484375,-0.109375 0.6875,-0.484375 0.15625,-0.296875 0.28125,-0.859375 0.28125,-0.890625 0,-0.046875 -0.03125,-0.109375 -0.109375,-0.109375 -0.109375,0 -0.125,0.046875 -0.15625,0.21875 C 4.140625,-0.390625 3.953125,-0.125 3.671875,-0.125 c -0.234375,0 -0.28125,-0.21875 -0.28125,-0.40625 0,-0.171875 0.046875,-0.359375 0.125,-0.671875 L 3.734375,-2.125 C 3.796875,-2.34375 3.96875,-3.015625 4,-3.15625 c 0.03125,-0.125 0.09375,-0.34375 0.09375,-0.375 0,-0.140625 -0.125,-0.25 -0.28125,-0.25 -0.125,0 -0.34375,0.0625 -0.390625,0.375 z M 2.84375,-1.09375 C 2.796875,-0.921875 2.796875,-0.921875 2.65625,-0.75 2.328125,-0.359375 1.96875,-0.125 1.625,-0.125 c -0.4375,0 -0.578125,-0.453125 -0.578125,-0.84375 0,-0.4375 0.25,-1.46875 0.46875,-1.90625 0.28125,-0.53125 0.703125,-0.859375 1.0625,-0.859375 0.59375,0 0.734375,0.71875 0.734375,0.78125 0,0.03125 -0.015625,0.09375 -0.03125,0.125 z m 0,0"
           id="id-1d82685e-e037-4716-84f2-7f9737e4f555" />
      </g>
      <g
         transform="matrix(0.352778,0,0,0.352778,87.110977,95.194879)"
         id="g8310"
         style="fill:#000000;fill-opacity:1;stroke-width:0.375;stroke-miterlimit:4;stroke-dasharray:none">
        <path
           style="stroke:none;stroke-width:0.375;stroke-miterlimit:4;stroke-dasharray:none"
           d="m 1.90625,-3.59375 h 0.859375 c 0.15625,0 0.265625,0 0.265625,-0.15625 0,-0.109375 -0.09375,-0.109375 -0.25,-0.109375 H 1.984375 l 0.359375,-1.5 c 0,-0.140625 -0.109375,-0.25 -0.265625,-0.25 -0.296875,0 -0.359375,0.25 -0.390625,0.34375 l -0.34375,1.40625 H 0.5 c -0.171875,0 -0.28125,0 -0.28125,0.15625 0,0.109375 0.09375,0.109375 0.25,0.109375 h 0.8125 l -0.625,2.453125 c -0.0625,0.265625 -0.0625,0.28125 -0.0625,0.40625 0,0.53125 0.40625,0.828125 0.875,0.828125 0.921875,0 1.453125,-1.28125 1.453125,-1.375 0,-0.046875 -0.03125,-0.109375 -0.109375,-0.109375 -0.09375,0 -0.109375,0.03125 -0.171875,0.1875 C 2.375,-0.5625 1.921875,-0.125 1.484375,-0.125 c -0.1875,0 -0.296875,-0.109375 -0.296875,-0.40625 0,-0.203125 0.03125,-0.3125 0.0625,-0.453125 z m 0,0"
           id="id-a8bb91ed-b7b8-4281-abac-9bb01ff4cfc2" />
      </g>
    </g>
  </g>
</svg>
