<?xml version="1.0" encoding="UTF-8" standalone="no"?>
<svg
   xmlns:dc="http://purl.org/dc/elements/1.1/"
   xmlns:cc="http://creativecommons.org/ns#"
   xmlns:rdf="http://www.w3.org/1999/02/22-rdf-syntax-ns#"
   xmlns:svg="http://www.w3.org/2000/svg"
   xmlns="http://www.w3.org/2000/svg"
   xmlns:sodipodi="http://sodipodi.sourceforge.net/DTD/sodipodi-0.dtd"
   xmlns:inkscape="http://www.inkscape.org/namespaces/inkscape"
   sodipodi:docname="fig01.16.svg"
   viewBox="0 0 415.13513 591.56757"
   height="591.56757"
   width="415.13513"
   id="svg3261"
   version="1.1"
   inkscape:version="1.0.1 (3bc2e813f5, 2020-09-07)">
  <metadata
     id="metadata3267">
    <rdf:RDF>
      <cc:Work
         rdf:about="">
        <dc:format>image/svg+xml</dc:format>
        <dc:type
           rdf:resource="http://purl.org/dc/dcmitype/StillImage" />
        <dc:title></dc:title>
      </cc:Work>
    </rdf:RDF>
  </metadata>
  <defs
     id="defs3265">
    <marker
       style="overflow:visible"
       id="marker4461"
       refX="0.0"
       refY="0.0"
       orient="auto"
       inkscape:stockid="Arrow1Mstart"
       inkscape:isstock="true">
      <path
         transform="scale(0.4) translate(10,0)"
         style="fill-rule:evenodd;stroke:#000000;stroke-width:1pt;stroke-opacity:1;fill:#000000;fill-opacity:1"
         d="M 0.0,0.0 L 5.0,-5.0 L -12.5,0.0 L 5.0,5.0 L 0.0,0.0 z "
         id="path4459" />
    </marker>
    <marker
       style="overflow:visible"
       id="Arrow1Mstart"
       refX="0.0"
       refY="0.0"
       orient="auto"
       inkscape:stockid="Arrow1Mstart"
       inkscape:isstock="true"
       inkscape:collect="always">
      <path
         transform="scale(0.4) translate(10,0)"
         style="fill-rule:evenodd;stroke:#000000;stroke-width:1pt;stroke-opacity:1;fill:#000000;fill-opacity:1"
         d="M 0.0,0.0 L 5.0,-5.0 L -12.5,0.0 L 5.0,5.0 L 0.0,0.0 z "
         id="path3935" />
    </marker>
    <marker
       style="overflow:visible;"
       id="marker4259"
       refX="0.0"
       refY="0.0"
       orient="auto"
       inkscape:stockid="Arrow1Mend"
       inkscape:isstock="true">
      <path
         transform="scale(0.4) rotate(180) translate(10,0)"
         style="fill-rule:evenodd;stroke:#000000;stroke-width:1pt;stroke-opacity:1;fill:#000000;fill-opacity:1"
         d="M 0.0,0.0 L 5.0,-5.0 L -12.5,0.0 L 5.0,5.0 L 0.0,0.0 z "
         id="path4257" />
    </marker>
    <marker
       style="overflow:visible;"
       id="marker4209"
       refX="0.0"
       refY="0.0"
       orient="auto"
       inkscape:stockid="Arrow1Mend"
       inkscape:isstock="true"
       inkscape:collect="always">
      <path
         transform="scale(0.4) rotate(180) translate(10,0)"
         style="fill-rule:evenodd;stroke:#000000;stroke-width:1pt;stroke-opacity:1;fill:#000000;fill-opacity:1"
         d="M 0.0,0.0 L 5.0,-5.0 L -12.5,0.0 L 5.0,5.0 L 0.0,0.0 z "
         id="path4207" />
    </marker>
    <marker
       style="overflow:visible;"
       id="Arrow1Mend"
       refX="0.0"
       refY="0.0"
       orient="auto"
       inkscape:stockid="Arrow1Mend"
       inkscape:isstock="true"
       inkscape:collect="always">
      <path
         transform="scale(0.4) rotate(180) translate(10,0)"
         style="fill-rule:evenodd;stroke:#000000;stroke-width:1pt;stroke-opacity:1;fill:#000000;fill-opacity:1"
         d="M 0.0,0.0 L 5.0,-5.0 L -12.5,0.0 L 5.0,5.0 L 0.0,0.0 z "
         id="path3938" />
    </marker>
  </defs>
  <sodipodi:namedview
     pagecolor="#ffffff"
     bordercolor="#666666"
     borderopacity="1"
     objecttolerance="10"
     gridtolerance="10"
     guidetolerance="10"
     inkscape:pageopacity="0"
     inkscape:pageshadow="2"
     inkscape:window-width="1366"
     inkscape:window-height="705"
     id="namedview3263"
     showgrid="false"
     inkscape:zoom="3.3839629"
     inkscape:cx="154.77611"
     inkscape:cy="154.01817"
     inkscape:window-x="-8"
     inkscape:window-y="-8"
     inkscape:window-maximized="1"
     inkscape:current-layer="g3269"
     inkscape:document-rotation="0" />
  <g
     inkscape:groupmode="layer"
     inkscape:label="Image"
     id="g3269">
    <path
       style="fill:none;stroke:#000000;stroke-width:1.0161;stroke-linecap:square;stroke-miterlimit:4;stroke-dasharray:none"
       d="m 128.23677,187.66155 c 0.61688,-0.39206 1.23377,-1.9422 1.85066,-2.32556 0.61546,-0.3841 1.23235,-1.90234 1.84924,-2.27846 0.61687,-0.3754 1.23234,-1.86248 1.84923,-2.23063 0.61689,-0.36742 1.23377,-1.82334 1.84923,-2.1828 0.6169,-0.36017 1.23378,-1.78421 1.85067,-2.13568 0.61688,-0.35221 1.23234,-1.74436 1.84923,-2.08859 0.6169,-0.34423 1.23379,-1.7045 1.84925,-2.04075 0.61688,-0.33626 1.23378,-1.66537 1.85065,-1.99366 0.61547,-0.32829 1.23235,-1.6255 1.84925,-1.94582 0.61688,-0.32031 1.23234,-1.58564 1.84923,-1.89798 0.61689,-0.31235 1.23377,-1.54652 1.84924,-1.85089 0.61688,-0.3051 1.23376,-1.50738 1.85065,-1.80377 0.61547,-0.29642 1.23236,-1.46752 1.84924,-1.75595 0.61689,-0.28844 1.23235,-1.42766 1.84924,-1.70884 0.61688,-0.28047 1.23378,-1.38781 1.84923,-1.66103 0.6169,-0.27248 1.23379,-1.34866 1.85067,-1.61317 0.61547,-0.26524 1.23235,-1.30954 1.84924,-1.5668 0.61689,-0.25655 1.23235,-1.26895 1.84923,-1.51825 0.61689,-0.2493 1.23379,-1.22982 1.84925,-1.47114 0.61688,-0.24133 1.23376,-1.19069 1.85064,-1.42404 0.6169,-0.23335 1.23236,-1.15082 1.84925,-1.3762 0.61688,-0.22539 1.23377,-1.1117 1.84924,-1.3291 0.61688,-0.21741 1.23376,-1.07183 1.85066,-1.28127 0.61546,-0.20944 1.23236,-1.0327 1.84924,-1.23417 0.61688,-0.20147 1.23235,-0.99284 1.84923,-1.18633 0.61689,-0.19422 1.23378,-0.95298 1.84924,-1.13923 0.61688,-0.18553 1.23378,-0.91385 1.85066,-1.0914 0.61547,-0.17828 1.23235,-0.87399 1.84923,-1.04429 0.61689,-0.17031 1.23235,-0.83413 1.84924,-0.99646 0.61689,-0.16234 1.23378,-0.79499 1.84924,-0.94937 0.61689,-0.15435 1.23376,-0.75513 1.85065,-0.90152 0.61547,-0.14638 1.23237,-0.716 1.84925,-0.85442 0.61689,-0.13842 1.23235,-0.67615 1.84925,-0.80659 0.61687,-0.13117 1.23376,-0.63702 1.84922,-0.75948 0.61689,-0.12248 1.23378,-0.59716 1.85067,-0.71238 0.61688,-0.11451 1.23234,-0.5573 1.84924,-0.66383 0.61688,-0.10725 1.23376,-0.51816 1.84922,-0.61745 0.61689,-0.0986 1.23378,-0.4783 1.85067,-0.56961 0.61546,-0.0906 1.23235,-0.43917 1.84922,-0.52178 0.61691,-0.0833 1.23236,-0.39931 1.84926,-0.47468 0.61688,-0.0754 1.23378,-0.36018 1.84924,-0.42685 0.61689,-0.0674 1.23376,-0.32032 1.85065,-0.37975 0.61546,-0.0594 1.23236,-0.28118 1.84924,-0.33263 0.61689,-0.0515 1.23235,-0.24133 1.84924,-0.28481 0.61689,-0.0435 1.23377,-0.20146 1.84923,-0.23698 0.61688,-0.0355 1.23378,-0.16233 1.85066,-0.18987 0.61546,-0.0275 1.23235,-0.12247 1.84924,-0.14276 0.61688,-0.0195 1.23235,-0.0826 1.84923,-0.0949 0.6169,-0.0116 1.23379,-0.0435 1.84925,-0.0471 0.61689,-0.004 1.23378,-0.004 1.85065,0 0.61547,0.004 1.23236,0.0355 1.84924,0.0471 0.61689,0.0124 1.23378,0.0754 1.84925,0.0949 0.61688,0.0203 1.23377,0.11522 1.85064,0.14276 0.61547,0.0275 1.23236,0.15437 1.84925,0.18987 0.61688,0.0355 1.23234,0.1935 1.84923,0.23698 0.6169,0.0435 1.23377,0.23336 1.84924,0.28481 0.61688,0.0515 1.23379,0.27321 1.85067,0.33263 0.61546,0.0594 1.23235,0.31235 1.84924,0.37975 0.61688,0.0666 1.23235,0.35147 1.84923,0.42685 0.61688,0.0754 1.23377,0.39133 1.84924,0.47468 0.61689,0.0826 1.23377,0.43119 1.85065,0.52178 0.61547,0.0913 1.23235,0.47105 1.84924,0.56961 0.61689,0.0993 1.23235,0.5102 1.84923,0.61745 0.6169,0.10653 1.23379,0.54932 1.84925,0.66383 0.61688,0.11522 1.23377,0.5899 1.85067,0.71238 0.61546,0.12246 1.23234,0.62831 1.84923,0.75948 0.61689,0.13044 1.23377,0.66817 1.84924,0.80659 0.61688,0.13842 1.23376,0.70804 1.85066,0.85442 0.61546,0.14639 1.23235,0.74717 1.84923,0.90152 0.61689,0.15438 1.23236,0.78703 1.84923,0.94937 0.61689,0.16233 1.23378,0.82615 1.84925,0.99646 0.61688,0.1703 1.23377,0.86601 1.85065,1.04429 0.61547,0.17755 1.23236,0.90587 1.84924,1.0914 0.6169,0.18625 1.23236,0.94501 1.84924,1.13923 0.6169,0.19349 1.23378,0.98486 1.84924,1.18633 0.61689,0.20147 1.23378,1.02473 1.85066,1.23417 0.61546,0.20944 1.23235,1.06386 1.84924,1.28127 0.61689,0.2174 1.23235,1.10371 1.84924,1.3291 0.61687,0.22538 1.23376,1.14285 1.84923,1.3762 0.61689,0.23335 1.23377,1.18271 1.85066,1.42404 0.61546,0.24132 1.23235,1.22184 1.84924,1.47114 0.61689,0.2493 1.23377,1.2617 1.84924,1.51825 0.61689,0.25726 1.23378,1.30156 1.85066,1.5668 0.61546,0.26451 1.23236,1.34069 1.84924,1.61317 0.61688,0.27322 1.23234,1.38056 1.84923,1.66103 0.61689,0.28118 1.23378,1.4204 1.84924,1.70884 0.61689,0.28843 1.23376,1.45953 1.85066,1.75595 0.61546,0.29639 1.23235,1.49867 1.84923,1.80377 0.6169,0.30437 1.23236,1.53854 1.84924,1.85089 0.61689,0.31234 1.23378,1.57767 1.84923,1.89798 0.6169,0.32032 1.23379,1.61753 1.85068,1.94582 0.61546,0.32829 1.23235,1.6574 1.84923,1.99366 0.61689,0.33625 1.23235,1.69652 1.84923,2.04075 0.6169,0.34423 1.23378,1.73638 1.84924,2.08859 0.61689,0.35147 1.23378,1.77551 1.85066,2.13568 0.61547,0.35946 1.23235,1.81538 1.84923,2.1828 0.6169,0.36815 1.23379,1.85523 1.84925,2.23063 0.61688,0.37612 1.23376,1.89436 1.85067,2.27846 0.61545,0.38336 1.23234,1.9335 1.84923,2.32556"
       title="x*x"
       id="path3922" />
    <path
       style="fill:none;stroke:#000000;stroke-width:1px;stroke-linecap:butt;stroke-linejoin:miter;stroke-opacity:1;marker-end:url(#Arrow1Mend);marker-start:url(#marker4461)"
       d="m 163.282,138.31415 -35.04523,49.3474 h 217.71131"
       id="path3927" />
    <path
       style="fill:none;stroke:#000000;stroke-width:1px;stroke-linecap:butt;stroke-linejoin:miter;stroke-opacity:1;marker-end:url(#marker4209)"
       d="M 128.23677,210.64087 V 99.366148"
       id="path4205"
       sodipodi:nodetypes="cc" />
    <path
       style="fill:none;stroke:#000000;stroke-width:1px;stroke-linecap:butt;stroke-linejoin:miter;stroke-opacity:1"
       d="m 311.34969,187.66155 v 21.53794"
       id="path4241"
       sodipodi:nodetypes="cc" />
    <path
       style="fill:none;stroke:#000000;stroke-width:1;stroke-linecap:butt;stroke-linejoin:miter;stroke-miterlimit:4;stroke-dasharray:none;stroke-opacity:1;marker-start:url(#Arrow1Mstart);marker-end:url(#marker4259)"
       d="m 130.6224,204.07231 178.34166,0.50602"
       id="path4255"
       sodipodi:nodetypes="cc" />
    <path
       style="fill:none;stroke:#000000;stroke-width:1px;stroke-linecap:butt;stroke-linejoin:miter;stroke-opacity:1"
       d="M 219.79323,187.38862 V 129.51715"
       id="path4365"
       sodipodi:nodetypes="cc" />
    <text
       xml:space="preserve"
       style="font-size:12px;line-height:1.25;font-family:sans-serif;-inkscape-font-specification:'sans-serif, Normal'"
       x="222.5497"
       y="165.49738"
       id="text4369"><tspan
         sodipodi:role="line"
         id="tspan4367"
         x="222.5497"
         y="165.49738">$H$</tspan></text>
    <text
       xml:space="preserve"
       style="font-size:12px;line-height:1.25;font-family:sans-serif;-inkscape-font-specification:'sans-serif, Normal'"
       x="215.61212"
       y="201.85199"
       id="text4373"><tspan
         sodipodi:role="line"
         id="tspan4371"
         x="215.61212"
         y="201.85199">$R$</tspan></text>
    <text
       xml:space="preserve"
       style="font-size:12px;line-height:1.25;font-family:sans-serif;-inkscape-font-specification:'sans-serif, Normal'"
       x="335.04263"
       y="184.27278"
       id="text4377"><tspan
         sodipodi:role="line"
         id="tspan4375"
         x="335.04263"
         y="184.27278">$X$</tspan></text>
    <text
       xml:space="preserve"
       style="font-size:12px;line-height:1.25;font-family:sans-serif;-inkscape-font-specification:'sans-serif, Normal'"
       x="115.32337"
       y="106.37679"
       id="text4381"><tspan
         sodipodi:role="line"
         id="tspan4379"
         x="115.32337"
         y="106.37679">$Y$</tspan></text>
    <text
       xml:space="preserve"
       style="font-size:12px;line-height:1.25;font-family:sans-serif;-inkscape-font-specification:'sans-serif, Normal'"
       x="114.15493"
       y="191.6729"
       id="text4385"><tspan
         sodipodi:role="line"
         id="tspan4383"
         x="114.15493"
         y="191.6729">$O$</tspan></text>
    <circle
       style="fill:none;stroke:#000000;stroke-width:1;stroke-linecap:square;stroke-miterlimit:4;stroke-dasharray:none"
       id="path4397"
       sodipodi:type="arc"
       sodipodi:cx="128.23679"
       sodipodi:cy="187.66156"
       sodipodi:rx="12.969385"
       sodipodi:ry="12.969385"
       sodipodi:start="5.3407075"
       sodipodi:end="0"
       sodipodi:arc-type="arc"
       d="m 135.86,177.16911 a 12.969385,12.969385 0 0 1 5.34617,10.49245"
       sodipodi:open="true" />
    <text
       xml:space="preserve"
       style="font-size:12px;line-height:1.25;font-family:sans-serif;-inkscape-font-specification:'sans-serif, Normal'"
       x="144.20961"
       y="182.62611"
       id="text4519"><tspan
         sodipodi:role="line"
         id="tspan4517"
         x="144.20961"
         y="182.62611">$\theta$</tspan></text>
  </g>
</svg>
