<?xml version="1.0" encoding="UTF-8" standalone="no"?>
<svg
   xmlns:ns5="http://www.iki.fi/pav/software/textext/"
   xmlns:dc="http://purl.org/dc/elements/1.1/"
   xmlns:cc="http://creativecommons.org/ns#"
   xmlns:rdf="http://www.w3.org/1999/02/22-rdf-syntax-ns#"
   xmlns:svg="http://www.w3.org/2000/svg"
   xmlns="http://www.w3.org/2000/svg"
   xmlns:sodipodi="http://sodipodi.sourceforge.net/DTD/sodipodi-0.dtd"
   xmlns:inkscape="http://www.inkscape.org/namespaces/inkscape"
   version="1.1"
   id="svg2298"
   width="333.65933"
   height="138.39613"
   viewBox="0 0 333.65933 138.39613"
   sodipodi:docname="fig07.05.svg"
   inkscape:version="1.0.2-2 (e86c870879, 2021-01-15)">
  <metadata
     id="metadata2304">
    <rdf:RDF>
      <cc:Work
         rdf:about="">
        <dc:format>image/svg+xml</dc:format>
        <dc:type
           rdf:resource="http://purl.org/dc/dcmitype/StillImage" />
        <dc:title />
      </cc:Work>
    </rdf:RDF>
  </metadata>
  <defs
     id="defs2302">
    <marker
       style="overflow:visible"
       id="marker3143"
       refX="0"
       refY="0"
       orient="auto"
       inkscape:stockid="Arrow1Mstart"
       inkscape:isstock="true">
      <path
         transform="matrix(0.4,0,0,0.4,4,0)"
         style="fill:#000000;fill-opacity:1;fill-rule:evenodd;stroke:#000000;stroke-width:1pt;stroke-opacity:1"
         d="M 0,0 5,-5 -12.5,0 5,5 Z"
         id="path3141" />
    </marker>
    <marker
       style="overflow:visible"
       id="marker3133"
       refX="0"
       refY="0"
       orient="auto"
       inkscape:stockid="Arrow1Mstart"
       inkscape:isstock="true">
      <path
         transform="matrix(0.4,0,0,0.4,4,0)"
         style="fill:#000000;fill-opacity:1;fill-rule:evenodd;stroke:#000000;stroke-width:1pt;stroke-opacity:1"
         d="M 0,0 5,-5 -12.5,0 5,5 Z"
         id="path3131" />
    </marker>
    <marker
       style="overflow:visible"
       id="marker3037"
       refX="0"
       refY="0"
       orient="auto"
       inkscape:stockid="Arrow1Mend"
       inkscape:isstock="true">
      <path
         transform="matrix(-0.4,0,0,-0.4,-4,0)"
         style="fill:#000000;fill-opacity:1;fill-rule:evenodd;stroke:#000000;stroke-width:1pt;stroke-opacity:1"
         d="M 0,0 5,-5 -12.5,0 5,5 Z"
         id="path3035" />
    </marker>
    <marker
       style="overflow:visible"
       id="marker3009"
       refX="0"
       refY="0"
       orient="auto"
       inkscape:stockid="Arrow1Mend"
       inkscape:isstock="true">
      <path
         transform="matrix(-0.4,0,0,-0.4,-4,0)"
         style="fill:#000000;fill-opacity:1;fill-rule:evenodd;stroke:#000000;stroke-width:1pt;stroke-opacity:1"
         d="M 0,0 5,-5 -12.5,0 5,5 Z"
         id="path3007" />
    </marker>
    <marker
       style="overflow:visible"
       id="marker2951"
       refX="0"
       refY="0"
       orient="auto"
       inkscape:stockid="Arrow1Mend"
       inkscape:isstock="true"
       inkscape:collect="always">
      <path
         transform="matrix(-0.4,0,0,-0.4,-4,0)"
         style="fill:#000000;fill-opacity:1;fill-rule:evenodd;stroke:#000000;stroke-width:1pt;stroke-opacity:1"
         d="M 0,0 5,-5 -12.5,0 5,5 Z"
         id="path2949" />
    </marker>
    <marker
       style="overflow:visible"
       id="marker2941"
       refX="0"
       refY="0"
       orient="auto"
       inkscape:stockid="Arrow1Mend"
       inkscape:isstock="true">
      <path
         transform="matrix(-0.4,0,0,-0.4,-4,0)"
         style="fill:#000000;fill-opacity:1;fill-rule:evenodd;stroke:#000000;stroke-width:1pt;stroke-opacity:1"
         d="M 0,0 5,-5 -12.5,0 5,5 Z"
         id="path2939" />
    </marker>
  </defs>
  <sodipodi:namedview
     pagecolor="#ffffff"
     bordercolor="#666666"
     borderopacity="1"
     objecttolerance="10"
     gridtolerance="10"
     guidetolerance="10"
     inkscape:pageopacity="0"
     inkscape:pageshadow="2"
     inkscape:window-width="1920"
     inkscape:window-height="1001"
     id="namedview2300"
     showgrid="false"
     inkscape:zoom="3.6893918"
     inkscape:cx="166.82967"
     inkscape:cy="69.198065"
     inkscape:window-x="-9"
     inkscape:window-y="-9"
     inkscape:window-maximized="1"
     inkscape:current-layer="g2306"
     inkscape:document-rotation="0"
     showguides="true"
     inkscape:guide-bbox="true"
     inkscape:object-paths="true"
     inkscape:snap-intersection-paths="true"
     inkscape:snap-smooth-nodes="true"
     inkscape:snap-midpoints="true">
    <sodipodi:guide
       position="95.278859,62.768025"
       orientation="0,-1"
       id="guide2887" />
    <sodipodi:guide
       position="41.179088,94.660844"
       orientation="0,-1"
       id="guide2889" />
    <sodipodi:guide
       position="149.38202,30.874735"
       orientation="0,-1"
       id="guide2891" />
    <sodipodi:guide
       position="311.68129,62.768025"
       orientation="1,0"
       id="guide2893" />
    <sodipodi:guide
       position="8.9659072,81.692055"
       orientation="1,0"
       id="guide2895" />
    <sodipodi:guide
       position="257.58154,105.17864"
       orientation="0,-1"
       id="guide2905" />
    <sodipodi:guide
       position="41.179089,87.051597"
       orientation="1,0"
       id="guide3265" />
    <sodipodi:guide
       position="48.273354,99.91974"
       orientation="0,-1"
       id="guide3267" />
  </sodipodi:namedview>
  <g
     inkscape:groupmode="layer"
     inkscape:label="Image"
     id="g2306"
     transform="translate(-44.95123,-362.72916)">
    <path
       style="fill:none;stroke:#000000;stroke-width:0.999994;stroke-miterlimit:4;stroke-dasharray:none;stroke-dashoffset:0"
       d="m 54.009029,419.3647 c 0.563644,-0.42002 1.127299,-0.83241 1.690966,-1.23661 1.127332,-0.80839 2.254712,-1.58402 3.382144,-2.3223 9.016059,-5.90627 18.032117,-9.338 27.04818,-9.34134 9.01606,-0.003 18.035531,3.43936 27.051571,9.34134 9.01608,5.9015 18.03213,14.20215 27.0482,22.55148 9.01946,8.3498 18.03553,16.64568 27.05159,22.55195 9.01605,5.90628 18.03211,9.338 27.05157,9.34134 9.01607,0.003 18.03214,-3.43984 27.04819,-9.34134 9.01605,-5.90197 18.03551,-14.20215 27.05158,-22.55195 9.01606,-8.34933 18.03212,-16.64521 27.04819,-22.55148 9.01945,-5.90627 18.03551,-9.338 27.05157,-9.34134 9.01606,-0.003 18.03213,3.43936 27.05158,9.34134 9.01606,5.9015 18.03213,14.20215 27.04818,22.55148"
       id="path2917" />
    <path
       style="fill:none;stroke:#000000;stroke-width:0.5;stroke-linecap:butt;stroke-linejoin:miter;stroke-miterlimit:4;stroke-dasharray:none;stroke-opacity:1;marker-end:url(#marker2941)"
       d="M 53.917137,501.12529 V 363.7145"
       id="path2897" />
    <path
       style="fill:none;stroke:#000000;stroke-width:0.5;stroke-linecap:butt;stroke-linejoin:miter;stroke-miterlimit:4;stroke-dasharray:none;stroke-opacity:1;marker-end:url(#marker2951)"
       d="M 45.464312,438.35727 H 377.62522"
       id="path2899" />
    <path
       style="fill:none;stroke:#000000;stroke-width:0.5;stroke-linecap:butt;stroke-linejoin:miter;stroke-miterlimit:4;stroke-dasharray:none;stroke-opacity:1;marker-start:url(#marker3143);marker-end:url(#marker3009)"
       d="m 86.13032,407.50281 v 29.87718"
       id="path2901"
       sodipodi:nodetypes="cc" />
    <path
       style="fill:none;stroke:#000000;stroke-width:0.5;stroke-linecap:butt;stroke-linejoin:miter;stroke-miterlimit:4;stroke-dasharray:none;stroke-opacity:1"
       d="M 302.53278,406.46445 V 395.94666"
       id="path2903" />
    <path
       style="fill:none;stroke:#000000;stroke-width:0.5;stroke-linecap:butt;stroke-linejoin:miter;stroke-miterlimit:4;stroke-dasharray:none;stroke-opacity:1"
       d="M 86.130319,406.46445 V 395.94666"
       id="path2907" />
    <path
       style="fill:none;stroke:#000000;stroke-width:0.5;stroke-linecap:butt;stroke-linejoin:miter;stroke-miterlimit:4;stroke-dasharray:none;stroke-opacity:1;marker-start:url(#marker3133);marker-end:url(#marker3037)"
       d="M 87.107601,401.20555 H 301.5555"
       id="path2909"
       sodipodi:nodetypes="cc" />
    <text
       xml:space="preserve"
       style="font-style:italic;font-size:9.33333px;line-height:1.25;font-family:'Latin Modern Roman';-inkscape-font-specification:'Latin Modern Roman, Italic'"
       x="189.75356"
       y="397.6405"
       id="text3307"><tspan
         sodipodi:role="line"
         id="tspan3305"
         x="189.75356"
         y="397.6405">T</tspan></text>
    <text
       xml:space="preserve"
       style="font-style:italic;font-size:9.33333px;line-height:1.25;font-family:'Latin Modern Roman';-inkscape-font-specification:'Latin Modern Roman, Italic'"
       x="45.19368"
       y="375.17816"
       id="text3335"><tspan
         sodipodi:role="line"
         id="tspan3333"
         x="45.19368"
         y="375.17816">x</tspan></text>
    <text
       xml:space="preserve"
       style="font-style:italic;font-size:9.33333px;line-height:1.25;font-family:'Latin Modern Roman';-inkscape-font-specification:'Latin Modern Roman, Italic'"
       x="43.569897"
       y="448.51907"
       id="text3339"><tspan
         sodipodi:role="line"
         id="tspan3337"
         x="43.569897"
         y="448.51907">O</tspan></text>
    <text
       xml:space="preserve"
       style="font-style:italic;font-size:9.33333px;line-height:1.25;font-family:'Latin Modern Roman';-inkscape-font-specification:'Latin Modern Roman, Italic'"
       x="365.62033"
       y="447.97778"
       id="text3343"><tspan
         sodipodi:role="line"
         id="tspan3341"
         x="365.62033"
         y="447.97778">t</tspan></text>
    <g
       transform="matrix(1.1448472,0,0,1.33333,248.56981,440.68714)"
       ns5:version="1.3.1"
       ns5:texconverter="xelatex"
       ns5:pdfconverter="inkscape"
       ns5:text="\\fontsize{7pt}{10pt}\\selectfont $\\omega t + \\varphi _ 0 = 2\\uppi + \\dfrac \\uppi 2$"
       ns5:preamble="C:\Users\Qian\AppData\Roaming\inkscape\extensions\textext\default_packages.tex"
       ns5:scale="1.0"
       ns5:alignment="middle center"
       ns5:inkscapeversion="1.0.2-2"
       ns5:jacobian_sqrt="1.33333"
       id="g3449"
       style="stroke-width:1.07918">
      <defs
         id="id-35706159-88c2-4b77-879f-cdbd6d4e16eb">
        <g
           id="id-9ee42986-f7d8-47da-b28a-934710ed08fe">
          <symbol
             overflow="visible"
             id="id-2c227bae-6801-4d91-adcb-df0bb8650b7d">
            <path
               style="stroke:none;stroke-width:0"
               d=""
               id="id-6fbf2719-0dc2-4461-abcf-d9b27254b5f6" />
          </symbol>
          <symbol
             overflow="visible"
             id="id-3a7ad504-5a46-408e-a625-93caa91ec3c7">
            <path
               style="stroke:none;stroke-width:0"
               d="m 4.734375,-2.53125 c 0,-0.203125 -0.03125,-0.375 -0.171875,-0.484375 C 4.515625,-3.046875 4.453125,-3.0625 4.390625,-3.0625 c -0.09375,0 -0.203125,0.03125 -0.265625,0.125 -0.078125,0.078125 -0.109375,0.15625 -0.109375,0.234375 0,0.078125 0.03125,0.15625 0.09375,0.203125 0.171875,0.140625 0.28125,0.34375 0.28125,0.578125 0,0.0625 -0.015625,0.140625 -0.03125,0.21875 -0.15625,0.609375 -0.609375,1.21875 -1.171875,1.21875 -0.375,0 -0.625,-0.21875 -0.734375,-0.546875 0.109375,-0.203125 0.1875,-0.421875 0.234375,-0.640625 0.015625,-0.046875 0.015625,-0.09375 0.015625,-0.140625 0,-0.125 -0.046875,-0.234375 -0.171875,-0.234375 -0.15625,0 -0.265625,0.171875 -0.3125,0.34375 C 2.171875,-1.5 2.140625,-1.296875 2.140625,-1.109375 l 0.015625,0.0625 c -0.25,0.328125 -0.59375,0.5625 -0.96875,0.5625 -0.453125,0 -0.671875,-0.359375 -0.671875,-0.8125 0,-0.125 0,-0.25 0.046875,-0.375 0.09375,-0.390625 0.34375,-0.78125 0.625,-1.125 0.03125,-0.03125 0.03125,-0.0625 0.03125,-0.109375 C 1.21875,-2.953125 1.203125,-3 1.15625,-3.015625 1.140625,-3.03125 1.109375,-3.03125 1.078125,-3.03125 c -0.046875,0 -0.109375,0.015625 -0.140625,0.0625 -0.296875,0.390625 -0.5,0.828125 -0.609375,1.265625 -0.0625,0.21875 -0.09375,0.453125 -0.09375,0.671875 0,0.609375 0.265625,1.09375 0.859375,1.09375 0.4375,0 0.828125,-0.28125 1.125,-0.6875 0.109375,0.421875 0.40625,0.6875 0.875,0.6875 0.75,0 1.28125,-0.875 1.5,-1.734375 0.0625,-0.28125 0.140625,-0.59375 0.140625,-0.859375 z m 0,0"
               id="id-55d32ae1-8faa-44f1-9e50-8fc182cee40a" />
          </symbol>
          <symbol
             overflow="visible"
             id="id-d993f29e-4864-4e56-b048-099d6bd8bb66">
            <path
               style="stroke:none;stroke-width:0"
               d="M 2.640625,-2.90625 C 2.640625,-3 2.5625,-3 2.4375,-3 H 1.78125 l 0.25,-1.03125 C 2.046875,-4.0625 2.0625,-4.109375 2.0625,-4.125 c 0,-0.140625 -0.109375,-0.234375 -0.25,-0.234375 -0.171875,0 -0.265625,0.125 -0.328125,0.296875 C 1.4375,-3.875 1.53125,-4.21875 1.21875,-3 H 0.515625 c -0.125,0 -0.21875,0 -0.21875,0.15625 C 0.296875,-2.75 0.375,-2.75 0.5,-2.75 H 1.15625 L 0.75,-1.109375 C 0.703125,-0.9375 0.640625,-0.6875 0.640625,-0.59375 c 0,0.40625 0.359375,0.65625 0.75,0.65625 0.78125,0 1.21875,-0.96875 1.21875,-1.0625 0,-0.09375 -0.09375,-0.09375 -0.109375,-0.09375 -0.09375,0 -0.09375,0.015625 -0.15625,0.140625 -0.1875,0.4375 -0.546875,0.828125 -0.921875,0.828125 -0.15625,0 -0.25,-0.09375 -0.25,-0.34375 0,-0.0625 0.03125,-0.21875 0.046875,-0.28125 l 0.5,-2 h 0.703125 c 0.140625,0 0.21875,0 0.21875,-0.15625 z m 0,0"
               id="id-ceabaaad-11db-4b6e-81a1-d3f76610c05d" />
          </symbol>
          <symbol
             overflow="visible"
             id="id-4b1fef2c-5ba2-4dc9-9a02-f6d524fc0422">
            <path
               style="stroke:none;stroke-width:0"
               d="M 5.03125,-1.734375 C 5.03125,-1.8125 4.96875,-1.875 4.890625,-1.875 H 2.84375 V -3.921875 C 2.84375,-4 2.78125,-4.0625 2.703125,-4.0625 c -0.0625,0 -0.125,0.0625 -0.125,0.140625 V -1.875 H 0.53125 c -0.078125,0 -0.140625,0.0625 -0.140625,0.140625 0,0.0625 0.0625,0.125 0.140625,0.125 H 2.578125 V 0.4375 c 0,0.078125 0.0625,0.140625 0.125,0.140625 0.078125,0 0.140625,-0.0625 0.140625,-0.140625 v -2.046875 h 2.046875 c 0.078125,0 0.140625,-0.0625 0.140625,-0.125 z m 0,0"
               id="id-0efbc2b0-51c2-4a1b-9519-3cec7473b0fd" />
          </symbol>
          <symbol
             overflow="visible"
             id="id-0687dd8b-142c-435e-94ff-7ea2fd78d14a">
            <path
               style="stroke:none;stroke-width:0"
               d="m 4.84375,-2.0625 c 0,-0.609375 -0.375,-1.015625 -0.90625,-1.015625 -0.96875,0 -1.484375,1.234375 -1.671875,1.75 l -0.28125,0.875 C 1.21875,-0.546875 0.71875,-0.90625 0.71875,-1.421875 c 0,0 0.046875,-0.78125 0.609375,-1.40625 0.046875,-0.046875 0.0625,-0.0625 0.0625,-0.09375 C 1.390625,-3 1.296875,-3 1.28125,-3 c -0.0625,0 -0.09375,0 -0.234375,0.15625 -0.390625,0.46875 -0.5625,1.203125 -0.5625,1.5 0,0.625 0.453125,1.15625 1.34375,1.34375 C 1.484375,1.09375 1.4375,1.21875 1.4375,1.28125 1.4375,1.46875 1.609375,1.5 1.671875,1.5 1.75,1.5 1.890625,1.453125 1.953125,1.359375 2,1.25 2.0625,0.890625 2.203125,0.0625 c 0.078125,0 0.15625,0 0.234375,0 1.25,0 2.40625,-1.015625 2.40625,-2.125 z m -0.25,0.140625 c 0,0.703125 -0.875,1.515625 -2.078125,1.515625 -0.0625,0 -0.15625,0 -0.21875,0 0.140625,-0.8125 0.1875,-1.125 0.53125,-1.578125 C 3.140625,-2.40625 3.5,-2.59375 3.859375,-2.59375 c 0.46875,0 0.734375,0.3125 0.734375,0.671875 z m 0,0"
               id="id-ef713aa4-bfb4-4077-bc91-b1d951522c4e" />
          </symbol>
          <symbol
             overflow="visible"
             id="id-b1d751b0-c3f9-4e1d-b825-0b74f1493c7c">
            <path
               style="stroke:none;stroke-width:0"
               d="M 5.03125,-2.421875 C 5.03125,-2.5 4.96875,-2.5625 4.890625,-2.5625 H 0.53125 c -0.078125,0 -0.140625,0.0625 -0.140625,0.140625 0,0.078125 0.0625,0.140625 0.140625,0.140625 h 4.359375 c 0.078125,0 0.140625,-0.0625 0.140625,-0.140625 z m 0,1.359375 c 0,-0.078125 -0.0625,-0.140625 -0.140625,-0.140625 H 0.53125 c -0.078125,0 -0.140625,0.0625 -0.140625,0.140625 0,0.078125 0.0625,0.140625 0.140625,0.140625 h 4.359375 c 0.078125,0 0.140625,-0.0625 0.140625,-0.140625 z m 0,0"
               id="id-6283dd08-87da-4119-83ef-953c0d98c3f6" />
          </symbol>
          <symbol
             overflow="visible"
             id="id-c81cf22a-d050-45d7-887d-8e4d6cb25054">
            <path
               style="stroke:none;stroke-width:0"
               d="M 3.515625,-1.265625 H 3.28125 c -0.015625,0.15625 -0.09375,0.5625 -0.1875,0.625 C 3.046875,-0.59375 2.515625,-0.59375 2.40625,-0.59375 H 1.125 c 0.734375,-0.640625 0.984375,-0.84375 1.390625,-1.171875 0.515625,-0.40625 1,-0.84375 1,-1.5 0,-0.84375 -0.734375,-1.359375 -1.625,-1.359375 -0.859375,0 -1.453125,0.609375 -1.453125,1.25 0,0.34375 0.296875,0.390625 0.375,0.390625 0.15625,0 0.359375,-0.125 0.359375,-0.375 0,-0.125 -0.046875,-0.375 -0.40625,-0.375 C 0.984375,-4.21875 1.453125,-4.375 1.78125,-4.375 c 0.703125,0 1.0625,0.546875 1.0625,1.109375 0,0.609375 -0.4375,1.078125 -0.65625,1.328125 L 0.515625,-0.265625 C 0.4375,-0.203125 0.4375,-0.1875 0.4375,0 h 2.875 z m 0,0"
               id="id-5b364e0a-cbbf-4473-bb16-25a3cfecf26d" />
          </symbol>
          <symbol
             overflow="visible"
             id="id-2f91ac88-9280-4172-8c39-448a7f60bad8">
            <path
               style="stroke:none;stroke-width:0"
               d="M 4.125,-2.796875 C 4.0625,-3 3.890625,-3 3.765625,-3 h -2.625 C 0.859375,-3 0.6875,-2.9375 0.4375,-2.640625 0.296875,-2.484375 0.125,-2.109375 0.140625,-2.046875 0.15625,-1.96875 0.25,-1.96875 0.28125,-1.96875 c 0.078125,0 0.078125,-0.015625 0.109375,-0.078125 0.21875,-0.484375 0.65625,-0.484375 0.8125,-0.484375 H 1.625 c -0.015625,0.765625 -0.203125,1.59375 -0.296875,2.015625 -0.015625,0.078125 -0.046875,0.234375 -0.0625,0.25 0,0.03125 -0.015625,0.0625 0,0.109375 0.03125,0.109375 0.140625,0.21875 0.296875,0.21875 0.28125,0 0.28125,-0.3125 0.296875,-0.9375 L 1.875,-2.53125 h 0.828125 c 0,0.421875 0,1.046875 0.140625,1.609375 0.0625,0.28125 0.15625,0.46875 0.234375,0.609375 0.203125,0.359375 0.28125,0.375 0.40625,0.375 0.15625,0 0.28125,-0.140625 0.25,-0.3125 C 3.71875,-0.296875 3.6875,-0.328125 3.640625,-0.390625 3.4375,-0.65625 3.21875,-1.046875 3.078125,-1.625 3.03125,-1.75 2.96875,-2.03125 2.9375,-2.53125 h 0.875 c 0.125,0 0.1875,0 0.25,-0.046875 0.078125,-0.078125 0.0625,-0.1875 0.0625,-0.21875 z m 0,0"
               id="id-bda03a57-63da-4566-bb1e-78807d4159fe" />
          </symbol>
          <symbol
             overflow="visible"
             id="id-adc207d2-15b8-42cd-be6a-2f9887873ff6">
            <path
               style="stroke:none;stroke-width:0"
               d=""
               id="id-efd033c4-8917-46e6-bf48-2b2c75b81212" />
          </symbol>
          <symbol
             overflow="visible"
             id="id-7d6f17a1-ff04-4e8e-bf1f-0660611e93b1">
            <path
               style="stroke:none;stroke-width:0"
               d="M 3,-1.59375 C 3,-1.953125 3,-3.3125 1.6875,-3.3125 c -1.296875,0 -1.296875,1.359375 -1.296875,1.71875 0,0.359375 0,1.703125 1.296875,1.703125 C 3,0.109375 3,-1.234375 3,-1.59375 Z m -0.5,-0.0625 c 0,0.34375 0,0.75 -0.078125,1.046875 C 2.296875,-0.125 1.890625,-0.0625 1.6875,-0.0625 1.515625,-0.0625 1.09375,-0.125 0.96875,-0.625 0.890625,-0.890625 0.890625,-1.25 0.890625,-1.65625 c 0,-0.375 0,-0.71875 0.078125,-1 0.125,-0.421875 0.515625,-0.5 0.71875,-0.5 0.375,0 0.640625,0.1875 0.734375,0.546875 C 2.5,-2.359375 2.5,-1.953125 2.5,-1.65625 Z m 0,0"
               id="id-45fa6487-14a1-4168-8da2-0d5eea348d7e" />
          </symbol>
        </g>
      </defs>
      <g
         id="id-50250c34-4656-4425-aa6d-196821d6e466"
         transform="translate(-148.946,-127.043)"
         style="stroke-width:1.07918">
        <g
           style="fill:#000000;fill-opacity:1;stroke-width:1.07918"
           id="id-694d536f-40bd-445e-b3a2-1cb1f351e12d">
          <g
             transform="translate(148.712,134.765)"
             id="g3406"
             style="stroke-width:1.07918">
            <path
               style="stroke:none;stroke-width:0"
               d="m 4.734375,-2.53125 c 0,-0.203125 -0.03125,-0.375 -0.171875,-0.484375 C 4.515625,-3.046875 4.453125,-3.0625 4.390625,-3.0625 c -0.09375,0 -0.203125,0.03125 -0.265625,0.125 -0.078125,0.078125 -0.109375,0.15625 -0.109375,0.234375 0,0.078125 0.03125,0.15625 0.09375,0.203125 0.171875,0.140625 0.28125,0.34375 0.28125,0.578125 0,0.0625 -0.015625,0.140625 -0.03125,0.21875 -0.15625,0.609375 -0.609375,1.21875 -1.171875,1.21875 -0.375,0 -0.625,-0.21875 -0.734375,-0.546875 0.109375,-0.203125 0.1875,-0.421875 0.234375,-0.640625 0.015625,-0.046875 0.015625,-0.09375 0.015625,-0.140625 0,-0.125 -0.046875,-0.234375 -0.171875,-0.234375 -0.15625,0 -0.265625,0.171875 -0.3125,0.34375 C 2.171875,-1.5 2.140625,-1.296875 2.140625,-1.109375 l 0.015625,0.0625 c -0.25,0.328125 -0.59375,0.5625 -0.96875,0.5625 -0.453125,0 -0.671875,-0.359375 -0.671875,-0.8125 0,-0.125 0,-0.25 0.046875,-0.375 0.09375,-0.390625 0.34375,-0.78125 0.625,-1.125 0.03125,-0.03125 0.03125,-0.0625 0.03125,-0.109375 C 1.21875,-2.953125 1.203125,-3 1.15625,-3.015625 1.140625,-3.03125 1.109375,-3.03125 1.078125,-3.03125 c -0.046875,0 -0.109375,0.015625 -0.140625,0.0625 -0.296875,0.390625 -0.5,0.828125 -0.609375,1.265625 -0.0625,0.21875 -0.09375,0.453125 -0.09375,0.671875 0,0.609375 0.265625,1.09375 0.859375,1.09375 0.4375,0 0.828125,-0.28125 1.125,-0.6875 0.109375,0.421875 0.40625,0.6875 0.875,0.6875 0.75,0 1.28125,-0.875 1.5,-1.734375 0.0625,-0.28125 0.140625,-0.59375 0.140625,-0.859375 z m 0,0"
               id="id-fe28d70c-e6a6-430c-aa5d-d823541ba7f3" />
          </g>
          <g
             transform="translate(153.733,134.765)"
             id="g3409"
             style="stroke-width:1.07918">
            <path
               style="stroke:none;stroke-width:0"
               d="M 2.640625,-2.90625 C 2.640625,-3 2.5625,-3 2.4375,-3 H 1.78125 l 0.25,-1.03125 C 2.046875,-4.0625 2.0625,-4.109375 2.0625,-4.125 c 0,-0.140625 -0.109375,-0.234375 -0.25,-0.234375 -0.171875,0 -0.265625,0.125 -0.328125,0.296875 C 1.4375,-3.875 1.53125,-4.21875 1.21875,-3 H 0.515625 c -0.125,0 -0.21875,0 -0.21875,0.15625 C 0.296875,-2.75 0.375,-2.75 0.5,-2.75 H 1.15625 L 0.75,-1.109375 C 0.703125,-0.9375 0.640625,-0.6875 0.640625,-0.59375 c 0,0.40625 0.359375,0.65625 0.75,0.65625 0.78125,0 1.21875,-0.96875 1.21875,-1.0625 0,-0.09375 -0.09375,-0.09375 -0.109375,-0.09375 -0.09375,0 -0.09375,0.015625 -0.15625,0.140625 -0.1875,0.4375 -0.546875,0.828125 -0.921875,0.828125 -0.15625,0 -0.25,-0.09375 -0.25,-0.34375 0,-0.0625 0.03125,-0.21875 0.046875,-0.28125 l 0.5,-2 h 0.703125 c 0.140625,0 0.21875,0 0.21875,-0.15625 z m 0,0"
               id="id-0e26ef23-6114-488b-a9eb-e0d303368968" />
          </g>
        </g>
        <g
           style="fill:#000000;fill-opacity:1;stroke-width:1.07918"
           id="id-867e0c12-f7b7-4461-9d89-67b469e82237">
          <g
             transform="translate(158.294,134.765)"
             id="g3413"
             style="stroke-width:1.07918">
            <path
               style="stroke:none;stroke-width:0"
               d="M 5.03125,-1.734375 C 5.03125,-1.8125 4.96875,-1.875 4.890625,-1.875 H 2.84375 V -3.921875 C 2.84375,-4 2.78125,-4.0625 2.703125,-4.0625 c -0.0625,0 -0.125,0.0625 -0.125,0.140625 V -1.875 H 0.53125 c -0.078125,0 -0.140625,0.0625 -0.140625,0.140625 0,0.0625 0.0625,0.125 0.140625,0.125 H 2.578125 V 0.4375 c 0,0.078125 0.0625,0.140625 0.125,0.140625 0.078125,0 0.140625,-0.0625 0.140625,-0.140625 v -2.046875 h 2.046875 c 0.078125,0 0.140625,-0.0625 0.140625,-0.125 z m 0,0"
               id="id-54550320-c856-45d4-8234-e2915286e9c1" />
          </g>
        </g>
        <g
           style="fill:#000000;fill-opacity:1;stroke-width:1.07918"
           id="id-bf608461-9e08-4c02-8a73-a631b0957156">
          <g
             transform="translate(165.268,134.765)"
             id="g3417"
             style="stroke-width:1.07918">
            <path
               style="stroke:none;stroke-width:0"
               d="m 4.84375,-2.0625 c 0,-0.609375 -0.375,-1.015625 -0.90625,-1.015625 -0.96875,0 -1.484375,1.234375 -1.671875,1.75 l -0.28125,0.875 C 1.21875,-0.546875 0.71875,-0.90625 0.71875,-1.421875 c 0,0 0.046875,-0.78125 0.609375,-1.40625 0.046875,-0.046875 0.0625,-0.0625 0.0625,-0.09375 C 1.390625,-3 1.296875,-3 1.28125,-3 c -0.0625,0 -0.09375,0 -0.234375,0.15625 -0.390625,0.46875 -0.5625,1.203125 -0.5625,1.5 0,0.625 0.453125,1.15625 1.34375,1.34375 C 1.484375,1.09375 1.4375,1.21875 1.4375,1.28125 1.4375,1.46875 1.609375,1.5 1.671875,1.5 1.75,1.5 1.890625,1.453125 1.953125,1.359375 2,1.25 2.0625,0.890625 2.203125,0.0625 c 0.078125,0 0.15625,0 0.234375,0 1.25,0 2.40625,-1.015625 2.40625,-2.125 z m -0.25,0.140625 c 0,0.703125 -0.875,1.515625 -2.078125,1.515625 -0.0625,0 -0.15625,0 -0.21875,0 0.140625,-0.8125 0.1875,-1.125 0.53125,-1.578125 C 3.140625,-2.40625 3.5,-2.59375 3.859375,-2.59375 c 0.46875,0 0.734375,0.3125 0.734375,0.671875 z m 0,0"
               id="id-e5bde431-21c5-449c-85cb-dbac5c9cfa3b" />
          </g>
        </g>
        <g
           style="fill:#000000;fill-opacity:1;stroke-width:1.07918"
           id="id-0a775da7-b2f5-46fa-8f16-009dd3defbee">
          <g
             transform="translate(170.509,136.487)"
             id="g3421"
             style="stroke-width:1.07918">
            <path
               style="stroke:none;stroke-width:0"
               d="M 3,-1.59375 C 3,-1.953125 3,-3.3125 1.6875,-3.3125 c -1.296875,0 -1.296875,1.359375 -1.296875,1.71875 0,0.359375 0,1.703125 1.296875,1.703125 C 3,0.109375 3,-1.234375 3,-1.59375 Z m -0.5,-0.0625 c 0,0.34375 0,0.75 -0.078125,1.046875 C 2.296875,-0.125 1.890625,-0.0625 1.6875,-0.0625 1.515625,-0.0625 1.09375,-0.125 0.96875,-0.625 0.890625,-0.890625 0.890625,-1.25 0.890625,-1.65625 c 0,-0.375 0,-0.71875 0.078125,-1 0.125,-0.421875 0.515625,-0.5 0.71875,-0.5 0.375,0 0.640625,0.1875 0.734375,0.546875 C 2.5,-2.359375 2.5,-1.953125 2.5,-1.65625 Z m 0,0"
               id="id-2fa2ebe6-818e-4f37-a2d8-2f437fb40043" />
          </g>
        </g>
        <g
           style="fill:#000000;fill-opacity:1;stroke-width:1.07918"
           id="id-121a03c5-960d-4110-a994-17cd17aba288">
          <g
             transform="translate(176.337,134.765)"
             id="g3425"
             style="stroke-width:1.07918">
            <path
               style="stroke:none;stroke-width:0"
               d="M 5.03125,-2.421875 C 5.03125,-2.5 4.96875,-2.5625 4.890625,-2.5625 H 0.53125 c -0.078125,0 -0.140625,0.0625 -0.140625,0.140625 0,0.078125 0.0625,0.140625 0.140625,0.140625 h 4.359375 c 0.078125,0 0.140625,-0.0625 0.140625,-0.140625 z m 0,1.359375 c 0,-0.078125 -0.0625,-0.140625 -0.140625,-0.140625 H 0.53125 c -0.078125,0 -0.140625,0.0625 -0.140625,0.140625 0,0.078125 0.0625,0.140625 0.140625,0.140625 h 4.359375 c 0.078125,0 0.140625,-0.0625 0.140625,-0.140625 z m 0,0"
               id="id-33a9fb92-317b-4968-9590-bf6f8cbd56f9" />
          </g>
        </g>
        <g
           style="fill:#000000;fill-opacity:1;stroke-width:1.07918"
           id="id-6585ad18-bf1d-4abf-bb39-0763bf28434d">
          <g
             transform="translate(183.694,134.765)"
             id="g3429"
             style="stroke-width:1.07918">
            <path
               style="stroke:none;stroke-width:0"
               d="M 3.515625,-1.265625 H 3.28125 c -0.015625,0.15625 -0.09375,0.5625 -0.1875,0.625 C 3.046875,-0.59375 2.515625,-0.59375 2.40625,-0.59375 H 1.125 c 0.734375,-0.640625 0.984375,-0.84375 1.390625,-1.171875 0.515625,-0.40625 1,-0.84375 1,-1.5 0,-0.84375 -0.734375,-1.359375 -1.625,-1.359375 -0.859375,0 -1.453125,0.609375 -1.453125,1.25 0,0.34375 0.296875,0.390625 0.375,0.390625 0.15625,0 0.359375,-0.125 0.359375,-0.375 0,-0.125 -0.046875,-0.375 -0.40625,-0.375 C 0.984375,-4.21875 1.453125,-4.375 1.78125,-4.375 c 0.703125,0 1.0625,0.546875 1.0625,1.109375 0,0.609375 -0.4375,1.078125 -0.65625,1.328125 L 0.515625,-0.265625 C 0.4375,-0.203125 0.4375,-0.1875 0.4375,0 h 2.875 z m 0,0"
               id="id-0211858b-8bea-4b44-8665-0f4c19e744e6" />
          </g>
          <g
             transform="translate(187.662,134.765)"
             id="g3432"
             style="stroke-width:1.07918">
            <path
               style="stroke:none;stroke-width:0"
               d="M 4.125,-2.796875 C 4.0625,-3 3.890625,-3 3.765625,-3 h -2.625 C 0.859375,-3 0.6875,-2.9375 0.4375,-2.640625 0.296875,-2.484375 0.125,-2.109375 0.140625,-2.046875 0.15625,-1.96875 0.25,-1.96875 0.28125,-1.96875 c 0.078125,0 0.078125,-0.015625 0.109375,-0.078125 0.21875,-0.484375 0.65625,-0.484375 0.8125,-0.484375 H 1.625 c -0.015625,0.765625 -0.203125,1.59375 -0.296875,2.015625 -0.015625,0.078125 -0.046875,0.234375 -0.0625,0.25 0,0.03125 -0.015625,0.0625 0,0.109375 0.03125,0.109375 0.140625,0.21875 0.296875,0.21875 0.28125,0 0.28125,-0.3125 0.296875,-0.9375 L 1.875,-2.53125 h 0.828125 c 0,0.421875 0,1.046875 0.140625,1.609375 0.0625,0.28125 0.15625,0.46875 0.234375,0.609375 0.203125,0.359375 0.28125,0.375 0.40625,0.375 0.15625,0 0.28125,-0.140625 0.25,-0.3125 C 3.71875,-0.296875 3.6875,-0.328125 3.640625,-0.390625 3.4375,-0.65625 3.21875,-1.046875 3.078125,-1.625 3.03125,-1.75 2.96875,-2.03125 2.9375,-2.53125 h 0.875 c 0.125,0 0.1875,0 0.25,-0.046875 0.078125,-0.078125 0.0625,-0.1875 0.0625,-0.21875 z m 0,0"
               id="id-7f72b602-aa54-4a66-9567-5a0188d482e7" />
          </g>
        </g>
        <g
           style="fill:#000000;fill-opacity:1;stroke-width:1.07918"
           id="id-e98d3823-1f2c-4f1c-9411-d2c13dfb6427">
          <g
             transform="translate(194.002,134.765)"
             id="g3436"
             style="stroke-width:1.07918">
            <path
               style="stroke:none;stroke-width:0"
               d="M 5.03125,-1.734375 C 5.03125,-1.8125 4.96875,-1.875 4.890625,-1.875 H 2.84375 V -3.921875 C 2.84375,-4 2.78125,-4.0625 2.703125,-4.0625 c -0.0625,0 -0.125,0.0625 -0.125,0.140625 V -1.875 H 0.53125 c -0.078125,0 -0.140625,0.0625 -0.140625,0.140625 0,0.0625 0.0625,0.125 0.140625,0.125 H 2.578125 V 0.4375 c 0,0.078125 0.0625,0.140625 0.125,0.140625 0.078125,0 0.140625,-0.0625 0.140625,-0.140625 v -2.046875 h 2.046875 c 0.078125,0 0.140625,-0.0625 0.140625,-0.125 z m 0,0"
               id="id-10c64f76-de40-4ef4-9fd8-1ad37a2c57b6" />
          </g>
        </g>
        <g
           style="fill:#000000;fill-opacity:1;stroke-width:1.07918"
           id="id-206df746-f63b-4982-8e69-38ef674069bd">
          <g
             transform="translate(202.18,130.043)"
             id="g3440"
             style="stroke-width:1.07918">
            <path
               style="stroke:none;stroke-width:0"
               d="M 4.125,-2.796875 C 4.0625,-3 3.890625,-3 3.765625,-3 h -2.625 C 0.859375,-3 0.6875,-2.9375 0.4375,-2.640625 0.296875,-2.484375 0.125,-2.109375 0.140625,-2.046875 0.15625,-1.96875 0.25,-1.96875 0.28125,-1.96875 c 0.078125,0 0.078125,-0.015625 0.109375,-0.078125 0.21875,-0.484375 0.65625,-0.484375 0.8125,-0.484375 H 1.625 c -0.015625,0.765625 -0.203125,1.59375 -0.296875,2.015625 -0.015625,0.078125 -0.046875,0.234375 -0.0625,0.25 0,0.03125 -0.015625,0.0625 0,0.109375 0.03125,0.109375 0.140625,0.21875 0.296875,0.21875 0.28125,0 0.28125,-0.3125 0.296875,-0.9375 L 1.875,-2.53125 h 0.828125 c 0,0.421875 0,1.046875 0.140625,1.609375 0.0625,0.28125 0.15625,0.46875 0.234375,0.609375 0.203125,0.359375 0.28125,0.375 0.40625,0.375 0.15625,0 0.28125,-0.140625 0.25,-0.3125 C 3.71875,-0.296875 3.6875,-0.328125 3.640625,-0.390625 3.4375,-0.65625 3.21875,-1.046875 3.078125,-1.625 3.03125,-1.75 2.96875,-2.03125 2.9375,-2.53125 h 0.875 c 0.125,0 0.1875,0 0.25,-0.046875 0.078125,-0.078125 0.0625,-0.1875 0.0625,-0.21875 z m 0,0"
               id="id-9272ff9a-0d88-4cfb-8233-19311e4700c3" />
          </g>
        </g>
        <path
           style="fill:none;stroke:#000000;stroke-width:0.300984;stroke-linecap:butt;stroke-linejoin:miter;stroke-miterlimit:10;stroke-opacity:1"
           d="m 130.17969,-61.019531 h 4.79297"
           transform="matrix(1,0,0,-1,72,72)"
           id="id-f807e650-85ce-4e4c-b84a-34759dc14920" />
        <g
           style="fill:#000000;fill-opacity:1;stroke-width:1.07918"
           id="id-e2038d01-1c7d-4e6e-9575-2d6fc89eae7f">
          <g
             transform="translate(202.591,139.549)"
             id="g3445"
             style="stroke-width:1.07918">
            <path
               style="stroke:none;stroke-width:0"
               d="M 3.515625,-1.265625 H 3.28125 c -0.015625,0.15625 -0.09375,0.5625 -0.1875,0.625 C 3.046875,-0.59375 2.515625,-0.59375 2.40625,-0.59375 H 1.125 c 0.734375,-0.640625 0.984375,-0.84375 1.390625,-1.171875 0.515625,-0.40625 1,-0.84375 1,-1.5 0,-0.84375 -0.734375,-1.359375 -1.625,-1.359375 -0.859375,0 -1.453125,0.609375 -1.453125,1.25 0,0.34375 0.296875,0.390625 0.375,0.390625 0.15625,0 0.359375,-0.125 0.359375,-0.375 0,-0.125 -0.046875,-0.375 -0.40625,-0.375 C 0.984375,-4.21875 1.453125,-4.375 1.78125,-4.375 c 0.703125,0 1.0625,0.546875 1.0625,1.109375 0,0.609375 -0.4375,1.078125 -0.65625,1.328125 L 0.515625,-0.265625 C 0.4375,-0.203125 0.4375,-0.1875 0.4375,0 h 2.875 z m 0,0"
               id="id-4896a48b-88e2-49d6-912f-ff75270cb1c1" />
          </g>
        </g>
      </g>
    </g>
    <g
       id="g3531"
       transform="translate(-11.404101,-0.4602819)">
      <rect
         style="fill:#ffffff;stroke:none;stroke-width:0.5;stroke-miterlimit:4;stroke-dasharray:none;stroke-dashoffset:0"
         id="rect3521"
         width="16.262842"
         height="13.759174"
         x="89.403"
         y="416.02209" />
      <text
         xml:space="preserve"
         style="font-style:italic;font-size:9.33333px;line-height:1.25;font-family:'Latin Modern Roman';-inkscape-font-specification:'Latin Modern Roman, Italic'"
         x="94.029755"
         y="426.24301"
         id="text3519"><tspan
           sodipodi:role="line"
           id="tspan3517"
           x="94.029755"
           y="426.24301">A</tspan></text>
    </g>
  </g>
</svg>
