<?xml version="1.0" encoding="UTF-8" standalone="no"?>
<svg
   xmlns:dc="http://purl.org/dc/elements/1.1/"
   xmlns:cc="http://creativecommons.org/ns#"
   xmlns:rdf="http://www.w3.org/1999/02/22-rdf-syntax-ns#"
   xmlns:svg="http://www.w3.org/2000/svg"
   xmlns="http://www.w3.org/2000/svg"
   xmlns:sodipodi="http://sodipodi.sourceforge.net/DTD/sodipodi-0.dtd"
   xmlns:inkscape="http://www.inkscape.org/namespaces/inkscape"
   version="1.1"
   id="svg870"
   width="341.32742"
   height="54.882538"
   viewBox="0 0 341.32742 54.882538"
   sodipodi:docname="fig08.04.svg"
   inkscape:version="1.0.2-2 (e86c870879, 2021-01-15)">
  <metadata
     id="metadata876">
    <rdf:RDF>
      <cc:Work
         rdf:about="">
        <dc:format>image/svg+xml</dc:format>
        <dc:type
           rdf:resource="http://purl.org/dc/dcmitype/StillImage" />
        <dc:title></dc:title>
      </cc:Work>
    </rdf:RDF>
  </metadata>
  <defs
     id="defs874">
    <marker
       style="overflow:visible"
       id="marker2751"
       refX="0"
       refY="0"
       orient="auto"
       inkscape:stockid="Arrow1Send"
       inkscape:isstock="true">
      <path
         transform="matrix(-0.2,0,0,-0.2,-1.2,0)"
         style="fill:#000000;fill-opacity:1;fill-rule:evenodd;stroke:#000000;stroke-width:1pt;stroke-opacity:1"
         d="M 0,0 5,-5 -12.5,0 5,5 Z"
         id="path2749" />
    </marker>
    <marker
       style="overflow:visible"
       id="marker2741"
       refX="0"
       refY="0"
       orient="auto"
       inkscape:stockid="Arrow1Send"
       inkscape:isstock="true">
      <path
         transform="matrix(-0.2,0,0,-0.2,-1.2,0)"
         style="fill:#000000;fill-opacity:1;fill-rule:evenodd;stroke:#000000;stroke-width:1pt;stroke-opacity:1"
         d="M 0,0 5,-5 -12.5,0 5,5 Z"
         id="path2739" />
    </marker>
    <marker
       style="overflow:visible"
       id="marker2719"
       refX="0"
       refY="0"
       orient="auto"
       inkscape:stockid="Arrow1Send"
       inkscape:isstock="true">
      <path
         transform="matrix(-0.2,0,0,-0.2,-1.2,0)"
         style="fill:#000000;fill-opacity:1;fill-rule:evenodd;stroke:#000000;stroke-width:1pt;stroke-opacity:1"
         d="M 0,0 5,-5 -12.5,0 5,5 Z"
         id="path2717" />
    </marker>
    <defs
       id="id-6f1d276f-4915-4d55-92aa-f1f704936d83">
      <g
         id="id-936824f1-ee8b-49bc-a48d-f5a9d3e62138">
        <symbol
           overflow="visible"
           id="id-3ef2f902-883b-40d2-ab12-e8e475c236af">
          <path
             style="stroke:none;stroke-width:0"
             d=""
             id="id-9b200c5b-89c4-41a8-a68e-05694586396e" />
        </symbol>
        <symbol
           overflow="visible"
           id="id-47796429-ffeb-4fcf-a075-83df6902c746">
          <path
             style="stroke:none;stroke-width:0"
             d="m 10.40625,-6.703125 c 0,-0.109375 -0.09375,-0.109375 -0.265625,-0.109375 h -1.3125 c -0.265625,0 -0.28125,0 -0.390625,0.1875 L 4.796875,-0.9375 4.015625,-6.578125 C 3.984375,-6.8125 3.96875,-6.8125 3.703125,-6.8125 H 2.34375 c -0.1875,0 -0.296875,0 -0.296875,0.1875 0,0.125 0.09375,0.125 0.28125,0.125 0.140625,0 0.3125,0.015625 0.4375,0.015625 0.15625,0.03125 0.21875,0.046875 0.21875,0.171875 0,0.03125 -0.015625,0.0625 -0.046875,0.1875 l -1.265625,5.0625 c -0.09375,0.40625 -0.265625,0.71875 -1.078125,0.75 -0.046875,0 -0.171875,0.015625 -0.171875,0.1875 0,0.09375 0.0625,0.125 0.140625,0.125 0.3125,0 0.65625,-0.03125 1,-0.03125 C 1.890625,-0.03125 2.25,0 2.578125,0 c 0.046875,0 0.1875,0 0.1875,-0.203125 0,-0.109375 -0.109375,-0.109375 -0.1875,-0.109375 -0.5625,0 -0.671875,-0.203125 -0.671875,-0.4375 0,-0.0625 0,-0.125 0.03125,-0.234375 L 3.296875,-6.40625 H 3.3125 l 0.859375,6.171875 C 4.1875,-0.109375 4.203125,0 4.3125,0 4.421875,0 4.484375,-0.109375 4.53125,-0.171875 l 4.03125,-6.3125 h 0.015625 l -1.4375,5.703125 c -0.09375,0.390625 -0.109375,0.46875 -0.90625,0.46875 -0.15625,0 -0.265625,0 -0.265625,0.1875 C 5.96875,0 6.078125,0 6.109375,0 L 7.34375,-0.03125 C 7.75,-0.03125 8.1875,0 8.59375,0 8.65625,0 8.78125,0 8.78125,-0.203125 8.78125,-0.3125 8.6875,-0.3125 8.5,-0.3125 c -0.359375,0 -0.640625,0 -0.640625,-0.171875 0,-0.046875 0,-0.0625 0.046875,-0.25 l 1.328125,-5.3125 C 9.328125,-6.40625 9.34375,-6.5 10.09375,-6.5 c 0.21875,0 0.3125,0 0.3125,-0.203125 z m 0,0"
             id="id-0a9708b9-0161-4420-8917-fffec9c28e78" />
        </symbol>
        <symbol
           overflow="visible"
           id="id-0f37da6e-55be-45b9-ae0e-bfd18bb3a2ff">
          <path
             style="stroke:none;stroke-width:0"
             d="m 3.3125,2.375 c 0,-0.03125 -0.015625,-0.0625 -0.046875,-0.078125 -1.03125,-0.78125 -1.71875,-2.78125 -1.71875,-4.375 V -2.90625 c 0,-1.59375 0.6875,-3.59375 1.71875,-4.375 0.03125,-0.015625 0.046875,-0.046875 0.046875,-0.078125 0,-0.046875 -0.046875,-0.09375 -0.109375,-0.09375 -0.015625,0 -0.03125,0 -0.046875,0.015625 C 2.046875,-6.609375 1,-4.609375 1,-2.90625 v 0.828125 C 1,-0.375 2.046875,1.625 3.15625,2.453125 3.171875,2.46875 3.1875,2.46875 3.203125,2.46875 3.265625,2.46875 3.3125,2.421875 3.3125,2.375 Z m 0,0"
             id="id-e9725367-45b0-4871-b804-4804dd800d8f" />
        </symbol>
        <symbol
           overflow="visible"
           id="id-93ec2e1a-1f5d-4368-bb27-dd2e1256045b">
          <path
             style="stroke:none;stroke-width:0"
             d="m 3.296875,-4.1875 c 0,-0.109375 -0.109375,-0.109375 -0.28125,-0.109375 h -0.875 C 2.5,-5.71875 2.546875,-5.90625 2.546875,-5.96875 c 0,-0.171875 -0.125,-0.265625 -0.296875,-0.265625 -0.03125,0 -0.3125,0 -0.390625,0.359375 L 1.46875,-4.296875 h -0.9375 c -0.203125,0 -0.296875,0 -0.296875,0.1875 0,0.125 0.078125,0.125 0.28125,0.125 h 0.875 C 0.671875,-1.15625 0.625,-0.984375 0.625,-0.8125 0.625,-0.265625 1,0.109375 1.546875,0.109375 2.5625,0.109375 3.125,-1.34375 3.125,-1.421875 3.125,-1.53125 3.046875,-1.53125 3.015625,-1.53125 2.921875,-1.53125 2.90625,-1.5 2.859375,-1.390625 2.4375,-0.34375 1.90625,-0.109375 1.5625,-0.109375 c -0.203125,0 -0.3125,-0.125 -0.3125,-0.453125 0,-0.25 0.03125,-0.3125 0.0625,-0.484375 l 0.734375,-2.9375 h 0.9375 c 0.203125,0 0.3125,0 0.3125,-0.203125 z m 0,0"
             id="id-48f8bf2b-c7d3-4f9b-a652-f145b8a1fb4c" />
        </symbol>
        <symbol
           overflow="visible"
           id="id-3e09c7e9-14a4-4f16-b768-4860aaa6f401">
          <path
             style="stroke:none;stroke-width:0"
             d="M 2.875,-2.078125 V -2.90625 c 0,-1.703125 -1.046875,-3.703125 -2.140625,-4.53125 -0.03125,-0.015625 -0.046875,-0.015625 -0.0625,-0.015625 -0.046875,0 -0.109375,0.046875 -0.109375,0.09375 0,0.03125 0.03125,0.0625 0.046875,0.078125 1.03125,0.78125 1.71875,2.78125 1.71875,4.375 v 0.828125 c 0,1.59375 -0.6875,3.59375 -1.71875,4.375 C 0.59375,2.3125 0.5625,2.34375 0.5625,2.375 c 0,0.046875 0.0625,0.09375 0.109375,0.09375 0.015625,0 0.03125,0 0.0625,-0.015625 C 1.828125,1.625 2.875,-0.375 2.875,-2.078125 Z m 0,0"
             id="id-001a0285-e53b-4a7f-993d-fa17b15688d1" />
        </symbol>
        <symbol
           overflow="visible"
           id="id-1c97555d-7b38-4ec8-beef-57bd8d176494">
          <path
             style="stroke:none;stroke-width:0"
             d="M 7.203125,-3.453125 C 7.203125,-3.5625 7.109375,-3.65625 7,-3.65625 H 0.75 c -0.109375,0 -0.1875,0.09375 -0.1875,0.203125 0,0.109375 0.078125,0.1875 0.1875,0.1875 H 7 c 0.109375,0 0.203125,-0.078125 0.203125,-0.1875 z m 0,1.921875 c 0,-0.109375 -0.09375,-0.1875 -0.203125,-0.1875 H 0.75 c -0.109375,0 -0.1875,0.078125 -0.1875,0.1875 0,0.109375 0.078125,0.203125 0.1875,0.203125 H 7 c 0.109375,0 0.203125,-0.09375 0.203125,-0.203125 z m 0,0"
             id="id-67b6c581-fb58-4954-be93-c32ca6af2b7a" />
        </symbol>
        <symbol
           overflow="visible"
           id="id-b99fcfdf-7e61-44b8-a601-1b58571e6d2d">
          <path
             style="stroke:none;stroke-width:0"
             d="M 7.203125,-2.5 C 7.203125,-2.609375 7.109375,-2.6875 7,-2.6875 H 4.078125 v -2.921875 c 0,-0.109375 -0.09375,-0.203125 -0.203125,-0.203125 -0.109375,0 -0.203125,0.09375 -0.203125,0.203125 V -2.6875 H 0.75 c -0.109375,0 -0.1875,0.078125 -0.1875,0.1875 0,0.125 0.078125,0.203125 0.1875,0.203125 H 3.671875 V 0.625 c 0,0.109375 0.09375,0.203125 0.203125,0.203125 0.109375,0 0.203125,-0.09375 0.203125,-0.203125 V -2.296875 H 7 c 0.109375,0 0.203125,-0.078125 0.203125,-0.203125 z m 0,0"
             id="id-10c4c390-9547-4974-bfa9-ec37a2db4a7e" />
        </symbol>
        <symbol
           overflow="visible"
           id="id-6f487e48-b4fc-4e83-aee2-2fa2d656ee6b">
          <path
             style="stroke:none;stroke-width:0"
             d="m 7.828125,-0.078125 c 0,0 0,-0.03125 -0.046875,-0.125 l -3.375,-6.75 c -0.0625,-0.140625 -0.09375,-0.1875 -0.265625,-0.1875 -0.15625,0 -0.1875,0.046875 -0.25,0.1875 l -3.375,6.75 c -0.046875,0.09375 -0.046875,0.125 -0.046875,0.125 C 0.46875,0 0.53125,0 0.6875,0 h 6.921875 c 0.15625,0 0.21875,0 0.21875,-0.078125 z M 6.515625,-0.75 h -5.375 l 2.6875,-5.390625 z m 0,0"
             id="id-1bd24c15-f3a0-461e-80a4-51a5a2b988f5" />
        </symbol>
        <symbol
           overflow="visible"
           id="id-474a4f9b-6d7f-4a1b-97fa-2f29a3699eeb">
          <path
             style="stroke:none;stroke-width:0"
             d="m 8.453125,-1.421875 c 0,-0.109375 -0.09375,-0.109375 -0.125,-0.109375 -0.09375,0 -0.09375,0.03125 -0.140625,0.1875 -0.15625,0.53125 -0.46875,1.234375 -1.015625,1.234375 -0.171875,0 -0.25,-0.09375 -0.25,-0.328125 0,-0.25 0.09375,-0.484375 0.1875,-0.703125 0.1875,-0.53125 0.609375,-1.625 0.609375,-2.203125 0,-0.640625 -0.40625,-1.0625 -1.15625,-1.0625 -0.734375,0 -1.25,0.4375 -1.625,0.96875 0,-0.125 -0.03125,-0.46875 -0.3125,-0.703125 -0.25,-0.21875 -0.5625,-0.265625 -0.8125,-0.265625 -0.90625,0 -1.390625,0.640625 -1.5625,0.875 -0.046875,-0.578125 -0.46875,-0.875 -0.921875,-0.875 -0.453125,0 -0.640625,0.390625 -0.734375,0.5625 -0.171875,0.359375 -0.296875,0.9375 -0.296875,0.96875 0,0.109375 0.109375,0.109375 0.109375,0.109375 0.109375,0 0.109375,-0.015625 0.171875,-0.234375 0.171875,-0.703125 0.375,-1.1875 0.734375,-1.1875 0.15625,0 0.296875,0.078125 0.296875,0.453125 0,0.21875 -0.03125,0.328125 -0.15625,0.84375 L 0.875,-0.59375 c -0.03125,0.15625 -0.09375,0.390625 -0.09375,0.4375 0,0.171875 0.140625,0.265625 0.296875,0.265625 0.125,0 0.296875,-0.078125 0.375,-0.28125 0,-0.015625 0.125,-0.484375 0.1875,-0.734375 l 0.21875,-0.890625 C 1.90625,-2.03125 1.96875,-2.25 2.03125,-2.46875 l 0.125,-0.5 c 0.140625,-0.3125 0.671875,-1.21875 1.625,-1.21875 0.453125,0 0.53125,0.375 0.53125,0.703125 0,0.25 -0.0625,0.53125 -0.140625,0.828125 L 3.890625,-1.5 C 3.78125,-1.140625 3.78125,-1.078125 3.6875,-0.75 c -0.03125,0.203125 -0.125,0.546875 -0.125,0.59375 0,0.171875 0.140625,0.265625 0.28125,0.265625 0.3125,0 0.375,-0.25 0.453125,-0.5625 l 0.59375,-2.40625 c 0.03125,-0.125 0.5625,-1.328125 1.65625,-1.328125 0.421875,0 0.53125,0.34375 0.53125,0.703125 0,0.5625 -0.421875,1.703125 -0.625,2.234375 -0.078125,0.234375 -0.125,0.34375 -0.125,0.546875 0,0.46875 0.34375,0.8125 0.8125,0.8125 0.9375,0 1.3125,-1.453125 1.3125,-1.53125 z m 0,0"
             id="id-d4eba1f9-49e3-4d01-ad96-7d71729d6ea7" />
        </symbol>
        <symbol
           overflow="visible"
           id="id-1321052a-f32b-467c-827f-e49b93cc6137">
          <path
             style="stroke:none;stroke-width:0"
             d="m 4.671875,-3.703125 c 0,-0.546875 -0.265625,-0.703125 -0.4375,-0.703125 -0.25,0 -0.5,0.265625 -0.5,0.484375 0,0.125 0.046875,0.1875 0.15625,0.296875 0.21875,0.203125 0.34375,0.453125 0.34375,0.8125 0,0.421875 -0.609375,2.703125 -1.765625,2.703125 -0.515625,0 -0.75,-0.34375 -0.75,-0.875 0,-0.546875 0.28125,-1.28125 0.578125,-2.109375 0.078125,-0.171875 0.125,-0.3125 0.125,-0.5 0,-0.4375 -0.3125,-0.8125 -0.8125,-0.8125 -0.9375,0 -1.3125,1.453125 -1.3125,1.53125 0,0.109375 0.109375,0.109375 0.109375,0.109375 0.109375,0 0.109375,-0.03125 0.15625,-0.1875 0.296875,-1 0.71875,-1.234375 1.015625,-1.234375 0.078125,0 0.25,0 0.25,0.3125 0,0.25 -0.109375,0.53125 -0.171875,0.703125 -0.4375,1.15625 -0.5625,1.609375 -0.5625,2.046875 0,1.078125 0.875,1.234375 1.328125,1.234375 1.671875,0 2.25,-3.296875 2.25,-3.8125 z m 0,0"
             id="id-4fef1df3-5d73-4055-90a9-5eb195ecc4b9" />
        </symbol>
        <symbol
           overflow="visible"
           id="id-c6fd7b42-b7f8-465e-a69e-a26a914c5159">
          <path
             style="stroke:none;stroke-width:0"
             d="M 7.203125,-2.5 C 7.203125,-2.609375 7.109375,-2.6875 7,-2.6875 H 0.75 c -0.109375,0 -0.1875,0.078125 -0.1875,0.1875 0,0.125 0.078125,0.203125 0.1875,0.203125 H 7 c 0.109375,0 0.203125,-0.078125 0.203125,-0.203125 z m 0,0"
             id="id-25b590c9-0a8f-4205-9dde-c7f9f11fc5b8" />
        </symbol>
        <symbol
           overflow="visible"
           id="id-3ba60d28-1628-4d27-88db-67419bb886d1">
          <path
             style="stroke:none;stroke-width:0"
             d="m 6.890625,-3.703125 c 0,-0.546875 -0.265625,-0.703125 -0.4375,-0.703125 -0.25,0 -0.5,0.265625 -0.5,0.484375 0,0.125 0.0625,0.1875 0.140625,0.265625 0.109375,0.109375 0.359375,0.359375 0.359375,0.84375 0,0.34375 -0.28125,1.3125 -0.546875,1.828125 -0.25,0.53125 -0.609375,0.875 -1.09375,0.875 -0.46875,0 -0.734375,-0.296875 -0.734375,-0.875 0,-0.265625 0.0625,-0.578125 0.109375,-0.71875 L 4.609375,-3.375 C 4.65625,-3.59375 4.75,-3.96875 4.75,-4.03125 c 0,-0.171875 -0.140625,-0.265625 -0.28125,-0.265625 -0.125,0 -0.296875,0.078125 -0.375,0.28125 -0.03125,0.0625 -0.5,1.96875 -0.5625,2.234375 C 3.453125,-1.484375 3.4375,-1.3125 3.4375,-1.125 c 0,0.109375 0,0.125 0.015625,0.171875 -0.234375,0.53125 -0.53125,0.84375 -0.921875,0.84375 -0.796875,0 -0.796875,-0.734375 -0.796875,-0.90625 0,-0.3125 0.046875,-0.703125 0.515625,-1.9375 0.109375,-0.296875 0.171875,-0.4375 0.171875,-0.640625 0,-0.4375 -0.328125,-0.8125 -0.8125,-0.8125 -0.953125,0 -1.3125,1.453125 -1.3125,1.53125 0,0.109375 0.109375,0.109375 0.109375,0.109375 0.109375,0 0.109375,-0.03125 0.15625,-0.1875 C 0.84375,-3.875 1.21875,-4.1875 1.578125,-4.1875 c 0.09375,0 0.25,0.015625 0.25,0.328125 0,0.25 -0.109375,0.53125 -0.1875,0.703125 -0.4375,1.171875 -0.546875,1.625 -0.546875,2.015625 0,0.90625 0.65625,1.25 1.40625,1.25 0.171875,0 0.640625,0 1.03125,-0.703125 0.265625,0.640625 0.953125,0.703125 1.25,0.703125 0.75,0 1.1875,-0.625 1.453125,-1.21875 0.328125,-0.78125 0.65625,-2.125 0.65625,-2.59375 z m 0,0"
             id="id-f6938166-5f87-40c4-963c-8d71acff321f" />
        </symbol>
      </g>
    </defs>
  </defs>
  <sodipodi:namedview
     pagecolor="#ffffff"
     bordercolor="#666666"
     borderopacity="1"
     objecttolerance="10"
     gridtolerance="10"
     guidetolerance="10"
     inkscape:pageopacity="0"
     inkscape:pageshadow="2"
     inkscape:window-width="1920"
     inkscape:window-height="1001"
     id="namedview872"
     showgrid="false"
     inkscape:zoom="2.5288361"
     inkscape:cx="187.03311"
     inkscape:cy="62.551562"
     inkscape:window-x="-9"
     inkscape:window-y="-9"
     inkscape:window-maximized="1"
     inkscape:current-layer="g878"
     inkscape:document-rotation="0" />
  <g
     inkscape:groupmode="layer"
     inkscape:label="Image"
     id="g878"
     transform="translate(-33.409518,-188.93441)">
    <g
       id="g1664"
       style="stroke-width:0.436447;stroke-miterlimit:4;stroke-dasharray:none"
       transform="matrix(2.2990287,0,0,2.2834532,98.14483,45.760303)">
      <ellipse
         style="fill:none;fill-opacity:1;stroke:#000000;stroke-width:0.436447;stroke-miterlimit:4;stroke-dasharray:none;stroke-opacity:1"
         id="path1517"
         cx="67.992287"
         cy="74.681503"
         rx="2.0926473"
         ry="5.1529822" />
      <path
         id="path1529-5"
         style="fill:none;stroke:#000000;stroke-width:0.436447;stroke-linecap:butt;stroke-linejoin:miter;stroke-miterlimit:4;stroke-dasharray:none;stroke-opacity:1"
         d="m 69.382719,79.986353 0.835384,6.286357 8.091079,-5.810947 M 67.992287,79.834484 C 85.652645,81.895632 100.43537,78.458282 103.47256,74.681501 100.43537,70.90472 85.652645,67.46737 67.992287,69.528518 m 1.390432,-0.151869 0.835384,-6.286357 8.091079,5.810947"
         sodipodi:nodetypes="ccccccccc" />
      <path
         id="path1593-8"
         style="fill:#ffffff;stroke:#000000;stroke-width:0.436447;stroke-linecap:butt;stroke-linejoin:miter;stroke-miterlimit:4;stroke-dasharray:none;stroke-opacity:1"
         d="m 68.573813,74.6815 c 0,-3.592359 -3.417575,-3.551256 -5.530895,-3.701804 v 7.403606 c 2.11332,-0.150548 5.530895,-0.109445 5.530895,-3.701804"
         sodipodi:nodetypes="cccc" />
      <ellipse
         style="fill:#ffffff;fill-opacity:1;stroke:#000000;stroke-width:0.436447;stroke-miterlimit:4;stroke-dasharray:none;stroke-opacity:1"
         id="path1517-9"
         cx="63.042919"
         cy="74.681503"
         rx="1.5033191"
         ry="3.7018073" />
    </g>
    <g
       id="g1668"
       style="stroke-width:0.436447;stroke-miterlimit:4;stroke-dasharray:none"
       transform="matrix(2.2990287,0,0,2.2834532,98.14483,45.760304)">
      <path
         id="path1616-3"
         style="fill:none;stroke:#000000;stroke-width:0.436447;stroke-linecap:butt;stroke-linejoin:miter;stroke-miterlimit:4;stroke-dasharray:none;stroke-opacity:1"
         d="M 60.669437,77.266904 C 52.827483,81.374692 45.871186,74.6815 45.871186,74.6815 c 0,0 6.956296,-6.693191 14.79825,-2.585403"
         sodipodi:nodetypes="ccc" />
      <path
         id="path1616-3-0"
         style="fill:none;stroke:#000000;stroke-width:0.436447;stroke-linecap:butt;stroke-linejoin:miter;stroke-miterlimit:4;stroke-dasharray:none;stroke-opacity:1"
         d="m 59.772022,76.263529 c -4.798552,2.513587 -9.055164,-1.582028 -9.055164,-1.582028 0,0 4.256611,-4.095616 9.055163,-1.582029"
         sodipodi:nodetypes="ccc" />
    </g>
    <g
       id="g2417"
       transform="translate(0,0.77785039)">
      <ellipse
         style="fill:none;fill-opacity:1;stroke:#000000;stroke-width:1;stroke-miterlimit:4;stroke-dasharray:none;stroke-opacity:1"
         id="path1517-3"
         cx="48.744427"
         cy="215.51418"
         rx="4.8110561"
         ry="11.766594" />
      <path
         id="path1529-5-0"
         style="fill:none;stroke:#000000;stroke-width:1;stroke-linecap:butt;stroke-linejoin:miter;stroke-miterlimit:4;stroke-dasharray:none;stroke-opacity:1"
         d="m 51.941072,227.62755 1.920572,14.3546 18.601623,-13.26903 m -23.718838,-1.43236 c 40.60167,4.70654 74.587581,-3.14249 81.570171,-11.76659 -6.98259,-8.62411 -40.968501,-16.47313 -81.570171,-11.7666 m 3.196643,-0.34678 1.920572,-14.35461 18.601623,13.26903"
         sodipodi:nodetypes="ccccccccc" />
      <path
         id="path1593-8-9"
         style="fill:#ffffff;stroke:#000000;stroke-width:1;stroke-linecap:butt;stroke-linejoin:miter;stroke-miterlimit:4;stroke-dasharray:none;stroke-opacity:1"
         d="m 50.081374,215.51416 c 0,-8.20298 -7.857103,-8.10912 -12.715686,-8.45289 v 16.90579 c 4.858583,-0.34377 12.715686,-0.24992 12.715686,-8.4529"
         sodipodi:nodetypes="cccc" />
      <ellipse
         style="fill:#ffffff;fill-opacity:1;stroke:#000000;stroke-width:1;stroke-miterlimit:4;stroke-dasharray:none;stroke-opacity:1"
         id="path1517-9-1"
         cx="37.365692"
         cy="215.51418"
         rx="3.4561739"
         ry="8.4529037" />
    </g>
    <text
       xml:space="preserve"
       style="font-style:italic;font-size:9.33333px;line-height:1.25;font-family:'Latin Modern Roman';-inkscape-font-specification:'Latin Modern Roman, Italic'"
       x="195.34679"
       y="178.34293"
       id="text1803"><tspan
         sodipodi:role="line"
         id="tspan1801"
         x="195.34679"
         y="178.34293" /></text>
    <g
       id="g2337"
       transform="translate(24.517208,-43.893711)">
      <g
         style="fill:#000000;fill-opacity:1"
         id="id-aea2a908-8b28-4639-94f8-06698c390878"
         transform="matrix(0.933331,0,0,0.933331,-108.45762,136.73141)">
        <g
           transform="translate(148.712,134.765)"
           id="g1860">
          <path
             style="stroke:none;stroke-width:0"
             d="m 10.40625,-6.703125 c 0,-0.109375 -0.09375,-0.109375 -0.265625,-0.109375 h -1.3125 c -0.265625,0 -0.28125,0 -0.390625,0.1875 L 4.796875,-0.9375 4.015625,-6.578125 C 3.984375,-6.8125 3.96875,-6.8125 3.703125,-6.8125 H 2.34375 c -0.1875,0 -0.296875,0 -0.296875,0.1875 0,0.125 0.09375,0.125 0.28125,0.125 0.140625,0 0.3125,0.015625 0.4375,0.015625 0.15625,0.03125 0.21875,0.046875 0.21875,0.171875 0,0.03125 -0.015625,0.0625 -0.046875,0.1875 l -1.265625,5.0625 c -0.09375,0.40625 -0.265625,0.71875 -1.078125,0.75 -0.046875,0 -0.171875,0.015625 -0.171875,0.1875 0,0.09375 0.0625,0.125 0.140625,0.125 0.3125,0 0.65625,-0.03125 1,-0.03125 C 1.890625,-0.03125 2.25,0 2.578125,0 c 0.046875,0 0.1875,0 0.1875,-0.203125 0,-0.109375 -0.109375,-0.109375 -0.1875,-0.109375 -0.5625,0 -0.671875,-0.203125 -0.671875,-0.4375 0,-0.0625 0,-0.125 0.03125,-0.234375 L 3.296875,-6.40625 H 3.3125 l 0.859375,6.171875 C 4.1875,-0.109375 4.203125,0 4.3125,0 4.421875,0 4.484375,-0.109375 4.53125,-0.171875 l 4.03125,-6.3125 h 0.015625 l -1.4375,5.703125 c -0.09375,0.390625 -0.109375,0.46875 -0.90625,0.46875 -0.15625,0 -0.265625,0 -0.265625,0.1875 C 5.96875,0 6.078125,0 6.109375,0 L 7.34375,-0.03125 C 7.75,-0.03125 8.1875,0 8.59375,0 8.65625,0 8.78125,0 8.78125,-0.203125 8.78125,-0.3125 8.6875,-0.3125 8.5,-0.3125 c -0.359375,0 -0.640625,0 -0.640625,-0.171875 0,-0.046875 0,-0.0625 0.046875,-0.25 l 1.328125,-5.3125 C 9.328125,-6.40625 9.34375,-6.5 10.09375,-6.5 c 0.21875,0 0.3125,0 0.3125,-0.203125 z m 0,0"
             id="id-c0cc1520-a903-4be9-8be0-fa1c7110e217" />
        </g>
      </g>
      <g
         style="fill:#000000;fill-opacity:1"
         id="id-50856d28-7719-4841-846d-f12284e2edc7"
         transform="matrix(0.933331,0,0,0.933331,-108.45762,136.73141)">
        <g
           transform="translate(159.392,134.765)"
           id="g1864">
          <path
             style="stroke:none;stroke-width:0"
             d="m 3.3125,2.375 c 0,-0.03125 -0.015625,-0.0625 -0.046875,-0.078125 -1.03125,-0.78125 -1.71875,-2.78125 -1.71875,-4.375 V -2.90625 c 0,-1.59375 0.6875,-3.59375 1.71875,-4.375 0.03125,-0.015625 0.046875,-0.046875 0.046875,-0.078125 0,-0.046875 -0.046875,-0.09375 -0.109375,-0.09375 -0.015625,0 -0.03125,0 -0.046875,0.015625 C 2.046875,-6.609375 1,-4.609375 1,-2.90625 v 0.828125 C 1,-0.375 2.046875,1.625 3.15625,2.453125 3.171875,2.46875 3.1875,2.46875 3.203125,2.46875 3.265625,2.46875 3.3125,2.421875 3.3125,2.375 Z m 0,0"
             id="id-7c814c61-b2d5-4db9-a09c-cebff7cef48d" />
        </g>
        <g
           transform="translate(163.267,134.765)"
           id="g1867">
          <path
             style="stroke:none;stroke-width:0"
             d="m 3.296875,-4.1875 c 0,-0.109375 -0.109375,-0.109375 -0.28125,-0.109375 h -0.875 C 2.5,-5.71875 2.546875,-5.90625 2.546875,-5.96875 c 0,-0.171875 -0.125,-0.265625 -0.296875,-0.265625 -0.03125,0 -0.3125,0 -0.390625,0.359375 L 1.46875,-4.296875 h -0.9375 c -0.203125,0 -0.296875,0 -0.296875,0.1875 0,0.125 0.078125,0.125 0.28125,0.125 h 0.875 C 0.671875,-1.15625 0.625,-0.984375 0.625,-0.8125 0.625,-0.265625 1,0.109375 1.546875,0.109375 2.5625,0.109375 3.125,-1.34375 3.125,-1.421875 3.125,-1.53125 3.046875,-1.53125 3.015625,-1.53125 2.921875,-1.53125 2.90625,-1.5 2.859375,-1.390625 2.4375,-0.34375 1.90625,-0.109375 1.5625,-0.109375 c -0.203125,0 -0.3125,-0.125 -0.3125,-0.453125 0,-0.25 0.03125,-0.3125 0.0625,-0.484375 l 0.734375,-2.9375 h 0.9375 c 0.203125,0 0.3125,0 0.3125,-0.203125 z m 0,0"
             id="id-8cccd17b-d402-45e9-b21b-f715379e7d00" />
        </g>
        <g
           transform="translate(166.864,134.765)"
           id="g1870">
          <path
             style="stroke:none;stroke-width:0"
             d="M 2.875,-2.078125 V -2.90625 c 0,-1.703125 -1.046875,-3.703125 -2.140625,-4.53125 -0.03125,-0.015625 -0.046875,-0.015625 -0.0625,-0.015625 -0.046875,0 -0.109375,0.046875 -0.109375,0.09375 0,0.03125 0.03125,0.0625 0.046875,0.078125 1.03125,0.78125 1.71875,2.78125 1.71875,4.375 v 0.828125 c 0,1.59375 -0.6875,3.59375 -1.71875,4.375 C 0.59375,2.3125 0.5625,2.34375 0.5625,2.375 c 0,0.046875 0.0625,0.09375 0.109375,0.09375 0.015625,0 0.03125,0 0.0625,-0.015625 C 1.828125,1.625 2.875,-0.375 2.875,-2.078125 Z m 0,0"
             id="id-239aa225-70e5-4837-a432-b057cb4bf854" />
        </g>
      </g>
      <g
         style="fill:#000000;fill-opacity:1"
         id="id-3b0f11eb-f7a7-4160-9633-389363c3a698"
         transform="matrix(0.933331,0,0,0.933331,-108.45762,136.73141)">
        <g
           transform="translate(173.499,134.765)"
           id="g1874">
          <path
             style="stroke:none;stroke-width:0"
             d="M 7.203125,-3.453125 C 7.203125,-3.5625 7.109375,-3.65625 7,-3.65625 H 0.75 c -0.109375,0 -0.1875,0.09375 -0.1875,0.203125 0,0.109375 0.078125,0.1875 0.1875,0.1875 H 7 c 0.109375,0 0.203125,-0.078125 0.203125,-0.1875 z m 0,1.921875 c 0,-0.109375 -0.09375,-0.1875 -0.203125,-0.1875 H 0.75 c -0.109375,0 -0.1875,0.078125 -0.1875,0.1875 0,0.109375 0.078125,0.203125 0.1875,0.203125 H 7 c 0.109375,0 0.203125,-0.09375 0.203125,-0.203125 z m 0,0"
             id="id-c40c1a28-a420-498f-9e13-5a5ea6bbe52c" />
        </g>
      </g>
      <g
         style="fill:#000000;fill-opacity:1"
         id="id-888b0f99-c6f3-49ec-9e7c-05d0d7ea3bcd"
         transform="matrix(0.933331,0,0,0.933331,-108.45762,136.73141)">
        <g
           transform="translate(184.019,134.765)"
           id="g1878">
          <path
             style="stroke:none;stroke-width:0"
             d="m 10.40625,-6.703125 c 0,-0.109375 -0.09375,-0.109375 -0.265625,-0.109375 h -1.3125 c -0.265625,0 -0.28125,0 -0.390625,0.1875 L 4.796875,-0.9375 4.015625,-6.578125 C 3.984375,-6.8125 3.96875,-6.8125 3.703125,-6.8125 H 2.34375 c -0.1875,0 -0.296875,0 -0.296875,0.1875 0,0.125 0.09375,0.125 0.28125,0.125 0.140625,0 0.3125,0.015625 0.4375,0.015625 0.15625,0.03125 0.21875,0.046875 0.21875,0.171875 0,0.03125 -0.015625,0.0625 -0.046875,0.1875 l -1.265625,5.0625 c -0.09375,0.40625 -0.265625,0.71875 -1.078125,0.75 -0.046875,0 -0.171875,0.015625 -0.171875,0.1875 0,0.09375 0.0625,0.125 0.140625,0.125 0.3125,0 0.65625,-0.03125 1,-0.03125 C 1.890625,-0.03125 2.25,0 2.578125,0 c 0.046875,0 0.1875,0 0.1875,-0.203125 0,-0.109375 -0.109375,-0.109375 -0.1875,-0.109375 -0.5625,0 -0.671875,-0.203125 -0.671875,-0.4375 0,-0.0625 0,-0.125 0.03125,-0.234375 L 3.296875,-6.40625 H 3.3125 l 0.859375,6.171875 C 4.1875,-0.109375 4.203125,0 4.3125,0 4.421875,0 4.484375,-0.109375 4.53125,-0.171875 l 4.03125,-6.3125 h 0.015625 l -1.4375,5.703125 c -0.09375,0.390625 -0.109375,0.46875 -0.90625,0.46875 -0.15625,0 -0.265625,0 -0.265625,0.1875 C 5.96875,0 6.078125,0 6.109375,0 L 7.34375,-0.03125 C 7.75,-0.03125 8.1875,0 8.59375,0 8.65625,0 8.78125,0 8.78125,-0.203125 8.78125,-0.3125 8.6875,-0.3125 8.5,-0.3125 c -0.359375,0 -0.640625,0 -0.640625,-0.171875 0,-0.046875 0,-0.0625 0.046875,-0.25 l 1.328125,-5.3125 C 9.328125,-6.40625 9.34375,-6.5 10.09375,-6.5 c 0.21875,0 0.3125,0 0.3125,-0.203125 z m 0,0"
             id="id-2a46367d-79ad-4269-b4ec-ebb6f26c7b95" />
        </g>
      </g>
      <g
         style="fill:#000000;fill-opacity:1"
         id="id-17d8924a-ffee-431d-934d-0a98f35823a1"
         transform="matrix(0.933331,0,0,0.933331,-108.45762,136.73141)">
        <g
           transform="translate(196.911,134.765)"
           id="g1882">
          <path
             style="stroke:none;stroke-width:0"
             d="M 7.203125,-2.5 C 7.203125,-2.609375 7.109375,-2.6875 7,-2.6875 H 4.078125 v -2.921875 c 0,-0.109375 -0.09375,-0.203125 -0.203125,-0.203125 -0.109375,0 -0.203125,0.09375 -0.203125,0.203125 V -2.6875 H 0.75 c -0.109375,0 -0.1875,0.078125 -0.1875,0.1875 0,0.125 0.078125,0.203125 0.1875,0.203125 H 3.671875 V 0.625 c 0,0.109375 0.09375,0.203125 0.203125,0.203125 0.109375,0 0.203125,-0.09375 0.203125,-0.203125 V -2.296875 H 7 c 0.109375,0 0.203125,-0.078125 0.203125,-0.203125 z m 0,0"
             id="id-1d8e599c-1839-4357-9313-80b8ac8e5b02" />
        </g>
      </g>
      <g
         style="fill:#000000;fill-opacity:1"
         id="id-f43fc449-efe0-4fc0-9e70-1ffabbaaae2e"
         transform="matrix(0.933331,0,0,0.933331,-108.45762,136.73141)">
        <g
           transform="translate(206.884,134.765)"
           id="g1886">
          <path
             style="stroke:none;stroke-width:0"
             d="m 7.828125,-0.078125 c 0,0 0,-0.03125 -0.046875,-0.125 l -3.375,-6.75 c -0.0625,-0.140625 -0.09375,-0.1875 -0.265625,-0.1875 -0.15625,0 -0.1875,0.046875 -0.25,0.1875 l -3.375,6.75 c -0.046875,0.09375 -0.046875,0.125 -0.046875,0.125 C 0.46875,0 0.53125,0 0.6875,0 h 6.921875 c 0.15625,0 0.21875,0 0.21875,-0.078125 z M 6.515625,-0.75 h -5.375 l 2.6875,-5.390625 z m 0,0"
             id="id-19d7d237-f848-4591-9412-31cd14e3f299" />
        </g>
        <g
           transform="translate(215.182,134.765)"
           id="g1889">
          <path
             style="stroke:none;stroke-width:0"
             d="m 8.453125,-1.421875 c 0,-0.109375 -0.09375,-0.109375 -0.125,-0.109375 -0.09375,0 -0.09375,0.03125 -0.140625,0.1875 -0.15625,0.53125 -0.46875,1.234375 -1.015625,1.234375 -0.171875,0 -0.25,-0.09375 -0.25,-0.328125 0,-0.25 0.09375,-0.484375 0.1875,-0.703125 0.1875,-0.53125 0.609375,-1.625 0.609375,-2.203125 0,-0.640625 -0.40625,-1.0625 -1.15625,-1.0625 -0.734375,0 -1.25,0.4375 -1.625,0.96875 0,-0.125 -0.03125,-0.46875 -0.3125,-0.703125 -0.25,-0.21875 -0.5625,-0.265625 -0.8125,-0.265625 -0.90625,0 -1.390625,0.640625 -1.5625,0.875 -0.046875,-0.578125 -0.46875,-0.875 -0.921875,-0.875 -0.453125,0 -0.640625,0.390625 -0.734375,0.5625 -0.171875,0.359375 -0.296875,0.9375 -0.296875,0.96875 0,0.109375 0.109375,0.109375 0.109375,0.109375 0.109375,0 0.109375,-0.015625 0.171875,-0.234375 0.171875,-0.703125 0.375,-1.1875 0.734375,-1.1875 0.15625,0 0.296875,0.078125 0.296875,0.453125 0,0.21875 -0.03125,0.328125 -0.15625,0.84375 L 0.875,-0.59375 c -0.03125,0.15625 -0.09375,0.390625 -0.09375,0.4375 0,0.171875 0.140625,0.265625 0.296875,0.265625 0.125,0 0.296875,-0.078125 0.375,-0.28125 0,-0.015625 0.125,-0.484375 0.1875,-0.734375 l 0.21875,-0.890625 C 1.90625,-2.03125 1.96875,-2.25 2.03125,-2.46875 l 0.125,-0.5 c 0.140625,-0.3125 0.671875,-1.21875 1.625,-1.21875 0.453125,0 0.53125,0.375 0.53125,0.703125 0,0.25 -0.0625,0.53125 -0.140625,0.828125 L 3.890625,-1.5 C 3.78125,-1.140625 3.78125,-1.078125 3.6875,-0.75 c -0.03125,0.203125 -0.125,0.546875 -0.125,0.59375 0,0.171875 0.140625,0.265625 0.28125,0.265625 0.3125,0 0.375,-0.25 0.453125,-0.5625 l 0.59375,-2.40625 c 0.03125,-0.125 0.5625,-1.328125 1.65625,-1.328125 0.421875,0 0.53125,0.34375 0.53125,0.703125 0,0.5625 -0.421875,1.703125 -0.625,2.234375 -0.078125,0.234375 -0.125,0.34375 -0.125,0.546875 0,0.46875 0.34375,0.8125 0.8125,0.8125 0.9375,0 1.3125,-1.453125 1.3125,-1.53125 z m 0,0"
             id="id-b75a96f1-367e-4699-a8b0-df807454ce21" />
        </g>
      </g>
    </g>
    <g
       id="g2374"
       transform="translate(63.478454,-53.384243)">
      <g
         style="fill:#000000;fill-opacity:1"
         id="id-a0295e48-c87c-4354-b963-d1c8ac23bfce"
         transform="matrix(0.933331,0,0,0.933331,-108.45762,136.73141)">
        <g
           transform="translate(230.565,134.765)"
           id="g1893">
          <path
             style="stroke:none;stroke-width:0"
             d="m 4.671875,-3.703125 c 0,-0.546875 -0.265625,-0.703125 -0.4375,-0.703125 -0.25,0 -0.5,0.265625 -0.5,0.484375 0,0.125 0.046875,0.1875 0.15625,0.296875 0.21875,0.203125 0.34375,0.453125 0.34375,0.8125 0,0.421875 -0.609375,2.703125 -1.765625,2.703125 -0.515625,0 -0.75,-0.34375 -0.75,-0.875 0,-0.546875 0.28125,-1.28125 0.578125,-2.109375 0.078125,-0.171875 0.125,-0.3125 0.125,-0.5 0,-0.4375 -0.3125,-0.8125 -0.8125,-0.8125 -0.9375,0 -1.3125,1.453125 -1.3125,1.53125 0,0.109375 0.109375,0.109375 0.109375,0.109375 0.109375,0 0.109375,-0.03125 0.15625,-0.1875 0.296875,-1 0.71875,-1.234375 1.015625,-1.234375 0.078125,0 0.25,0 0.25,0.3125 0,0.25 -0.109375,0.53125 -0.171875,0.703125 -0.4375,1.15625 -0.5625,1.609375 -0.5625,2.046875 0,1.078125 0.875,1.234375 1.328125,1.234375 1.671875,0 2.25,-3.296875 2.25,-3.8125 z m 0,0"
             id="id-22ef19f4-a5ff-44a5-8327-ff99de0b7e37" />
        </g>
      </g>
      <g
         style="fill:#000000;fill-opacity:1"
         id="id-eb9c4b50-98b6-4360-a070-221b958e8330"
         transform="matrix(0.933331,0,0,0.933331,-108.45762,136.73141)">
        <g
           transform="translate(237.718,134.765)"
           id="g1897">
          <path
             style="stroke:none;stroke-width:0"
             d="M 7.203125,-2.5 C 7.203125,-2.609375 7.109375,-2.6875 7,-2.6875 H 0.75 c -0.109375,0 -0.1875,0.078125 -0.1875,0.1875 0,0.125 0.078125,0.203125 0.1875,0.203125 H 7 c 0.109375,0 0.203125,-0.078125 0.203125,-0.203125 z m 0,0"
             id="id-62d15069-28e5-4fba-9154-003cdcc0861c" />
        </g>
      </g>
      <g
         style="fill:#000000;fill-opacity:1"
         id="id-e6ebfd6a-e5a5-42f1-94ff-2075bdbd64aa"
         transform="matrix(0.933331,0,0,0.933331,-108.45762,136.73141)">
        <g
           transform="translate(247.68,134.765)"
           id="g1901">
          <path
             style="stroke:none;stroke-width:0"
             d="m 6.890625,-3.703125 c 0,-0.546875 -0.265625,-0.703125 -0.4375,-0.703125 -0.25,0 -0.5,0.265625 -0.5,0.484375 0,0.125 0.0625,0.1875 0.140625,0.265625 0.109375,0.109375 0.359375,0.359375 0.359375,0.84375 0,0.34375 -0.28125,1.3125 -0.546875,1.828125 -0.25,0.53125 -0.609375,0.875 -1.09375,0.875 -0.46875,0 -0.734375,-0.296875 -0.734375,-0.875 0,-0.265625 0.0625,-0.578125 0.109375,-0.71875 L 4.609375,-3.375 C 4.65625,-3.59375 4.75,-3.96875 4.75,-4.03125 c 0,-0.171875 -0.140625,-0.265625 -0.28125,-0.265625 -0.125,0 -0.296875,0.078125 -0.375,0.28125 -0.03125,0.0625 -0.5,1.96875 -0.5625,2.234375 C 3.453125,-1.484375 3.4375,-1.3125 3.4375,-1.125 c 0,0.109375 0,0.125 0.015625,0.171875 -0.234375,0.53125 -0.53125,0.84375 -0.921875,0.84375 -0.796875,0 -0.796875,-0.734375 -0.796875,-0.90625 0,-0.3125 0.046875,-0.703125 0.515625,-1.9375 0.109375,-0.296875 0.171875,-0.4375 0.171875,-0.640625 0,-0.4375 -0.328125,-0.8125 -0.8125,-0.8125 -0.953125,0 -1.3125,1.453125 -1.3125,1.53125 0,0.109375 0.109375,0.109375 0.109375,0.109375 0.109375,0 0.109375,-0.03125 0.15625,-0.1875 C 0.84375,-3.875 1.21875,-4.1875 1.578125,-4.1875 c 0.09375,0 0.25,0.015625 0.25,0.328125 0,0.25 -0.109375,0.53125 -0.1875,0.703125 -0.4375,1.171875 -0.546875,1.625 -0.546875,2.015625 0,0.90625 0.65625,1.25 1.40625,1.25 0.171875,0 0.640625,0 1.03125,-0.703125 0.265625,0.640625 0.953125,0.703125 1.25,0.703125 0.75,0 1.1875,-0.625 1.453125,-1.21875 0.328125,-0.78125 0.65625,-2.125 0.65625,-2.59375 z m 0,0"
             id="id-e72c3172-cc77-448f-98b8-567dbe6dd9cd" />
        </g>
      </g>
    </g>
    <g
       id="g2381"
       transform="translate(78.744182,-60.897581)">
      <g
         style="fill:#000000;fill-opacity:1"
         id="id-bb140956-7a6a-449e-92e1-eced25b09216"
         transform="matrix(0.933331,0,0,0.933331,-108.45762,136.73141)">
        <g
           transform="translate(261.479,134.765)"
           id="g1905">
          <path
             style="stroke:none;stroke-width:0"
             d="m 7.828125,-0.078125 c 0,0 0,-0.03125 -0.046875,-0.125 l -3.375,-6.75 c -0.0625,-0.140625 -0.09375,-0.1875 -0.265625,-0.1875 -0.15625,0 -0.1875,0.046875 -0.25,0.1875 l -3.375,6.75 c -0.046875,0.09375 -0.046875,0.125 -0.046875,0.125 C 0.46875,0 0.53125,0 0.6875,0 h 6.921875 c 0.15625,0 0.21875,0 0.21875,-0.078125 z M 6.515625,-0.75 h -5.375 l 2.6875,-5.390625 z m 0,0"
             id="id-029784aa-1d23-4529-816e-11d8fe109b8b" />
        </g>
        <g
           transform="translate(269.778,134.765)"
           id="g1908">
          <path
             style="stroke:none;stroke-width:0"
             d="m 8.453125,-1.421875 c 0,-0.109375 -0.09375,-0.109375 -0.125,-0.109375 -0.09375,0 -0.09375,0.03125 -0.140625,0.1875 -0.15625,0.53125 -0.46875,1.234375 -1.015625,1.234375 -0.171875,0 -0.25,-0.09375 -0.25,-0.328125 0,-0.25 0.09375,-0.484375 0.1875,-0.703125 0.1875,-0.53125 0.609375,-1.625 0.609375,-2.203125 0,-0.640625 -0.40625,-1.0625 -1.15625,-1.0625 -0.734375,0 -1.25,0.4375 -1.625,0.96875 0,-0.125 -0.03125,-0.46875 -0.3125,-0.703125 -0.25,-0.21875 -0.5625,-0.265625 -0.8125,-0.265625 -0.90625,0 -1.390625,0.640625 -1.5625,0.875 -0.046875,-0.578125 -0.46875,-0.875 -0.921875,-0.875 -0.453125,0 -0.640625,0.390625 -0.734375,0.5625 -0.171875,0.359375 -0.296875,0.9375 -0.296875,0.96875 0,0.109375 0.109375,0.109375 0.109375,0.109375 0.109375,0 0.109375,-0.015625 0.171875,-0.234375 0.171875,-0.703125 0.375,-1.1875 0.734375,-1.1875 0.15625,0 0.296875,0.078125 0.296875,0.453125 0,0.21875 -0.03125,0.328125 -0.15625,0.84375 L 0.875,-0.59375 c -0.03125,0.15625 -0.09375,0.390625 -0.09375,0.4375 0,0.171875 0.140625,0.265625 0.296875,0.265625 0.125,0 0.296875,-0.078125 0.375,-0.28125 0,-0.015625 0.125,-0.484375 0.1875,-0.734375 l 0.21875,-0.890625 C 1.90625,-2.03125 1.96875,-2.25 2.03125,-2.46875 l 0.125,-0.5 c 0.140625,-0.3125 0.671875,-1.21875 1.625,-1.21875 0.453125,0 0.53125,0.375 0.53125,0.703125 0,0.25 -0.0625,0.53125 -0.140625,0.828125 L 3.890625,-1.5 C 3.78125,-1.140625 3.78125,-1.078125 3.6875,-0.75 c -0.03125,0.203125 -0.125,0.546875 -0.125,0.59375 0,0.171875 0.140625,0.265625 0.28125,0.265625 0.3125,0 0.375,-0.25 0.453125,-0.5625 l 0.59375,-2.40625 c 0.03125,-0.125 0.5625,-1.328125 1.65625,-1.328125 0.421875,0 0.53125,0.34375 0.53125,0.703125 0,0.5625 -0.421875,1.703125 -0.625,2.234375 -0.078125,0.234375 -0.125,0.34375 -0.125,0.546875 0,0.46875 0.34375,0.8125 0.8125,0.8125 0.9375,0 1.3125,-1.453125 1.3125,-1.53125 z m 0,0"
             id="id-722bb0be-f59c-4078-a78d-c25dfab53427" />
        </g>
      </g>
    </g>
    <g
       id="g2363"
       transform="translate(104.39585,-43.893711)">
      <g
         style="fill:#000000;fill-opacity:1"
         id="id-3a891896-5d06-4f0c-821c-1c85cb407e74"
         transform="matrix(0.933331,0,0,0.933331,-108.45762,136.73141)">
        <g
           transform="translate(285.16,134.765)"
           id="g1912">
          <path
             style="stroke:none;stroke-width:0"
             d="m 10.40625,-6.703125 c 0,-0.109375 -0.09375,-0.109375 -0.265625,-0.109375 h -1.3125 c -0.265625,0 -0.28125,0 -0.390625,0.1875 L 4.796875,-0.9375 4.015625,-6.578125 C 3.984375,-6.8125 3.96875,-6.8125 3.703125,-6.8125 H 2.34375 c -0.1875,0 -0.296875,0 -0.296875,0.1875 0,0.125 0.09375,0.125 0.28125,0.125 0.140625,0 0.3125,0.015625 0.4375,0.015625 0.15625,0.03125 0.21875,0.046875 0.21875,0.171875 0,0.03125 -0.015625,0.0625 -0.046875,0.1875 l -1.265625,5.0625 c -0.09375,0.40625 -0.265625,0.71875 -1.078125,0.75 -0.046875,0 -0.171875,0.015625 -0.171875,0.1875 0,0.09375 0.0625,0.125 0.140625,0.125 0.3125,0 0.65625,-0.03125 1,-0.03125 C 1.890625,-0.03125 2.25,0 2.578125,0 c 0.046875,0 0.1875,0 0.1875,-0.203125 0,-0.109375 -0.109375,-0.109375 -0.1875,-0.109375 -0.5625,0 -0.671875,-0.203125 -0.671875,-0.4375 0,-0.0625 0,-0.125 0.03125,-0.234375 L 3.296875,-6.40625 H 3.3125 l 0.859375,6.171875 C 4.1875,-0.109375 4.203125,0 4.3125,0 4.421875,0 4.484375,-0.109375 4.53125,-0.171875 l 4.03125,-6.3125 h 0.015625 l -1.4375,5.703125 c -0.09375,0.390625 -0.109375,0.46875 -0.90625,0.46875 -0.15625,0 -0.265625,0 -0.265625,0.1875 C 5.96875,0 6.078125,0 6.109375,0 L 7.34375,-0.03125 C 7.75,-0.03125 8.1875,0 8.59375,0 8.65625,0 8.78125,0 8.78125,-0.203125 8.78125,-0.3125 8.6875,-0.3125 8.5,-0.3125 c -0.359375,0 -0.640625,0 -0.640625,-0.171875 0,-0.046875 0,-0.0625 0.046875,-0.25 l 1.328125,-5.3125 C 9.328125,-6.40625 9.34375,-6.5 10.09375,-6.5 c 0.21875,0 0.3125,0 0.3125,-0.203125 z m 0,0"
             id="id-b478d84d-02e3-487f-b354-0e065faa69ba" />
        </g>
      </g>
      <g
         style="fill:#000000;fill-opacity:1"
         id="id-3f5db5bd-29de-4c7f-94dc-2953a2a434c5"
         transform="matrix(0.933331,0,0,0.933331,-108.45762,136.73141)">
        <g
           transform="translate(295.84,134.765)"
           id="g1916">
          <path
             style="stroke:none;stroke-width:0"
             d="m 3.3125,2.375 c 0,-0.03125 -0.015625,-0.0625 -0.046875,-0.078125 -1.03125,-0.78125 -1.71875,-2.78125 -1.71875,-4.375 V -2.90625 c 0,-1.59375 0.6875,-3.59375 1.71875,-4.375 0.03125,-0.015625 0.046875,-0.046875 0.046875,-0.078125 0,-0.046875 -0.046875,-0.09375 -0.109375,-0.09375 -0.015625,0 -0.03125,0 -0.046875,0.015625 C 2.046875,-6.609375 1,-4.609375 1,-2.90625 v 0.828125 C 1,-0.375 2.046875,1.625 3.15625,2.453125 3.171875,2.46875 3.1875,2.46875 3.203125,2.46875 3.265625,2.46875 3.3125,2.421875 3.3125,2.375 Z m 0,0"
             id="id-06a94dc7-6221-4a03-a294-3cdf92becd2c" />
        </g>
        <g
           transform="translate(299.715,134.765)"
           id="g1919">
          <path
             style="stroke:none;stroke-width:0"
             d="m 3.296875,-4.1875 c 0,-0.109375 -0.109375,-0.109375 -0.28125,-0.109375 h -0.875 C 2.5,-5.71875 2.546875,-5.90625 2.546875,-5.96875 c 0,-0.171875 -0.125,-0.265625 -0.296875,-0.265625 -0.03125,0 -0.3125,0 -0.390625,0.359375 L 1.46875,-4.296875 h -0.9375 c -0.203125,0 -0.296875,0 -0.296875,0.1875 0,0.125 0.078125,0.125 0.28125,0.125 h 0.875 C 0.671875,-1.15625 0.625,-0.984375 0.625,-0.8125 0.625,-0.265625 1,0.109375 1.546875,0.109375 2.5625,0.109375 3.125,-1.34375 3.125,-1.421875 3.125,-1.53125 3.046875,-1.53125 3.015625,-1.53125 2.921875,-1.53125 2.90625,-1.5 2.859375,-1.390625 2.4375,-0.34375 1.90625,-0.109375 1.5625,-0.109375 c -0.203125,0 -0.3125,-0.125 -0.3125,-0.453125 0,-0.25 0.03125,-0.3125 0.0625,-0.484375 l 0.734375,-2.9375 h 0.9375 c 0.203125,0 0.3125,0 0.3125,-0.203125 z m 0,0"
             id="id-5b58f3ad-c00e-4f0f-8702-13905703b115" />
        </g>
      </g>
      <g
         style="fill:#000000;fill-opacity:1"
         id="id-b1940e21-f6bf-4423-b74f-f51be8ff28f6"
         transform="matrix(0.933331,0,0,0.933331,-108.45762,136.73141)">
        <g
           transform="translate(305.523,134.765)"
           id="g1923">
          <path
             style="stroke:none;stroke-width:0"
             d="M 7.203125,-2.5 C 7.203125,-2.609375 7.109375,-2.6875 7,-2.6875 H 4.078125 v -2.921875 c 0,-0.109375 -0.09375,-0.203125 -0.203125,-0.203125 -0.109375,0 -0.203125,0.09375 -0.203125,0.203125 V -2.6875 H 0.75 c -0.109375,0 -0.1875,0.078125 -0.1875,0.1875 0,0.125 0.078125,0.203125 0.1875,0.203125 H 3.671875 V 0.625 c 0,0.109375 0.09375,0.203125 0.203125,0.203125 0.109375,0 0.203125,-0.09375 0.203125,-0.203125 V -2.296875 H 7 c 0.109375,0 0.203125,-0.078125 0.203125,-0.203125 z m 0,0"
             id="id-4a4b7d75-5e83-4c85-bbfa-65f8b4163a3a" />
        </g>
      </g>
      <g
         style="fill:#000000;fill-opacity:1"
         id="id-04a695cc-5615-45eb-a8b3-e3b33acadc18"
         transform="matrix(0.933331,0,0,0.933331,-108.45762,136.73141)">
        <g
           transform="translate(315.496,134.765)"
           id="g1927">
          <path
             style="stroke:none;stroke-width:0"
             d="m 7.828125,-0.078125 c 0,0 0,-0.03125 -0.046875,-0.125 l -3.375,-6.75 c -0.0625,-0.140625 -0.09375,-0.1875 -0.265625,-0.1875 -0.15625,0 -0.1875,0.046875 -0.25,0.1875 l -3.375,6.75 c -0.046875,0.09375 -0.046875,0.125 -0.046875,0.125 C 0.46875,0 0.53125,0 0.6875,0 h 6.921875 c 0.15625,0 0.21875,0 0.21875,-0.078125 z M 6.515625,-0.75 h -5.375 l 2.6875,-5.390625 z m 0,0"
             id="id-a61fbe08-7300-4773-8c42-bbd66ec50af7" />
        </g>
        <g
           transform="translate(323.795,134.765)"
           id="g1930">
          <path
             style="stroke:none;stroke-width:0"
             d="m 3.296875,-4.1875 c 0,-0.109375 -0.109375,-0.109375 -0.28125,-0.109375 h -0.875 C 2.5,-5.71875 2.546875,-5.90625 2.546875,-5.96875 c 0,-0.171875 -0.125,-0.265625 -0.296875,-0.265625 -0.03125,0 -0.3125,0 -0.390625,0.359375 L 1.46875,-4.296875 h -0.9375 c -0.203125,0 -0.296875,0 -0.296875,0.1875 0,0.125 0.078125,0.125 0.28125,0.125 h 0.875 C 0.671875,-1.15625 0.625,-0.984375 0.625,-0.8125 0.625,-0.265625 1,0.109375 1.546875,0.109375 2.5625,0.109375 3.125,-1.34375 3.125,-1.421875 3.125,-1.53125 3.046875,-1.53125 3.015625,-1.53125 2.921875,-1.53125 2.90625,-1.5 2.859375,-1.390625 2.4375,-0.34375 1.90625,-0.109375 1.5625,-0.109375 c -0.203125,0 -0.3125,-0.125 -0.3125,-0.453125 0,-0.25 0.03125,-0.3125 0.0625,-0.484375 l 0.734375,-2.9375 h 0.9375 c 0.203125,0 0.3125,0 0.3125,-0.203125 z m 0,0"
             id="id-4cf1941a-5d55-4e52-8e81-0a5d0e1912c0" />
        </g>
        <g
           transform="translate(327.391,134.765)"
           id="g1933">
          <path
             style="stroke:none;stroke-width:0"
             d="M 2.875,-2.078125 V -2.90625 c 0,-1.703125 -1.046875,-3.703125 -2.140625,-4.53125 -0.03125,-0.015625 -0.046875,-0.015625 -0.0625,-0.015625 -0.046875,0 -0.109375,0.046875 -0.109375,0.09375 0,0.03125 0.03125,0.0625 0.046875,0.078125 1.03125,0.78125 1.71875,2.78125 1.71875,4.375 v 0.828125 c 0,1.59375 -0.6875,3.59375 -1.71875,4.375 C 0.59375,2.3125 0.5625,2.34375 0.5625,2.375 c 0,0.046875 0.0625,0.09375 0.109375,0.09375 0.015625,0 0.03125,0 0.0625,-0.015625 C 1.828125,1.625 2.875,-0.375 2.875,-2.078125 Z m 0,0"
             id="id-b52dfbf5-22a3-4d40-acf5-dfffe86cca97" />
        </g>
      </g>
      <g
         style="fill:#000000;fill-opacity:1"
         id="id-fa28dae7-554a-4bc5-911c-1728a3985f68"
         transform="matrix(0.933331,0,0,0.933331,-108.45762,136.73141)">
        <g
           transform="translate(334.026,134.765)"
           id="g1937">
          <path
             style="stroke:none;stroke-width:0"
             d="M 7.203125,-3.453125 C 7.203125,-3.5625 7.109375,-3.65625 7,-3.65625 H 0.75 c -0.109375,0 -0.1875,0.09375 -0.1875,0.203125 0,0.109375 0.078125,0.1875 0.1875,0.1875 H 7 c 0.109375,0 0.203125,-0.078125 0.203125,-0.1875 z m 0,1.921875 c 0,-0.109375 -0.09375,-0.1875 -0.203125,-0.1875 H 0.75 c -0.109375,0 -0.1875,0.078125 -0.1875,0.1875 0,0.109375 0.078125,0.203125 0.1875,0.203125 H 7 c 0.109375,0 0.203125,-0.09375 0.203125,-0.203125 z m 0,0"
             id="id-5e9ea6d8-8333-4357-9dd1-ae358b958e48" />
        </g>
      </g>
      <g
         style="fill:#000000;fill-opacity:1"
         id="id-bf9d8615-a768-4468-b87a-7fab5e3c7d0a"
         transform="matrix(0.933331,0,0,0.933331,-108.45762,136.73141)">
        <g
           transform="translate(344.547,134.765)"
           id="g1941">
          <path
             style="stroke:none;stroke-width:0"
             d="m 10.40625,-6.703125 c 0,-0.109375 -0.09375,-0.109375 -0.265625,-0.109375 h -1.3125 c -0.265625,0 -0.28125,0 -0.390625,0.1875 L 4.796875,-0.9375 4.015625,-6.578125 C 3.984375,-6.8125 3.96875,-6.8125 3.703125,-6.8125 H 2.34375 c -0.1875,0 -0.296875,0 -0.296875,0.1875 0,0.125 0.09375,0.125 0.28125,0.125 0.140625,0 0.3125,0.015625 0.4375,0.015625 0.15625,0.03125 0.21875,0.046875 0.21875,0.171875 0,0.03125 -0.015625,0.0625 -0.046875,0.1875 l -1.265625,5.0625 c -0.09375,0.40625 -0.265625,0.71875 -1.078125,0.75 -0.046875,0 -0.171875,0.015625 -0.171875,0.1875 0,0.09375 0.0625,0.125 0.140625,0.125 0.3125,0 0.65625,-0.03125 1,-0.03125 C 1.890625,-0.03125 2.25,0 2.578125,0 c 0.046875,0 0.1875,0 0.1875,-0.203125 0,-0.109375 -0.109375,-0.109375 -0.1875,-0.109375 -0.5625,0 -0.671875,-0.203125 -0.671875,-0.4375 0,-0.0625 0,-0.125 0.03125,-0.234375 L 3.296875,-6.40625 H 3.3125 l 0.859375,6.171875 C 4.1875,-0.109375 4.203125,0 4.3125,0 4.421875,0 4.484375,-0.109375 4.53125,-0.171875 l 4.03125,-6.3125 h 0.015625 l -1.4375,5.703125 c -0.09375,0.390625 -0.109375,0.46875 -0.90625,0.46875 -0.15625,0 -0.265625,0 -0.265625,0.1875 C 5.96875,0 6.078125,0 6.109375,0 L 7.34375,-0.03125 C 7.75,-0.03125 8.1875,0 8.59375,0 8.65625,0 8.78125,0 8.78125,-0.203125 8.78125,-0.3125 8.6875,-0.3125 8.5,-0.3125 c -0.359375,0 -0.640625,0 -0.640625,-0.171875 0,-0.046875 0,-0.0625 0.046875,-0.25 l 1.328125,-5.3125 C 9.328125,-6.40625 9.34375,-6.5 10.09375,-6.5 c 0.21875,0 0.3125,0 0.3125,-0.203125 z m 0,0"
             id="id-4317f931-fae8-4cbd-816d-06acf3ff181b" />
        </g>
      </g>
    </g>
    <g
       id="g2407"
       transform="translate(113.94451,-54.055075)">
      <g
         style="fill:#000000;fill-opacity:1"
         id="id-9293ceab-909b-442b-9a40-d68db8f7c40a"
         transform="matrix(0.933331,0,0,0.933331,-108.45762,136.73141)">
        <g
           transform="translate(361.862,134.765)"
           id="g1945">
          <path
             style="stroke:none;stroke-width:0"
             d="m 4.671875,-3.703125 c 0,-0.546875 -0.265625,-0.703125 -0.4375,-0.703125 -0.25,0 -0.5,0.265625 -0.5,0.484375 0,0.125 0.046875,0.1875 0.15625,0.296875 0.21875,0.203125 0.34375,0.453125 0.34375,0.8125 0,0.421875 -0.609375,2.703125 -1.765625,2.703125 -0.515625,0 -0.75,-0.34375 -0.75,-0.875 0,-0.546875 0.28125,-1.28125 0.578125,-2.109375 0.078125,-0.171875 0.125,-0.3125 0.125,-0.5 0,-0.4375 -0.3125,-0.8125 -0.8125,-0.8125 -0.9375,0 -1.3125,1.453125 -1.3125,1.53125 0,0.109375 0.109375,0.109375 0.109375,0.109375 0.109375,0 0.109375,-0.03125 0.15625,-0.1875 0.296875,-1 0.71875,-1.234375 1.015625,-1.234375 0.078125,0 0.25,0 0.25,0.3125 0,0.25 -0.109375,0.53125 -0.171875,0.703125 -0.4375,1.15625 -0.5625,1.609375 -0.5625,2.046875 0,1.078125 0.875,1.234375 1.328125,1.234375 1.671875,0 2.25,-3.296875 2.25,-3.8125 z m 0,0"
             id="id-29c19b4c-a27b-49aa-9ddb-ed36d4106d37" />
        </g>
      </g>
      <g
         style="fill:#000000;fill-opacity:1"
         id="id-69910c0d-98e8-4077-9645-433482e9b8f4"
         transform="matrix(0.933331,0,0,0.933331,-108.45762,136.73141)">
        <g
           transform="translate(369.015,134.765)"
           id="g1949">
          <path
             style="stroke:none;stroke-width:0"
             d="M 7.203125,-2.5 C 7.203125,-2.609375 7.109375,-2.6875 7,-2.6875 H 4.078125 v -2.921875 c 0,-0.109375 -0.09375,-0.203125 -0.203125,-0.203125 -0.109375,0 -0.203125,0.09375 -0.203125,0.203125 V -2.6875 H 0.75 c -0.109375,0 -0.1875,0.078125 -0.1875,0.1875 0,0.125 0.078125,0.203125 0.1875,0.203125 H 3.671875 V 0.625 c 0,0.109375 0.09375,0.203125 0.203125,0.203125 0.109375,0 0.203125,-0.09375 0.203125,-0.203125 V -2.296875 H 7 c 0.109375,0 0.203125,-0.078125 0.203125,-0.203125 z m 0,0"
             id="id-546a8007-2bec-42f8-a425-e5adddc20b43" />
        </g>
      </g>
      <g
         style="fill:#000000;fill-opacity:1"
         id="id-a496db09-6ee3-4d52-a484-284a7bf926aa"
         transform="matrix(0.933331,0,0,0.933331,-108.45762,136.73141)">
        <g
           transform="translate(378.988,134.765)"
           id="g1953">
          <path
             style="stroke:none;stroke-width:0"
             d="m 7.828125,-0.078125 c 0,0 0,-0.03125 -0.046875,-0.125 l -3.375,-6.75 c -0.0625,-0.140625 -0.09375,-0.1875 -0.265625,-0.1875 -0.15625,0 -0.1875,0.046875 -0.25,0.1875 l -3.375,6.75 c -0.046875,0.09375 -0.046875,0.125 -0.046875,0.125 C 0.46875,0 0.53125,0 0.6875,0 h 6.921875 c 0.15625,0 0.21875,0 0.21875,-0.078125 z M 6.515625,-0.75 h -5.375 l 2.6875,-5.390625 z m 0,0"
             id="id-f9ab4536-3661-4ea5-95dc-5ac1e7a728f8" />
        </g>
        <g
           transform="translate(387.286,134.765)"
           id="g1956">
          <path
             style="stroke:none;stroke-width:0"
             d="m 4.671875,-3.703125 c 0,-0.546875 -0.265625,-0.703125 -0.4375,-0.703125 -0.25,0 -0.5,0.265625 -0.5,0.484375 0,0.125 0.046875,0.1875 0.15625,0.296875 0.21875,0.203125 0.34375,0.453125 0.34375,0.8125 0,0.421875 -0.609375,2.703125 -1.765625,2.703125 -0.515625,0 -0.75,-0.34375 -0.75,-0.875 0,-0.546875 0.28125,-1.28125 0.578125,-2.109375 0.078125,-0.171875 0.125,-0.3125 0.125,-0.5 0,-0.4375 -0.3125,-0.8125 -0.8125,-0.8125 -0.9375,0 -1.3125,1.453125 -1.3125,1.53125 0,0.109375 0.109375,0.109375 0.109375,0.109375 0.109375,0 0.109375,-0.03125 0.15625,-0.1875 0.296875,-1 0.71875,-1.234375 1.015625,-1.234375 0.078125,0 0.25,0 0.25,0.3125 0,0.25 -0.109375,0.53125 -0.171875,0.703125 -0.4375,1.15625 -0.5625,1.609375 -0.5625,2.046875 0,1.078125 0.875,1.234375 1.328125,1.234375 1.671875,0 2.25,-3.296875 2.25,-3.8125 z m 0,0"
             id="id-9d7d10e0-30ed-4024-a5d0-b999b2a4e26f" />
        </g>
      </g>
    </g>
    <g
       id="g2394"
       transform="translate(15.817554,-19.467726)">
      <g
         style="fill:#000000;fill-opacity:1"
         id="id-dbb71db9-950a-4479-ac4c-04cc39be5c8a"
         transform="matrix(0.933331,0,0,0.933331,-108.45762,136.73141)">
        <g
           transform="translate(398.863,134.765)"
           id="g1960">
          <path
             style="stroke:none;stroke-width:0"
             d="m 3.296875,-4.1875 c 0,-0.109375 -0.109375,-0.109375 -0.28125,-0.109375 h -0.875 C 2.5,-5.71875 2.546875,-5.90625 2.546875,-5.96875 c 0,-0.171875 -0.125,-0.265625 -0.296875,-0.265625 -0.03125,0 -0.3125,0 -0.390625,0.359375 L 1.46875,-4.296875 h -0.9375 c -0.203125,0 -0.296875,0 -0.296875,0.1875 0,0.125 0.078125,0.125 0.28125,0.125 h 0.875 C 0.671875,-1.15625 0.625,-0.984375 0.625,-0.8125 0.625,-0.265625 1,0.109375 1.546875,0.109375 2.5625,0.109375 3.125,-1.34375 3.125,-1.421875 3.125,-1.53125 3.046875,-1.53125 3.015625,-1.53125 2.921875,-1.53125 2.90625,-1.5 2.859375,-1.390625 2.4375,-0.34375 1.90625,-0.109375 1.5625,-0.109375 c -0.203125,0 -0.3125,-0.125 -0.3125,-0.453125 0,-0.25 0.03125,-0.3125 0.0625,-0.484375 l 0.734375,-2.9375 h 0.9375 c 0.203125,0 0.3125,0 0.3125,-0.203125 z m 0,0"
             id="id-3f958c71-7c26-4ea0-ba0e-2201cca04c7b" />
        </g>
      </g>
      <g
         style="fill:#000000;fill-opacity:1"
         id="id-9da29a54-f86a-4be1-b02a-0fcc64a85c82"
         transform="matrix(0.933331,0,0,0.933331,-108.45762,136.73141)">
        <g
           transform="translate(404.671,134.765)"
           id="g1964">
          <path
             style="stroke:none;stroke-width:0"
             d="M 7.203125,-2.5 C 7.203125,-2.609375 7.109375,-2.6875 7,-2.6875 H 4.078125 v -2.921875 c 0,-0.109375 -0.09375,-0.203125 -0.203125,-0.203125 -0.109375,0 -0.203125,0.09375 -0.203125,0.203125 V -2.6875 H 0.75 c -0.109375,0 -0.1875,0.078125 -0.1875,0.1875 0,0.125 0.078125,0.203125 0.1875,0.203125 H 3.671875 V 0.625 c 0,0.109375 0.09375,0.203125 0.203125,0.203125 0.109375,0 0.203125,-0.09375 0.203125,-0.203125 V -2.296875 H 7 c 0.109375,0 0.203125,-0.078125 0.203125,-0.203125 z m 0,0"
             id="id-a118f4c7-7321-4d44-8c77-b9d9076b20ab" />
        </g>
      </g>
      <g
         style="fill:#000000;fill-opacity:1"
         id="id-de34b26b-363c-4e06-9cdc-307f407a3859"
         transform="matrix(0.933331,0,0,0.933331,-108.45762,136.73141)">
        <g
           transform="translate(414.634,134.765)"
           id="g1968">
          <path
             style="stroke:none;stroke-width:0"
             d="m 7.828125,-0.078125 c 0,0 0,-0.03125 -0.046875,-0.125 l -3.375,-6.75 c -0.0625,-0.140625 -0.09375,-0.1875 -0.265625,-0.1875 -0.15625,0 -0.1875,0.046875 -0.25,0.1875 l -3.375,6.75 c -0.046875,0.09375 -0.046875,0.125 -0.046875,0.125 C 0.46875,0 0.53125,0 0.6875,0 h 6.921875 c 0.15625,0 0.21875,0 0.21875,-0.078125 z M 6.515625,-0.75 h -5.375 l 2.6875,-5.390625 z m 0,0"
             id="id-45224250-baf6-4618-9af9-ac6f8983aea3" />
        </g>
        <g
           transform="translate(422.933,134.765)"
           id="g1971">
          <path
             style="stroke:none;stroke-width:0"
             d="m 3.296875,-4.1875 c 0,-0.109375 -0.109375,-0.109375 -0.28125,-0.109375 h -0.875 C 2.5,-5.71875 2.546875,-5.90625 2.546875,-5.96875 c 0,-0.171875 -0.125,-0.265625 -0.296875,-0.265625 -0.03125,0 -0.3125,0 -0.390625,0.359375 L 1.46875,-4.296875 h -0.9375 c -0.203125,0 -0.296875,0 -0.296875,0.1875 0,0.125 0.078125,0.125 0.28125,0.125 h 0.875 C 0.671875,-1.15625 0.625,-0.984375 0.625,-0.8125 0.625,-0.265625 1,0.109375 1.546875,0.109375 2.5625,0.109375 3.125,-1.34375 3.125,-1.421875 3.125,-1.53125 3.046875,-1.53125 3.015625,-1.53125 2.921875,-1.53125 2.90625,-1.5 2.859375,-1.390625 2.4375,-0.34375 1.90625,-0.109375 1.5625,-0.109375 c -0.203125,0 -0.3125,-0.125 -0.3125,-0.453125 0,-0.25 0.03125,-0.3125 0.0625,-0.484375 l 0.734375,-2.9375 h 0.9375 c 0.203125,0 0.3125,0 0.3125,-0.203125 z m 0,0"
             id="id-6ecf823d-804e-45df-b795-660b89299b20" />
        </g>
      </g>
    </g>
    <g
       style="fill:#000000;fill-opacity:1"
       id="id-75694dab-27d5-47d1-94ca-682099b7f51b"
       transform="matrix(0.933331,0,0,0.933331,-261.17857,83.347167)">
      <g
         transform="translate(433.164,134.765)"
         id="g1975">
        <path
           style="stroke:none;stroke-width:0"
           d="m 4.671875,-3.703125 c 0,-0.546875 -0.265625,-0.703125 -0.4375,-0.703125 -0.25,0 -0.5,0.265625 -0.5,0.484375 0,0.125 0.046875,0.1875 0.15625,0.296875 0.21875,0.203125 0.34375,0.453125 0.34375,0.8125 0,0.421875 -0.609375,2.703125 -1.765625,2.703125 -0.515625,0 -0.75,-0.34375 -0.75,-0.875 0,-0.546875 0.28125,-1.28125 0.578125,-2.109375 0.078125,-0.171875 0.125,-0.3125 0.125,-0.5 0,-0.4375 -0.3125,-0.8125 -0.8125,-0.8125 -0.9375,0 -1.3125,1.453125 -1.3125,1.53125 0,0.109375 0.109375,0.109375 0.109375,0.109375 0.109375,0 0.109375,-0.03125 0.15625,-0.1875 0.296875,-1 0.71875,-1.234375 1.015625,-1.234375 0.078125,0 0.25,0 0.25,0.3125 0,0.25 -0.109375,0.53125 -0.171875,0.703125 -0.4375,1.15625 -0.5625,1.609375 -0.5625,2.046875 0,1.078125 0.875,1.234375 1.328125,1.234375 1.671875,0 2.25,-3.296875 2.25,-3.8125 z m 0,0"
           id="id-1f6aacc3-c2f3-4746-aa08-085c84a278fa" />
      </g>
    </g>
    <g
       style="fill:#000000;fill-opacity:1"
       id="id-1bcd00bb-706f-4721-be79-d45b4b08865e"
       transform="matrix(0.933331,0,0,0.933331,-335.04407,117.17618)">
      <g
         transform="translate(444.741,134.765)"
         id="g1979">
        <path
           style="stroke:none;stroke-width:0"
           d="m 3.296875,-4.1875 c 0,-0.109375 -0.109375,-0.109375 -0.28125,-0.109375 h -0.875 C 2.5,-5.71875 2.546875,-5.90625 2.546875,-5.96875 c 0,-0.171875 -0.125,-0.265625 -0.296875,-0.265625 -0.03125,0 -0.3125,0 -0.390625,0.359375 L 1.46875,-4.296875 h -0.9375 c -0.203125,0 -0.296875,0 -0.296875,0.1875 0,0.125 0.078125,0.125 0.28125,0.125 h 0.875 C 0.671875,-1.15625 0.625,-0.984375 0.625,-0.8125 0.625,-0.265625 1,0.109375 1.546875,0.109375 2.5625,0.109375 3.125,-1.34375 3.125,-1.421875 3.125,-1.53125 3.046875,-1.53125 3.015625,-1.53125 2.921875,-1.53125 2.90625,-1.5 2.859375,-1.390625 2.4375,-0.34375 1.90625,-0.109375 1.5625,-0.109375 c -0.203125,0 -0.3125,-0.125 -0.3125,-0.453125 0,-0.25 0.03125,-0.3125 0.0625,-0.484375 l 0.734375,-2.9375 h 0.9375 c 0.203125,0 0.3125,0 0.3125,-0.203125 z m 0,0"
           id="id-3f0833f3-54be-46ef-bb34-883ae9ea020e" />
      </g>
    </g>
    <path
       style="fill:none;stroke:#000000;stroke-width:1px;stroke-linecap:butt;stroke-linejoin:miter;stroke-opacity:1;marker-end:url(#marker2741)"
       d="m 135.24008,216.29202 h 18.58563"
       id="path2429" />
    <path
       style="fill:none;stroke:#000000;stroke-width:1px;stroke-linecap:butt;stroke-linejoin:miter;stroke-opacity:1;marker-end:url(#marker2751)"
       d="M 199.71941,216.29202 H 165.1768"
       id="path2431" />
    <path
       style="fill:none;stroke:#000000;stroke-width:0.999998px;stroke-linecap:butt;stroke-linejoin:miter;stroke-opacity:1;marker-end:url(#marker2719)"
       d="m 340.0774,216.29202 h 32.87419"
       id="path2433" />
  </g>
</svg>
