<?xml version="1.0" encoding="UTF-8" standalone="no"?>
<svg
   xmlns:dc="http://purl.org/dc/elements/1.1/"
   xmlns:cc="http://creativecommons.org/ns#"
   xmlns:rdf="http://www.w3.org/1999/02/22-rdf-syntax-ns#"
   xmlns:svg="http://www.w3.org/2000/svg"
   xmlns="http://www.w3.org/2000/svg"
   xmlns:sodipodi="http://sodipodi.sourceforge.net/DTD/sodipodi-0.dtd"
   xmlns:inkscape="http://www.inkscape.org/namespaces/inkscape"
   version="1.1"
   id="svg5689"
   width="415.13513"
   height="591.56757"
   viewBox="0 0 415.13513 591.56757"
   sodipodi:docname="fig02.18.svg"
   inkscape:version="1.0.1 (3bc2e813f5, 2020-09-07)">
  <metadata
     id="metadata5695">
    <rdf:RDF>
      <cc:Work
         rdf:about="">
        <dc:format>image/svg+xml</dc:format>
        <dc:type
           rdf:resource="http://purl.org/dc/dcmitype/StillImage" />
        <dc:title></dc:title>
      </cc:Work>
    </rdf:RDF>
  </metadata>
  <defs
     id="defs5693">
    <marker
       style="overflow:visible"
       id="Arrow1Mstart"
       refX="0.0"
       refY="0.0"
       orient="auto"
       inkscape:stockid="Arrow1Mstart"
       inkscape:isstock="true">
      <path
         transform="scale(0.4) translate(10,0)"
         style="fill-rule:evenodd;stroke:#000000;stroke-width:1pt;stroke-opacity:1;fill:#000000;fill-opacity:1"
         d="M 0.0,0.0 L 5.0,-5.0 L -12.5,0.0 L 5.0,5.0 L 0.0,0.0 z "
         id="path2825" />
    </marker>
    <marker
       style="overflow:visible;"
       id="Arrow1Mend"
       refX="0.0"
       refY="0.0"
       orient="auto"
       inkscape:stockid="Arrow1Mend"
       inkscape:isstock="true">
      <path
         transform="scale(0.4) rotate(180) translate(10,0)"
         style="fill-rule:evenodd;stroke:#000000;stroke-width:1pt;stroke-opacity:1;fill:#000000;fill-opacity:1"
         d="M 0.0,0.0 L 5.0,-5.0 L -12.5,0.0 L 5.0,5.0 L 0.0,0.0 z "
         id="path2828" />
    </marker>
    <marker
       style="overflow:visible;"
       id="Arrow1Send"
       refX="0.0"
       refY="0.0"
       orient="auto"
       inkscape:stockid="Arrow1Send"
       inkscape:isstock="true">
      <path
         transform="scale(0.2) rotate(180) translate(6,0)"
         style="fill-rule:evenodd;stroke:#000000;stroke-width:1pt;stroke-opacity:1;fill:#000000;fill-opacity:1"
         d="M 0.0,0.0 L 5.0,-5.0 L -12.5,0.0 L 5.0,5.0 L 0.0,0.0 z "
         id="path2834" />
    </marker>
    <pattern
       id="EMFhbasepattern"
       patternUnits="userSpaceOnUse"
       width="6"
       height="6"
       x="0"
       y="0" />
  </defs>
  <sodipodi:namedview
     pagecolor="#ffffff"
     bordercolor="#666666"
     borderopacity="1"
     objecttolerance="10"
     gridtolerance="10"
     guidetolerance="10"
     inkscape:pageopacity="0"
     inkscape:pageshadow="2"
     inkscape:window-width="1366"
     inkscape:window-height="705"
     id="namedview5691"
     showgrid="false"
     inkscape:object-paths="true"
     inkscape:snap-intersection-paths="true"
     inkscape:snap-smooth-nodes="true"
     inkscape:snap-midpoints="true"
     inkscape:zoom="3.7125338"
     inkscape:cx="285.94597"
     inkscape:cy="76.245791"
     inkscape:window-x="-8"
     inkscape:window-y="-8"
     inkscape:window-maximized="1"
     inkscape:current-layer="g5697" />
  <g
     inkscape:groupmode="layer"
     inkscape:label="Image"
     id="g5697">
    <g
       id="g6294"
       transform="matrix(0.88701818,0,0,0.83949383,21.906851,19.950735)"
       style="stroke-width:1.15885">
      <path
         style="fill:none;stroke:#000000;stroke-width:1.15885;stroke-linecap:round;stroke-linejoin:round;stroke-miterlimit:4;stroke-dasharray:none;stroke-opacity:1"
         clip-path="none"
         d="m 193.89714,126.04913 c 0.43434,-0.22329 0.86682,-0.4628 1.29708,-0.66985 0.43433,-0.20626 0.86675,-0.40981 1.29707,-0.56766 0.43435,-0.15796 0.86676,-0.29411 1.29702,-0.37929 0.43433,-0.0847 0.86681,-0.13346 1.29707,-0.13346 0.43434,0 0.86675,0.0485 1.29702,0.13346 0.43433,0.0847 0.86681,0.22142 1.29707,0.37929 0.43434,0.15796 0.86674,0.36138 1.29708,0.56766 0.43433,0.20696 0.86675,0.44656 1.297,0.66985 0.43435,0.2233 0.86682,0.4636 1.29709,0.66986 0.43433,0.20719 0.86674,0.41067 1.297,0.56854 0.43434,0.15796 0.86681,0.29409 1.29708,0.37927 0.43434,0.0847 0.86675,0.13206 1.29708,0.13206 0.43434,0 0.86674,-0.0467 1.297,-0.13206 0.43434,-0.0847 0.86682,-0.22142 1.29708,-0.37927 0.43435,-0.15796 0.86675,-0.3614 1.29709,-0.56854 0.43433,-0.20626 0.86674,-0.44656 1.297,-0.66986 0.43433,-0.22329 0.86681,-0.4628 1.29707,-0.66985 0.43435,-0.20626 0.86676,-0.40981 1.29702,-0.56766 0.43433,-0.15796 0.86681,-0.29411 1.29707,-0.37929 0.43434,-0.0847 0.86675,-0.13346 1.29708,-0.13346 0.43434,0 0.86675,0.0485 1.29673,0.13346 0.43433,0.0847 0.86681,0.22142 1.29707,0.37929 0.43434,0.15796 0.86674,0.36138 1.29708,0.56766 0.43433,0.20696 0.86675,0.44656 1.29701,0.66985 0.43434,0.2233 0.86682,0.4636 1.29708,0.66986 0.43433,0.20719 0.86674,0.41067 1.29707,0.56854 0.43434,0.15796 0.86675,0.29409 1.29701,0.37927 0.43434,0.0847 0.86682,0.13206 1.2968,0.13206 0.43433,0 0.86674,-0.0467 1.29707,-0.13206 0.43434,-0.0847 0.86675,-0.22142 1.297,-0.37927 0.43435,-0.15796 0.86683,-0.3614 1.29709,-0.56854 0.43434,-0.20626 0.86674,-0.44656 1.29679,-0.66986 0.43434,-0.22329 0.86674,-0.4628 1.297,-0.66985 0.43435,-0.20626 0.86683,-0.40981 1.29709,-0.56766 0.43433,-0.15796 0.86674,-0.29411 1.29707,-0.37929 0.43434,-0.0847 0.86675,-0.13346 1.29672,-0.13346 0.43435,0 0.86683,0.0485 1.29709,0.13346 0.43433,0.0847 0.86674,0.22142 1.29707,0.37929 0.43434,0.15796 0.86674,0.36138 1.29701,0.56766 0.43434,0.20696 0.86682,0.44656 1.29707,0.66985 0.43435,0.2233 0.86675,0.4636 1.29701,0.66986 0.43434,0.20719 0.86682,0.41067 1.29708,0.56854 0.43434,0.15796 0.86675,0.29409 1.29708,0.37927 0.43434,0.0847 0.86675,0.13206 1.29701,0.13206 0.43433,0 0.86681,-0.0467 1.29708,-0.13206 0.43433,-0.0847 0.86675,-0.22142 1.29701,-0.37927 0.43433,-0.15796 0.86681,-0.3614 1.29707,-0.56854 0.43434,-0.20626 0.86674,-0.44656 1.29708,-0.66986 0.43434,-0.22329 0.86675,-0.4628 1.297,-0.66985 0.43435,-0.20626 0.86683,-0.40981 1.29709,-0.56766 0.43433,-0.15796 0.86674,-0.29411 1.29708,-0.37929 0.43433,-0.0847 0.86674,-0.13346 1.297,-0.13346 0.43434,0 0.86682,0.0485 1.29708,0.13346 0.43434,0.0847 0.86674,0.22142 1.29701,0.37929 0.43433,0.15796 0.86681,0.36138 1.29707,0.56766 0.43435,0.20696 0.86675,0.44656 1.29709,0.66985 0.43433,0.2233 0.86674,0.4636 1.297,0.66986 0.43434,0.20719 0.86682,0.41067 1.29708,0.56854 0.43434,0.15796 0.86675,0.29409 1.29701,0.37927 0.43434,0.0847 0.86681,0.13206 1.29708,0.13206 0.43433,0 0.86675,-0.0467 1.29707,-0.13206 0.43434,-0.0847 0.86675,-0.22142 1.29701,-0.37927 0.43434,-0.15796 0.86682,-0.3614 1.29708,-0.56854 0.43434,-0.20626 0.86674,-0.44656 1.29708,-0.66986 0.43433,-0.22329 0.86675,-0.4628 1.29701,-0.66985 0.43433,-0.20626 0.86681,-0.40981 1.29708,-0.56766 0.43433,-0.15796 0.86674,-0.29411 1.297,-0.37929 0.43434,-0.0847 0.86682,-0.13346 1.29707,-0.13346 0.43435,0 0.86675,0.0485 1.29709,0.13346 0.43434,0.0847 0.86674,0.22142 1.297,0.37929 0.43435,0.15796 0.86682,0.36138 1.29708,0.56766 0.43434,0.20696 0.86675,0.44656 1.29701,0.66985 0.43434,0.2233 0.86682,0.4636 1.29708,0.66986 0.43433,0.20719 0.86675,0.41067 1.29707,0.56854 0.43435,0.15796 0.86675,0.29409 1.29702,0.37927 0.43433,0.0847 0.86681,0.13206 1.29707,0.13206 0.43434,0 0.86675,-0.0467 1.29708,-0.13206 0.43434,-0.0847 0.86675,-0.22142 1.29701,-0.37927 0.43434,-0.15796 0.86682,-0.3614 1.29708,-0.56854 0.43433,-0.20626 0.86675,-0.44656 1.297,-0.66986"
         id="path2601-0-7"
         sodipodi:nodetypes="ccccscccccccscccccccscccccccscccccccscccccccscccccccscccccccscccccccscccccccscccc" />
      <path
         style="fill:none;stroke:#000000;stroke-width:1.15885;stroke-linecap:round;stroke-linejoin:round;stroke-miterlimit:4;stroke-dasharray:none;stroke-opacity:1"
         clip-path="none"
         d="m 297.66013,126.04913 c 0.43434,-0.22329 0.86682,-0.4628 1.29708,-0.66985 0.43433,-0.20626 0.86675,-0.40981 1.29707,-0.56766 0.43435,-0.15796 0.86676,-0.29411 1.29702,-0.37929 0.43433,-0.0847 0.86681,-0.13346 1.29707,-0.13346 0.43434,0 0.86675,0.0485 1.29702,0.13346 0.43433,0.0847 0.86681,0.22142 1.29707,0.37929 0.43434,0.15796 0.86674,0.36138 1.29708,0.56766 0.43433,0.20696 0.86675,0.44656 1.297,0.66985 0.43435,0.2233 0.86682,0.4636 1.29709,0.66986 0.43433,0.20719 0.86674,0.41067 1.297,0.56854 0.43434,0.15796 0.86681,0.29409 1.29708,0.37927 0.43434,0.0847 0.86675,0.13206 1.29708,0.13206 0.43434,0 0.86674,-0.0467 1.297,-0.13206 0.43434,-0.0847 0.86682,-0.22142 1.29708,-0.37927 0.43435,-0.15796 0.86675,-0.3614 1.29709,-0.56854 0.43433,-0.20626 0.86674,-0.44656 1.297,-0.66986 0.43433,-0.22329 0.86681,-0.4628 1.29707,-0.66985 0.43435,-0.20626 0.86676,-0.40981 1.29702,-0.56766 0.43433,-0.15796 0.86681,-0.29411 1.29707,-0.37929 0.43434,-0.0847 0.86675,-0.13346 1.29708,-0.13346 0.43434,0 0.86675,0.0485 1.29673,0.13346 0.43433,0.0847 0.86681,0.22142 1.29707,0.37929 0.43434,0.15796 0.86674,0.36138 1.29708,0.56766 0.43433,0.20696 0.86675,0.44656 1.29701,0.66985 0.43434,0.2233 0.86682,0.4636 1.29708,0.66986 0.43433,0.20719 0.86674,0.41067 1.29707,0.56854 0.43434,0.15796 0.86675,0.29409 1.29701,0.37927 0.43434,0.0847 0.86682,0.13206 1.2968,0.13206 0.43433,0 0.86674,-0.0467 1.29707,-0.13206 0.43434,-0.0847 0.86675,-0.22142 1.297,-0.37927 0.43435,-0.15796 0.86683,-0.3614 1.29709,-0.56854 0.43434,-0.20626 0.86674,-0.44656 1.29679,-0.66986 0.43434,-0.22329 0.86674,-0.4628 1.297,-0.66985 0.43435,-0.20626 0.86683,-0.40981 1.29709,-0.56766 0.43433,-0.15796 0.86674,-0.29411 1.29707,-0.37929 0.43434,-0.0847 0.86675,-0.13346 1.29672,-0.13346 0.43435,0 0.86683,0.0485 1.29709,0.13346 0.43433,0.0847 0.86674,0.22142 1.29707,0.37929 0.43434,0.15796 0.86674,0.36138 1.29701,0.56766 0.43434,0.20696 0.86682,0.44656 1.29707,0.66985 0.43435,0.2233 0.86675,0.4636 1.29701,0.66986 0.43434,0.20719 0.86682,0.41067 1.29708,0.56854 0.43434,0.15796 0.86675,0.29409 1.29708,0.37927 0.43434,0.0847 0.86675,0.13206 1.29701,0.13206 0.43433,0 0.86681,-0.0467 1.29708,-0.13206 0.43433,-0.0847 0.86675,-0.22142 1.29701,-0.37927 0.43433,-0.15796 0.86681,-0.3614 1.29707,-0.56854 0.43434,-0.20626 0.86674,-0.44656 1.29708,-0.66986 0.43434,-0.22329 0.86675,-0.4628 1.297,-0.66985 0.43435,-0.20626 0.86683,-0.40981 1.29709,-0.56766 0.43433,-0.15796 0.86674,-0.29411 1.29708,-0.37929 0.43433,-0.0847 0.86674,-0.13346 1.297,-0.13346 0.43434,0 0.86682,0.0485 1.29708,0.13346 0.43434,0.0847 0.86674,0.22142 1.29701,0.37929 0.43433,0.15796 0.86681,0.36138 1.29707,0.56766 0.43435,0.20696 0.86675,0.44656 1.29709,0.66985 0.43433,0.2233 0.86674,0.4636 1.297,0.66986 0.43434,0.20719 0.86682,0.41067 1.29708,0.56854 0.43434,0.15796 0.86675,0.29409 1.29701,0.37927 0.43434,0.0847 0.86681,0.13206 1.29708,0.13206 0.43433,0 0.86675,-0.0467 1.29707,-0.13206 0.43434,-0.0847 0.86675,-0.22142 1.29701,-0.37927 0.43434,-0.15796 0.86682,-0.3614 1.29708,-0.56854 0.43434,-0.20626 0.86674,-0.44656 1.29708,-0.66986 0.43433,-0.22329 0.86675,-0.4628 1.29701,-0.66985 0.43433,-0.20626 0.86681,-0.40981 1.29708,-0.56766 0.43433,-0.15796 0.86674,-0.29411 1.297,-0.37929 0.43434,-0.0847 0.86682,-0.13346 1.29707,-0.13346 0.43435,0 0.86675,0.0485 1.29709,0.13346 0.43434,0.0847 0.86674,0.22142 1.297,0.37929 0.43435,0.15796 0.86682,0.36138 1.29708,0.56766 0.43434,0.20696 0.86675,0.44656 1.29701,0.66985 0.43434,0.2233 0.86682,0.4636 1.29708,0.66986 0.43433,0.20719 0.86675,0.41067 1.29707,0.56854 0.43435,0.15796 0.86675,0.29409 1.29702,0.37927 0.43433,0.0847 0.86681,0.13206 1.29707,0.13206 0.43434,0 0.86675,-0.0467 1.29708,-0.13206 0.43434,-0.0847 0.86675,-0.22142 1.29701,-0.37927 0.43434,-0.15796 0.86682,-0.3614 1.29708,-0.56854 0.43433,-0.20626 0.86675,-0.44656 1.297,-0.66986"
         id="path2601-0-7-1"
         sodipodi:nodetypes="ccccscccccccscccccccscccccccscccccccscccccccscccccccscccccccscccccccscccccccscccc" />
    </g>
    <path
       style="fill:none;stroke:#000000;stroke-width:0.500001;stroke-linecap:round;stroke-linejoin:round;stroke-miterlimit:4;stroke-dasharray:none;stroke-opacity:1"
       clip-path="none"
       d="m 334.84317,140.78769 c 0.22951,-0.15943 0.45368,-0.33051 0.67824,-0.47847 0.22992,-0.14733 0.45372,-0.29271 0.67829,-0.40547 0.22952,-0.11274 0.45372,-0.21007 0.67875,-0.27091 0.22951,-0.0605 0.45326,-0.0954 0.67825,-0.0954 0.22991,0 0.45329,0.0346 0.67828,0.0954 0.22991,0.0605 0.45372,0.15816 0.67829,0.27091 0.2299,0.11275 0.45372,0.25814 0.67828,0.40547 0.22991,0.14789 0.45372,0.31898 0.67871,0.47847 0.22989,0.15943 0.45329,0.33114 0.67829,0.47847 0.2299,0.14796 0.45329,0.29334 0.67828,0.40609 0.22952,0.11275 0.45372,0.21014 0.67828,0.27092 0.22991,0.0605 0.45372,0.0943 0.67829,0.0943 0.2299,0 0.45371,-0.0334 0.67871,-0.0943 0.22951,-0.0605 0.45325,-0.15816 0.67828,-0.27092 0.22991,-0.11274 0.45326,-0.25813 0.67828,-0.40609 0.22991,-0.14733 0.45372,-0.31898 0.67829,-0.47847 0.22952,-0.15943 0.45368,-0.33051 0.67825,-0.47847 0.22991,-0.14733 0.45372,-0.29271 0.67874,-0.40547 0.22989,-0.11274 0.45326,-0.21007 0.67829,-0.27091 0.22991,-0.0605 0.45326,-0.0954 0.67825,-0.0954 0.22952,0 0.45372,0.0346 0.67828,0.0954 0.22991,0.0605 0.45372,0.15816 0.67829,0.27091 0.2299,0.11275 0.45371,0.25814 0.67871,0.40547 0.22951,0.14789 0.45329,0.31898 0.67828,0.47847 0.22991,0.15943 0.45329,0.33114 0.67829,0.47847 0.2299,0.14796 0.45371,0.29334 0.67828,0.40609 0.22952,0.11275 0.45372,0.21014 0.67871,0.27092 0.22989,0.0605 0.45372,0.0943 0.67828,0.0943 0.22989,0 0.45329,-0.0334 0.67829,-0.0943 0.2299,-0.0605 0.45371,-0.15816 0.67828,-0.27092 0.22991,-0.11274 0.45372,-0.25813 0.67829,-0.40609 0.22991,-0.14733 0.45371,-0.31898 0.67871,-0.47847 0.22989,-0.15943 0.45371,-0.33051 0.67828,-0.47847 0.22989,-0.14733 0.45326,-0.29271 0.67829,-0.40547 0.22952,-0.11274 0.45371,-0.21007 0.67829,-0.27091 0.2299,-0.0605 0.45367,-0.0954 0.67824,-0.0954 0.22952,0 0.45372,0.0346 0.67875,0.0954 0.22952,0.0605 0.45371,0.15816 0.67824,0.27091 0.22989,0.11275 0.45372,0.25814 0.67829,0.40547 0.2299,0.14789 0.45372,0.31898 0.67828,0.47847 0.22991,0.15943 0.45372,0.33114 0.67871,0.47847 0.22952,0.14796 0.45329,0.29334 0.67829,0.40609 0.22989,0.11275 0.45371,0.21014 0.67828,0.27092 0.22989,0.0605 0.45372,0.0943 0.67828,0.0943 0.22953,0 0.45372,-0.0334 0.67829,-0.0943 0.22991,-0.0605 0.45372,-0.15816 0.67871,-0.27092 0.22989,-0.11274 0.4533,-0.25813 0.67829,-0.40609 0.22952,-0.14733 0.45371,-0.31898 0.67828,-0.47847 0.22989,-0.15943 0.45372,-0.33051 0.67829,-0.47847 0.2299,-0.14733 0.45372,-0.29271 0.67871,-0.40547 0.22988,-0.11274 0.45329,-0.21007 0.67828,-0.27091 0.22989,-0.0605 0.45325,-0.0954 0.67829,-0.0954 0.22988,0 0.45371,0.0346 0.67828,0.0954 0.22989,0.0605 0.45372,0.15816 0.67824,0.27091 0.22953,0.11275 0.45372,0.25814 0.67875,0.40547 0.22952,0.14789 0.45325,0.31898 0.67829,0.47847 0.22989,0.15943 0.45325,0.33114 0.67824,0.47847 0.22953,0.14796 0.45372,0.29334 0.67829,0.40609 0.22988,0.11275 0.45371,0.21014 0.67829,0.27092 0.2299,0.0605 0.45371,0.0943 0.6787,0.0943 0.22989,0 0.4533,-0.0334 0.67829,-0.0943 0.22988,-0.0605 0.45329,-0.15816 0.67829,-0.27092 0.22988,-0.11274 0.45371,-0.25813 0.67828,-0.40609 0.22989,-0.14733 0.45372,-0.31898 0.67828,-0.47847"
       id="path2601" />
    <path
       style="fill:none;stroke:#000000;stroke-width:0.500002;stroke-linecap:round;stroke-linejoin:round;stroke-miterlimit:4;stroke-dasharray:none;stroke-opacity:1"
       clip-path="none"
       d="m 313.04188,133.77593 c 0.22023,-0.15942 0.43449,-0.3305 0.64967,-0.47847 0.22023,-0.14733 0.43452,-0.29271 0.65012,-0.40546 0.22022,-0.11275 0.43448,-0.21007 0.65009,-0.27092 0.22024,-0.0605 0.4345,-0.0954 0.65011,-0.0954 0.22025,0 0.4345,0.0346 0.65011,0.0954 0.22024,0.0605 0.43449,0.15816 0.65006,0.27092 0.22025,0.11274 0.43454,0.25813 0.65012,0.40546 0.22024,0.1479 0.43454,0.31898 0.65011,0.47847 0.22023,0.15943 0.43452,0.33114 0.6501,0.47847 0.22024,0.1479 0.43449,0.29335 0.65011,0.4061 0.22025,0.11274 0.4345,0.21007 0.65011,0.27092 0.22023,0.0605 0.43448,0.0943 0.65012,0.0943 0.22022,0 0.43448,-0.0334 0.65006,-0.0943 0.22024,-0.0605 0.43453,-0.15816 0.65011,-0.27092 0.22024,-0.11275 0.43453,-0.25813 0.65011,-0.4061 0.22023,-0.14732 0.43452,-0.31904 0.65009,-0.47847 0.22025,-0.15942 0.43454,-0.3305 0.6497,-0.47847 0.22025,-0.14733 0.43451,-0.29271 0.65008,-0.40546 0.22025,-0.11275 0.43454,-0.21007 0.65011,-0.27092 0.22024,-0.0605 0.43453,-0.0954 0.65012,-0.0954 0.22023,0 0.43452,0.0346 0.64971,0.0954 0.22022,0.0605 0.43448,0.15816 0.65009,0.27092 0.22024,0.11274 0.4345,0.25813 0.65007,0.40546 0.22025,0.1479 0.43454,0.31898 0.64971,0.47847 0.22024,0.15943 0.4345,0.33114 0.65011,0.47847 0.22023,0.1479 0.43449,0.29335 0.65009,0.4061 0.22025,0.11274 0.43451,0.21007 0.65012,0.27092 0.22024,0.0605 0.4345,0.0943 0.65007,0.0943 0.22024,0 0.43453,-0.0334 0.65012,-0.0943 0.22023,-0.0605 0.43452,-0.15816 0.65009,-0.27092 0.22025,-0.11275 0.43455,-0.25813 0.65012,-0.4061 0.22024,-0.14732 0.43454,-0.31904 0.65011,-0.47847 0.22022,-0.15942 0.43448,-0.3305 0.6501,-0.47847 0.22024,-0.14733 0.43449,-0.29271 0.65011,-0.40546 0.22024,-0.11275 0.4345,-0.21007 0.65011,-0.27092 0.22023,-0.0605 0.43449,-0.0954 0.65006,-0.0954 0.22024,0 0.43454,0.0346 0.65011,0.0954 0.22025,0.0605 0.43454,0.15816 0.65011,0.27092 0.22023,0.11274 0.43453,0.25813 0.65012,0.40546 0.22023,0.1479 0.43448,0.31898 0.65009,0.47847 0.22025,0.15943 0.43451,0.33114 0.64967,0.47847 0.22025,0.1479 0.43454,0.29335 0.65011,0.4061 0.22025,0.11274 0.43454,0.21007 0.65011,0.27092 0.22024,0.0605 0.43453,0.0943 0.64971,0.0943 0.22023,0 0.43448,-0.0334 0.65012,-0.0943 0.22022,-0.0605 0.43448,-0.15816 0.65005,-0.27092 0.22025,-0.11275 0.43454,-0.25813 0.65011,-0.4061 0.22023,-0.14732 0.43453,-0.31904 0.65011,-0.47847"
       id="path2601-8"
       sodipodi:nodetypes="ccccscccccccscccccccscccccccscccccccscccccccscccc" />
    <path
       style="fill:none;stroke:#000000;stroke-width:0.499999;stroke-linecap:round;stroke-linejoin:round;stroke-miterlimit:4;stroke-dasharray:none;stroke-opacity:1"
       clip-path="none"
       d="m 354.17636,133.75711 c 0.2042,-0.15943 0.40274,-0.33051 0.60296,-0.47848 0.2042,-0.14728 0.40272,-0.29272 0.60311,-0.40548 0.20421,-0.11275 0.40275,-0.21007 0.603,-0.27092 0.20419,-0.0605 0.40272,-0.0954 0.60309,-0.0954 0.2042,0 0.40275,0.0346 0.6031,0.0954 0.2042,0.0605 0.40275,0.15816 0.60299,0.27092 0.2042,0.11275 0.40271,0.25814 0.60309,0.40548 0.20421,0.14796 0.40277,0.31899 0.60314,0.47848 0.20421,0.1595 0.40273,0.33115 0.60297,0.47849 0.2042,0.14789 0.40271,0.29335 0.60309,0.40604 0.20421,0.11275 0.40275,0.21007 0.603,0.27092 0.2042,0.0605 0.40272,0.0943 0.60309,0.0943 0.2042,0 0.40276,-0.0334 0.6031,-0.0943 0.2042,-0.0605 0.40276,-0.15816 0.60299,-0.27092 0.2042,-0.11275 0.40274,-0.25814 0.60311,-0.40604 0.2042,-0.14734 0.40276,-0.31906 0.60313,-0.47849 0.2042,-0.15943 0.40272,-0.33051 0.60296,-0.47848 0.20421,-0.14728 0.40272,-0.29272 0.6031,-0.40548 0.2042,-0.11275 0.40275,-0.21007 0.60299,-0.27092 0.2042,-0.0605 0.40272,-0.0954 0.60309,-0.0954 0.2042,0 0.40277,0.0346 0.60312,0.0954 0.2042,0.0605 0.40275,0.15816 0.60299,0.27092 0.2042,0.11275 0.40272,0.25814 0.60309,0.40548 0.2042,0.14796 0.40276,0.31899 0.60313,0.47848 0.2042,0.1595 0.40274,0.33115 0.60296,0.47849 0.20421,0.14789 0.40272,0.29335 0.60311,0.40604 0.20419,0.11275 0.40275,0.21007 0.603,0.27092 0.20418,0.0605 0.40271,0.0943 0.60309,0.0943 0.20421,0 0.40275,-0.0334 0.6031,-0.0943 0.2042,-0.0605 0.40275,-0.15816 0.60299,-0.27092 0.2042,-0.11275 0.40272,-0.25814 0.60309,-0.40604 0.20421,-0.14734 0.40277,-0.31906 0.60315,-0.47849"
       id="path2601-0"
       sodipodi:nodetypes="ccccscccccccscccccccscccccccscccc" />
    <path
       style="fill:none;stroke:#000000;stroke-width:0.500001;stroke-linecap:round;stroke-linejoin:round;stroke-miterlimit:4;stroke-dasharray:none;stroke-opacity:1"
       clip-path="none"
       d="m 264.58829,133.68734 c 0.22951,-0.15943 0.45368,-0.33051 0.67824,-0.47847 0.22992,-0.14733 0.45372,-0.29271 0.67829,-0.40547 0.22952,-0.11274 0.45372,-0.21007 0.67875,-0.27091 0.22951,-0.0605 0.45326,-0.0954 0.67825,-0.0954 0.22991,0 0.45329,0.0346 0.67828,0.0954 0.22991,0.0605 0.45372,0.15816 0.67829,0.27091 0.2299,0.11275 0.45372,0.25814 0.67828,0.40547 0.22991,0.14789 0.45372,0.31898 0.67871,0.47847 0.22989,0.15943 0.45329,0.33114 0.67829,0.47847 0.2299,0.14796 0.45329,0.29334 0.67828,0.40609 0.22952,0.11275 0.45372,0.21014 0.67828,0.27092 0.22991,0.0605 0.45372,0.0943 0.67829,0.0943 0.2299,0 0.45371,-0.0334 0.67871,-0.0943 0.22951,-0.0605 0.45325,-0.15816 0.67828,-0.27092 0.22991,-0.11274 0.45326,-0.25813 0.67828,-0.40609 0.22991,-0.14733 0.45372,-0.31898 0.67829,-0.47847 0.22952,-0.15943 0.45368,-0.33051 0.67825,-0.47847 0.22991,-0.14733 0.45372,-0.29271 0.67874,-0.40547 0.22989,-0.11274 0.45326,-0.21007 0.67829,-0.27091 0.22991,-0.0605 0.45326,-0.0954 0.67825,-0.0954 0.22952,0 0.45372,0.0346 0.67828,0.0954 0.22991,0.0605 0.45372,0.15816 0.67829,0.27091 0.2299,0.11275 0.45371,0.25814 0.67871,0.40547 0.22951,0.14789 0.45329,0.31898 0.67828,0.47847 0.22991,0.15943 0.45329,0.33114 0.67829,0.47847 0.2299,0.14796 0.45371,0.29334 0.67828,0.40609 0.22952,0.11275 0.45372,0.21014 0.67871,0.27092 0.22989,0.0605 0.45372,0.0943 0.67828,0.0943 0.22989,0 0.45329,-0.0334 0.67829,-0.0943 0.2299,-0.0605 0.45371,-0.15816 0.67828,-0.27092 0.22991,-0.11274 0.45372,-0.25813 0.67829,-0.40609 0.22991,-0.14733 0.45371,-0.31898 0.67871,-0.47847 0.22989,-0.15943 0.45371,-0.33051 0.67828,-0.47847 0.22989,-0.14733 0.45326,-0.29271 0.67829,-0.40547 0.22952,-0.11274 0.45371,-0.21007 0.67829,-0.27091 0.2299,-0.0605 0.45367,-0.0954 0.67824,-0.0954 0.22952,0 0.45372,0.0346 0.67875,0.0954 0.22952,0.0605 0.45371,0.15816 0.67824,0.27091 0.22989,0.11275 0.45372,0.25814 0.67829,0.40547 0.2299,0.14789 0.45372,0.31898 0.67828,0.47847 0.22991,0.15943 0.45372,0.33114 0.67871,0.47847 0.22952,0.14796 0.45329,0.29334 0.67829,0.40609 0.22989,0.11275 0.45371,0.21014 0.67828,0.27092 0.22989,0.0605 0.45372,0.0943 0.67828,0.0943 0.22953,0 0.45372,-0.0334 0.67829,-0.0943 0.22991,-0.0605 0.45372,-0.15816 0.67871,-0.27092 0.22989,-0.11274 0.4533,-0.25813 0.67829,-0.40609 0.22952,-0.14733 0.45371,-0.31898 0.67828,-0.47847 0.22989,-0.15943 0.45372,-0.33051 0.67829,-0.47847 0.2299,-0.14733 0.45372,-0.29271 0.67871,-0.40547 0.22988,-0.11274 0.45329,-0.21007 0.67828,-0.27091 0.22989,-0.0605 0.45325,-0.0954 0.67829,-0.0954 0.22988,0 0.45371,0.0346 0.67828,0.0954 0.22989,0.0605 0.45372,0.15816 0.67824,0.27091 0.22953,0.11275 0.45372,0.25814 0.67875,0.40547 0.22952,0.14789 0.45325,0.31898 0.67829,0.47847 0.22989,0.15943 0.45325,0.33114 0.67824,0.47847 0.22953,0.14796 0.45372,0.29334 0.67829,0.40609 0.22988,0.11275 0.45371,0.21014 0.67829,0.27092 0.2299,0.0605 0.45371,0.0943 0.6787,0.0943 0.22989,0 0.4533,-0.0334 0.67829,-0.0943 0.22988,-0.0605 0.45329,-0.15816 0.67829,-0.27092 0.22988,-0.11274 0.45371,-0.25813 0.67828,-0.40609 0.22989,-0.14733 0.45372,-0.31898 0.67828,-0.47847"
       id="path2601-4" />
    <path
       style="fill:none;stroke:#000000;stroke-width:0.500002;stroke-linecap:round;stroke-linejoin:round;stroke-miterlimit:4;stroke-dasharray:none;stroke-opacity:1"
       clip-path="none"
       d="m 194.18471,136.15541 c 0.22023,-0.15942 0.43449,-0.3305 0.64967,-0.47847 0.22023,-0.14733 0.43452,-0.29271 0.65012,-0.40546 0.22022,-0.11275 0.43448,-0.21007 0.65009,-0.27092 0.22024,-0.0605 0.4345,-0.0954 0.65011,-0.0954 0.22025,0 0.4345,0.0346 0.65011,0.0954 0.22024,0.0605 0.43449,0.15816 0.65006,0.27092 0.22025,0.11274 0.43454,0.25813 0.65012,0.40546 0.22024,0.1479 0.43454,0.31898 0.65011,0.47847 0.22023,0.15943 0.43452,0.33114 0.6501,0.47847 0.22024,0.1479 0.43449,0.29335 0.65011,0.4061 0.22025,0.11274 0.4345,0.21007 0.65011,0.27092 0.22023,0.0605 0.43448,0.0943 0.65012,0.0943 0.22022,0 0.43448,-0.0334 0.65006,-0.0943 0.22024,-0.0605 0.43453,-0.15816 0.65011,-0.27092 0.22024,-0.11275 0.43453,-0.25813 0.65011,-0.4061 0.22023,-0.14732 0.43452,-0.31904 0.65009,-0.47847 0.22025,-0.15942 0.43454,-0.3305 0.6497,-0.47847 0.22025,-0.14733 0.43451,-0.29271 0.65008,-0.40546 0.22025,-0.11275 0.43454,-0.21007 0.65011,-0.27092 0.22024,-0.0605 0.43453,-0.0954 0.65012,-0.0954 0.22023,0 0.43452,0.0346 0.64971,0.0954 0.22022,0.0605 0.43448,0.15816 0.65009,0.27092 0.22024,0.11274 0.4345,0.25813 0.65007,0.40546 0.22025,0.1479 0.43454,0.31898 0.64971,0.47847 0.22024,0.15943 0.4345,0.33114 0.65011,0.47847 0.22023,0.1479 0.43449,0.29335 0.65009,0.4061 0.22025,0.11274 0.43451,0.21007 0.65012,0.27092 0.22024,0.0605 0.4345,0.0943 0.65007,0.0943 0.22024,0 0.43453,-0.0334 0.65012,-0.0943 0.22023,-0.0605 0.43452,-0.15816 0.65009,-0.27092 0.22025,-0.11275 0.43455,-0.25813 0.65012,-0.4061 0.22024,-0.14732 0.43454,-0.31904 0.65011,-0.47847 0.22022,-0.15942 0.43448,-0.3305 0.6501,-0.47847 0.22024,-0.14733 0.43449,-0.29271 0.65011,-0.40546 0.22024,-0.11275 0.4345,-0.21007 0.65011,-0.27092 0.22023,-0.0605 0.43449,-0.0954 0.65006,-0.0954 0.22024,0 0.43454,0.0346 0.65011,0.0954 0.22025,0.0605 0.43454,0.15816 0.65011,0.27092 0.22023,0.11274 0.43453,0.25813 0.65012,0.40546 0.22023,0.1479 0.43448,0.31898 0.65009,0.47847 0.22025,0.15943 0.43451,0.33114 0.64967,0.47847 0.22025,0.1479 0.43454,0.29335 0.65011,0.4061 0.22025,0.11274 0.43454,0.21007 0.65011,0.27092 0.22024,0.0605 0.43453,0.0943 0.64971,0.0943 0.22023,0 0.43448,-0.0334 0.65012,-0.0943 0.22022,-0.0605 0.43448,-0.15816 0.65005,-0.27092 0.22025,-0.11275 0.43454,-0.25813 0.65011,-0.4061 0.22023,-0.14732 0.43453,-0.31904 0.65011,-0.47847"
       id="path2601-8-4"
       sodipodi:nodetypes="ccccscccccccscccccccscccccccscccccccscccccccscccc" />
    <path
       style="fill:none;stroke:#000000;stroke-width:0.499999;stroke-linecap:round;stroke-linejoin:round;stroke-miterlimit:4;stroke-dasharray:none;stroke-opacity:1"
       clip-path="none"
       d="m 197.66889,143.971 c 0.2042,-0.15943 0.40274,-0.33051 0.60296,-0.47848 0.2042,-0.14728 0.40272,-0.29272 0.60311,-0.40548 0.20421,-0.11275 0.40275,-0.21007 0.603,-0.27092 0.20419,-0.0605 0.40272,-0.0954 0.60309,-0.0954 0.2042,0 0.40275,0.0346 0.6031,0.0954 0.2042,0.0605 0.40275,0.15816 0.60299,0.27092 0.2042,0.11275 0.40271,0.25814 0.60309,0.40548 0.20421,0.14796 0.40277,0.31899 0.60314,0.47848 0.20421,0.1595 0.40273,0.33115 0.60297,0.47849 0.2042,0.14789 0.40271,0.29335 0.60309,0.40604 0.20421,0.11275 0.40275,0.21007 0.603,0.27092 0.2042,0.0605 0.40272,0.0943 0.60309,0.0943 0.2042,0 0.40276,-0.0334 0.6031,-0.0943 0.2042,-0.0605 0.40276,-0.15816 0.60299,-0.27092 0.2042,-0.11275 0.40274,-0.25814 0.60311,-0.40604 0.2042,-0.14734 0.40276,-0.31906 0.60313,-0.47849 0.2042,-0.15943 0.40272,-0.33051 0.60296,-0.47848 0.20421,-0.14728 0.40272,-0.29272 0.6031,-0.40548 0.2042,-0.11275 0.40275,-0.21007 0.60299,-0.27092 0.2042,-0.0605 0.40272,-0.0954 0.60309,-0.0954 0.2042,0 0.40277,0.0346 0.60312,0.0954 0.2042,0.0605 0.40275,0.15816 0.60299,0.27092 0.2042,0.11275 0.40272,0.25814 0.60309,0.40548 0.2042,0.14796 0.40276,0.31899 0.60313,0.47848 0.2042,0.1595 0.40274,0.33115 0.60296,0.47849 0.20421,0.14789 0.40272,0.29335 0.60311,0.40604 0.20419,0.11275 0.40275,0.21007 0.603,0.27092 0.20418,0.0605 0.40271,0.0943 0.60309,0.0943 0.20421,0 0.40275,-0.0334 0.6031,-0.0943 0.2042,-0.0605 0.40275,-0.15816 0.60299,-0.27092 0.2042,-0.11275 0.40272,-0.25814 0.60309,-0.40604 0.20421,-0.14734 0.40277,-0.31906 0.60315,-0.47849"
       id="path2601-0-6"
       sodipodi:nodetypes="ccccscccccccscccccccscccccccscccc" />
    <path
       style="fill:none;stroke:#000000;stroke-width:0.499999;stroke-linecap:round;stroke-linejoin:round;stroke-miterlimit:4;stroke-dasharray:none;stroke-opacity:1"
       clip-path="none"
       d="m 297.62571,141.91427 c 0.2042,-0.15943 0.40274,-0.33051 0.60296,-0.47848 0.2042,-0.14728 0.40272,-0.29272 0.60311,-0.40548 0.20421,-0.11275 0.40275,-0.21007 0.603,-0.27092 0.20419,-0.0605 0.40272,-0.0954 0.60309,-0.0954 0.2042,0 0.40275,0.0346 0.6031,0.0954 0.2042,0.0605 0.40275,0.15816 0.60299,0.27092 0.2042,0.11275 0.40271,0.25814 0.60309,0.40548 0.20421,0.14796 0.40277,0.31899 0.60314,0.47848 0.20421,0.1595 0.40273,0.33115 0.60297,0.47849 0.2042,0.14789 0.40271,0.29335 0.60309,0.40604 0.20421,0.11275 0.40275,0.21007 0.603,0.27092 0.2042,0.0605 0.40272,0.0943 0.60309,0.0943 0.2042,0 0.40276,-0.0334 0.6031,-0.0943 0.2042,-0.0605 0.40276,-0.15816 0.60299,-0.27092 0.2042,-0.11275 0.40274,-0.25814 0.60311,-0.40604 0.2042,-0.14734 0.40276,-0.31906 0.60313,-0.47849 0.2042,-0.15943 0.40272,-0.33051 0.60296,-0.47848 0.20421,-0.14728 0.40272,-0.29272 0.6031,-0.40548 0.2042,-0.11275 0.40275,-0.21007 0.60299,-0.27092 0.2042,-0.0605 0.40272,-0.0954 0.60309,-0.0954 0.2042,0 0.40277,0.0346 0.60312,0.0954 0.2042,0.0605 0.40275,0.15816 0.60299,0.27092 0.2042,0.11275 0.40272,0.25814 0.60309,0.40548 0.2042,0.14796 0.40276,0.31899 0.60313,0.47848 0.2042,0.1595 0.40274,0.33115 0.60296,0.47849 0.20421,0.14789 0.40272,0.29335 0.60311,0.40604 0.20419,0.11275 0.40275,0.21007 0.603,0.27092 0.20418,0.0605 0.40271,0.0943 0.60309,0.0943 0.20421,0 0.40275,-0.0334 0.6031,-0.0943 0.2042,-0.0605 0.40275,-0.15816 0.60299,-0.27092 0.2042,-0.11275 0.40272,-0.25814 0.60309,-0.40604 0.20421,-0.14734 0.40277,-0.31906 0.60315,-0.47849"
       id="path2601-0-5"
       sodipodi:nodetypes="ccccscccccccscccccccscccccccscccc" />
    <path
       style="fill:none;stroke:#000000;stroke-width:0.499999;stroke-linecap:round;stroke-linejoin:round;stroke-miterlimit:4;stroke-dasharray:none;stroke-opacity:1"
       clip-path="none"
       d="m 237.01602,135.61672 c 0.2042,-0.15943 0.40274,-0.33051 0.60296,-0.47848 0.2042,-0.14728 0.40272,-0.29272 0.60311,-0.40548 0.20421,-0.11275 0.40275,-0.21007 0.603,-0.27092 0.20419,-0.0605 0.40272,-0.0954 0.60309,-0.0954 0.2042,0 0.40275,0.0346 0.6031,0.0954 0.2042,0.0605 0.40275,0.15816 0.60299,0.27092 0.2042,0.11275 0.40271,0.25814 0.60309,0.40548 0.20421,0.14796 0.40277,0.31899 0.60314,0.47848 0.20421,0.1595 0.40273,0.33115 0.60297,0.47849 0.2042,0.14789 0.40271,0.29335 0.60309,0.40604 0.20421,0.11275 0.40275,0.21007 0.603,0.27092 0.2042,0.0605 0.40272,0.0943 0.60309,0.0943 0.2042,0 0.40276,-0.0334 0.6031,-0.0943 0.2042,-0.0605 0.40276,-0.15816 0.60299,-0.27092 0.2042,-0.11275 0.40274,-0.25814 0.60311,-0.40604 0.2042,-0.14734 0.40276,-0.31906 0.60313,-0.47849 0.2042,-0.15943 0.40272,-0.33051 0.60296,-0.47848 0.20421,-0.14728 0.40272,-0.29272 0.6031,-0.40548 0.2042,-0.11275 0.40275,-0.21007 0.60299,-0.27092 0.2042,-0.0605 0.40272,-0.0954 0.60309,-0.0954 0.2042,0 0.40277,0.0346 0.60312,0.0954 0.2042,0.0605 0.40275,0.15816 0.60299,0.27092 0.2042,0.11275 0.40272,0.25814 0.60309,0.40548 0.2042,0.14796 0.40276,0.31899 0.60313,0.47848 0.2042,0.1595 0.40274,0.33115 0.60296,0.47849 0.20421,0.14789 0.40272,0.29335 0.60311,0.40604 0.20419,0.11275 0.40275,0.21007 0.603,0.27092 0.20418,0.0605 0.40271,0.0943 0.60309,0.0943 0.20421,0 0.40275,-0.0334 0.6031,-0.0943 0.2042,-0.0605 0.40275,-0.15816 0.60299,-0.27092 0.2042,-0.11275 0.40272,-0.25814 0.60309,-0.40604 0.20421,-0.14734 0.40277,-0.31906 0.60315,-0.47849"
       id="path2601-0-4"
       sodipodi:nodetypes="ccccscccccccscccccccscccccccscccc" />
    <path
       style="fill:none;stroke:#000000;stroke-width:0.500002;stroke-linecap:round;stroke-linejoin:round;stroke-miterlimit:4;stroke-dasharray:none;stroke-opacity:1"
       clip-path="none"
       d="m 255.47511,142.32559 c 0.22023,-0.15942 0.43449,-0.3305 0.64967,-0.47847 0.22023,-0.14733 0.43452,-0.29271 0.65012,-0.40546 0.22022,-0.11275 0.43448,-0.21007 0.65009,-0.27092 0.22024,-0.0605 0.4345,-0.0954 0.65011,-0.0954 0.22025,0 0.4345,0.0346 0.65011,0.0954 0.22024,0.0605 0.43449,0.15816 0.65006,0.27092 0.22025,0.11274 0.43454,0.25813 0.65012,0.40546 0.22024,0.1479 0.43454,0.31898 0.65011,0.47847 0.22023,0.15943 0.43452,0.33114 0.6501,0.47847 0.22024,0.1479 0.43449,0.29335 0.65011,0.4061 0.22025,0.11274 0.4345,0.21007 0.65011,0.27092 0.22023,0.0605 0.43448,0.0943 0.65012,0.0943 0.22022,0 0.43448,-0.0334 0.65006,-0.0943 0.22024,-0.0605 0.43453,-0.15816 0.65011,-0.27092 0.22024,-0.11275 0.43453,-0.25813 0.65011,-0.4061 0.22023,-0.14732 0.43452,-0.31904 0.65009,-0.47847 0.22025,-0.15942 0.43454,-0.3305 0.6497,-0.47847 0.22025,-0.14733 0.43451,-0.29271 0.65008,-0.40546 0.22025,-0.11275 0.43454,-0.21007 0.65011,-0.27092 0.22024,-0.0605 0.43453,-0.0954 0.65012,-0.0954 0.22023,0 0.43452,0.0346 0.64971,0.0954 0.22022,0.0605 0.43448,0.15816 0.65009,0.27092 0.22024,0.11274 0.4345,0.25813 0.65007,0.40546 0.22025,0.1479 0.43454,0.31898 0.64971,0.47847 0.22024,0.15943 0.4345,0.33114 0.65011,0.47847 0.22023,0.1479 0.43449,0.29335 0.65009,0.4061 0.22025,0.11274 0.43451,0.21007 0.65012,0.27092 0.22024,0.0605 0.4345,0.0943 0.65007,0.0943 0.22024,0 0.43453,-0.0334 0.65012,-0.0943 0.22023,-0.0605 0.43452,-0.15816 0.65009,-0.27092 0.22025,-0.11275 0.43455,-0.25813 0.65012,-0.4061 0.22024,-0.14732 0.43454,-0.31904 0.65011,-0.47847 0.22022,-0.15942 0.43448,-0.3305 0.6501,-0.47847 0.22024,-0.14733 0.43449,-0.29271 0.65011,-0.40546 0.22024,-0.11275 0.4345,-0.21007 0.65011,-0.27092 0.22023,-0.0605 0.43449,-0.0954 0.65006,-0.0954 0.22024,0 0.43454,0.0346 0.65011,0.0954 0.22025,0.0605 0.43454,0.15816 0.65011,0.27092 0.22023,0.11274 0.43453,0.25813 0.65012,0.40546 0.22023,0.1479 0.43448,0.31898 0.65009,0.47847 0.22025,0.15943 0.43451,0.33114 0.64967,0.47847 0.22025,0.1479 0.43454,0.29335 0.65011,0.4061 0.22025,0.11274 0.43454,0.21007 0.65011,0.27092 0.22024,0.0605 0.43453,0.0943 0.64971,0.0943 0.22023,0 0.43448,-0.0334 0.65012,-0.0943 0.22022,-0.0605 0.43448,-0.15816 0.65005,-0.27092 0.22025,-0.11275 0.43454,-0.25813 0.65011,-0.4061 0.22023,-0.14732 0.43453,-0.31904 0.65011,-0.47847"
       id="path2601-8-6"
       sodipodi:nodetypes="ccccscccccccscccccccscccccccscccccccscccccccscccc" />
    <path
       style="fill:none;stroke:#000000;stroke-width:0.499999;stroke-linecap:round;stroke-linejoin:round;stroke-miterlimit:4;stroke-dasharray:none;stroke-opacity:1"
       clip-path="none"
       d="m 227.69707,143.14831 c 0.2042,-0.15943 0.40274,-0.33051 0.60296,-0.47848 0.2042,-0.14728 0.40272,-0.29272 0.60311,-0.40548 0.20421,-0.11275 0.40275,-0.21007 0.603,-0.27092 0.20419,-0.0605 0.40272,-0.0954 0.60309,-0.0954 0.2042,0 0.40275,0.0346 0.6031,0.0954 0.2042,0.0605 0.40275,0.15816 0.60299,0.27092 0.2042,0.11275 0.40271,0.25814 0.60309,0.40548 0.20421,0.14796 0.40277,0.31899 0.60314,0.47848 0.20421,0.1595 0.40273,0.33115 0.60297,0.47849 0.2042,0.14789 0.40271,0.29335 0.60309,0.40604 0.20421,0.11275 0.40275,0.21007 0.603,0.27092 0.2042,0.0605 0.40272,0.0943 0.60309,0.0943 0.2042,0 0.40276,-0.0334 0.6031,-0.0943 0.2042,-0.0605 0.40276,-0.15816 0.60299,-0.27092 0.2042,-0.11275 0.40274,-0.25814 0.60311,-0.40604 0.2042,-0.14734 0.40276,-0.31906 0.60313,-0.47849 0.2042,-0.15943 0.40272,-0.33051 0.60296,-0.47848 0.20421,-0.14728 0.40272,-0.29272 0.6031,-0.40548 0.2042,-0.11275 0.40275,-0.21007 0.60299,-0.27092 0.2042,-0.0605 0.40272,-0.0954 0.60309,-0.0954 0.2042,0 0.40277,0.0346 0.60312,0.0954 0.2042,0.0605 0.40275,0.15816 0.60299,0.27092 0.2042,0.11275 0.40272,0.25814 0.60309,0.40548 0.2042,0.14796 0.40276,0.31899 0.60313,0.47848 0.2042,0.1595 0.40274,0.33115 0.60296,0.47849 0.20421,0.14789 0.40272,0.29335 0.60311,0.40604 0.20419,0.11275 0.40275,0.21007 0.603,0.27092 0.20418,0.0605 0.40271,0.0943 0.60309,0.0943 0.20421,0 0.40275,-0.0334 0.6031,-0.0943 0.2042,-0.0605 0.40275,-0.15816 0.60299,-0.27092 0.2042,-0.11275 0.40272,-0.25814 0.60309,-0.40604 0.20421,-0.14734 0.40277,-0.31906 0.60315,-0.47849"
       id="path2601-0-1"
       sodipodi:nodetypes="ccccscccccccscccccccscccccccscccc" />
    <path
       style="fill:none;stroke:#262626;stroke-width:0.5;stroke-miterlimit:4;stroke-dasharray:none"
       d="m 270.66969,13.146797 -0.49772,0.08862 c 0.39595,-0.332782 1.02501,-0.688538 1.8176,-0.820758 0.77221,-0.12882 1.74663,-0.109862 2.48635,0.122044 1.17927,0.369704 1.80806,1.293832 2.89641,1.747025 0.82392,0.343134 1.55999,0.376682 2.43724,0.325221 0.47852,-0.02804 0.87643,-0.03624 1.37037,-0.0251 0.47659,0.01074 1.69637,0.240429 2.06782,-0.0543 0.23818,-0.189016 0.26848,-0.609302 0.34218,-0.885919 0.20991,-0.787711 0.42481,-1.629973 0.58758,-2.417189 0.86671,0.183469 0.42746,1.835191 0.44481,2.625004 m -13.48871,1.11501 c -0.60752,-0.516438 -1.23148,-0.471314 -1.85067,-0.6962 0.29203,-0.439488 0.45873,-0.706539 0.88902,-1.034837 m 1.15349,-0.03754 0.81825,0.488389 m 1.75891,-1.264334 0.56718,0.383901 m -2.69062,3.612252 0.36772,-0.438473 0.53467,0.296441 -0.17716,0.665637 -0.81828,-0.488387 c -0.15839,0.758146 -0.47743,1.725645 -1.33422,2.121541 -0.43277,0.199969 -1.0943,0.100212 -1.56024,0.08536 -1.23536,-0.03938 -2.50249,-0.110297 -3.69126,-0.512668 -0.42585,-0.14414 -1.36984,-0.428802 -1.43087,-0.941227 -0.0526,-0.441013 0.87935,-0.969257 1.18293,-1.14986 1.02164,-0.607769 2.25213,-0.961681 3.407,-1.398807 0.38926,-0.147335 0.62909,-0.23811 1.02348,-0.387389 m 1.59513,0.294112 1.76679,-0.100711 2.71712,-0.399312 -0.16251,-0.437307 m -0.41359,-0.541794 0.2231,0.314611 m -2.51664,0.653264 0.13001,0.349845 m -1.33066,0.703183 0.065,0.174924 m 4.13086,-1.164497 0.86989,-0.229493 m 7.78759,-2.74811 c -0.10411,-0.472929 0.91753,-0.293241 1.05864,0.0049 0.1079,0.227893 0.0246,0.519786 0.08,0.761361 0.11728,0.510527 0.47014,2.23961 0.0205,2.683549 -0.44977,0.443884 -1.57441,0.155766 -1.97998,0.05338 m -11.77256,1.163785 0.0975,0.262385 m 19.26888,-6.6947732 -0.47413,-0.4191183 c 0.35984,0.020464 0.8714,0.026446 1.09909,0.3007289 0.18403,0.2215283 0.12285,0.5285079 0.18108,0.8109286 0.0489,0.237159 0.0956,0.396841 0.14154,0.644769 0.16785,0.906366 0.19073,2.194023 0.42638,2.931272 -1.04155,0.375584 -2.47327,0.42835 -3.70713,0.59119 -0.42936,0.05666 -1.30159,0.0088 -1.53254,0.413769 -0.43562,0.764364 1.37446,0.692785 1.7753,0.810718 0.25602,0.07518 0.71029,0.163229 0.6259,0.256328 m -15.72045,-0.03553 -0.0605,0.122696 m -0.33966,0.228331 0.31162,-0.01819 m 16.90141,-6.497064 c 0.08,1.372868 -0.26237,3.089905 -0.68192,4.448163 m 1.21214,-4.4493262 0.15676,2.1354542 m -14.79262,3.603794 c -0.41594,0.43518 -0.86197,0.566922 -1.20955,0.457823 1.52789,-1.118298 3.74359,0.789296 4.79872,1.77514 -1.16618,0.666268 -1.98692,0.306314 -2.90665,-0.396272 m -0.49642,-1.907129 0.12564,0.05223 m -3.34955,1.267823 0.0326,0.08747 m 3.31705,-1.355285 c 1.59377,-0.458644 2.85316,0.360325 4.39256,0.39651 0.78696,0.01857 2.49468,-0.458699 2.86799,-0.850108 m -10.39152,1.738449 0.12564,0.05223 m -0.43271,0.263551 0.49772,-0.08863 m 1.73532,-0.756591 c 0.86874,0.362913 1.73092,1.066552 2.64534,1.69233 m -5.30665,-0.285964 0.49772,-0.08862 m 2.35413,-1.090573 0.37662,0.156732 m 0,0 0.69273,0.436142 m -6.24282,1.764359 c 0.36945,0.06083 0.97807,0.02403 1.38083,0.0031 0.47797,-0.02491 1.06921,0.150652 1.36331,-0.04407 m -0.32501,-0.874615 0.0931,-0.03524 m 0.27913,-0.105644 -0.0605,0.122695 m 5.52206,-1.990353 c 0.38551,0.493364 0.79727,0.648968 1.37652,0.277082 m -1.99661,2.052647 c 0.74229,0.392742 1.5839,0.428448 2.34839,0.607578 -0.46689,0.342122 -1.04506,0.202815 -1.62784,0.189054 -1.321,-0.03114 -2.63871,-0.175651 -3.98598,-0.159228 -0.13802,0.547067 -0.70942,0.531988 -1.05152,0.597528 l 0.44164,0.331658 c -0.18537,0.343111 -0.206,0.42325 -0.27023,0.700856 -0.59841,-0.03817 -0.78588,-0.353293 -0.63663,-0.856426 -0.79326,-0.10838 -1.67907,0.28876 -2.34391,-0.309977 l 0.99096,-0.474851 m 0.40468,-0.0534 -0.21413,0.280573 m 12.34226,-4.771361 -0.14467,0.753095 m -4.10284,0.954348 0.1861,-0.07044 m -7.09934,2.886654 1.37206,-0.02051 m 16.39921,-6.705986 0.0326,0.08747 m -17.86431,6.761719 0.50663,0.50658 m 8.58357,-3.747734 0.57609,0.979105 m 0.16826,-1.260843 c -0.0519,0.770889 0.73879,0.719193 1.45391,0.770947 0.62277,0.04512 1.37687,0.02526 1.92686,0.04444 -0.18007,0.271973 -0.50935,0.659382 -0.27614,1.001899 0.42393,0.622474 1.71835,0.301627 2.19627,0.166826 -0.225,-0.163351 -0.30603,-0.219172 -0.69273,-0.436142 l -0.24217,0.490712 m 3.63571,-5.067365 0.0325,0.08747 m -5.73617,2.27093 1.46509,-0.05573 m -13.34215,4.651008 -0.12107,0.245357 m 17.70627,-6.901425 0.0326,0.08747 m -0.0281,0.210161 0.0325,0.08747 m -0.0281,0.210157 0.0326,0.08747 m -16.80834,6.461793 c 0.32982,0.05762 0.94042,0.114822 0.78427,0.563107 -0.1887,0.541507 -0.73779,0.324538 -1.05448,0.137745 m 17.05051,-6.952505 0.0694,0.472542 m -8.09922,2.766298 0.5111,0.804181 m -8.32228,2.451675 0.53023,-0.0012 -0.40023,0.35101 m 0.49327,-0.386228 c 0.95991,0.274058 1.07805,0.217868 2.08906,0.195342 0.37155,-0.0083 0.68971,-0.0012 1.05335,-0.0214 0.78871,-0.04384 1.43555,-0.01332 2.18782,-0.395726 -0.3213,-0.278868 -0.53192,-0.471796 -0.72969,-0.821235 m 11.80756,-5.067792 c 0.45825,-0.05094 1.2907,-0.366023 1.49762,0.03172 l -0.0281,0.210158 m -17.99878,6.114267 0.62326,-0.03638 m -0.25109,-0.104494 0.065,0.174925 m 10.35585,-4.119262 1.27902,0.0147 -0.0841,0.630418 m -12.85335,3.967182 c 0.16214,0.347861 0.46216,0.704183 0.92569,0.49302 0.42757,-0.194859 0.38233,-0.524512 0.31637,-0.863383 m 4.37303,-1.655211 c 0.85731,0.04881 2.96154,0.329501 3.22848,-1.022466 m 4.09391,-1.54956 0.67934,-0.456661 m 5.30347,-2.007388 1.29844,-0.218614 2.4163,-0.352109 2.13678,-0.247416 c -0.24532,0.594765 -0.90021,0.989293 -1.57834,1.179028 -1.1245,0.3146 -2.2957,0.552379 -3.40872,0.823021 -0.61467,0.149463 -1.23493,0.317583 -1.8051,0.568811 0.33093,0.29046 0.60872,0.234394 1.03239,0.207813 l -0.33521,0.525932 c 0.51676,0.0617 0.96802,-0.06052 1.53215,-0.160919 1.04004,-0.185156 2.175,-0.435366 3.07731,-0.286857 -0.47559,0.514018 -0.9541,0.496702 -1.75866,0.693782 -1.079,0.264246 -2.0149,0.60053 -3.10338,0.787862 -0.66253,0.114094 -0.84473,0.121597 -1.35275,0.07255 l -0.55379,0.508906 m -3.98491,-1.584351 0.19058,0.227147 m 1.98642,-0.652098 1.08848,-0.212472 -0.27913,0.105657 m -0.96294,0.264709 c 0.21845,0.890706 -0.3251,1.263444 -1.07063,1.402872 m 5.53672,-3.093303 0.59967,0.471361 m -18.49203,6.500499 c 0.78928,0.109083 1.70323,-0.321148 2.59056,0.116867 0.15026,-0.524665 0.28058,-0.78629 0.51237,-1.191567 m 11.59791,-4.489627 c 0.99615,0.183924 1.40248,-0.333113 2.205,-0.635076 l 0.004,0.297615 m -9.89955,3.347972 c 1.12201,0.199632 1.60707,-0.108968 2.5853,-0.468459 0.2763,-0.10158 0.64321,-0.0087 0.80568,-0.116701 m 6.22498,-2.954763 0.25108,0.104494 m -11.72344,4.437376 c 0.50393,0.102052 0.81253,0.01998 1.31152,0.102155 -0.74858,1.366469 0.97892,0.987845 1.3574,1.082427 m 7.56583,-5.058488 c 0.22986,0.439846 0.10196,0.816594 0.0179,1.190402 0.49362,0.0089 0.88025,-0.201894 1.53012,0.119181 m -8.08458,1.663362 c 0.20872,0.419319 0.33856,0.525202 0.4786,0.716716 -0.54503,0.01355 -0.79399,-0.146011 -1.21158,0.27532 -0.28926,0.291755 -0.16066,1.033101 -0.26374,1.180964 m -1.3899,-1.169891 c 0.52819,-0.19487 0.99802,-0.184014 1.52566,-0.178415 m 2.4752,-1.335928 c 0.16662,0.628193 -0.003,0.832124 -0.20076,1.17338 0.53793,0.06267 1.12217,0.102602 1.64342,-0.146868 0.61793,-0.295745 0.44512,-0.842476 0.30158,-1.187899 0.24933,-0.02793 0.99498,-0.143355 0.67936,-0.456661 m -2.2375,0.54761 c 0.70239,-0.04589 1.34672,-0.01048 1.58172,-0.59869 m 1.02349,-0.387393 c 0.25162,0.200457 0.42728,0.381281 0.87881,0.365707 m -0.62772,-0.261218 1.08847,-0.212467 m -6.91771,2.518615 c 0.10652,0.286609 -0.006,-0.01662 0.0975,0.262382 m 5.45705,-2.165281 0.21413,-0.28058 m 1.27456,-0.282897 0.65131,-0.246521 m -1.82836,0.791807 c 0.23373,0.398575 0.59206,0.279806 0.94381,0.54063 -0.52654,0.290381 -0.52831,0.738587 -0.57293,1.314256 -0.61328,-0.03215 -1.05891,0.66188 -1.63782,1.018973 l 0.66023,0.348677 -0.0694,-0.472541 m 1.79269,-3.172618 0.40914,0.244192 -0.0369,-0.385082 m 1.73978,-0.458988 0.43718,0.03405 0.33521,-0.52593 m -3.19151,1.407526 0.0931,-0.03524 m -6.31358,3.287583 c 0.3831,0.08246 0.65139,0.22523 1.05354,-0.01947 0.61013,-0.371304 0.2881,-0.862061 0.26818,-1.278917 0.30032,-0.0227 0.41526,-0.0073 0.80936,-0.10682 m 4.86629,-2.041438 0.71631,-0.07159 m 1.36315,-0.615724 0.16251,0.437303 m -2.48414,0.740745 0.27912,-0.105657 m -3.99639,1.811938 c 0.12799,0.373551 0.15872,0.623304 -0.0147,1.102947 0.3752,0.02978 0.60188,0.02719 1.12097,-0.124997 m -0.0828,-1.365333 c 0.65029,0.09774 0.94531,-0.148495 1.34403,0.189626 m 1.0751,-1.105275 1.20955,-0.457822 m -2.44716,1.125788 0.53023,-0.0012 m -1.30262,0.493044 0.87435,0.0681 m -4.06587,1.339421 1.87425,0.188462 -0.004,-0.29762 m -0.31162,0.01819 0.18609,-0.07043"
       id="path7012" />
    <path
       style="fill:none;stroke:#161616;stroke-width:0.5;stroke-miterlimit:4;stroke-dasharray:none"
       d="m 331.34236,19.363844 c -0.14975,0.115117 -0.29003,0.281413 -0.54424,0.521572 -0.0914,0.08625 -0.29966,0.263232 -0.39893,0.26795 -0.0914,0.0043 -0.1008,-0.04015 -0.1293,-0.102023 -0.0318,-0.06914 -0.0736,-0.162068 -0.12078,-0.236043 -0.0595,-0.09333 -0.0879,-0.144589 -0.15885,-0.246513 -0.25308,-0.363138 -0.54778,-0.619769 -0.82636,-0.933328 -0.0921,-0.10364 -0.12163,-0.144338 -0.2177,-0.24363 -0.0796,-0.08236 -0.11922,-0.117428 -0.15431,-0.17976 0.16141,-0.07816 0.3987,-0.179908 0.71759,-0.336807 0.0844,-0.04148 0.19656,-0.113639 0.28901,-0.148787 0.18025,-0.06839 0.21446,-0.04756 0.37043,-0.107412 0.21551,-0.08267 0.65902,-0.293771 0.90059,-0.393962 0.31905,-0.132291 0.63883,-0.259152 0.96312,-0.382095 0.17152,-0.06505 0.5005,-0.179337 0.62215,-0.228619 0.0863,-0.0349 0.12733,-0.07211 0.24712,-0.0964 0.0209,-0.0039 0.45278,-0.06695 0.50702,-0.03842 0.1023,0.05377 0.10323,0.183649 0.15857,0.273682 0.1372,0.223298 -0.16792,0.327206 -0.2179,0.599977 -0.0203,0.110787 0.059,0.179562 0.11488,0.267247 0.10625,0.166704 0.21124,0.40051 0.27527,0.589893 0.0261,0.07745 0.0591,0.153507 -0.0248,0.24868 -0.13802,0.156655 -0.534,0.239791 -0.76984,0.321366 -0.52149,0.180459 -1.26641,0.543202 -1.60275,0.583526 0.0426,-0.08137 0.074,-0.154328 0.19013,-0.303196 0.0883,-0.113148 0.23242,-0.279816 0.34366,-0.406023 0.50222,-0.569837 1.06137,-0.978278 1.4301,-1.281164 m -3.43911,0.288622 c 0.30484,-0.428441 0.97558,-1.106715 1.39808,-1.588118 0.13851,-0.1578 0.30987,-0.460933 0.51421,-0.563458 0.16295,-0.08177 0.22365,-0.01542 0.31346,0.06301 0.31438,0.274538 0.61382,0.607657 0.80785,0.910349 m -2.27782,1.843279 c 0.0572,-0.06732 0.10728,-0.130061 0.24148,-0.223089 0.12963,-0.09023 0.38197,-0.273952 0.52892,-0.373969 0.3126,-0.212852 0.68754,-0.466492 1.01569,-0.642747 0.12999,-0.06967 0.24087,-0.137652 0.37213,-0.177729 0.174,-0.05321 0.2093,0.0512 0.22553,0.167828 -0.37378,0.151341 -1.03743,0.615593 -1.52394,0.877797 -0.1774,0.09554 -0.35864,0.202215 -0.52591,0.293167 -0.34596,0.187908 -0.27846,0.04675 -0.64539,0.278122 m -0.0483,0.866964 0.0158,0.02467 m 0.10353,0.247131 0.0158,0.02467 m -0.80587,-1.085793 0.0475,0.07409 m 0.73914,1.5814 c -0.23099,0.191661 -0.67241,0.555655 -1.01266,0.818778 -0.49575,0.383231 -1.14688,0.793483 -1.69512,1.210384 -0.22429,0.170499 -0.37282,0.217716 -0.64257,0.368181 -1.02186,0.569858 -1.79365,1.010658 -2.87272,1.172184 -0.17244,0.02584 -0.41903,0.02569 -0.55979,0.01203 -0.12445,-0.01217 -0.17696,-0.02344 -0.32281,-0.01222 -0.1038,0.008 -0.16977,0.01285 -0.25465,5.55e-4 -0.0787,-0.01143 -0.14272,-0.0216 -0.23796,8.04e-4 -0.11242,0.02645 -0.19039,0.06526 -0.30564,0.117875 -0.21652,0.099 -0.30027,0.09282 -0.44576,0.161218 -0.16355,0.07681 -0.64693,0.419442 -0.77622,0.502317 m 7.5156,-6.350261 c -0.26657,0.129656 -0.81091,0.383283 -1.26807,0.591652 -0.41436,0.188875 -0.93165,0.461333 -1.31758,0.685734 -0.11817,0.06862 -0.19802,0.124553 -0.31298,0.197056 -0.11426,0.07205 -0.20467,0.118369 -0.32263,0.181986 -0.22632,0.122268 -0.47851,0.315046 -0.68231,0.477515 -0.54546,0.433744 -1.07586,0.959082 -1.41583,1.474762 -0.2067,0.313569 -0.31032,0.596175 -0.43943,0.917887 -0.0801,0.199611 -0.0959,0.246041 -0.19613,0.42791 -0.0727,0.131898 -0.14694,0.222736 -0.2292,0.303333 -0.24227,0.237373 -0.47141,0.402188 -0.56905,0.568531 m 0.83055,-0.845885 c 0.0413,0.0063 0.0894,0.0025 0.13295,0.02489 0.20333,0.104516 0.29882,0.385752 0.24689,0.567683"
       id="path7043"
       sodipodi:nodetypes="csssscsscscsssssssssssscssccsssccccsccsccccccccccscssssssscccssccssssccsc" />
    <path
       style="fill:none;stroke:#000000;stroke-width:1px;stroke-linecap:butt;stroke-linejoin:miter;stroke-opacity:1;marker-end:url(#Arrow1Send)"
       d="M 249.95865,16.837822 H 207.27122"
       id="path7060" />
    <text
       xml:space="preserve"
       style="font-style:italic;font-size:9.33333px;line-height:1.25;font-family:'Latin Modern Roman';-inkscape-font-specification:'Latin Modern Roman, Italic';text-align:center;text-anchor:middle"
       x="227.19202"
       y="11.146164"
       id="text7064"><tspan
         sodipodi:role="line"
         id="tspan7062"
         x="227.19202"
         y="11.146164">u</tspan></text>
    <path
       style="fill:none;stroke:#000000;stroke-width:0.5;stroke-linecap:butt;stroke-linejoin:miter;stroke-opacity:1;stroke-miterlimit:4;stroke-dasharray:none"
       d="m 235.49236,129.72237 h 16.12636"
       id="path7066" />
    <path
       style="fill:none;stroke:#000000;stroke-width:0.5;stroke-linecap:butt;stroke-linejoin:miter;stroke-opacity:1;stroke-miterlimit:4;stroke-dasharray:none;marker-end:url(#Arrow1Mend);marker-start:url(#Arrow1Mstart)"
       d="M 244.26699,16.837822 V 129.72237"
       id="path7068" />
    <rect
       style="fill:#ffffff;stroke:none;stroke-width:0.5;stroke-linecap:square;stroke-miterlimit:4;stroke-dasharray:none;stroke-dashoffset:0"
       id="rect7168"
       width="16.430826"
       height="21.009911"
       x="236.05157"
       y="62.775139" />
    <text
       xml:space="preserve"
       style="font-style:italic;font-size:9.33333px;line-height:1.25;font-family:'Latin Modern Roman';-inkscape-font-specification:'Latin Modern Roman, Italic';text-align:center;text-anchor:middle"
       x="243.80499"
       y="76.46743"
       id="text7072"><tspan
         sodipodi:role="line"
         id="tspan7070"
         x="243.80499"
         y="76.46743">h</tspan></text>
    <path
       style="fill:none;stroke:#000000;stroke-width:0.5;stroke-linecap:butt;stroke-linejoin:miter;stroke-miterlimit:4;stroke-dasharray:3, 1;stroke-dashoffset:0;stroke-opacity:1"
       d="m 300.86728,16.837822 h 73.54009"
       id="path7074" />
    <path
       style="fill:none;stroke:#000000;stroke-width:0.5;stroke-linecap:butt;stroke-linejoin:miter;stroke-miterlimit:4;stroke-dasharray:3, 1;stroke-dashoffset:0;stroke-opacity:1"
       d="m 321.25312,24.611857 -9.06741,5.825576"
       id="path7090"
       sodipodi:nodetypes="cc" />
    <path
       style="fill:none;stroke:#000000;stroke-width:0.5;stroke-linecap:square;stroke-miterlimit:4;stroke-dasharray:none;stroke-dashoffset:0"
       id="path7092"
       sodipodi:type="arc"
       sodipodi:cx="333.5675"
       sodipodi:cy="16.753248"
       sodipodi:rx="14.16821"
       sodipodi:ry="14.16821"
       sodipodi:start="2.5751815"
       sodipodi:end="3.1370173"
       sodipodi:open="true"
       sodipodi:arc-type="arc"
       d="m 321.61191,24.356011 a 14.16821,14.16821 0 0 1 -2.21247,-7.537938" />
    <text
       xml:space="preserve"
       style="font-style:italic;font-variant:normal;font-weight:400;font-size:9.33333px;line-height:125%;font-family:'Latin Modern Math';text-align:start;letter-spacing:0px;word-spacing:0px;text-anchor:start;fill:#000000;fill-opacity:1;stroke:none"
       x="312.00369"
       y="25.677885"
       id="text7103"><tspan
         sodipodi:role="line"
         x="312.00369"
         y="25.677885"
         id="tspan7101"
         style="font-size:9.33333px"><tspan
           dx="0"
           dy="0"
           style="font-style:italic;font-variant:normal;font-weight:400;font-size:9.33333px;font-family:'Latin Modern Math';fill:#000000"
           id="tspan7097"></tspan><tspan
           dx="0"
           dy="0"
           style="font-style:normal;font-variant:normal;font-weight:400;font-size:9.33333px;fill:#000000"
           id="tspan7099"> </tspan></tspan></text>
  </g>
</svg>
