<?xml version="1.0" encoding="UTF-8" standalone="no"?>
<svg
   xmlns:dc="http://purl.org/dc/elements/1.1/"
   xmlns:cc="http://creativecommons.org/ns#"
   xmlns:rdf="http://www.w3.org/1999/02/22-rdf-syntax-ns#"
   xmlns:svg="http://www.w3.org/2000/svg"
   xmlns="http://www.w3.org/2000/svg"
   xmlns:xlink="http://www.w3.org/1999/xlink"
   xmlns:sodipodi="http://sodipodi.sourceforge.net/DTD/sodipodi-0.dtd"
   xmlns:inkscape="http://www.inkscape.org/namespaces/inkscape"
   version="1.1"
   id="svg2859"
   width="191.5544"
   height="175.60953"
   viewBox="0 0 191.5544 175.60953"
   sodipodi:docname="fig06.13.svg"
   inkscape:version="1.0.2 (e86c870879, 2021-01-15, custom)">
  <metadata
     id="metadata2865">
    <rdf:RDF>
      <cc:Work
         rdf:about="">
        <dc:format>image/svg+xml</dc:format>
        <dc:type
           rdf:resource="http://purl.org/dc/dcmitype/StillImage" />
        <dc:title></dc:title>
      </cc:Work>
    </rdf:RDF>
  </metadata>
  <defs
     id="defs2863">
    <marker
       style="overflow:visible"
       id="marker3650"
       refX="0"
       refY="0"
       orient="auto"
       inkscape:stockid="Arrow1Mend"
       inkscape:isstock="true">
      <path
         transform="matrix(-0.4,0,0,-0.4,-4,0)"
         style="fill:#000000;fill-opacity:1;fill-rule:evenodd;stroke:#000000;stroke-width:1pt;stroke-opacity:1"
         d="M 0,0 5,-5 -12.5,0 5,5 Z"
         id="path3648" />
    </marker>
    <marker
       style="overflow:visible"
       id="marker3640"
       refX="0"
       refY="0"
       orient="auto"
       inkscape:stockid="Arrow1Mend"
       inkscape:isstock="true">
      <path
         transform="matrix(-0.4,0,0,-0.4,-4,0)"
         style="fill:#000000;fill-opacity:1;fill-rule:evenodd;stroke:#000000;stroke-width:1pt;stroke-opacity:1"
         d="M 0,0 5,-5 -12.5,0 5,5 Z"
         id="path3638" />
    </marker>
    <g
       id="g8240">
      <symbol
         overflow="visible"
         id="symbol9452">
        <path
           style="stroke:none"
           d=""
           id="path5768" />
      </symbol>
      <symbol
         overflow="visible"
         id="symbol2370">
        <path
           style="stroke:none"
           d="m 4.078125,-2.296875 h 2.78125 C 7,-2.296875 7.1875,-2.296875 7.1875,-2.5 7.1875,-2.6875 7,-2.6875 6.859375,-2.6875 h -2.78125 v -2.796875 c 0,-0.140625 0,-0.328125 -0.203125,-0.328125 -0.203125,0 -0.203125,0.1875 -0.203125,0.328125 V -2.6875 h -2.78125 c -0.140625,0 -0.328125,0 -0.328125,0.1875 0,0.203125 0.1875,0.203125 0.328125,0.203125 h 2.78125 V 0.5 c 0,0.140625 0,0.328125 0.203125,0.328125 0.203125,0 0.203125,-0.1875 0.203125,-0.328125 z m 0,0"
           id="path845" />
      </symbol>
      <symbol
         overflow="visible"
         id="symbol3196">
        <path
           style="stroke:none"
           d="m 1.265625,-0.765625 1.0625,-1.03125 c 1.546875,-1.375 2.140625,-1.90625 2.140625,-2.90625 0,-1.140625 -0.890625,-1.9375 -2.109375,-1.9375 -1.125,0 -1.859375,0.921875 -1.859375,1.8125 0,0.546875 0.5,0.546875 0.53125,0.546875 0.171875,0 0.515625,-0.109375 0.515625,-0.53125 0,-0.25 -0.1875,-0.515625 -0.53125,-0.515625 -0.078125,0 -0.09375,0 -0.125,0.015625 0.21875,-0.65625 0.765625,-1.015625 1.34375,-1.015625 0.90625,0 1.328125,0.8125 1.328125,1.625 C 3.5625,-3.90625 3.078125,-3.125 2.515625,-2.5 l -1.90625,2.125 C 0.5,-0.265625 0.5,-0.234375 0.5,0 H 4.203125 L 4.46875,-1.734375 H 4.234375 C 4.171875,-1.4375 4.109375,-1 4,-0.84375 3.9375,-0.765625 3.28125,-0.765625 3.0625,-0.765625 Z m 0,0"
           id="path5732" />
      </symbol>
      <symbol
         overflow="visible"
         id="symbol3250">
        <path
           style="stroke:none"
           d=""
           id="path456" />
      </symbol>
      <symbol
         overflow="visible"
         id="symbol325">
        <path
           style="stroke:none"
           d="m 2.578125,-6.8125 c 0,0 0,-0.109375 -0.140625,-0.109375 -0.21875,0 -0.953125,0.078125 -1.21875,0.109375 -0.078125,0 -0.1875,0.015625 -0.1875,0.203125 0,0.109375 0.109375,0.109375 0.25,0.109375 0.484375,0 0.5,0.09375 0.5,0.171875 L 1.75,-6.125 0.484375,-1.140625 C 0.453125,-1.03125 0.4375,-0.96875 0.4375,-0.8125 c 0,0.578125 0.4375,0.921875 0.90625,0.921875 0.328125,0 0.578125,-0.203125 0.75,-0.5625 0.171875,-0.375 0.296875,-0.953125 0.296875,-0.96875 0,-0.109375 -0.09375,-0.109375 -0.125,-0.109375 -0.09375,0 -0.109375,0.046875 -0.125,0.1875 C 1.96875,-0.703125 1.78125,-0.109375 1.375,-0.109375 c -0.296875,0 -0.296875,-0.3125 -0.296875,-0.453125 0,-0.25 0.015625,-0.296875 0.0625,-0.484375 z m 0,0"
           id="path299" />
      </symbol>
    </g>
    <g
       id="g9276">
      <symbol
         overflow="visible"
         id="symbol4732">
        <path
           style="stroke:none"
           d=""
           id="path4004" />
      </symbol>
      <symbol
         overflow="visible"
         id="symbol9241">
        <path
           style="stroke:none"
           d="m 6.5625,-2.296875 c 0.171875,0 0.359375,0 0.359375,-0.203125 0,-0.1875 -0.1875,-0.1875 -0.359375,-0.1875 H 1.171875 c -0.171875,0 -0.34375,0 -0.34375,0.1875 0,0.203125 0.171875,0.203125 0.34375,0.203125 z m 0,0"
           id="path9793" />
      </symbol>
      <symbol
         overflow="visible"
         id="symbol3211">
        <path
           style="stroke:none"
           d=""
           id="path7685" />
      </symbol>
      <symbol
         overflow="visible"
         id="symbol3096">
        <path
           style="stroke:none"
           d="m 2.578125,-6.8125 c 0,0 0,-0.109375 -0.140625,-0.109375 -0.21875,0 -0.953125,0.078125 -1.21875,0.109375 -0.078125,0 -0.1875,0.015625 -0.1875,0.203125 0,0.109375 0.109375,0.109375 0.25,0.109375 0.484375,0 0.5,0.09375 0.5,0.171875 L 1.75,-6.125 0.484375,-1.140625 C 0.453125,-1.03125 0.4375,-0.96875 0.4375,-0.8125 c 0,0.578125 0.4375,0.921875 0.90625,0.921875 0.328125,0 0.578125,-0.203125 0.75,-0.5625 0.171875,-0.375 0.296875,-0.953125 0.296875,-0.96875 0,-0.109375 -0.09375,-0.109375 -0.125,-0.109375 -0.09375,0 -0.109375,0.046875 -0.125,0.1875 C 1.96875,-0.703125 1.78125,-0.109375 1.375,-0.109375 c -0.296875,0 -0.296875,-0.3125 -0.296875,-0.453125 0,-0.25 0.015625,-0.296875 0.0625,-0.484375 z m 0,0"
           id="path3442" />
      </symbol>
      <symbol
         overflow="visible"
         id="symbol382">
        <path
           style="stroke:none"
           d=""
           id="path6818" />
      </symbol>
      <symbol
         overflow="visible"
         id="symbol4399">
        <path
           style="stroke:none"
           d="m 1.265625,-0.765625 1.0625,-1.03125 c 1.546875,-1.375 2.140625,-1.90625 2.140625,-2.90625 0,-1.140625 -0.890625,-1.9375 -2.109375,-1.9375 -1.125,0 -1.859375,0.921875 -1.859375,1.8125 0,0.546875 0.5,0.546875 0.53125,0.546875 0.171875,0 0.515625,-0.109375 0.515625,-0.53125 0,-0.25 -0.1875,-0.515625 -0.53125,-0.515625 -0.078125,0 -0.09375,0 -0.125,0.015625 0.21875,-0.65625 0.765625,-1.015625 1.34375,-1.015625 0.90625,0 1.328125,0.8125 1.328125,1.625 C 3.5625,-3.90625 3.078125,-3.125 2.515625,-2.5 l -1.90625,2.125 C 0.5,-0.265625 0.5,-0.234375 0.5,0 H 4.203125 L 4.46875,-1.734375 H 4.234375 C 4.171875,-1.4375 4.109375,-1 4,-0.84375 3.9375,-0.765625 3.28125,-0.765625 3.0625,-0.765625 Z m 0,0"
           id="path4882" />
      </symbol>
    </g>
    <g
       id="g9878">
      <symbol
         overflow="visible"
         id="symbol283">
        <path
           style="stroke:none"
           d=""
           id="path9485" />
      </symbol>
      <symbol
         overflow="visible"
         id="symbol7495">
        <path
           style="stroke:none"
           d="m 6.5625,-2.296875 c 0.171875,0 0.359375,0 0.359375,-0.203125 0,-0.1875 -0.1875,-0.1875 -0.359375,-0.1875 H 1.171875 c -0.171875,0 -0.34375,0 -0.34375,0.1875 0,0.203125 0.171875,0.203125 0.34375,0.203125 z m 0,0"
           id="path7105" />
      </symbol>
      <symbol
         overflow="visible"
         id="symbol9806">
        <path
           style="stroke:none"
           d=""
           id="path8794" />
      </symbol>
      <symbol
         overflow="visible"
         id="symbol2234">
        <path
           style="stroke:none"
           d="m 2.578125,-6.8125 c 0,0 0,-0.109375 -0.140625,-0.109375 -0.21875,0 -0.953125,0.078125 -1.21875,0.109375 -0.078125,0 -0.1875,0.015625 -0.1875,0.203125 0,0.109375 0.109375,0.109375 0.25,0.109375 0.484375,0 0.5,0.09375 0.5,0.171875 L 1.75,-6.125 0.484375,-1.140625 C 0.453125,-1.03125 0.4375,-0.96875 0.4375,-0.8125 c 0,0.578125 0.4375,0.921875 0.90625,0.921875 0.328125,0 0.578125,-0.203125 0.75,-0.5625 0.171875,-0.375 0.296875,-0.953125 0.296875,-0.96875 0,-0.109375 -0.09375,-0.109375 -0.125,-0.109375 -0.09375,0 -0.109375,0.046875 -0.125,0.1875 C 1.96875,-0.703125 1.78125,-0.109375 1.375,-0.109375 c -0.296875,0 -0.296875,-0.3125 -0.296875,-0.453125 0,-0.25 0.015625,-0.296875 0.0625,-0.484375 z m 0,0"
           id="path1229" />
      </symbol>
      <symbol
         overflow="visible"
         id="symbol7825">
        <path
           style="stroke:none"
           d=""
           id="path2999" />
      </symbol>
      <symbol
         overflow="visible"
         id="symbol5844">
        <path
           style="stroke:none"
           d="m 1.265625,-0.765625 1.0625,-1.03125 c 1.546875,-1.375 2.140625,-1.90625 2.140625,-2.90625 0,-1.140625 -0.890625,-1.9375 -2.109375,-1.9375 -1.125,0 -1.859375,0.921875 -1.859375,1.8125 0,0.546875 0.5,0.546875 0.53125,0.546875 0.171875,0 0.515625,-0.109375 0.515625,-0.53125 0,-0.25 -0.1875,-0.515625 -0.53125,-0.515625 -0.078125,0 -0.09375,0 -0.125,0.015625 0.21875,-0.65625 0.765625,-1.015625 1.34375,-1.015625 0.90625,0 1.328125,0.8125 1.328125,1.625 C 3.5625,-3.90625 3.078125,-3.125 2.515625,-2.5 l -1.90625,2.125 C 0.5,-0.265625 0.5,-0.234375 0.5,0 H 4.203125 L 4.46875,-1.734375 H 4.234375 C 4.171875,-1.4375 4.109375,-1 4,-0.84375 3.9375,-0.765625 3.28125,-0.765625 3.0625,-0.765625 Z m 0,0"
           id="path5511" />
      </symbol>
    </g>
  </defs>
  <sodipodi:namedview
     pagecolor="#ffffff"
     bordercolor="#666666"
     borderopacity="1"
     objecttolerance="10"
     gridtolerance="10"
     guidetolerance="10"
     inkscape:pageopacity="0"
     inkscape:pageshadow="2"
     inkscape:window-width="1920"
     inkscape:window-height="1001"
     id="namedview2861"
     showgrid="false"
     showguides="true"
     inkscape:guide-bbox="true"
     inkscape:object-paths="true"
     inkscape:snap-intersection-paths="true"
     inkscape:snap-smooth-nodes="true"
     inkscape:snap-midpoints="true"
     inkscape:zoom="4.4628718"
     inkscape:cx="95.777195"
     inkscape:cy="89.740423"
     inkscape:window-x="-9"
     inkscape:window-y="-9"
     inkscape:window-maximized="1"
     inkscape:current-layer="g2867"
     inkscape:document-rotation="0">
    <sodipodi:guide
       position="71.646911,52.765701"
       orientation="0,-1"
       id="guide3436" />
    <sodipodi:guide
       position="160.32466,52.765701"
       orientation="1,0"
       id="guide3451" />
    <sodipodi:guide
       position="19.67353,52.765701"
       orientation="1,0"
       id="guide3453" />
    <sodipodi:guide
       position="126.85028,148.49068"
       orientation="0,-1"
       id="guide3455" />
    <sodipodi:guide
       position="33.85819,8.6753809"
       orientation="0,-1"
       id="guide3820" />
    <sodipodi:guide
       position="-191.7436,409.53213"
       orientation="0,415.13513"
       id="guide3826" />
    <sodipodi:guide
       position="223.39153,409.53213"
       orientation="591.56757,0"
       id="guide3828" />
    <sodipodi:guide
       position="223.39153,-182.03545"
       orientation="0,-415.13513"
       id="guide3830" />
    <sodipodi:guide
       position="-191.7436,-182.03545"
       orientation="-591.56757,0"
       id="guide3832" />
  </sodipodi:namedview>
  <g
     inkscape:groupmode="layer"
     inkscape:label="Image"
     id="g2867"
     transform="translate(-191.7436,-233.92259)">
    <path
       style="fill:none;stroke:#000000;stroke-width:0.5;stroke-linecap:butt;stroke-linejoin:miter;stroke-miterlimit:4;stroke-dasharray:none;stroke-opacity:1;marker-end:url(#marker3640)"
       d="M 191.7436,387.01081 H 382.31265"
       id="path3432" />
    <path
       style="fill:none;stroke:#000000;stroke-width:0.5;stroke-linecap:butt;stroke-linejoin:miter;stroke-miterlimit:4;stroke-dasharray:none;stroke-opacity:1;marker-end:url(#marker3650)"
       d="M 281.88951,391.41533 V 234.90793"
       id="path3434" />
    <path
       style="fill:none;stroke:#000000;stroke-width:1px;stroke-linecap:butt;stroke-linejoin:miter;stroke-opacity:1"
       d="M 211.41713,387.01081 V 261.04144"
       id="path3457" />
    <path
       style="fill:none;stroke:#000000;stroke-width:1px;stroke-linecap:butt;stroke-linejoin:miter;stroke-opacity:1"
       d="M 352.06826,387.01081 V 261.04144"
       id="path3459" />
    <g
       inkscape:label=""
       transform="matrix(0.93042782,0,0,0.93042782,258.21499,323.47494)"
       id="g3492"
       style="stroke-width:1.07477">
      <g
         id="g3613"
         style="stroke-width:1.07477">
        <g
           style="fill:#000000;fill-opacity:1;stroke-width:1.07477"
           id="g4100">
          <use
             xlink:href="#symbol2370"
             x="91.925003"
             y="85.658997"
             id="use4902"
             width="100%"
             height="100%"
             style="stroke-width:1.07477" />
        </g>
        <g
           style="fill:#000000;fill-opacity:1;stroke-width:1.07477"
           id="g5930">
          <use
             xlink:href="#symbol325"
             x="101.776"
             y="78.918999"
             id="use4479"
             width="100%"
             height="100%"
             style="stroke-width:1.07477" />
        </g>
        <path
           style="fill:none;stroke:#000000;stroke-width:0.42776;stroke-linecap:butt;stroke-linejoin:miter;stroke-miterlimit:10;stroke-opacity:1"
           d="M 0.00109375,3.125e-5 H 4.981563"
           transform="matrix(1,0,0,-1,100.87,83.168)"
           id="path1099" />
        <g
           style="fill:#000000;fill-opacity:1;stroke-width:1.07477"
           id="g2670">
          <use
             xlink:href="#symbol3196"
             x="100.87"
             y="92.491997"
             id="use139"
             width="100%"
             height="100%"
             style="stroke-width:1.07477" />
        </g>
      </g>
    </g>
    <g
       inkscape:label=""
       transform="matrix(0.9304332,0,0,0.9304332,117.43975,323.4745)"
       id="g3574"
       style="stroke-width:1.07477">
      <g
         id="g7271"
         style="stroke-width:1.07477">
        <g
           style="fill:#000000;fill-opacity:1;stroke-width:1.07477"
           id="g5182">
          <use
             xlink:href="#symbol9241"
             x="91.925003"
             y="85.658997"
             id="use3059"
             width="100%"
             height="100%"
             style="stroke-width:1.07477" />
        </g>
        <g
           style="fill:#000000;fill-opacity:1;stroke-width:1.07477"
           id="g5571">
          <use
             xlink:href="#symbol3096"
             x="101.776"
             y="78.918999"
             id="use861"
             width="100%"
             height="100%"
             style="stroke-width:1.07477" />
        </g>
        <path
           style="fill:none;stroke:#000000;stroke-width:0.427758;stroke-linecap:butt;stroke-linejoin:miter;stroke-miterlimit:10;stroke-opacity:1"
           d="M 0.00109375,3.125e-5 H 4.981563"
           transform="matrix(1,0,0,-1,100.87,83.168)"
           id="path8027" />
        <g
           style="fill:#000000;fill-opacity:1;stroke-width:1.07477"
           id="g5964">
          <use
             xlink:href="#symbol4399"
             x="100.87"
             y="92.491997"
             id="use5075"
             width="100%"
             height="100%"
             style="stroke-width:1.07477" />
        </g>
      </g>
    </g>
    <text
       xml:space="preserve"
       style="font-style:italic;font-size:9.33332px;line-height:1.25;font-family:'Latin Modern Roman';-inkscape-font-specification:'Latin Modern Roman, Italic'"
       x="370.45224"
       y="402.00888"
       id="text3608"><tspan
         sodipodi:role="line"
         id="tspan3606"
         x="370.45224"
         y="402.00888">x</tspan></text>
    <text
       xml:space="preserve"
       style="font-style:italic;font-size:9.33332px;line-height:1.25;font-family:'Latin Modern Roman';-inkscape-font-specification:'Latin Modern Roman, Italic'"
       x="286.88132"
       y="247.24059"
       id="text3612"><tspan
         sodipodi:role="line"
         id="tspan3610"
         x="286.88132"
         y="247.24059">V<tspan
   style="font-style:normal;font-variant:normal;font-weight:normal;font-stretch:normal;font-family:'Latin Modern Roman';-inkscape-font-specification:'Latin Modern Roman, '"
   id="tspan3616">(</tspan>x<tspan
   style="font-style:normal;font-variant:normal;font-weight:normal;font-stretch:normal;font-family:'Latin Modern Roman';-inkscape-font-specification:'Latin Modern Roman, '"
   id="tspan3614">)</tspan></tspan></text>
    <text
       xml:space="preserve"
       style="font-style:italic;font-size:9.33332px;line-height:1.25;font-family:'Latin Modern Roman';-inkscape-font-specification:'Latin Modern Roman, Italic'"
       x="277.62585"
       y="403.18488"
       id="text3824"><tspan
         sodipodi:role="line"
         id="tspan3822"
         x="277.62585"
         y="403.18488">O</tspan></text>
  </g>
</svg>
