<?xml version="1.0" encoding="UTF-8" standalone="no"?>
<svg
   xmlns:ns4="http://www.iki.fi/pav/software/textext/"
   xmlns:dc="http://purl.org/dc/elements/1.1/"
   xmlns:cc="http://creativecommons.org/ns#"
   xmlns:rdf="http://www.w3.org/1999/02/22-rdf-syntax-ns#"
   xmlns:svg="http://www.w3.org/2000/svg"
   xmlns="http://www.w3.org/2000/svg"
   xmlns:sodipodi="http://sodipodi.sourceforge.net/DTD/sodipodi-0.dtd"
   xmlns:inkscape="http://www.inkscape.org/namespaces/inkscape"
   version="1.1"
   id="svg331"
   width="217.17407"
   height="150.71124"
   viewBox="0 0 217.17407 150.71124"
   sodipodi:docname="fig07.09.svg"
   inkscape:version="1.0.2-2 (e86c870879, 2021-01-15)">
  <metadata
     id="metadata337">
    <rdf:RDF>
      <cc:Work
         rdf:about="">
        <dc:format>image/svg+xml</dc:format>
        <dc:type
           rdf:resource="http://purl.org/dc/dcmitype/StillImage" />
        <dc:title></dc:title>
      </cc:Work>
    </rdf:RDF>
  </metadata>
  <defs
     id="defs335">
    <marker
       style="overflow:visible"
       id="Arrow1Mstart"
       refX="0"
       refY="0"
       orient="auto"
       inkscape:stockid="Arrow1Mstart"
       inkscape:isstock="true">
      <path
         transform="matrix(0.4,0,0,0.4,4,0)"
         style="fill:#000000;fill-opacity:1;fill-rule:evenodd;stroke:#000000;stroke-width:1pt;stroke-opacity:1"
         d="M 0,0 5,-5 -12.5,0 5,5 Z"
         id="path1238" />
    </marker>
    <marker
       style="overflow:visible"
       id="Arrow1Mend"
       refX="0"
       refY="0"
       orient="auto"
       inkscape:stockid="Arrow1Mend"
       inkscape:isstock="true">
      <path
         transform="matrix(-0.4,0,0,-0.4,-4,0)"
         style="fill:#000000;fill-opacity:1;fill-rule:evenodd;stroke:#000000;stroke-width:1pt;stroke-opacity:1"
         d="M 0,0 5,-5 -12.5,0 5,5 Z"
         id="path1241" />
    </marker>
    <marker
       style="overflow:visible"
       id="Arrow1Lstart"
       refX="0"
       refY="0"
       orient="auto"
       inkscape:stockid="Arrow1Lstart"
       inkscape:isstock="true">
      <path
         transform="matrix(0.8,0,0,0.8,10,0)"
         style="fill:#000000;fill-opacity:1;fill-rule:evenodd;stroke:#000000;stroke-width:1pt;stroke-opacity:1"
         d="M 0,0 5,-5 -12.5,0 5,5 Z"
         id="path1232" />
    </marker>
  </defs>
  <sodipodi:namedview
     pagecolor="#ffffff"
     bordercolor="#666666"
     borderopacity="1"
     objecttolerance="10"
     gridtolerance="10"
     guidetolerance="10"
     inkscape:pageopacity="0"
     inkscape:pageshadow="2"
     inkscape:window-width="1920"
     inkscape:window-height="1001"
     id="namedview333"
     showgrid="false"
     inkscape:snap-smooth-nodes="true"
     inkscape:object-paths="true"
     inkscape:snap-intersection-paths="true"
     inkscape:snap-midpoints="true"
     inkscape:zoom="5.3147993"
     inkscape:cx="108.58703"
     inkscape:cy="75.35562"
     inkscape:window-x="-9"
     inkscape:window-y="-9"
     inkscape:window-maximized="1"
     inkscape:current-layer="g339"
     showguides="true"
     inkscape:guide-bbox="true"
     inkscape:document-rotation="0">
    <sodipodi:guide
       position="7.1040756,46.87364"
       orientation="1,0"
       id="guide385" />
    <sodipodi:guide
       position="82.432494,194.8532"
       orientation="1,0"
       id="guide389" />
    <sodipodi:guide
       position="205.32405,15.02355"
       orientation="1,0"
       id="guide1230" />
  </sodipodi:namedview>
  <g
     inkscape:groupmode="layer"
     inkscape:label="Image"
     id="g339"
     transform="translate(-166.4893,-20.502574)">
    <path
       style="fill:none;stroke:#000000;stroke-width:1px;stroke-linecap:butt;stroke-linejoin:miter;stroke-opacity:1"
       d="m 173.59338,124.34018 c 57.94494,0 59.15476,-10.14036 75.56986,-10.14036 16.4151,0 32.59403,41.04433 122.65012,42.97583"
       id="path343"
       sodipodi:nodetypes="czc" />
    <path
       style="fill:none;stroke:#000000;stroke-width:1px;stroke-linecap:butt;stroke-linejoin:miter;stroke-opacity:1"
       d="m 173.59338,124.34018 c 68.80962,0 58.91332,-37.084109 75.32842,-37.084109 16.4151,0 26.31666,60.311269 122.89156,68.409989"
       id="path343-6"
       sodipodi:nodetypes="czc" />
    <path
       id="path343-6-5"
       style="fill:none;stroke:#000000;stroke-width:1px;stroke-linecap:butt;stroke-linejoin:miter;stroke-opacity:1"
       d="m 259.38593,35.623037 c 7.74237,46.863317 30.0443,104.637443 112.42743,118.559773"
       sodipodi:nodetypes="cc" />
    <path
       id="path395"
       style="fill:none;stroke:#000000;stroke-width:1px;stroke-linecap:butt;stroke-linejoin:miter;stroke-opacity:1"
       d="m 173.59338,124.34018 c 53.63061,0 53.42135,-38.720151 60.51964,-76.547731"
       sodipodi:nodetypes="cc" />
    <path
       style="fill:none;stroke:#000000;stroke-width:0.5;stroke-linecap:butt;stroke-linejoin:miter;stroke-miterlimit:4;stroke-dasharray:none;stroke-opacity:1;marker-start:url(#Arrow1Mstart);marker-end:url(#Arrow1Mend)"
       d="M 173.59338,21.487915 V 161.03864 h 209.08465"
       id="path387" />
    <path
       style="fill:none;stroke:#000000;stroke-width:0.5;stroke-linecap:butt;stroke-linejoin:miter;stroke-miterlimit:4;stroke-dasharray:4, 2;stroke-dashoffset:0;stroke-opacity:1"
       d="M 248.9218,161.03864 V 28.078918"
       id="path391" />
    <text
       xml:space="preserve"
       style="font-style:italic;font-size:9.33333px;line-height:1.25;font-family:'Latin Modern Roman';-inkscape-font-specification:'Latin Modern Roman, Italic'"
       x="179.07059"
       y="37.873604"
       id="text1580"><tspan
         sodipodi:role="line"
         id="tspan1578"
         x="179.07059"
         y="37.873604"
         style="font-style:normal;font-variant:normal;font-weight:normal;font-stretch:normal;font-family:FZShuSong-Z01;-inkscape-font-specification:FZShuSong-Z01">振幅</tspan></text>
    <text
       xml:space="preserve"
       style="font-style:italic;font-variant:normal;font-weight:normal;font-stretch:normal;font-size:9.33332px;line-height:1.25;font-family:'Latin Modern Math';-inkscape-font-specification:'Latin Modern Math Italic';stroke-width:0.999999"
       x="245.42679"
       y="169.21368"
       id="text1074"><tspan
         sodipodi:role="line"
         id="tspan1076"
         x="245.42679"
         y="169.21368"
         style="stroke-width:0.999999">ω<tspan
   style="font-style:normal;font-variant:normal;font-weight:normal;font-stretch:normal;font-size:65%;font-family:'Latin Modern Math';-inkscape-font-specification:'Latin Modern Math';baseline-shift:sub"
   id="tspan1606">0</tspan></tspan></text>
    <text
       xml:space="preserve"
       style="font-style:italic;font-variant:normal;font-weight:normal;font-stretch:normal;font-size:9.33332px;line-height:1.25;font-family:'Latin Modern Math';-inkscape-font-specification:'Latin Modern Math Italic';stroke-width:0.999999"
       x="367.07608"
       y="169.03917"
       id="text1074-6"><tspan
         sodipodi:role="line"
         id="tspan1076-6"
         x="367.07608"
         y="169.03917"
         style="stroke-width:0.999999">ω</tspan></text>
    <text
       xml:space="preserve"
       style="font-style:italic;font-size:9.33333px;line-height:1.25;font-family:'Latin Modern Roman';-inkscape-font-specification:'Latin Modern Roman, Italic'"
       x="165.10797"
       y="169.64583"
       id="text1622"><tspan
         sodipodi:role="line"
         id="tspan1620"
         x="165.10797"
         y="169.64583">O</tspan></text>
    <text
       xml:space="preserve"
       style="font-style:italic;font-size:9.33333px;line-height:1.25;font-family:'Latin Modern Roman';-inkscape-font-specification:'Latin Modern Roman, Italic'"
       x="237.88812"
       y="109.60657"
       id="text1626"><tspan
         sodipodi:role="line"
         id="tspan1624"
         x="237.88812"
         y="109.60657">Q<tspan
   style="font-style:normal;font-variant:normal;font-weight:normal;font-stretch:normal;font-size:65%;font-family:'Latin Modern Roman';-inkscape-font-specification:'Latin Modern Roman, ';baseline-shift:sub"
   id="tspan1628">1</tspan></tspan></text>
    <text
       xml:space="preserve"
       style="font-style:italic;font-size:9.33333px;line-height:1.25;font-family:'Latin Modern Roman';-inkscape-font-specification:'Latin Modern Roman, Italic'"
       x="252.1998"
       y="83.252113"
       id="text1632"><tspan
         sodipodi:role="line"
         id="tspan1630"
         x="252.1998"
         y="83.252113">Q<tspan
   style="font-style:normal;font-variant:normal;font-weight:normal;font-stretch:normal;font-size:65%;font-family:'Latin Modern Roman';-inkscape-font-specification:'Latin Modern Roman, ';baseline-shift:sub"
   id="tspan1634">2</tspan></tspan></text>
    <g
       transform="matrix(0.89848726,0,0,0.89848726,267.72007,38.676981)"
       ns4:version="1.3.1"
       ns4:texconverter="xelatex"
       ns4:pdfconverter="inkscape"
       ns4:text="$Q _ 3=\\infty$"
       ns4:preamble="C:\Users\Qian\AppData\Roaming\inkscape\extensions\textext\default_packages.tex"
       ns4:scale="1.0"
       ns4:alignment="middle center"
       ns4:jacobian_sqrt="1.33333"
       id="g1709"
       style="stroke-width:1.48398">
      <defs
         id="id-77dd5a4b-2b0a-43b7-a6d4-c911aaa10cb8">
        <g
           id="id-b065066c-48ef-4fda-be2c-aa2f4fdea0e2">
          <symbol
             overflow="visible"
             id="id-57d13d47-7451-479b-9ba4-c456617e299b">
            <path
               style="stroke:none;stroke-width:0"
               d=""
               id="id-ce4641e3-dd5e-4fd4-9135-54717d0ea4b0" />
          </symbol>
          <symbol
             overflow="visible"
             id="id-46457755-882d-45f0-bd53-89bbc14e9be1">
            <path
               style="stroke:none;stroke-width:0"
               d="m 7.375,-4.34375 c 0,-1.609375 -1.0625,-2.6875 -2.546875,-2.6875 -2.140625,0 -4.34375,2.265625 -4.34375,4.59375 0,1.65625 1.125,2.65625 2.5625,2.65625 0.25,0 0.578125,-0.046875 0.96875,-0.15625 -0.03125,0.625 -0.03125,0.640625 -0.03125,0.78125 0,0.3125 0,1.09375 0.828125,1.09375 1.171875,0 1.65625,-1.828125 1.65625,-1.9375 0,-0.0625 -0.0625,-0.09375 -0.109375,-0.09375 -0.078125,0 -0.09375,0.046875 -0.125,0.109375 C 6,0.71875 5.421875,0.96875 5.078125,0.96875 4.609375,0.96875 4.46875,0.703125 4.359375,-0.0625 5.90625,-0.640625 7.375,-2.421875 7.375,-4.34375 Z M 6.5,-4.671875 c 0,1 -0.515625,3.34375 -2.1875,4.265625 -0.046875,-0.34375 -0.140625,-1.0625 -0.875,-1.0625 -0.53125,0 -1.015625,0.484375 -1.015625,1.015625 0,0.1875 0.0625,0.3125 0.0625,0.3125 -0.78125,-0.3125 -1.125,-1.078125 -1.125,-1.984375 0,-0.6875 0.265625,-2.109375 1.015625,-3.171875 C 3.109375,-6.3125 4.046875,-6.78125 4.78125,-6.78125 5.765625,-6.78125 6.5,-6 6.5,-4.671875 Z M 4.046875,-0.40625 c 0,0.140625 -0.015625,0.15625 -0.109375,0.203125 -0.265625,0.109375 -0.5625,0.171875 -0.84375,0.171875 -0.140625,0 -0.453125,0 -0.453125,-0.421875 0,-0.40625 0.375,-0.796875 0.796875,-0.796875 0.421875,0 0.609375,0.234375 0.609375,0.84375 z m 0,0"
               id="id-955677e4-55e4-4591-b55b-e09376fac9cb" />
          </symbol>
          <symbol
             overflow="visible"
             id="id-d0272baf-0c10-4972-96e2-cc9fba67eedc">
            <path
               style="stroke:none;stroke-width:0"
               d="M 7.203125,-3.453125 C 7.203125,-3.5625 7.109375,-3.65625 7,-3.65625 H 0.75 c -0.109375,0 -0.1875,0.09375 -0.1875,0.203125 0,0.109375 0.078125,0.1875 0.1875,0.1875 H 7 c 0.109375,0 0.203125,-0.078125 0.203125,-0.1875 z m 0,1.921875 c 0,-0.109375 -0.09375,-0.1875 -0.203125,-0.1875 H 0.75 c -0.109375,0 -0.1875,0.078125 -0.1875,0.1875 0,0.109375 0.078125,0.203125 0.1875,0.203125 H 7 c 0.109375,0 0.203125,-0.09375 0.203125,-0.203125 z m 0,0"
               id="id-5d1f20f7-3587-4c26-acb1-b2ed9cc369fc" />
          </symbol>
          <symbol
             overflow="visible"
             id="id-1bff40ad-b66c-4d6c-92a7-31e94e7705e1">
            <path
               style="stroke:none;stroke-width:0"
               d="m 9.40625,-2.15625 c 0,-1.109375 -0.703125,-2.25 -1.890625,-2.25 -1.4375,0 -2.328125,1.46875 -2.453125,1.6875 -0.671875,-0.796875 -0.671875,-0.8125 -0.890625,-1 -0.328125,-0.265625 -0.90625,-0.6875 -1.703125,-0.6875 -1.15625,0 -1.90625,1.09375 -1.90625,2.265625 0,1.109375 0.6875,2.25 1.875,2.25 1.4375,0 2.328125,-1.46875 2.453125,-1.6875 0.671875,0.796875 0.6875,0.8125 0.90625,1 0.3125,0.265625 0.90625,0.6875 1.6875,0.6875 1.15625,0 1.921875,-1.09375 1.921875,-2.265625 z m -0.21875,0 c 0,1 -0.703125,1.78125 -1.546875,1.78125 -0.453125,0 -0.859375,-0.21875 -1.3125,-0.71875 -0.28125,-0.296875 -0.71875,-0.9375 -1,-1.265625 0.375,-0.6875 1.125,-1.734375 2.265625,-1.734375 1.046875,0 1.59375,1.046875 1.59375,1.9375 z M 4.640625,-1.9375 C 4.25,-1.25 3.5,-0.203125 2.375,-0.203125 c -1.0625,0 -1.59375,-1.046875 -1.59375,-1.9375 0,-1 0.6875,-1.78125 1.53125,-1.78125 0.453125,0 0.875,0.21875 1.3125,0.71875 0.28125,0.296875 0.734375,0.9375 1.015625,1.265625 z m 0,0"
               id="id-753c8d1d-3f73-4347-88df-92ae6db629e7" />
          </symbol>
          <symbol
             overflow="visible"
             id="id-5490a6c5-61e6-41e2-86ab-4fd889a87cdc">
            <path
               style="stroke:none;stroke-width:0"
               d=""
               id="id-f1032b98-6a69-4106-98a7-79d24457b135" />
          </symbol>
          <symbol
             overflow="visible"
             id="id-3aa09782-1c94-493f-948c-ba3ebfb8dd25">
            <path
               style="stroke:none;stroke-width:0"
               d="m 3.578125,-1.203125 c 0,-0.546875 -0.4375,-1.09375 -1.203125,-1.25 0.71875,-0.265625 0.984375,-0.78125 0.984375,-1.21875 0,-0.546875 -0.625,-0.953125 -1.40625,-0.953125 -0.765625,0 -1.359375,0.375 -1.359375,0.9375 0,0.234375 0.15625,0.359375 0.359375,0.359375 0.21875,0 0.359375,-0.15625 0.359375,-0.34375 0,-0.203125 -0.140625,-0.359375 -0.359375,-0.375 0.25,-0.296875 0.71875,-0.375 0.984375,-0.375 0.3125,0 0.75,0.15625 0.75,0.75 0,0.296875 -0.09375,0.625 -0.28125,0.828125 -0.21875,0.265625 -0.421875,0.28125 -0.765625,0.3125 -0.171875,0.015625 -0.1875,0.015625 -0.21875,0.015625 0,0 -0.078125,0.015625 -0.078125,0.09375 0,0.09375 0.0625,0.09375 0.1875,0.09375 h 0.375 c 0.546875,0 0.9375,0.375 0.9375,1.125 0,0.859375 -0.515625,1.125 -0.90625,1.125 -0.28125,0 -0.90625,-0.078125 -1.1875,-0.5 0.328125,0 0.40625,-0.234375 0.40625,-0.390625 0,-0.21875 -0.171875,-0.375 -0.390625,-0.375 -0.1875,0 -0.390625,0.125 -0.390625,0.40625 0,0.65625 0.71875,1.078125 1.5625,1.078125 0.96875,0 1.640625,-0.65625 1.640625,-1.34375 z m 0,0"
               id="id-9123eab9-836e-4513-875c-1d55aee97a97" />
          </symbol>
        </g>
      </defs>
      <g
         id="id-f0ab8479-081c-4c10-97b3-3bed680a4258"
         transform="translate(-149.196,-127.734)"
         style="stroke-width:1.48398">
        <g
           style="fill:#000000;fill-opacity:1;stroke-width:1.48398"
           id="id-3f48f493-78ce-49e7-9d85-b780c23dd87e">
          <g
             transform="translate(148.712,134.765)"
             id="g1693"
             style="stroke-width:1.48398">
            <path
               style="stroke:none;stroke-width:0"
               d="m 7.375,-4.34375 c 0,-1.609375 -1.0625,-2.6875 -2.546875,-2.6875 -2.140625,0 -4.34375,2.265625 -4.34375,4.59375 0,1.65625 1.125,2.65625 2.5625,2.65625 0.25,0 0.578125,-0.046875 0.96875,-0.15625 -0.03125,0.625 -0.03125,0.640625 -0.03125,0.78125 0,0.3125 0,1.09375 0.828125,1.09375 1.171875,0 1.65625,-1.828125 1.65625,-1.9375 0,-0.0625 -0.0625,-0.09375 -0.109375,-0.09375 -0.078125,0 -0.09375,0.046875 -0.125,0.109375 C 6,0.71875 5.421875,0.96875 5.078125,0.96875 4.609375,0.96875 4.46875,0.703125 4.359375,-0.0625 5.90625,-0.640625 7.375,-2.421875 7.375,-4.34375 Z M 6.5,-4.671875 c 0,1 -0.515625,3.34375 -2.1875,4.265625 -0.046875,-0.34375 -0.140625,-1.0625 -0.875,-1.0625 -0.53125,0 -1.015625,0.484375 -1.015625,1.015625 0,0.1875 0.0625,0.3125 0.0625,0.3125 -0.78125,-0.3125 -1.125,-1.078125 -1.125,-1.984375 0,-0.6875 0.265625,-2.109375 1.015625,-3.171875 C 3.109375,-6.3125 4.046875,-6.78125 4.78125,-6.78125 5.765625,-6.78125 6.5,-6 6.5,-4.671875 Z M 4.046875,-0.40625 c 0,0.140625 -0.015625,0.15625 -0.109375,0.203125 -0.265625,0.109375 -0.5625,0.171875 -0.84375,0.171875 -0.140625,0 -0.453125,0 -0.453125,-0.421875 0,-0.40625 0.375,-0.796875 0.796875,-0.796875 0.421875,0 0.609375,0.234375 0.609375,0.84375 z m 0,0"
               id="id-42bb501a-a26f-4592-9f35-b5391843bcd9" />
          </g>
        </g>
        <g
           style="fill:#000000;fill-opacity:1;stroke-width:1.48398"
           id="id-bd19a562-e4d9-42ad-a0fd-5f7a1a63c4a1">
          <g
             transform="translate(156.593,137.226)"
             id="g1697"
             style="stroke-width:1.48398">
            <path
               style="stroke:none;stroke-width:0"
               d="m 3.578125,-1.203125 c 0,-0.546875 -0.4375,-1.09375 -1.203125,-1.25 0.71875,-0.265625 0.984375,-0.78125 0.984375,-1.21875 0,-0.546875 -0.625,-0.953125 -1.40625,-0.953125 -0.765625,0 -1.359375,0.375 -1.359375,0.9375 0,0.234375 0.15625,0.359375 0.359375,0.359375 0.21875,0 0.359375,-0.15625 0.359375,-0.34375 0,-0.203125 -0.140625,-0.359375 -0.359375,-0.375 0.25,-0.296875 0.71875,-0.375 0.984375,-0.375 0.3125,0 0.75,0.15625 0.75,0.75 0,0.296875 -0.09375,0.625 -0.28125,0.828125 -0.21875,0.265625 -0.421875,0.28125 -0.765625,0.3125 -0.171875,0.015625 -0.1875,0.015625 -0.21875,0.015625 0,0 -0.078125,0.015625 -0.078125,0.09375 0,0.09375 0.0625,0.09375 0.1875,0.09375 h 0.375 c 0.546875,0 0.9375,0.375 0.9375,1.125 0,0.859375 -0.515625,1.125 -0.90625,1.125 -0.28125,0 -0.90625,-0.078125 -1.1875,-0.5 0.328125,0 0.40625,-0.234375 0.40625,-0.390625 0,-0.21875 -0.171875,-0.375 -0.390625,-0.375 -0.1875,0 -0.390625,0.125 -0.390625,0.40625 0,0.65625 0.71875,1.078125 1.5625,1.078125 0.96875,0 1.640625,-0.65625 1.640625,-1.34375 z m 0,0"
               id="id-c540497a-1c16-4728-8751-00ba48a31725" />
          </g>
        </g>
        <g
           style="fill:#000000;fill-opacity:1;stroke-width:1.48398"
           id="id-41fb5532-158b-4466-a2a3-e0d8c0e724e3">
          <g
             transform="translate(163.827,134.765)"
             id="g1701"
             style="stroke-width:1.48398">
            <path
               style="stroke:none;stroke-width:0"
               d="M 7.203125,-3.453125 C 7.203125,-3.5625 7.109375,-3.65625 7,-3.65625 H 0.75 c -0.109375,0 -0.1875,0.09375 -0.1875,0.203125 0,0.109375 0.078125,0.1875 0.1875,0.1875 H 7 c 0.109375,0 0.203125,-0.078125 0.203125,-0.1875 z m 0,1.921875 c 0,-0.109375 -0.09375,-0.1875 -0.203125,-0.1875 H 0.75 c -0.109375,0 -0.1875,0.078125 -0.1875,0.1875 0,0.109375 0.078125,0.203125 0.1875,0.203125 H 7 c 0.109375,0 0.203125,-0.09375 0.203125,-0.203125 z m 0,0"
               id="id-2068fd12-bb17-4bc0-9828-5a489beb4bb4" />
          </g>
        </g>
        <g
           style="fill:#000000;fill-opacity:1;stroke-width:1.48398"
           id="id-21be3843-3eb4-4212-9d5e-e53383cfbf77">
          <g
             transform="translate(174.338,134.765)"
             id="g1705"
             style="stroke-width:1.48398">
            <path
               style="stroke:none;stroke-width:0"
               d="m 9.40625,-2.15625 c 0,-1.109375 -0.703125,-2.25 -1.890625,-2.25 -1.4375,0 -2.328125,1.46875 -2.453125,1.6875 -0.671875,-0.796875 -0.671875,-0.8125 -0.890625,-1 -0.328125,-0.265625 -0.90625,-0.6875 -1.703125,-0.6875 -1.15625,0 -1.90625,1.09375 -1.90625,2.265625 0,1.109375 0.6875,2.25 1.875,2.25 1.4375,0 2.328125,-1.46875 2.453125,-1.6875 0.671875,0.796875 0.6875,0.8125 0.90625,1 0.3125,0.265625 0.90625,0.6875 1.6875,0.6875 1.15625,0 1.921875,-1.09375 1.921875,-2.265625 z m -0.21875,0 c 0,1 -0.703125,1.78125 -1.546875,1.78125 -0.453125,0 -0.859375,-0.21875 -1.3125,-0.71875 -0.28125,-0.296875 -0.71875,-0.9375 -1,-1.265625 0.375,-0.6875 1.125,-1.734375 2.265625,-1.734375 1.046875,0 1.59375,1.046875 1.59375,1.9375 z M 4.640625,-1.9375 C 4.25,-1.25 3.5,-0.203125 2.375,-0.203125 c -1.0625,0 -1.59375,-1.046875 -1.59375,-1.9375 0,-1 0.6875,-1.78125 1.53125,-1.78125 0.453125,0 0.875,0.21875 1.3125,0.71875 0.28125,0.296875 0.734375,0.9375 1.015625,1.265625 z m 0,0"
               id="id-4221bda6-e80c-41e6-af08-51ff09345056" />
          </g>
        </g>
      </g>
    </g>
    <text
       xml:space="preserve"
       style="font-style:italic;font-size:9.33333px;line-height:1.25;font-family:'Latin Modern Roman';-inkscape-font-specification:'Latin Modern Roman, Italic'"
       x="291.81873"
       y="73.303741"
       id="text1746"><tspan
         sodipodi:role="line"
         id="tspan1744"
         x="291.81873"
         y="73.303741"
         dx="0 0 0 2">Q<tspan
   style="font-style:normal;font-variant:normal;font-weight:normal;font-stretch:normal;font-family:'Latin Modern Roman';-inkscape-font-specification:'Latin Modern Roman, '"
   id="tspan1750"
   dx="0 2"><tspan
   style="font-size:65%;baseline-shift:sub"
   id="tspan1752">1</tspan>&lt;</tspan>Q<tspan
   style="font-style:normal;font-variant:normal;font-weight:normal;font-stretch:normal;font-size:65%;font-family:'Latin Modern Roman';-inkscape-font-specification:'Latin Modern Roman, ';baseline-shift:sub"
   id="tspan1748">2</tspan></tspan></text>
  </g>
</svg>
