<?xml version="1.0" encoding="UTF-8" standalone="no"?>
<svg
   xmlns:dc="http://purl.org/dc/elements/1.1/"
   xmlns:cc="http://creativecommons.org/ns#"
   xmlns:rdf="http://www.w3.org/1999/02/22-rdf-syntax-ns#"
   xmlns:svg="http://www.w3.org/2000/svg"
   xmlns="http://www.w3.org/2000/svg"
   xmlns:sodipodi="http://sodipodi.sourceforge.net/DTD/sodipodi-0.dtd"
   xmlns:inkscape="http://www.inkscape.org/namespaces/inkscape"
   width="210mm"
   height="297mm"
   viewBox="0 0 210 297"
   version="1.1"
   id="svg1671"
   inkscape:version="1.0.1 (3bc2e813f5, 2020-09-07)"
   sodipodi:docname="fig01.06a.svg">
  <defs
     id="defs1665">
    <marker
       style="overflow:visible"
       id="marker1220"
       refX="0"
       refY="0"
       orient="auto"
       inkscape:stockid="Arrow1Mend"
       inkscape:isstock="true">
      <path
         transform="matrix(-0.4,0,0,-0.4,-4,0)"
         style="fill:#000000;fill-opacity:1;fill-rule:evenodd;stroke:#000000;stroke-width:1pt;stroke-opacity:1"
         d="M 0,0 5,-5 -12.5,0 5,5 Z"
         id="path1218" />
    </marker>
  </defs>
  <sodipodi:namedview
     id="base"
     pagecolor="#ffffff"
     bordercolor="#666666"
     borderopacity="1.0"
     inkscape:pageopacity="0.0"
     inkscape:pageshadow="2"
     inkscape:zoom="5.1049729"
     inkscape:cx="448.57143"
     inkscape:cy="337.14286"
     inkscape:document-units="mm"
     inkscape:current-layer="layer1"
     inkscape:document-rotation="0"
     showgrid="false"
     inkscape:window-width="1301"
     inkscape:window-height="728"
     inkscape:window-x="49"
     inkscape:window-y="0"
     inkscape:window-maximized="0" />
  <metadata
     id="metadata1668">
    <rdf:RDF>
      <cc:Work
         rdf:about="">
        <dc:format>image/svg+xml</dc:format>
        <dc:type
           rdf:resource="http://purl.org/dc/dcmitype/StillImage" />
        <dc:title></dc:title>
      </cc:Work>
    </rdf:RDF>
  </metadata>
  <g
     inkscape:label="图层 1"
     inkscape:groupmode="layer"
     id="layer1">
    <g
       id="g1544"
       transform="matrix(0.26458333,0,0,0.26458333,79.450349,-16.51339)">
      <rect
         style="fill:none;stroke:#000000;stroke-width:1.00157;stroke-miterlimit:4;stroke-dasharray:none"
         id="rect1214"
         width="68.456734"
         height="21.580675"
         x="123.11599"
         y="389.33661" />
      <g
         id="g1529"
         style="fill:#ffffff"
         transform="translate(0.22111893)">
        <circle
           style="fill:#ffffff;stroke:#000000;stroke-width:1.00157;stroke-miterlimit:4;stroke-dasharray:none"
           id="path1197"
           cx="139.1246"
           cy="411.18265"
           r="5.3951688" />
        <circle
           style="fill:#ffffff;stroke:#000000;stroke-width:1.00157;stroke-miterlimit:4;stroke-dasharray:none"
           id="path1197-0"
           cx="175.12187"
           cy="411.18265"
           r="5.3951688" />
      </g>
    </g>
    <path
       style="fill:none;stroke:#000000;stroke-width:0.264583px;stroke-linecap:butt;stroke-linejoin:miter;stroke-opacity:1;marker-end:url(#marker1220)"
       d="m 131.26056,89.400336 h 5.33546"
       id="path1216" />
    <g
       id="g1525"
       transform="matrix(0.26458333,0,0,0.26458333,81.566936,-17.94202)">
      <path
         style="fill:none;stroke:#000000;stroke-width:1px;stroke-linecap:butt;stroke-linejoin:miter;stroke-opacity:1"
         d="M 70.061304,422.73353 H 210.51259"
         id="path1195" />
      <g
         id="g1488">
        <path
           style="fill:none;stroke:#000000;stroke-width:0.6;stroke-linecap:butt;stroke-linejoin:miter;stroke-miterlimit:4;stroke-dasharray:none;stroke-opacity:1"
           d="m 72.320455,422.73353 -1.553473,3.12794"
           id="path1252" />
        <path
           style="fill:none;stroke:#000000;stroke-width:0.6;stroke-linecap:butt;stroke-linejoin:miter;stroke-miterlimit:4;stroke-dasharray:none;stroke-opacity:1"
           d="m 76.616906,422.73353 -1.553473,3.12794"
           id="path1252-6" />
        <path
           style="fill:none;stroke:#000000;stroke-width:0.6;stroke-linecap:butt;stroke-linejoin:miter;stroke-miterlimit:4;stroke-dasharray:none;stroke-opacity:1"
           d="m 80.913356,422.73353 -1.553473,3.12794"
           id="path1252-3" />
        <path
           style="fill:none;stroke:#000000;stroke-width:0.6;stroke-linecap:butt;stroke-linejoin:miter;stroke-miterlimit:4;stroke-dasharray:none;stroke-opacity:1"
           d="m 85.209812,422.73353 -1.553473,3.12794"
           id="path1252-7" />
        <path
           style="fill:none;stroke:#000000;stroke-width:0.6;stroke-linecap:butt;stroke-linejoin:miter;stroke-miterlimit:4;stroke-dasharray:none;stroke-opacity:1"
           d="m 89.50626,422.73353 -1.553473,3.12794"
           id="path1252-4" />
        <path
           style="fill:none;stroke:#000000;stroke-width:0.6;stroke-linecap:butt;stroke-linejoin:miter;stroke-miterlimit:4;stroke-dasharray:none;stroke-opacity:1"
           d="m 93.802713,422.73353 -1.55347,3.12794"
           id="path1252-78" />
        <path
           style="fill:none;stroke:#000000;stroke-width:0.6;stroke-linecap:butt;stroke-linejoin:miter;stroke-miterlimit:4;stroke-dasharray:none;stroke-opacity:1"
           d="m 98.099166,422.73353 -1.55347,3.12794"
           id="path1252-71" />
        <path
           style="fill:none;stroke:#000000;stroke-width:0.6;stroke-linecap:butt;stroke-linejoin:miter;stroke-miterlimit:4;stroke-dasharray:none;stroke-opacity:1"
           d="m 102.39562,422.73353 -1.55348,3.12794"
           id="path1252-5" />
        <path
           style="fill:none;stroke:#000000;stroke-width:0.6;stroke-linecap:butt;stroke-linejoin:miter;stroke-miterlimit:4;stroke-dasharray:none;stroke-opacity:1"
           d="m 106.69207,422.73353 -1.55347,3.12794"
           id="path1252-711" />
        <path
           style="fill:none;stroke:#000000;stroke-width:0.6;stroke-linecap:butt;stroke-linejoin:miter;stroke-miterlimit:4;stroke-dasharray:none;stroke-opacity:1"
           d="m 132.47078,422.73353 -1.55348,3.12794"
           id="path1252-33" />
        <path
           style="fill:none;stroke:#000000;stroke-width:0.6;stroke-linecap:butt;stroke-linejoin:miter;stroke-miterlimit:4;stroke-dasharray:none;stroke-opacity:1"
           d="m 136.76723,422.73353 -1.55348,3.12794"
           id="path1252-710" />
        <path
           style="fill:none;stroke:#000000;stroke-width:0.6;stroke-linecap:butt;stroke-linejoin:miter;stroke-miterlimit:4;stroke-dasharray:none;stroke-opacity:1"
           d="m 141.06369,422.73353 -1.55347,3.12794"
           id="path1252-0" />
        <path
           style="fill:none;stroke:#000000;stroke-width:0.6;stroke-linecap:butt;stroke-linejoin:miter;stroke-miterlimit:4;stroke-dasharray:none;stroke-opacity:1"
           d="m 145.36015,422.73353 -1.55347,3.12794"
           id="path1252-1" />
        <path
           style="fill:none;stroke:#000000;stroke-width:0.6;stroke-linecap:butt;stroke-linejoin:miter;stroke-miterlimit:4;stroke-dasharray:none;stroke-opacity:1"
           d="m 149.65658,422.73353 -1.55347,3.12794"
           id="path1252-9" />
        <path
           style="fill:none;stroke:#000000;stroke-width:0.6;stroke-linecap:butt;stroke-linejoin:miter;stroke-miterlimit:4;stroke-dasharray:none;stroke-opacity:1"
           d="m 153.95303,422.73353 -1.55347,3.12794"
           id="path1252-41" />
        <path
           style="fill:none;stroke:#000000;stroke-width:0.6;stroke-linecap:butt;stroke-linejoin:miter;stroke-miterlimit:4;stroke-dasharray:none;stroke-opacity:1"
           d="m 158.24949,422.73353 -1.55347,3.12794"
           id="path1252-70" />
        <path
           style="fill:none;stroke:#000000;stroke-width:0.6;stroke-linecap:butt;stroke-linejoin:miter;stroke-miterlimit:4;stroke-dasharray:none;stroke-opacity:1"
           d="m 162.54594,422.73353 -1.55347,3.12794"
           id="path1252-49" />
        <path
           style="fill:none;stroke:#000000;stroke-width:0.6;stroke-linecap:butt;stroke-linejoin:miter;stroke-miterlimit:4;stroke-dasharray:none;stroke-opacity:1"
           d="m 166.8424,422.73353 -1.55348,3.12794"
           id="path1252-97" />
        <path
           style="fill:none;stroke:#000000;stroke-width:0.6;stroke-linecap:butt;stroke-linejoin:miter;stroke-miterlimit:4;stroke-dasharray:none;stroke-opacity:1"
           d="m 192.62112,422.73353 -1.55347,3.12794"
           id="path1252-66" />
        <path
           style="fill:none;stroke:#000000;stroke-width:0.6;stroke-linecap:butt;stroke-linejoin:miter;stroke-miterlimit:4;stroke-dasharray:none;stroke-opacity:1"
           d="m 201.21401,422.73353 -1.55347,3.12794"
           id="path1252-14" />
        <path
           style="fill:none;stroke:#000000;stroke-width:0.6;stroke-linecap:butt;stroke-linejoin:miter;stroke-miterlimit:4;stroke-dasharray:none;stroke-opacity:1"
           d="m 205.51046,422.73353 -1.55347,3.12794"
           id="path1252-07" />
        <path
           style="fill:none;stroke:#000000;stroke-width:0.6;stroke-linecap:butt;stroke-linejoin:miter;stroke-miterlimit:4;stroke-dasharray:none;stroke-opacity:1"
           d="m 209.80691,422.73353 -1.55347,3.12794"
           id="path1252-51" />
        <path
           style="fill:none;stroke:#000000;stroke-width:0.6;stroke-linecap:butt;stroke-linejoin:miter;stroke-miterlimit:4;stroke-dasharray:none;stroke-opacity:1"
           d="m 196.91755,422.73353 -1.55347,3.12794"
           id="path1252-38" />
        <path
           style="fill:none;stroke:#000000;stroke-width:0.6;stroke-linecap:butt;stroke-linejoin:miter;stroke-miterlimit:4;stroke-dasharray:none;stroke-opacity:1"
           d="m 171.13886,422.73353 -1.55348,3.12794"
           id="path1252-50" />
        <path
           style="fill:none;stroke:#000000;stroke-width:0.6;stroke-linecap:butt;stroke-linejoin:miter;stroke-miterlimit:4;stroke-dasharray:none;stroke-opacity:1"
           d="m 175.4353,422.73353 -1.55348,3.12794"
           id="path1252-8" />
        <path
           style="fill:none;stroke:#000000;stroke-width:0.6;stroke-linecap:butt;stroke-linejoin:miter;stroke-miterlimit:4;stroke-dasharray:none;stroke-opacity:1"
           d="m 179.73176,422.73353 -1.55348,3.12794"
           id="path1252-05" />
        <path
           style="fill:none;stroke:#000000;stroke-width:0.6;stroke-linecap:butt;stroke-linejoin:miter;stroke-miterlimit:4;stroke-dasharray:none;stroke-opacity:1"
           d="m 184.0282,422.73353 -1.55348,3.12794"
           id="path1252-03" />
        <path
           style="fill:none;stroke:#000000;stroke-width:0.6;stroke-linecap:butt;stroke-linejoin:miter;stroke-miterlimit:4;stroke-dasharray:none;stroke-opacity:1"
           d="m 188.32465,422.73353 -1.55348,3.12794"
           id="path1252-02" />
        <path
           style="fill:none;stroke:#000000;stroke-width:0.6;stroke-linecap:butt;stroke-linejoin:miter;stroke-miterlimit:4;stroke-dasharray:none;stroke-opacity:1"
           d="m 110.98852,422.73353 -1.55347,3.12794"
           id="path1252-65" />
        <path
           style="fill:none;stroke:#000000;stroke-width:0.6;stroke-linecap:butt;stroke-linejoin:miter;stroke-miterlimit:4;stroke-dasharray:none;stroke-opacity:1"
           d="m 115.28497,422.73353 -1.55347,3.12794"
           id="path1252-52" />
        <path
           style="fill:none;stroke:#000000;stroke-width:0.6;stroke-linecap:butt;stroke-linejoin:miter;stroke-miterlimit:4;stroke-dasharray:none;stroke-opacity:1"
           d="m 119.58142,422.73353 -1.55347,3.12794"
           id="path1252-77" />
        <path
           style="fill:none;stroke:#000000;stroke-width:0.6;stroke-linecap:butt;stroke-linejoin:miter;stroke-miterlimit:4;stroke-dasharray:none;stroke-opacity:1"
           d="m 123.87787,422.73353 -1.55347,3.12794"
           id="path1252-528" />
        <path
           style="fill:none;stroke:#000000;stroke-width:0.6;stroke-linecap:butt;stroke-linejoin:miter;stroke-miterlimit:4;stroke-dasharray:none;stroke-opacity:1"
           d="m 128.17433,422.73353 -1.55347,3.12794"
           id="path1252-91" />
      </g>
    </g>
    <path
       style="fill:#000000;stroke-width:0.137536"
       d="m 101.99833,93.229767 c 0.0164,-0.672442 0.0728,-0.809996 0.49736,-1.21184 0.55734,-0.527571 1.05006,-1.247023 1.30816,-1.910143 0.10026,-0.257585 0.24994,-0.603314 0.33263,-0.768266 0.10862,-0.216709 0.10402,-0.396171 -0.0166,-0.646686 -0.12435,-0.258323 -0.12745,-0.488921 -0.0122,-0.904357 0.21984,-0.792281 1.79347,-2.245611 2.70838,-2.50132 l 0.66225,-0.185105 -0.0805,-0.556242 c -0.0677,-0.467275 -0.032,-0.588433 0.22298,-0.757515 0.38106,-0.252648 1.15475,-0.179872 1.39323,0.131024 0.0987,0.128614 0.27361,0.339913 0.38876,0.469546 0.27347,0.307898 0.2642,0.36645 -0.058,0.36645 -0.26577,0 -0.52901,0.557419 -0.3748,0.793605 0.0935,0.143108 0.91522,0.251529 2.66787,0.351943 0.98998,0.05671 1.46759,0.142878 1.66102,0.29963 0.14932,0.121029 0.27149,0.266885 0.27149,0.324115 0,0.05723 -0.87468,0.108826 -1.94375,0.114657 -1.06906,0.0059 -2.3799,0.08301 -2.91298,0.171574 -0.8464,0.140566 -1.06588,0.242488 -1.73171,0.803984 -0.41936,0.353664 -0.76247,0.695942 -0.76247,0.760659 0,0.06469 0.29178,0.428614 0.64839,0.808694 0.58418,0.622607 0.63922,0.737359 0.55573,1.158613 -0.051,0.257148 -0.28249,0.859877 -0.51452,1.339397 -0.23202,0.479526 -0.38819,0.954897 -0.34705,1.056384 0.0411,0.101489 0.29896,0.30971 0.57294,0.462724 0.29222,0.163198 0.49815,0.383384 0.49815,0.532615 0,0.226748 -0.11143,0.254243 -1.02489,0.252862 l -1.02489,-0.0013 -0.27553,-0.544227 c -0.34462,-0.680683 -0.30658,-1.290214 0.1289,-2.065502 0.37582,-0.669051 0.47708,-1.115009 0.31063,-1.368089 -0.23332,-0.354782 -0.50297,-0.148941 -0.71674,0.547098 -0.18699,0.608856 -0.83938,1.598081 -1.20495,1.827062 -0.14771,0.09252 -0.43344,0.618831 -0.43344,0.798375 0,0.08026 0.15903,0.203149 0.3534,0.27311 0.19438,0.06995 0.35341,0.218994 0.35341,0.331217 0,0.164682 -0.20432,0.204025 -1.05955,0.204025 h -1.05956 z m 4.64519,0.02249 c -0.0968,-0.110398 -0.28862,-0.200719 -0.42628,-0.200719 -0.13766,0 -0.28691,0.09032 -0.33166,0.200721 -0.063,0.155448 0.0331,0.200713 0.42627,0.200713 0.43522,0 0.48254,-0.02864 0.33167,-0.200713 z m -3.50327,-0.524458 c 0.0997,-0.178059 0.44206,-0.586409 0.76086,-0.907452 0.63879,-0.643279 0.97857,-1.415751 0.84475,-1.92047 -0.0496,-0.186923 -0.025,-0.327427 0.0572,-0.327427 0.0792,0 0.14405,-0.06021 0.14405,-0.133813 0,-0.0736 -0.0946,-0.133816 -0.21015,-0.133816 -0.22517,0 -0.62752,0.780225 -0.67349,1.306018 -0.0154,0.175778 -0.39325,0.721587 -0.83973,1.212897 -0.44648,0.491305 -0.8139,0.934025 -0.81648,0.983824 -0.003,0.0498 0.10663,0.118084 0.24269,0.15175 0.13607,0.03365 0.26126,0.06818 0.27822,0.07671 0.0169,0.0086 0.11237,-0.13016 0.21204,-0.308222 z m 2.85392,-0.5319 c 0.15146,-0.375396 0.34572,-0.614873 0.53722,-0.662278 0.24332,-0.06022 0.26797,-0.110773 0.1305,-0.267573 -0.13282,-0.151482 -0.12772,-0.23286 0.0236,-0.376079 0.24984,-0.236487 0.43314,-0.916075 0.24709,-0.916075 -0.0772,0 -0.237,-0.176773 -0.35504,-0.392835 -0.11803,-0.216064 -0.59013,-0.666358 -1.04911,-1.000657 -0.7102,-0.5173 -0.85996,-0.578781 -1.00547,-0.412829 -0.13957,0.159195 -0.0839,0.269528 0.30332,0.600898 0.26086,0.223258 0.71284,0.609883 1.00441,0.859192 0.64219,0.549108 0.66969,0.884568 0.13868,1.6916 -0.50583,0.768737 -0.74228,1.283605 -0.63578,1.384414 0.2169,0.205306 0.44302,0.0315 0.66059,-0.507778 z m 0.0839,-4.095374 c 0,-0.07359 -0.16278,-0.133802 -0.36175,-0.133802 -0.20517,0 -0.32393,0.05792 -0.27438,0.133802 0.0481,0.0736 0.21084,0.13381 0.36175,0.13381 0.15091,0 0.27438,-0.06021 0.27438,-0.13381 z m -0.42409,-0.535247 c 0.20215,0 0.42873,0.05791 0.50351,0.128712 0.14416,0.136446 1.05149,-0.444833 1.05149,-0.673645 0,-0.06827 -0.17494,-0.132321 -0.38875,-0.142338 -0.33331,-0.01574 -0.34339,-0.02659 -0.0707,-0.07621 0.17494,-0.0319 0.31795,-0.09897 0.31781,-0.14904 -1.3e-4,-0.05007 0.42926,-0.09105 0.95421,-0.09105 0.93315,0 0.95545,-0.0082 0.99871,-0.363323 0.0371,-0.304627 -0.02,-0.376081 -0.35341,-0.442438 -0.21871,-0.04353 -0.64169,-0.130884 -0.93994,-0.194109 -0.35874,-0.07601 -0.67151,-0.06215 -0.92404,0.04104 -0.62658,0.255974 -1.69438,1.180381 -1.84924,1.600893 -0.16346,0.443842 -0.0609,0.734158 0.17911,0.506998 0.0845,-0.08002 0.31907,-0.145487 0.52122,-0.145487 z m 1.60613,-1.27119 c -0.0779,-0.192194 0.046,-0.696839 0.14436,-0.587852 0.0261,0.02894 0.0894,0.2182 0.14073,0.420579 0.0986,0.389007 -0.13876,0.528236 -0.28509,0.167273 z m 4.76469,-0.07363 c -0.26693,-0.05681 -0.90152,-0.123719 -1.4102,-0.148648 -0.7354,-0.03606 -0.93363,-0.004 -0.96754,0.155371 -0.0363,0.170659 0.17497,0.192905 1.41021,0.148662 1.1008,-0.03946 1.33525,-0.07709 0.96753,-0.155385 z m -3.53425,-0.934656 c 0.35078,-0.177718 0.35466,-0.530564 0.006,-0.530564 -0.24526,0 -0.43922,0.241197 -0.43922,0.546208 0,0.15847 0.0966,0.154983 0.43339,-0.01577 z m 0.55616,-0.887995 c 0,-0.189251 -0.479,-0.579223 -0.71142,-0.579223 -0.30047,0 -0.61769,0.339929 -0.494,0.52937 0.0989,0.151471 1.20542,0.197231 1.20542,0.04985 z"
       id="path1589" />
  </g>
</svg>
