<?xml version="1.0" encoding="UTF-8" standalone="no"?>
<svg
   xmlns:ns3="http://www.iki.fi/pav/software/textext/"
   xmlns:dc="http://purl.org/dc/elements/1.1/"
   xmlns:cc="http://creativecommons.org/ns#"
   xmlns:rdf="http://www.w3.org/1999/02/22-rdf-syntax-ns#"
   xmlns:svg="http://www.w3.org/2000/svg"
   xmlns="http://www.w3.org/2000/svg"
   xmlns:sodipodi="http://sodipodi.sourceforge.net/DTD/sodipodi-0.dtd"
   xmlns:inkscape="http://www.inkscape.org/namespaces/inkscape"
   version="1.1"
   id="svg9497"
   width="415.13513"
   height="591.56757"
   viewBox="0 0 415.13513 591.56757"
   sodipodi:docname="fig01.28.svg"
   inkscape:version="1.0.1 (3bc2e813f5, 2020-09-07)">
  <metadata
     id="metadata9503">
    <rdf:RDF>
      <cc:Work
         rdf:about="">
        <dc:format>image/svg+xml</dc:format>
        <dc:type
           rdf:resource="http://purl.org/dc/dcmitype/StillImage" />
        <dc:title />
      </cc:Work>
    </rdf:RDF>
  </metadata>
  <defs
     id="defs9501">
    <marker
       style="overflow:visible;"
       id="marker10134"
       refX="0.0"
       refY="0.0"
       orient="auto"
       inkscape:stockid="Arrow1Mend"
       inkscape:isstock="true">
      <path
         transform="scale(0.4) rotate(180) translate(10,0)"
         style="fill-rule:evenodd;stroke:#000000;stroke-width:1pt;stroke-opacity:1;fill:#000000;fill-opacity:1"
         d="M 0.0,0.0 L 5.0,-5.0 L -12.5,0.0 L 5.0,5.0 L 0.0,0.0 z "
         id="path10132" />
    </marker>
    <marker
       style="overflow:visible"
       id="Arrow1Mstart"
       refX="0.0"
       refY="0.0"
       orient="auto"
       inkscape:stockid="Arrow1Mstart"
       inkscape:isstock="true">
      <path
         transform="scale(0.4) translate(10,0)"
         style="fill-rule:evenodd;stroke:#000000;stroke-width:1pt;stroke-opacity:1;fill:#000000;fill-opacity:1"
         d="M 0.0,0.0 L 5.0,-5.0 L -12.5,0.0 L 5.0,5.0 L 0.0,0.0 z "
         id="path861" />
    </marker>
    <marker
       style="overflow:visible;"
       id="Arrow1Mend"
       refX="0.0"
       refY="0.0"
       orient="auto"
       inkscape:stockid="Arrow1Mend"
       inkscape:isstock="true">
      <path
         transform="scale(0.4) rotate(180) translate(10,0)"
         style="fill-rule:evenodd;stroke:#000000;stroke-width:1pt;stroke-opacity:1;fill:#000000;fill-opacity:1"
         d="M 0.0,0.0 L 5.0,-5.0 L -12.5,0.0 L 5.0,5.0 L 0.0,0.0 z "
         id="path864" />
    </marker>
    <marker
       style="overflow:visible"
       id="Arrow1Lstart"
       refX="0.0"
       refY="0.0"
       orient="auto"
       inkscape:stockid="Arrow1Lstart"
       inkscape:isstock="true">
      <path
         transform="scale(0.8) translate(12.5,0)"
         style="fill-rule:evenodd;stroke:#000000;stroke-width:1pt;stroke-opacity:1;fill:#000000;fill-opacity:1"
         d="M 0.0,0.0 L 5.0,-5.0 L -12.5,0.0 L 5.0,5.0 L 0.0,0.0 z "
         id="path855" />
    </marker>
  </defs>
  <sodipodi:namedview
     pagecolor="#ffffff"
     bordercolor="#666666"
     borderopacity="1"
     objecttolerance="10"
     gridtolerance="10"
     guidetolerance="10"
     inkscape:pageopacity="0"
     inkscape:pageshadow="2"
     inkscape:window-width="1920"
     inkscape:window-height="1001"
     id="namedview9499"
     showgrid="false"
     inkscape:object-paths="true"
     inkscape:zoom="4.6845782"
     inkscape:cx="341.60566"
     inkscape:cy="490.32956"
     inkscape:window-x="-9"
     inkscape:window-y="-9"
     inkscape:window-maximized="1"
     inkscape:current-layer="g9505"
     inkscape:document-rotation="0" />
  <g
     inkscape:groupmode="layer"
     inkscape:label="Image"
     id="g9505">
    <ellipse
       style="fill:none;stroke:#000000;stroke-width:0.5;stroke-linecap:round;stroke-miterlimit:4;stroke-dasharray:none;stroke-opacity:1;marker-end:url(#marker10134)"
       id="path9509"
       cx="286.4317"
       cy="-519.31073"
       rx="54.500004"
       ry="54.5"
       transform="rotate(115.95089)" />
    <circle
       style="fill:#000000;fill-opacity:1;stroke:none;stroke-width:0.999999;stroke-linecap:round;stroke-miterlimit:4;stroke-dasharray:none;stroke-opacity:1"
       id="path10178"
       cx="342.00027"
       cy="539.27118"
       r="1" />
    <g
       transform="matrix(1.33333,0,0,1.33333,337.49413,542.70158)"
       ns3:version="1.3.0"
       ns3:texconverter="xelatex"
       ns3:pdfconverter="inkscape"
       ns3:text="\\small$P$"
       ns3:preamble="C:\Program Files\Inkscape\share\inkscape\extensions\inkscapeMadeEasy\basicLatexPackages.tex"
       ns3:scale="1.0"
       ns3:alignment="middle center"
       ns3:jacobian_sqrt="1.33333"
       id="g10257"
       style="mix-blend-mode:exclusion;fill:#000000">
      <defs
         id="id-e5edcb92-1dc2-49a7-81b9-6ccd817ab63d">
        <g
           id="id-59089c82-5ebf-4d29-9c13-d53536511f48">
          <symbol
             overflow="visible"
             id="id-74b05a87-24ea-4799-aa5d-f799b9b1d626">
            <path
               style="stroke:none;stroke-width:0"
               d=""
               id="id-a7d00c95-e488-4427-879b-522fad2c078c" />
          </symbol>
          <symbol
             overflow="visible"
             id="id-d439a42d-765a-47f4-8433-d361af9eb3c6">
            <path
               style="stroke:none;stroke-width:0"
               d="m 2.765625,-2.8125 h 1.5 c 1.453125,0 2.640625,-1 2.640625,-1.953125 C 6.90625,-5.46875 6.265625,-6.125 5.09375,-6.125 H 2.140625 c -0.171875,0 -0.28125,0 -0.28125,0.15625 0,0.125 0.09375,0.125 0.28125,0.125 0.03125,0 0.1875,0 0.328125,0.015625 0.15625,0.015625 0.21875,0.03125 0.21875,0.140625 0,0.03125 0,0.078125 -0.03125,0.171875 L 1.4375,-0.6875 c -0.078125,0.328125 -0.09375,0.40625 -0.765625,0.40625 -0.171875,0 -0.265625,0 -0.265625,0.171875 C 0.40625,-0.015625 0.46875,0 0.53125,0 0.703125,0 0.9375,-0.015625 1.109375,-0.015625 1.375,-0.03125 1.390625,-0.03125 1.671875,-0.03125 c 0.296875,0 0.3125,0 0.578125,0.015625 C 2.4375,-0.015625 2.65625,0 2.828125,0 c 0.0625,0 0.1875,0 0.1875,-0.15625 0,-0.125 -0.09375,-0.125 -0.28125,-0.125 -0.03125,0 -0.203125,0 -0.34375,-0.015625 -0.1875,-0.03125 -0.203125,-0.0625 -0.203125,-0.140625 0,-0.03125 0,-0.046875 0.046875,-0.203125 z M 3.421875,-5.5 C 3.5,-5.828125 3.515625,-5.84375 3.890625,-5.84375 h 0.90625 c 0.703125,0 1.25,0.21875 1.25,0.859375 0,0.1875 -0.09375,1.03125 -0.5625,1.46875 C 5.296875,-3.34375 4.875,-3.0625 4.109375,-3.0625 H 2.8125 Z m 0,0"
               id="id-e75e36f5-5cca-4878-892e-e0956e9a0556" />
          </symbol>
        </g>
      </defs>
      <g
         id="id-311bfb99-00c5-4464-9ebe-a2810fab6ed9"
         transform="translate(-149.118,-128.64)"
         style="fill:#000000">
        <g
           style="fill:#000000;fill-opacity:1"
           id="id-d16eaa40-a769-4ce7-b344-c12c23f84338">
          <g
             transform="translate(148.712,134.765)"
             id="g10253"
             style="fill:#000000">
            <path
               style="fill:#000000;stroke:none;stroke-width:0"
               d="m 2.765625,-2.8125 h 1.5 c 1.453125,0 2.640625,-1 2.640625,-1.953125 C 6.90625,-5.46875 6.265625,-6.125 5.09375,-6.125 H 2.140625 c -0.171875,0 -0.28125,0 -0.28125,0.15625 0,0.125 0.09375,0.125 0.28125,0.125 0.03125,0 0.1875,0 0.328125,0.015625 0.15625,0.015625 0.21875,0.03125 0.21875,0.140625 0,0.03125 0,0.078125 -0.03125,0.171875 L 1.4375,-0.6875 c -0.078125,0.328125 -0.09375,0.40625 -0.765625,0.40625 -0.171875,0 -0.265625,0 -0.265625,0.171875 C 0.40625,-0.015625 0.46875,0 0.53125,0 0.703125,0 0.9375,-0.015625 1.109375,-0.015625 1.375,-0.03125 1.390625,-0.03125 1.671875,-0.03125 c 0.296875,0 0.3125,0 0.578125,0.015625 C 2.4375,-0.015625 2.65625,0 2.828125,0 c 0.0625,0 0.1875,0 0.1875,-0.15625 0,-0.125 -0.09375,-0.125 -0.28125,-0.125 -0.03125,0 -0.203125,0 -0.34375,-0.015625 -0.1875,-0.03125 -0.203125,-0.0625 -0.203125,-0.140625 0,-0.03125 0,-0.046875 0.046875,-0.203125 z M 3.421875,-5.5 C 3.5,-5.828125 3.515625,-5.84375 3.890625,-5.84375 h 0.90625 c 0.703125,0 1.25,0.21875 1.25,0.859375 0,0.1875 -0.09375,1.03125 -0.5625,1.46875 C 5.296875,-3.34375 4.875,-3.0625 4.109375,-3.0625 H 2.8125 Z m 0,0"
               id="id-8ee679eb-6bfa-4f25-a1b0-87dc32e3abc6" />
          </g>
        </g>
      </g>
    </g>
  </g>
</svg>
