<?xml version="1.0" encoding="UTF-8" standalone="no"?>
<svg
   xmlns:dc="http://purl.org/dc/elements/1.1/"
   xmlns:cc="http://creativecommons.org/ns#"
   xmlns:rdf="http://www.w3.org/1999/02/22-rdf-syntax-ns#"
   xmlns:svg="http://www.w3.org/2000/svg"
   xmlns="http://www.w3.org/2000/svg"
   xmlns:sodipodi="http://sodipodi.sourceforge.net/DTD/sodipodi-0.dtd"
   xmlns:inkscape="http://www.inkscape.org/namespaces/inkscape"
   version="1.1"
   id="svg3592"
   width="415.13513"
   height="591.56757"
   viewBox="0 0 415.13513 591.56757"
   sodipodi:docname="fig04.01.svg"
   inkscape:version="1.0.1 (3bc2e813f5, 2020-09-07)">
  <metadata
     id="metadata3598">
    <rdf:RDF>
      <cc:Work
         rdf:about="">
        <dc:format>image/svg+xml</dc:format>
        <dc:type
           rdf:resource="http://purl.org/dc/dcmitype/StillImage" />
        <dc:title></dc:title>
      </cc:Work>
    </rdf:RDF>
  </metadata>
  <defs
     id="defs3596">
    <clipPath
       id="clip0">
      <rect
         x="452"
         y="169"
         width="601"
         height="415"
         id="rect4165" />
    </clipPath>
    <clipPath
       id="clip1">
      <rect
         x="452"
         y="168"
         width="600"
         height="415"
         id="rect4168" />
    </clipPath>
    <clipPath
       id="clip2">
      <rect
         x="452"
         y="168"
         width="600"
         height="415"
         id="rect4171" />
    </clipPath>
    <clipPath
       id="clip3">
      <rect
         x="452"
         y="168"
         width="600"
         height="415"
         id="rect4174" />
    </clipPath>
    <clipPath
       id="clip4">
      <rect
         x="452"
         y="168"
         width="600"
         height="415"
         id="rect4177" />
    </clipPath>
    <clipPath
       id="clip5">
      <rect
         x="452"
         y="168"
         width="600"
         height="415"
         id="rect4180" />
    </clipPath>
    <clipPath
       id="clip6">
      <rect
         x="452"
         y="168"
         width="600"
         height="415"
         id="rect4183" />
    </clipPath>
    <clipPath
       id="clip7">
      <rect
         x="503"
         y="230"
         width="503"
         height="315"
         id="rect4186" />
    </clipPath>
    <clipPath
       id="clip8">
      <rect
         x="452"
         y="168"
         width="600"
         height="415"
         id="rect4189" />
    </clipPath>
    <clipPath
       id="clip9">
      <rect
         x="452"
         y="168"
         width="600"
         height="415"
         id="rect4192" />
    </clipPath>
    <clipPath
       id="clip10">
      <rect
         x="452"
         y="168"
         width="600"
         height="415"
         id="rect4195" />
    </clipPath>
    <clipPath
       id="clip11">
      <rect
         x="452"
         y="168"
         width="600"
         height="415"
         id="rect4198" />
    </clipPath>
    <clipPath
       id="clip12">
      <rect
         x="452"
         y="168"
         width="600"
         height="415"
         id="rect4201" />
    </clipPath>
    <clipPath
       id="clip13">
      <rect
         x="452"
         y="168"
         width="600"
         height="415"
         id="rect4204" />
    </clipPath>
    <clipPath
       id="clip14">
      <rect
         x="452"
         y="168"
         width="600"
         height="415"
         id="rect4207" />
    </clipPath>
    <clipPath
       id="clip15">
      <rect
         x="452"
         y="168"
         width="600"
         height="415"
         id="rect4210" />
    </clipPath>
    <clipPath
       id="clip16">
      <rect
         x="452"
         y="168"
         width="600"
         height="415"
         id="rect4213" />
    </clipPath>
    <clipPath
       id="clip17">
      <rect
         x="452"
         y="168"
         width="600"
         height="415"
         id="rect4216" />
    </clipPath>
    <clipPath
       id="clip18">
      <rect
         x="452"
         y="168"
         width="600"
         height="415"
         id="rect4219" />
    </clipPath>
    <clipPath
       id="clip1-1">
      <rect
         x="452"
         y="168"
         width="600"
         height="415"
         id="rect4168-6" />
    </clipPath>
    <clipPath
       id="clip2-5">
      <rect
         x="452"
         y="168"
         width="600"
         height="415"
         id="rect4171-8" />
    </clipPath>
    <clipPath
       id="clip4-2">
      <rect
         x="452"
         y="168"
         width="600"
         height="415"
         id="rect4177-2" />
    </clipPath>
    <clipPath
       id="clip5-2">
      <rect
         x="452"
         y="168"
         width="600"
         height="415"
         id="rect4180-7" />
    </clipPath>
    <clipPath
       id="clip7-4">
      <rect
         x="503"
         y="230"
         width="503"
         height="315"
         id="rect4186-8" />
    </clipPath>
  </defs>
  <sodipodi:namedview
     pagecolor="#ffffff"
     bordercolor="#666666"
     borderopacity="1"
     objecttolerance="10"
     gridtolerance="10"
     guidetolerance="10"
     inkscape:pageopacity="0"
     inkscape:pageshadow="2"
     inkscape:window-width="1920"
     inkscape:window-height="1001"
     id="namedview3594"
     showgrid="false"
     showguides="true"
     inkscape:guide-bbox="true"
     inkscape:snap-object-midpoints="true"
     inkscape:snap-midpoints="true"
     inkscape:snap-smooth-nodes="true"
     inkscape:snap-intersection-paths="true"
     inkscape:object-paths="true"
     inkscape:zoom="4.4856382"
     inkscape:cx="211.94171"
     inkscape:cy="279.07926"
     inkscape:window-x="-9"
     inkscape:window-y="-9"
     inkscape:window-maximized="1"
     inkscape:current-layer="g3600">
    <sodipodi:guide
       position="164.62553,258.75681"
       orientation="1,0"
       id="guide5548" />
    <sodipodi:guide
       position="144.46105,202.82005"
       orientation="0,-1"
       id="guide5562" />
    <sodipodi:guide
       position="193.8294,316.50407"
       orientation="0,-1"
       id="guide5566" />
  </sodipodi:namedview>
  <g
     inkscape:groupmode="layer"
     inkscape:label="Image"
     id="g3600">
    <g
       clip-path="url(#clip1-1)"
       id="g4228"
       transform="matrix(0.34765044,0,0,0.54135247,-39.540411,93.981096)"
       style="stroke:#000000;stroke-width:1.15254675;stroke-miterlimit:4;stroke-dasharray:none;stroke-opacity:1">
      <path
         d="m 503.5,544.5 h 502 m -502,-210 h 502 m -502,-104 h 502"
         stroke="#d9d9d9"
         stroke-width="1.25"
         stroke-linejoin="round"
         stroke-miterlimit="10"
         fill="none"
         id="path4226"
         style="stroke:#000000;stroke-width:1.15254675;stroke-miterlimit:4;stroke-dasharray:none;stroke-opacity:1" />
    </g>
    <g
       clip-path="url(#clip2-5)"
       id="g4232"
       transform="matrix(0.46291915,0,0,0.54135247,-155.4431,93.981096)"
       style="stroke:#000000;stroke-width:0.998805;stroke-miterlimit:4;stroke-dasharray:none;stroke-opacity:1">
      <path
         d="m 628.5,230.5 v 314 m 126,-314 v 314 m 125,-314 v 314 m 126,-314 v 314"
         stroke="#d9d9d9"
         stroke-width="1.25"
         stroke-linejoin="round"
         stroke-miterlimit="10"
         fill="none"
         id="path4230"
         style="stroke:#000000;stroke-width:0.998805;stroke-miterlimit:4;stroke-dasharray:none;stroke-opacity:1" />
    </g>
    <g
       clip-path="url(#clip4-2)"
       id="g4240"
       transform="matrix(0.46291915,0,0,0.54135247,-97.578204,93.981096)"
       style="stroke:#000000;stroke-width:0.998805;stroke-miterlimit:4;stroke-dasharray:none;stroke-opacity:1">
      <path
         d="m 503.5,544.5 h 3 m -3,-32 h 3 m -3,-18 h 3 m -3,-13 h 3 m -3,-10 h 3 m -3,-9 h 3 m -3,-7 h 3 m -3,-6 h 3 m -3,-5 h 3 m -3,-5 h 3 m -3,-31 h 3 m -3,-19 h 3 m -3,-13 h 3 m -3,-10 h 3 m -3,-8 h 3 m -3,-7 h 3 m -3,-6 h 3 m -3,-6 h 3 m -3,-5 h 3 m -3,-31 h 3 m -3,-18 h 3 m -3,-14 h 3 m -3,-10 h 3 m -3,-8 h 3 m -3,-7 h 3 m -3,-6 h 3 m -3,-5 h 3 m -3,-5 h 3 m -3,314 h 5 m -5,-105 h 5 m -5,-105 h 5 m -5,-104 h 5"
         stroke="#bfbfbf"
         stroke-width="1.25"
         stroke-linejoin="round"
         stroke-miterlimit="10"
         fill="none"
         id="path4238"
         style="stroke:#000000;stroke-width:0.998805;stroke-miterlimit:4;stroke-dasharray:none;stroke-opacity:1" />
    </g>
    <g
       clip-path="url(#clip5-2)"
       id="g4244"
       transform="matrix(0.34765042,0,0,0.54135247,-39.540405,93.981096)"
       style="stroke:#000000;stroke-width:1.15254;stroke-miterlimit:4;stroke-dasharray:none;stroke-opacity:1">
      <path
         d="m 503.5,439.5 h 502"
         stroke="#bfbfbf"
         stroke-width="1.25"
         stroke-linejoin="round"
         stroke-miterlimit="10"
         fill="none"
         fill-rule="evenodd"
         id="path4242"
         style="stroke:#000000;stroke-width:1.15254;stroke-miterlimit:4;stroke-dasharray:none;stroke-opacity:1" />
    </g>
    <path
       d="m 135.50158,387.12346 v 1.62406 m 17.59093,-1.62406 v 1.62406 m 10.18422,-1.62406 v 1.62406 m 7.40671,-1.62406 v 1.62406 m 5.55503,-1.62406 v 1.62406 m 4.62918,-1.62406 v 1.62406 m 3.70336,-1.62406 v 1.62406 m 3.70336,-1.62406 v 1.62406 m 2.77752,-1.62406 v 1.62406 m 2.77751,-1.62406 v 1.62406 m 17.59092,-1.62406 v 1.62406 m 10.18423,-1.62406 v 1.62406 m 6.94379,-1.62406 v 1.62406 m 6.01794,-1.62406 v 1.62406 m 4.62919,-1.62406 v 1.62406 m 3.70336,-1.62406 v 1.62406 m 3.24042,-1.62406 v 1.62406 m 3.24045,-1.62406 v 1.62406 m 2.31458,-1.62406 v 1.62406 m 17.59094,-1.62406 v 1.62406 m 10.18421,-1.62406 v 1.62406 m 7.40672,-1.62406 v 1.62406 m 5.55503,-1.62406 v 1.62406 m 4.62919,-1.62406 v 1.62406 m 3.70336,-1.62406 v 1.62406 m 3.70334,-1.62406 v 1.62406 m 2.77751,-1.62406 v 1.62406 m 2.77752,-1.62406 v 1.62406 m -174.52052,-2.70677 v 2.70677 m 58.32782,-2.70677 v 2.70677 m 57.86488,-2.70677 v 2.70677 m 58.32782,-2.70677 v 2.70677"
       stroke="#bfbfbf"
       stroke-width="1.25"
       stroke-linejoin="round"
       stroke-miterlimit="10"
       fill="none"
       id="path4246"
       style="stroke:#000000;stroke-width:0.500002;stroke-miterlimit:4;stroke-dasharray:none;stroke-opacity:1"
       sodipodi:nodetypes="cccccccccccccccccccccccccccccccccccccccccccccccccccccccccccccccc" />
    <g
       clip-path="url(#clip7-4)"
       id="g4252"
       transform="matrix(0.46291915,0,0,0.54135247,-155.4431,93.981096)"
       style="stroke:#000000;stroke-width:1.99759;stroke-miterlimit:4;stroke-dasharray:none;stroke-opacity:1">
      <path
         d="m 613.5,482.5 c 17.036,-9.465 38.178,-21.21 51.11,-28.394 12.931,-7.184 16.326,-9.07 26.477,-14.71 7.778,-4.321 17.215,-9.562 34.429,-19.126 22.466,-12.484 75.378,-41.891 100.368,-55.775 24.785,-13.77 31.939,-17.735 49.574,-27.53 17.782,-9.877 41.478,-23.04 57.117,-31.728 15.64,-8.688 26.897,-14.943 36.717,-20.399 9.821,-5.456 14.806,-8.225 22.208,-12.338"
         stroke="#4472c4"
         stroke-width="2.5"
         stroke-linecap="round"
         stroke-linejoin="round"
         stroke-miterlimit="10"
         fill="none"
         id="path4250"
         style="stroke:#000000;stroke-width:1.99759;stroke-miterlimit:4;stroke-dasharray:none;stroke-opacity:1" />
    </g>
    <path
       d="m 129.8561,355.05182 c 0,0.72875 -0.60623,1.31955 -1.35403,1.31955 -0.7478,0 -1.35403,-0.5908 -1.35403,-1.31955 0,-0.72877 0.60623,-1.31956 1.35403,-1.31956 0.7478,0 1.35403,0.59079 1.35403,1.31956 z"
       stroke="#4472c4"
       stroke-width="1.25"
       stroke-linejoin="round"
       stroke-miterlimit="10"
       fill="#4472c4"
       id="path4254"
       style="fill:#000000;fill-opacity:1;stroke:none;stroke-width:0.500003;stroke-miterlimit:4;stroke-dasharray:none;stroke-opacity:1" />
    <path
       d="m 153.9279,339.89397 c 0,0.72874 -0.60622,1.31952 -1.35404,1.31952 -0.74781,0 -1.35403,-0.59078 -1.35403,-1.31952 0,-0.72879 0.60621,-1.3196 1.35403,-1.3196 0.74782,0 1.35404,0.59081 1.35404,1.3196 z"
       stroke="#4472c4"
       stroke-width="1.25"
       stroke-linejoin="round"
       stroke-miterlimit="10"
       fill="#4472c4"
       id="path4256"
       style="fill:#000000;fill-opacity:1;stroke:none;stroke-width:0.500003;stroke-miterlimit:4;stroke-dasharray:none;stroke-opacity:1" />
    <path
       d="m 165.9638,331.77367 c 0,0.72876 -0.60621,1.31952 -1.35403,1.31952 -0.74782,0 -1.35404,-0.59076 -1.35404,-1.31952 0,-0.72879 0.60621,-1.31958 1.35404,-1.31958 0.74781,0 1.35403,0.59079 1.35403,1.31958 z"
       stroke="#4472c4"
       stroke-width="1.25"
       stroke-linejoin="round"
       stroke-miterlimit="10"
       fill="#4472c4"
       id="path4258"
       style="fill:#000000;fill-opacity:1;stroke:none;stroke-width:0.500003;stroke-miterlimit:4;stroke-dasharray:none;stroke-opacity:1" />
    <path
       d="m 181.70305,321.48796 c 0,0.72874 -0.60624,1.31955 -1.35404,1.31955 -0.74779,0 -1.35403,-0.59081 -1.35403,-1.31955 0,-0.72876 0.60624,-1.31956 1.35403,-1.31956 0.7478,0 1.35404,0.5908 1.35404,1.31956 z"
       stroke="#4472c4"
       stroke-width="1.25"
       stroke-linejoin="round"
       stroke-miterlimit="10"
       fill="#4472c4"
       id="path4260"
       style="fill:#000000;fill-opacity:1;stroke:none;stroke-width:0.500003;stroke-miterlimit:4;stroke-dasharray:none;stroke-opacity:1" />
    <path
       d="m 228.45787,291.17222 c 0,0.72876 -0.60619,1.31953 -1.35402,1.31953 -0.74782,0 -1.35401,-0.59077 -1.35401,-1.31953 0,-0.72878 0.60619,-1.31955 1.35401,-1.31955 0.74782,0 1.35402,0.59077 1.35402,1.31955 z"
       stroke="#4472c4"
       stroke-width="1.25"
       stroke-linejoin="round"
       stroke-miterlimit="10"
       fill="#4472c4"
       id="path4262"
       style="fill:#000000;fill-opacity:1;stroke:none;stroke-width:0.500003;stroke-miterlimit:4;stroke-dasharray:none;stroke-opacity:1" />
    <path
       d="m 251.14092,276.55571 c 0,0.72875 -0.60624,1.31952 -1.35401,1.31952 -0.74782,0 -1.35406,-0.59077 -1.35406,-1.31952 0,-0.72879 0.60624,-1.31956 1.35406,-1.31956 0.74777,0 1.35401,0.59077 1.35401,1.31956 z"
       stroke="#4472c4"
       stroke-width="1.25"
       stroke-linejoin="round"
       stroke-miterlimit="10"
       fill="#4472c4"
       id="path4264"
       style="fill:#000000;fill-opacity:1;stroke:none;stroke-width:0.500003;stroke-miterlimit:4;stroke-dasharray:none;stroke-opacity:1" />
    <path
       d="m 277.99023,259.23242 c 0,0.72876 -0.60624,1.31953 -1.35404,1.31953 -0.74779,0 -1.35403,-0.59077 -1.35403,-1.31953 0,-0.72878 0.60624,-1.31955 1.35403,-1.31955 0.7478,0 1.35404,0.59077 1.35404,1.31955 z"
       stroke="#4472c4"
       stroke-width="1.25"
       stroke-linejoin="round"
       stroke-miterlimit="10"
       fill="#4472c4"
       id="path4266"
       style="fill:#000000;fill-opacity:1;stroke:none;stroke-width:0.500003;stroke-miterlimit:4;stroke-dasharray:none;stroke-opacity:1" />
    <path
       d="m 294.65534,247.86401 c 0,0.72877 -0.60624,1.31955 -1.35406,1.31955 -0.74779,0 -1.35405,-0.59078 -1.35405,-1.31955 0,-0.72876 0.60626,-1.31954 1.35405,-1.31954 0.74782,0 1.35406,0.59077 1.35406,1.31954 z"
       stroke="#4472c4"
       stroke-width="1.25"
       stroke-linejoin="round"
       stroke-miterlimit="10"
       fill="#4472c4"
       id="path4268"
       style="fill:#000000;fill-opacity:1;stroke:none;stroke-width:0.500003;stroke-miterlimit:4;stroke-dasharray:none;stroke-opacity:1" />
    <path
       d="m 304.83953,241.36779 c 0,0.72876 -0.6062,1.31954 -1.354,1.31954 -0.74785,0 -1.35405,-0.59077 -1.35405,-1.31954 0,-0.72877 0.60621,-1.31955 1.35405,-1.31955 0.7478,0 1.354,0.59078 1.354,1.31955 z"
       stroke="#4472c4"
       stroke-width="1.25"
       stroke-linejoin="round"
       stroke-miterlimit="10"
       fill="#4472c4"
       id="path4270"
       style="fill:#000000;fill-opacity:1;stroke:none;stroke-width:0.500003;stroke-miterlimit:4;stroke-dasharray:none;stroke-opacity:1" />
    <text
       xml:space="preserve"
       style="font-style:normal;font-variant:normal;font-weight:normal;font-stretch:normal;font-size:9.33333px;line-height:1.25;font-family:'Latin Modern Roman';-inkscape-font-specification:'Latin Modern Roman, '"
       x="130.60626"
       y="401.06985"
       id="text5368"><tspan
         sodipodi:role="line"
         id="tspan5366"
         x="130.60626"
         y="401.06985">10<tspan
   style="font-size:65%;baseline-shift:super"
   id="tspan5572">7</tspan></tspan></text>
    <text
       xml:space="preserve"
       style="font-style:normal;font-variant:normal;font-weight:normal;font-stretch:normal;font-size:9.33333px;line-height:1.25;font-family:'Latin Modern Roman';-inkscape-font-specification:'Latin Modern Roman, '"
       x="188.77977"
       y="401.06985"
       id="text5372"><tspan
         sodipodi:role="line"
         id="tspan5370"
         x="188.77977"
         y="401.06985">10<tspan
   style="font-size:65%;baseline-shift:super"
   id="tspan5574">8</tspan></tspan></text>
    <text
       xml:space="preserve"
       style="font-style:normal;font-variant:normal;font-weight:normal;font-stretch:normal;font-size:9.33333px;line-height:1.25;font-family:'Latin Modern Roman';-inkscape-font-specification:'Latin Modern Roman, '"
       x="246.95328"
       y="401.06985"
       id="text5376"><tspan
         sodipodi:role="line"
         id="tspan5374"
         x="246.95328"
         y="401.06985">10<tspan
   style="font-size:65%;baseline-shift:super"
   id="tspan5576">9</tspan></tspan></text>
    <text
       xml:space="preserve"
       style="font-style:normal;font-variant:normal;font-weight:normal;font-stretch:normal;font-size:9.33333px;line-height:1.25;font-family:'Latin Modern Roman';-inkscape-font-specification:'Latin Modern Roman, '"
       x="305.1268"
       y="401.06985"
       id="text5380"><tspan
         sodipodi:role="line"
         id="tspan5378"
         x="305.1268"
         y="401.06985">10<tspan
   style="font-size:65%;baseline-shift:super"
   id="tspan5578">10</tspan></tspan></text>
    <text
       xml:space="preserve"
       style="font-style:normal;font-variant:normal;font-weight:normal;font-stretch:normal;font-size:9.33333px;line-height:1.25;font-family:'Latin Modern Roman';-inkscape-font-specification:'Latin Modern Roman, '"
       x="118.17084"
       y="221.76817"
       id="text5384"><tspan
         sodipodi:role="line"
         id="tspan5382"
         x="118.17084"
         y="221.76817">100</tspan></text>
    <text
       xml:space="preserve"
       style="font-style:normal;font-variant:normal;font-weight:normal;font-stretch:normal;font-size:9.33333px;line-height:1.25;font-family:'Latin Modern Roman';-inkscape-font-specification:'Latin Modern Roman, '"
       x="122.83749"
       y="278.06882"
       id="text5388"><tspan
         sodipodi:role="line"
         id="tspan5386"
         x="122.83749"
         y="278.06882">10</tspan></text>
    <text
       xml:space="preserve"
       style="font-style:normal;font-variant:normal;font-weight:normal;font-stretch:normal;font-size:9.33333px;line-height:1.25;font-family:'Latin Modern Roman';-inkscape-font-specification:'Latin Modern Roman, '"
       x="120.24282"
       y="334.91083"
       id="text5392"><tspan
         sodipodi:role="line"
         id="tspan5390"
         x="120.24282"
         y="334.91083">1.0</tspan></text>
    <text
       xml:space="preserve"
       style="font-style:normal;font-variant:normal;font-weight:normal;font-stretch:normal;font-size:9.33333px;line-height:1.25;font-family:'Latin Modern Roman';-inkscape-font-specification:'Latin Modern Roman, '"
       x="120.62549"
       y="391.6235"
       id="text5396"><tspan
         sodipodi:role="line"
         id="tspan5394"
         x="120.62549"
         y="391.6235">0.1</tspan></text>
    <text
       xml:space="preserve"
       style="font-style:normal;font-variant:normal;font-weight:normal;font-stretch:normal;font-size:9.33333px;line-height:1.25;font-family:FZShuSong-Z01;-inkscape-font-specification:FZShuSong-Z01"
       x="-321.73132"
       y="106.44781"
       id="text5400"
       transform="rotate(-90)"><tspan
         sodipodi:role="line"
         id="tspan5398"
         x="-321.73132"
         y="106.44781">半长<tspan
   style="letter-spacing:2px"
   id="tspan5480">轴</tspan><tspan
   style="font-style:italic;font-variant:normal;font-weight:normal;font-stretch:normal;font-family:'Latin Modern Roman';-inkscape-font-specification:'Latin Modern Roman, Italic';letter-spacing:2px"
   id="tspan5406">r</tspan><tspan
   style="letter-spacing:0.27px"
   id="tspan5412">(</tspan>天文单位AU)</tspan></text>
    <text
       xml:space="preserve"
       style="font-style:normal;font-variant:normal;font-weight:normal;font-stretch:normal;font-size:9.33333px;line-height:1.25;font-family:FZShuSong-Z01;-inkscape-font-specification:FZShuSong-Z01"
       x="201.50684"
       y="416.32364"
       id="text5404"><tspan
         sodipodi:role="line"
         id="tspan5402"
         x="201.50684"
         y="416.32364">周<tspan
   style="letter-spacing:2px"
   id="tspan5488">期</tspan><tspan
   style="font-style:italic;font-variant:normal;font-weight:normal;font-stretch:normal;font-family:'Latin Modern Roman';-inkscape-font-specification:'Latin Modern Roman, Italic';letter-spacing:2px"
   id="tspan5482">T</tspan>(秒)</tspan></text>
    <text
       xml:space="preserve"
       style="font-style:normal;font-variant:normal;font-weight:normal;font-stretch:normal;font-size:9.33333px;line-height:1.25;font-family:FZShuSong-Z01;-inkscape-font-specification:'FZShuSong-Z01, Normal';font-variant-ligatures:normal;font-variant-caps:normal;font-variant-numeric:normal;font-variant-east-asian:normal"
       x="106.3308"
       y="365.02133"
       id="text5494"><tspan
         sodipodi:role="line"
         id="tspan5492"
         x="106.3308"
         y="365.02133">水星</tspan></text>
    <text
       xml:space="preserve"
       style="font-style:normal;font-variant:normal;font-weight:normal;font-stretch:normal;font-size:9.33333px;line-height:1.25;font-family:FZShuSong-Z01;-inkscape-font-specification:'FZShuSong-Z01, Normal';font-variant-ligatures:normal;font-variant-caps:normal;font-variant-numeric:normal;font-variant-east-asian:normal"
       x="149.50505"
       y="351.22964"
       id="text5498"><tspan
         sodipodi:role="line"
         id="tspan5496"
         x="149.50505"
         y="351.22964">金星</tspan></text>
    <text
       xml:space="preserve"
       style="font-style:normal;font-variant:normal;font-weight:normal;font-stretch:normal;font-size:9.33333px;line-height:1.25;font-family:FZShuSong-Z01;-inkscape-font-specification:'FZShuSong-Z01, Normal';font-variant-ligatures:normal;font-variant-caps:normal;font-variant-numeric:normal;font-variant-east-asian:normal"
       x="166.49496"
       y="342.56277"
       id="text5502"><tspan
         sodipodi:role="line"
         id="tspan5500"
         x="166.49496"
         y="342.56277">地球</tspan></text>
    <text
       xml:space="preserve"
       style="font-style:normal;font-variant:normal;font-weight:normal;font-stretch:normal;font-size:9.33333px;line-height:1.25;font-family:FZShuSong-Z01;-inkscape-font-specification:'FZShuSong-Z01, Normal';font-variant-ligatures:normal;font-variant-caps:normal;font-variant-numeric:normal;font-variant-east-asian:normal"
       x="159.26103"
       y="319.16437"
       id="text5506"><tspan
         sodipodi:role="line"
         id="tspan5504"
         x="159.26103"
         y="319.16437">火星</tspan></text>
    <text
       xml:space="preserve"
       style="font-style:normal;font-variant:normal;font-weight:normal;font-stretch:normal;font-size:9.33333px;line-height:1.25;font-family:FZShuSong-Z01;-inkscape-font-specification:'FZShuSong-Z01, Normal';font-variant-ligatures:normal;font-variant-caps:normal;font-variant-numeric:normal;font-variant-east-asian:normal"
       x="228.58533"
       y="300.03043"
       id="text5510"><tspan
         sodipodi:role="line"
         id="tspan5508"
         x="228.58533"
         y="300.03043">木星</tspan></text>
    <text
       xml:space="preserve"
       style="font-style:normal;font-variant:normal;font-weight:normal;font-stretch:normal;font-size:9.33333px;line-height:1.25;font-family:FZShuSong-Z01;-inkscape-font-specification:'FZShuSong-Z01, Normal';font-variant-ligatures:normal;font-variant-caps:normal;font-variant-numeric:normal;font-variant-east-asian:normal"
       x="252.37357"
       y="284.04929"
       id="text5514"><tspan
         sodipodi:role="line"
         id="tspan5512"
         x="252.37357"
         y="284.04929">土星</tspan></text>
    <text
       xml:space="preserve"
       style="font-style:normal;font-variant:normal;font-weight:normal;font-stretch:normal;font-size:9.33333px;line-height:1.25;font-family:FZShuSong-Z01;-inkscape-font-specification:'FZShuSong-Z01, Normal';font-variant-ligatures:normal;font-variant-caps:normal;font-variant-numeric:normal;font-variant-east-asian:normal"
       x="279.18857"
       y="268.04529"
       id="text5518"><tspan
         sodipodi:role="line"
         id="tspan5516"
         x="279.18857"
         y="268.04529">天王星</tspan></text>
    <text
       xml:space="preserve"
       style="font-style:normal;font-variant:normal;font-weight:normal;font-stretch:normal;font-size:9.33333px;line-height:1.25;font-family:FZShuSong-Z01;-inkscape-font-specification:'FZShuSong-Z01, Normal';font-variant-ligatures:normal;font-variant-caps:normal;font-variant-numeric:normal;font-variant-east-asian:normal"
       x="260.43298"
       y="248.40706"
       id="text5522"><tspan
         sodipodi:role="line"
         id="tspan5520"
         x="260.43298"
         y="248.40706">海王星</tspan></text>
    <text
       xml:space="preserve"
       style="font-style:normal;font-variant:normal;font-weight:normal;font-stretch:normal;font-size:9.33333px;line-height:1.25;font-family:FZShuSong-Z01;-inkscape-font-specification:'FZShuSong-Z01, Normal';font-variant-ligatures:normal;font-variant-caps:normal;font-variant-numeric:normal;font-variant-east-asian:normal"
       x="279.03943"
       y="235.33788"
       id="text5526"><tspan
         sodipodi:role="line"
         id="tspan5524"
         x="279.03943"
         y="235.33788">冥王星</tspan></text>
  </g>
</svg>
