<?xml version="1.0" encoding="UTF-8" standalone="no"?>
<svg
   xmlns:dc="http://purl.org/dc/elements/1.1/"
   xmlns:cc="http://creativecommons.org/ns#"
   xmlns:rdf="http://www.w3.org/1999/02/22-rdf-syntax-ns#"
   xmlns:svg="http://www.w3.org/2000/svg"
   xmlns="http://www.w3.org/2000/svg"
   xmlns:xlink="http://www.w3.org/1999/xlink"
   xmlns:sodipodi="http://sodipodi.sourceforge.net/DTD/sodipodi-0.dtd"
   xmlns:inkscape="http://www.inkscape.org/namespaces/inkscape"
   version="1.1"
   id="svg1358"
   width="165.30376"
   height="173.3255"
   viewBox="0 0 165.30376 173.3255"
   sodipodi:docname="fig06.15.svg"
   inkscape:version="1.0.2 (e86c870879, 2021-01-15, custom)">
  <metadata
     id="metadata1364">
    <rdf:RDF>
      <cc:Work
         rdf:about="">
        <dc:format>image/svg+xml</dc:format>
        <dc:type
           rdf:resource="http://purl.org/dc/dcmitype/StillImage" />
        <dc:title></dc:title>
      </cc:Work>
    </rdf:RDF>
  </metadata>
  <defs
     id="defs1362">
    <marker
       style="overflow:visible"
       id="marker5671"
       refX="0"
       refY="0"
       orient="auto"
       inkscape:stockid="Arrow1Mend"
       inkscape:isstock="true">
      <path
         transform="matrix(-0.4,0,0,-0.4,-4,0)"
         style="fill:#000000;fill-opacity:1;fill-rule:evenodd;stroke:#000000;stroke-width:1pt;stroke-opacity:1"
         d="M 0,0 5,-5 -12.5,0 5,5 Z"
         id="path5669" />
    </marker>
    <marker
       style="overflow:visible"
       id="Arrow1Mstart"
       refX="0"
       refY="0"
       orient="auto"
       inkscape:stockid="Arrow1Mstart"
       inkscape:isstock="true">
      <path
         transform="matrix(0.4,0,0,0.4,4,0)"
         style="fill:#000000;fill-opacity:1;fill-rule:evenodd;stroke:#000000;stroke-width:1pt;stroke-opacity:1"
         d="M 0,0 5,-5 -12.5,0 5,5 Z"
         id="path891" />
    </marker>
    <marker
       style="overflow:visible"
       id="Arrow1Mend"
       refX="0"
       refY="0"
       orient="auto"
       inkscape:stockid="Arrow1Mend"
       inkscape:isstock="true"
       inkscape:collect="always">
      <path
         transform="matrix(-0.4,0,0,-0.4,-4,0)"
         style="fill:#000000;fill-opacity:1;fill-rule:evenodd;stroke:#000000;stroke-width:1pt;stroke-opacity:1"
         d="M 0,0 5,-5 -12.5,0 5,5 Z"
         id="path894" />
    </marker>
    <pattern
       inkscape:collect="always"
       xlink:href="#Polkadots-med"
       id="pattern4745"
       patternTransform="scale(4.1571992,4.3735992)" />
    <pattern
       inkscape:collect="always"
       patternUnits="userSpaceOnUse"
       width="10"
       height="10"
       patternTransform="translate(0,0) scale(10,10)"
       id="Polkadots-med"
       inkscape:stockid="Polka dots, medium">
      <circle
         style="fill:black;stroke:none"
         cx="2.567"
         cy="0.810"
         r="0.15"
         id="circle3967" />
      <circle
         style="fill:black;stroke:none"
         cx="3.048"
         cy="2.33"
         r="0.15"
         id="circle3969" />
      <circle
         style="fill:black;stroke:none"
         cx="4.418"
         cy="2.415"
         r="0.15"
         id="circle3971" />
      <circle
         style="fill:black;stroke:none"
         cx="1.844"
         cy="3.029"
         r="0.15"
         id="circle3973" />
      <circle
         style="fill:black;stroke:none"
         cx="6.08"
         cy="1.363"
         r="0.15"
         id="circle3975" />
      <circle
         style="fill:black;stroke:none"
         cx="5.819"
         cy="4.413"
         r="0.15"
         id="circle3977" />
      <circle
         style="fill:black;stroke:none"
         cx="4.305"
         cy="4.048"
         r="0.15"
         id="circle3979" />
      <circle
         style="fill:black;stroke:none"
         cx="5.541"
         cy="3.045"
         r="0.15"
         id="circle3981" />
      <circle
         style="fill:black;stroke:none"
         cx="4.785"
         cy="5.527"
         r="0.15"
         id="circle3983" />
      <circle
         style="fill:black;stroke:none"
         cx="2.667"
         cy="5.184"
         r="0.15"
         id="circle3985" />
      <circle
         style="fill:black;stroke:none"
         cx="7.965"
         cy="1.448"
         r="0.15"
         id="circle3987" />
      <circle
         style="fill:black;stroke:none"
         cx="7.047"
         cy="5.049"
         r="0.15"
         id="circle3989" />
      <circle
         style="fill:black;stroke:none"
         cx="4.340"
         cy="0.895"
         r="0.15"
         id="circle3991" />
      <circle
         style="fill:black;stroke:none"
         cx="7.125"
         cy="0.340"
         r="0.15"
         id="circle3993" />
      <circle
         style="fill:black;stroke:none"
         cx="9.553"
         cy="1.049"
         r="0.15"
         id="circle3995" />
      <circle
         style="fill:black;stroke:none"
         cx="7.006"
         cy="2.689"
         r="0.15"
         id="circle3997" />
      <circle
         style="fill:black;stroke:none"
         cx="8.909"
         cy="2.689"
         r="0.15"
         id="circle3999" />
      <circle
         style="fill:black;stroke:none"
         cx="9.315"
         cy="4.407"
         r="0.15"
         id="circle4001" />
      <circle
         style="fill:black;stroke:none"
         cx="7.820"
         cy="3.870"
         r="0.15"
         id="circle4003" />
      <circle
         style="fill:black;stroke:none"
         cx="8.270"
         cy="5.948"
         r="0.15"
         id="circle4005" />
      <circle
         style="fill:black;stroke:none"
         cx="7.973"
         cy="7.428"
         r="0.15"
         id="circle4007" />
      <circle
         style="fill:black;stroke:none"
         cx="9.342"
         cy="8.072"
         r="0.15"
         id="circle4009" />
      <circle
         style="fill:black;stroke:none"
         cx="8.206"
         cy="9.315"
         r="0.15"
         id="circle4011" />
      <circle
         style="fill:black;stroke:none"
         cx="9.682"
         cy="9.475"
         r="0.15"
         id="circle4013" />
      <circle
         style="fill:black;stroke:none"
         cx="9.688"
         cy="6.186"
         r="0.15"
         id="circle4015" />
      <circle
         style="fill:black;stroke:none"
         cx="3.379"
         cy="6.296"
         r="0.15"
         id="circle4017" />
      <circle
         style="fill:black;stroke:none"
         cx="2.871"
         cy="8.204"
         r="0.15"
         id="circle4019" />
      <circle
         style="fill:black;stroke:none"
         cx="4.59"
         cy="8.719"
         r="0.15"
         id="circle4021" />
      <circle
         style="fill:black;stroke:none"
         cx="3.181"
         cy="9.671"
         r="0.15"
         id="circle4023" />
      <circle
         style="fill:black;stroke:none"
         cx="5.734"
         cy="7.315"
         r="0.15"
         id="circle4025" />
      <circle
         style="fill:black;stroke:none"
         cx="6.707"
         cy="6.513"
         r="0.15"
         id="circle4027" />
      <circle
         style="fill:black;stroke:none"
         cx="5.730"
         cy="9.670"
         r="0.15"
         id="circle4029" />
      <circle
         style="fill:black;stroke:none"
         cx="6.535"
         cy="8.373"
         r="0.15"
         id="circle4031" />
      <circle
         style="fill:black;stroke:none"
         cx="4.37"
         cy="7.154"
         r="0.15"
         id="circle4033" />
      <circle
         style="fill:black;stroke:none"
         cx="0.622"
         cy="7.25"
         r="0.15"
         id="circle4035" />
      <circle
         style="fill:black;stroke:none"
         cx="0.831"
         cy="5.679"
         r="0.15"
         id="circle4037" />
      <circle
         style="fill:black;stroke:none"
         cx="1.257"
         cy="8.519"
         r="0.15"
         id="circle4039" />
      <circle
         style="fill:black;stroke:none"
         cx="1.989"
         cy="6.877"
         r="0.15"
         id="circle4041" />
      <circle
         style="fill:black;stroke:none"
         cx="0.374"
         cy="3.181"
         r="0.15"
         id="circle4043" />
      <circle
         style="fill:black;stroke:none"
         cx="1.166"
         cy="1.664"
         r="0.15"
         id="circle4045" />
      <circle
         style="fill:black;stroke:none"
         cx="1.151"
         cy="0.093"
         r="0.15"
         id="circle4047" />
      <circle
         style="fill:black;stroke:none"
         cx="1.151"
         cy="10.093"
         r="0.15"
         id="circle4049" />
      <circle
         style="fill:black;stroke:none"
         cx="1.302"
         cy="4.451"
         r="0.15"
         id="circle4051" />
      <circle
         style="fill:black;stroke:none"
         cx="3.047"
         cy="3.763"
         r="0.15"
         id="circle4053" />
    </pattern>
  </defs>
  <sodipodi:namedview
     pagecolor="#ffffff"
     bordercolor="#666666"
     borderopacity="1"
     objecttolerance="10"
     gridtolerance="10"
     guidetolerance="10"
     inkscape:pageopacity="0"
     inkscape:pageshadow="2"
     inkscape:window-width="1920"
     inkscape:window-height="1001"
     id="namedview1360"
     showgrid="false"
     showguides="true"
     inkscape:guide-bbox="true"
     inkscape:snap-midpoints="true"
     inkscape:zoom="4.6213626"
     inkscape:cx="82.651875"
     inkscape:cy="85.889662"
     inkscape:window-x="-9"
     inkscape:window-y="-9"
     inkscape:window-maximized="1"
     inkscape:current-layer="g1366">
    <sodipodi:guide
       position="34.59676,19.405793"
       orientation="1,0"
       id="guide5603" />
    <sodipodi:guide
       position="43.61329,42.243594"
       orientation="1,0"
       id="guide5605" />
  </sodipodi:namedview>
  <g
     inkscape:groupmode="layer"
     inkscape:label="Image"
     id="g1366"
     transform="translate(-228.2031,-109.94894)">
    <rect
       style="fill:url(#pattern4745);fill-opacity:1;stroke:none"
       id="rect2733"
       width="142.64748"
       height="109.3609"
       x="236.26317"
       y="173.91354" />
    <rect
       style="fill:#ffffff;stroke:#000000"
       id="rect4752"
       width="55.277729"
       height="91.428207"
       x="280.09335"
       y="172.44044" />
    <path
       id="path2543"
       style="fill:#000000;stroke-width:3.77953"
       d="m 360.95972,172.75862 c -1.87693,-0.2383 -4.16493,0.35308 -3.25662,-2.4092 -0.46778,-4.89467 1.04735,-9.67953 0.97385,-14.57041 0.0662,-3.65837 0.77742,-7.76558 -1.68453,-10.86464 -2.26567,-1.62452 -2.93612,-5.86932 -5.67269,-6.15797 -2.60241,0.17083 -1.36841,-2.72872 -3.40906,-2.7082 -1.90675,-2.00318 2.8618,-3.42316 1.54809,-5.28348 -0.91626,0.88152 -3.07131,1.01645 -3.16248,2.28909 1.28804,2.71552 -2.87947,5.43193 -4.98782,3.79066 -1.51987,-0.19022 -4.60109,0.85966 -3.83724,-2.02342 -2.44478,-1.59723 -2.23271,-7.05689 1.72363,-5.64326 2.0139,-2.40932 5.63361,-0.48623 5.48835,1.68241 2.79806,-0.45651 5.39243,-2.21679 4.78476,-5.34985 -0.28743,-2.78602 1.72372,-6.66542 -2.36441,-6.95166 -0.50903,-1.63492 2.35019,-2.51078 0.28844,-3.99208 0.50391,-2.85596 4.54823,-2.8839 6.8742,-3.27237 1.6692,-1.74565 5.37891,-1.70938 7.24843,-0.37014 0.70743,1.20148 1.07901,2.98588 1.56066,4.0585 1.84531,0.74126 5.48187,1.41786 4.95731,3.97851 -0.70772,1.10335 -2.18664,0.67321 -0.49084,1.71961 -1.18809,1.51761 1.14652,3.55332 -1.29449,4.10721 -2.99435,1.01264 -6.50835,1.34028 -9.36098,-0.22148 -2.26925,-0.85924 -3.97384,3.08755 -3.96782,4.27634 2.53053,0.0123 3.44063,-4.08001 6.29545,-1.89163 2.46454,1.36497 5.34774,0.86324 7.99368,0.77313 2.20079,0.73872 1.1471,3.47601 3.29918,4.22045 0.2765,1.92583 -2.48809,1.82706 -2.74066,3.51602 -1.74732,1.12842 -5.97843,0.51766 -3.8222,3.5043 1.18567,2.7759 0.75856,5.82856 1.10085,8.72387 2.04422,-1.23845 3.81822,-3.8309 5.9235,-5.39604 0.84393,-1.23422 -3.0114,-0.40087 -3.37621,-2.26393 -1.01994,-2.35096 1.19586,-5.7012 3.96971,-5.81255 2.15143,-2.13235 5.42171,-1.74901 8.28579,-1.76273 2.56589,-0.29108 6.50957,1.33031 6.39216,4.25731 2.0114,1.13004 5.33921,2.96309 5.90063,5.65593 1.28962,1.54289 1.40295,3.94343 0.67761,5.1253 0.37599,2.60465 -4.5695,3.16137 -6.74039,3.59884 -2.75574,-0.4393 -3.59399,-3.37515 -6.34073,-4.07965 0.57854,-1.71236 -2.23608,-1.83827 -1.73097,-4.07865 -1.75261,-0.16452 -5.08423,1.54771 -6.92737,3.01929 -2.43199,1.7973 -4.44898,4.28878 -4.84488,7.371 -1.10491,5.35936 -0.65481,10.89956 -0.33862,16.32152 0.13783,1.7605 1.54577,4.09598 -1.38096,3.39877 -1.18827,-0.0246 -2.38181,-0.0831 -3.55431,-0.28472 z m 4.41597,-0.77417 c 0.0804,-2.51465 -3.34906,-1.62271 -3.1079,-4.46111 -0.89274,-3.44784 -1.44266,-7.49286 0.44683,-10.69996 1.43888,-0.64756 3.08921,0.0897 2.53613,-2.40288 -0.0743,-4.41688 3.3235,-7.59001 6.47396,-10.16194 1.22768,-0.64341 5.71439,-2.28238 1.96353,-1.34194 -1.92841,1.33825 -1.36778,-2.54561 -2.37284,0.0158 -2.05446,1.98836 -3.91991,4.61852 -6.59494,5.67672 -1.3632,-2.38641 -0.16486,-5.71821 -1.11233,-8.38504 -0.7755,-1.22998 -1.48082,-4.98361 -1.77081,-5.13956 -0.82215,3.25271 1.02374,6.38997 0.81541,9.65623 0.64015,1.62906 0.0806,2.34499 -1.0978,0.77715 -2.88793,-2.02054 -3.96772,-6.19906 -7.29499,-7.4445 -2.04644,1.34345 2.4601,4.27824 3.26873,5.97657 3.39602,4.12512 2.04305,9.79549 1.6927,14.64146 -0.4287,4.16832 -1.18613,8.44016 -0.35444,12.59974 2.1203,-0.092 4.69839,1.44692 6.50876,0.69289 z m -3.89496,-18.48348 c -0.76243,-1.36085 0.004,-7.0107 0.39908,-3.03505 -0.21769,0.46354 0.71675,4.59183 -0.39908,3.03505 z m 2.93595,15.48765 c 0.52605,-0.97766 0.82139,-3.58518 -0.81317,-2.68014 -1.27671,-2.44547 -0.44687,-5.51461 1.20755,-7.16345 0.18849,-3.31205 -3.26956,-1.36016 -2.61004,0.97272 0.0255,3.04366 -0.20629,6.73566 1.67294,9.20965 l 0.24355,-0.0994 0.29917,-0.23928 z m 0.001,-4.14542 c 0.78983,-1.08988 0.43965,-6.09946 -0.62045,-2.7269 -0.16697,0.42285 -0.36274,4.49458 0.62045,2.7269 z m 25.05055,-15.10863 c 1.70662,-0.30167 3.62518,-0.7281 2.56515,-2.62325 1.18897,-2.19619 -0.81163,-4.49959 -1.818,-6.32322 -1.63302,-2.34027 -4.36571,-3.01163 -7.1072,-2.91011 -1.90071,-0.28206 -5.37905,0.84313 -4.38555,2.96022 2.48621,-0.74533 1.25036,0.77928 0.0106,1.55467 -1.00448,2.35686 3.23229,2.29757 1.84742,4.44311 1.96661,0.74663 3.41705,1.62471 4.08004,3.22772 1.58278,0.41544 3.24062,-0.0459 4.80694,-0.32914 z m -27.62064,-6.11475 c -0.41384,-1.91714 -0.48665,-5.59001 -1.83463,-6.24539 -0.95173,0.6381 -5.44077,-0.50073 -3.27832,1.2487 1.6919,1.69976 3.09507,4.81644 5.08133,5.50847 z m 11.87857,-1.69084 c 1.81906,-0.37765 4.8134,0.3532 4.05101,-2.50878 1.02493,-3.13217 4.64276,-2.11934 7.1871,-2.53794 1.74172,-1.85676 -3.52068,-4.62343 -5.50545,-3.17851 -2.20753,-0.21643 -5.80402,-0.84543 -6.89165,1.2473 -2.63303,-0.32789 -5.54871,2.86252 -4.06924,5.05592 1.35656,1.6854 3.58086,0.31685 2.66309,-1.30086 2.77397,-0.69854 0.56303,3.95167 2.56514,3.22287 z m -20.04399,-4.65297 c 2.30712,-1.35463 6.88136,1.03057 7.42737,-2.41631 0.23659,-0.96014 0.40678,-4.57063 1.30399,-1.99201 2.73429,-3.13852 -1.59918,4.68562 1.83555,2.92901 0.98778,-0.7121 3.43343,-0.22838 3.38148,-1.8786 0.076,-1.20566 3.72306,-1.30142 1.16128,-2.47064 -1.58234,-0.53173 0.21941,-3.3172 -2.31475,-2.73829 -3.09374,0.34296 -6.09848,0.1122 -8.92159,-1.24943 -1.04637,-0.27322 -2.32784,-0.0202 -1.0309,0.80435 -1.63138,1.41899 -6.03828,1.95759 -6.05585,4.04689 0.3737,0.89506 -3.77281,2.46966 -0.40384,3.28858 1.61755,0.80508 -2.32726,2.75385 0.81689,2.1767 0.94565,-0.0825 1.88557,-0.24583 2.80037,-0.50025 z m -10.1051,-1.00403 c 3.3264,-0.56456 1.72385,-4.78155 -1.13768,-2.57848 -1.23261,0.11307 -5.80769,1.4719 -3.27891,2.44617 1.53345,-1.15255 2.22871,-0.78642 3.45391,0.50889 0.38202,0.11308 0.65823,-0.23717 0.96268,-0.37658 z m -4.98845,-2.5519 c 2.3638,-0.14942 1.21904,-0.51512 0.66338,-1.70622 1.34512,-0.023 2.33368,1.61436 3.70907,0.62321 1.39444,-0.40347 4.41995,-1.3532 4.42623,-1.82608 -1.85193,0.92502 -6.09663,2.45053 -3.89287,-0.98148 -1.76949,-2.72012 -3.88966,1.53079 -6.22506,0.1934 -1.09655,0.23324 -0.53523,4.89784 1.31925,3.69717 z m 12.7773,-3.91354 c 1.94102,-1.8551 -0.65882,-5.17994 0.007,-7.70297 0.6604,-1.61788 -1.04165,-3.40129 -1.15985,-0.89271 0.14433,2.82966 -0.70371,6.73749 0.53575,8.94033 l 0.26412,-0.13642 0.35151,-0.20826 z m 1.84656,-3.85538 c 1.71055,-2.11656 -1.99413,0.28381 -0.51322,0.65337 l 0.20606,-0.22587 z m -0.51857,-1.26939 c 2.10493,-0.58798 2.80681,-3.8742 -0.12028,-3.19868 -1.09371,-0.66615 -0.47919,3.9935 0.12028,3.19868 z m 11.4948,-0.0899 c 2.04251,-0.0432 3.02258,-0.82289 1.6969,-2.14871 2.39853,-1.56299 -1.06117,-1.66028 -0.95874,-2.69613 3.44925,-0.83427 2.12647,-4.11019 -0.99987,-3.61121 -1.47293,-0.0105 -4.67433,-0.59283 -2.90982,1.30328 0.19786,1.47973 -4.99354,2.5849 -2.93977,3.45323 1.62943,-0.35319 -1.05669,1.73514 1.32049,1.1789 2.3407,1.6978 -4.524,1.13052 -1.05891,2.10896 1.86988,0.76207 3.88955,0.68488 5.84972,0.41168 z m -7.304,-1.74182 c 1.40891,-1.27659 -2.25311,1.19714 0,0 z m -1.07827,-0.54238 c 0.6628,-1.51371 -1.52854,0.85648 0,0 z m 0.54607,-1.51682 c -0.0639,-2.34004 5.98535,-1.57715 2.87128,-3.8068 -1.49594,-0.63369 -4.20542,-1.48887 -1.97775,-3.04665 -0.49027,-2.67827 -5.30314,-1.83932 -7.37262,-0.88155 -1.86957,0.44966 -1.88792,1.97131 -0.43988,3.00591 -1.73638,0.67081 -2.44495,2.66608 0.007,2.68751 2.64731,0.13696 3.83496,3.28972 6.91266,2.04158 z m -4.13309,-3.72598 c 0.42718,-2.0499 5.66526,-0.10921 2.21083,-0.03 -0.54254,-0.49654 -2.32315,0.95538 -2.21083,0.03 z m 8.4038,-1.98479 c 2.21894,-0.61503 1.75671,-1.94028 0.28443,-3.02163 0.18501,-1.83465 -4.84576,-1.95691 -4.91507,-0.49295 2.5347,-0.0989 1.51146,3.21595 1.82712,3.8719 0.93415,0.30293 2.00805,0.28758 2.80352,-0.35732 z" />
    <path
       id="path2545"
       style="fill:#000000;stroke-width:3.77953"
       d="m 253.03733,173.67034 c -1.25495,-0.36894 -3.25647,0.50227 -4.15186,-0.29237 -0.74222,-3.58326 0.31184,-7.22643 0.69325,-10.80536 -0.28607,-2.1517 2.68316,-5.863 -1.00928,-6.56739 -3.38157,-1.01132 -6.45548,-2.85594 -8.36176,-5.46397 -2.19054,-0.56179 -6.30625,-0.71224 -5.59283,-3.78342 0.60825,-1.56824 -2.08692,-1.43696 -2.2108,-2.91097 -0.67192,-2.55441 2.06921,-5.1767 4.48252,-6.38297 2.05968,-1.05183 4.53023,0.32789 6.09501,0.32615 2.2143,-1.83181 5.19183,-0.0547 7.05148,0.18336 1.51508,-0.28377 3.14001,-0.28013 1.68904,-1.88411 -1.43964,-2.34226 -2.66871,-4.7948 -4.04128,-7.14781 -2.59515,0.0452 -4.93056,-2.57396 -2.63421,-4.305 -2.60523,-1.26469 -0.93402,-4.54618 1.71173,-4.8093 2.40538,0.0515 3.62693,-2.99361 6.46272,-2.20587 1.48175,0.72827 2.34729,1.43273 4.1368,0.85961 2.8992,0.10308 3.8285,2.69937 2.75655,4.22347 2.08572,0.98997 2.02291,4.00892 -0.57629,4.41029 -2.16433,0.56219 -2.39864,3.5009 -3.75318,5.02464 -1.22479,1.53675 1.87308,0.46034 2.66493,1.21221 0.0305,-1.88805 2.06761,-2.96469 2.48242,-4.73496 1.93685,-1.39301 5.39036,-2.84591 7.54443,-1.08337 2.78067,-0.06 6.60045,0.41677 6.28629,3.57465 -0.84817,1.19935 -1.24459,1.95319 -0.86716,3.35557 -0.53427,2.81085 -3.88318,2.73273 -6.37286,3.28018 -2.76721,1.26348 -5.79049,2.08287 -8.50844,3.41056 -2.70903,0.41267 -0.53448,2.96482 -2.1733,4.45056 -0.81752,2.39259 0.53391,4.94547 0.85699,7.36252 0.3917,2.4956 2.8765,-1.63636 3.6362,-2.3319 -2.3433,-0.84241 -1.35685,-3.46247 -1.55701,-5.13727 -1.1193,-2.33181 1.74528,-3.22353 3.504,-3.75053 1.43851,-2.09278 4.66574,-0.82087 5.83211,0.45042 2.51118,-0.51678 3.81059,1.38889 5.37361,2.45395 2.3845,1.85157 0.23797,3.97394 -1.36014,5.22732 -0.30318,1.76551 -2.92513,2.46906 -4.66001,1.93112 -1.92947,-1.22137 -4.53633,0.0397 -5.36771,1.75303 -1.09608,2.25563 -4.78891,3.71842 -4.03747,6.41643 0.61428,4.2835 1.54631,8.53954 1.89259,12.8477 -1.30449,1.80331 -5.68963,0.49624 -7.91708,0.84283 z m -0.45348,-0.68795 c 2.57262,0.0189 5.16643,0.1092 7.70836,-0.30098 0.43648,-2.7265 -3.15656,-3.14412 -3.85337,-5.51169 -1.42114,-2.18843 -2.63417,-4.98584 -1.3562,-7.4027 1.2263,-1.78628 3.58313,-2.98072 2.20885,-5.29275 -0.58371,-2.4678 -1.22126,-4.95768 -1.56037,-7.44148 -3.24329,-0.48964 -3.21598,2.76541 -3.52502,4.64559 -0.0257,1.60714 -0.35022,3.80775 -2.73487,2.2232 -2.09876,-0.58624 -3.88103,-1.54057 -3.92207,-3.32895 -1.42346,0.11496 -0.72713,2.23724 -2.5309,0.65945 -0.92711,-0.62339 -3.39492,-2.61831 -1.50383,-0.44899 1.97069,3.16884 6.61832,3.65663 9.84501,5.55287 -0.33029,4.32835 -1.68695,8.56807 -1.73072,12.92426 -0.14408,1.69049 -0.78313,4.77293 2.47778,3.73056 l 0.47735,-0.009 z m -2.14703,-1.88901 c -0.16253,-1.47033 -0.16974,-4.8487 1.02854,-5.16112 -0.0371,1.76531 -0.22855,3.52824 -0.29862,5.29421 -0.24363,0.0119 -0.59168,0.11835 -0.72992,-0.13314 z m 1.31566,-9.00935 c -0.6721,-1.47825 1.24573,-3.3049 0.82094,-0.97273 0.012,0.36403 -0.16332,1.26769 -0.82094,0.97273 z m 0.49869,-3.96489 c -0.22539,-1.37376 -0.0397,-4.26516 1.08234,-4.72146 0.11048,1.25122 0.40134,4.375 -1.08234,4.72146 z m 7.17607,10.42511 c -0.91538,-2.45832 -3.78019,-4.50356 -3.20489,-7.26342 0.44962,-0.54481 2.5084,-3.68092 0.81786,-2.64826 -2.09047,1.61772 -2.14035,4.25635 -0.92135,6.28799 1.00283,1.06076 1.79816,4.41063 3.32081,3.96458 l -0.012,-0.34089 z m -0.0332,-2.51773 c -1.55576,-1.89146 -1.02652,-4.01115 -1.31102,-6.01523 -2.41486,1.65241 -0.78222,4.18724 0.70044,5.84068 0.16833,0.67484 1.15868,1.49476 0.61058,0.17455 z m -0.0465,-9.28226 c 1.01815,-1.74549 4.77067,-3.80353 3.68477,-5.56674 -1.8485,-0.97801 -2.78495,2.59709 -4.42092,3.29806 -0.78295,0.33722 -0.16914,4.05768 0.73615,2.26868 z m -8.07907,-3.49123 c -0.006,-1.30808 1.89588,-5.18931 -0.94694,-2.93831 -0.9925,0.83179 -3.87033,-0.27074 -3.5221,1.37962 1.23361,0.69817 3.04564,1.76807 4.46904,1.55869 z m 20.2416,-2.3689 c 1.78873,-0.81006 -0.78018,-2.69008 1.7798,-2.40821 3.18248,-0.62442 1.23412,-3.58109 -0.71731,-4.16869 0.0858,-2.23435 -3.32962,-1.33802 -4.23035,-1.46557 -0.81907,-1.94826 -4.43199,-1.79385 -5.03882,0.27468 -0.89562,0.25607 -3.581,-0.11242 -2.96878,1.90112 -0.0529,1.19073 2.90262,1.17118 0.42569,2.02398 -1.01581,1.63143 0.64797,2.61773 2.02659,3.00229 1.73195,2.1042 4.4417,-0.6309 6.43123,1.13657 0.75005,0.10121 1.76103,0.32494 2.29195,-0.29617 z m -27.45158,-0.2834 c 0.51774,-1.29131 -3.63696,-2.71976 -1.6545,-0.88532 0.51291,0.20378 1.03121,1.2106 1.6545,0.88532 z m 5.35102,-0.79766 c 2.30594,-0.22199 2.39478,-3.07309 4.11899,-3.4101 2.5442,-0.09 5.59255,-4.48414 1.52369,-4.66398 0.88781,-1.83835 -2.04922,-3.92877 -4.36719,-3.00433 -2.4185,1.32101 -3.67554,-2.51458 -6.22193,-0.53826 -2.36578,1.68359 -4.61563,-1.76344 -7.30759,0.0971 -2.09217,1.22192 -4.88888,3.37248 -3.75144,5.78001 0.80148,1.18774 4.07496,0.53271 1.90548,2.30002 -0.96772,2.84511 3.40268,3.80348 5.53648,2.2073 2.2413,-2.53869 3.89209,2.48779 7.01759,1.4204 0.51726,-0.0409 1.04397,-0.0657 1.54592,-0.18819 z m 8.14425,-8.80487 c 2.61076,-0.91472 3.73094,-2.66825 5.30496,-4.44086 -2.18993,0.72499 -4.10336,2.79561 -5.83203,4.34883 -1.15112,0.18297 0.0647,0.64662 0.52707,0.0921 z m -1.1018,-1.01776 c 0.97478,-1.03074 -0.34616,-3.80682 -0.72881,-1.30442 -0.19959,0.21493 0.44798,2.11071 0.72881,1.30442 z m 1.69599,-1.2454 c 0.69072,-0.82882 3.96068,-2.57925 3.37795,-3.00335 -2.03577,-1.03905 -1.4629,1.89542 -3.6778,1.89008 -0.44127,0.5421 -1.1293,2.53105 0.29985,1.11327 z m 6.05621,-0.42343 c 3.24898,-1.32134 -1.86491,-0.0744 -1.92683,0.61087 0.67747,-0.11038 1.30703,-0.36386 1.92683,-0.61087 z m -10.06766,-0.49267 c -1.4822,-2.08435 -0.43313,-4.32888 0.8911,-6.23968 0.64206,-0.90326 2.52635,-3.95225 0.53097,-1.86525 -0.51642,1.0079 -2.30649,4.48726 -2.35639,1.53258 0.54464,-1.52337 -1.9493,-2.31907 -0.89568,-0.3356 0.64561,0.97567 0.38955,3.13964 -1.05326,1.37978 -0.61324,-0.68013 -2.49297,-3.84386 -2.58746,-2.94133 1.53734,2.78854 3.44312,5.42388 4.69013,8.32523 0.0398,0.20868 0.90985,0.61391 0.78059,0.14433 z m 1.1642,-0.0657 c 0.55636,-2.66569 -1.62004,0.11139 0,0 z m 8.494,-0.29777 c 1.50296,-1.02991 -1.87156,0.0903 -0.53426,0.26811 z m -5.29527,-0.61953 c 1.82691,-1.6117 -0.99194,-3.50596 -2.92558,-3.08249 -2.36085,0.44062 -1.96453,2.77503 0.0966,2.43766 0.4975,1.07086 1.79012,0.78542 2.82906,0.64483 z m 10.12612,-0.10374 c 2.17565,0.0555 4.94606,-0.88831 4.67633,-3.25608 -1.5538,-1.40888 2.42071,-2.43554 0.46853,-4.1621 -1.33059,-1.92937 -4.84696,-0.11632 -5.86671,-1.1713 -1.79388,-1.87718 -5.39352,-0.36646 -6.88724,1.16435 -0.35413,1.07532 0.70042,1.84581 -1.06576,2.28845 -2.04593,2.09475 0.97967,3.79241 3.24029,3.37609 0.31651,2.12965 3.55096,2.27969 5.43456,1.76059 z m -16.77678,-5.1576 c 0.19138,-1.30622 -1.6958,-3.17341 -2.41333,-2.96145 0.73483,0.79202 1.71399,2.95279 2.41333,2.96145 z m 2.40479,-0.67304 c 1.62215,-0.77871 0.0609,-2.226 -0.53029,-0.8547 0.0393,0.43661 -0.21198,2.0962 0.53029,0.8547 z m 0.0538,-1.81266 c 2.55666,-0.17829 3.16087,-3.10694 5.38124,-2.4925 2.65987,-1.06448 0.50512,-3.13955 -0.67917,-4.11064 2.89218,-1.99522 -1.92191,-4.10506 -4.08397,-3.01743 -1.65339,-2.50175 -5.67448,-0.34995 -6.96934,1.11631 -3.24922,-0.74001 -4.72243,2.93958 -2.32142,4.15724 -3.04456,1.65534 1.92956,4.96097 3.20501,2.68488 0.0313,-1.88033 1.18492,1.84151 2.64688,1.5431 0.90346,0.25855 1.8906,0.2823 2.82077,0.11904 z" />
    <path
       id="path2586"
       style="fill:#000000;stroke:none;stroke-width:1;stroke-miterlimit:4;stroke-dasharray:none;stroke-opacity:1"
       d="m 304.11605,168.71753 c -0.25376,-0.006 -0.62433,0.003 -1.13852,0.0316 -5.05909,0.2356 -7.80407,1.38546 -9.54702,2.44443 -0.37997,0.14282 -1.2701,0.87844 -1.11421,0.39921 -0.23334,-0.49736 0.5064,-1.56651 -1.10069,-1.67695 -1.71295,0.83469 -4.92199,1.43421 -8.395,1.80908 -1.93786,-0.22449 3.04827,-1.4007 1.44913,-1.8892 -4.5037,0.22464 -6.72137,1.32203 -9.33363,2.10848 -1.80447,-0.82594 -3.34672,-1.74227 -5.87758,-2.47887 -1.9005,-0.27675 -1.84299,-0.0334 -0.63341,0.22561 0.20806,0.79427 -1.06826,1.56314 -2.41478,2.27364 -1.03687,0.72993 -0.65731,-0.20264 -1.098,-0.50533 -0.63089,-1.09635 -3.74085,0.30364 -4.33795,0.70423 -0.86863,0.084 0.4988,-0.942 0.79817,-1.25665 -0.0918,-0.41934 4.26978,-1.44609 1.07368,-1.16599 -5.40115,0.69022 -9.27312,1.89731 -12.47501,3.12407 -0.0816,-0.8472 0.40103,-1.71313 1.7044,-2.49786 -2.5633,-0.14889 -5.25727,0.65482 -6.55556,1.18778 -0.7462,0.49638 -0.73814,0.16579 -0.71985,-0.17711 -0.45878,-0.70378 0.78713,-1.50822 -0.14315,-2.13519 -2.51404,0.51802 -3.19285,1.41838 -3.67755,2.18017 -1.25015,0.0587 -5.16997,-0.8805 -8.05331,-0.65363 -4.75327,0.13423 2.25099,0.32109 2.589,0.83074 0.084,0.23755 2.66562,0.97193 0.17692,0.78998 -2.34094,-0.0131 -5.18912,-0.14888 -7.08903,0.21507 2.39432,0.11271 5.08727,0.37651 6.48804,0.95514 1.77577,0.36721 -2.76379,0.33563 -2.52688,0.77171 v 7.2e-4 l 0.28497,0.008 c 22.85056,0.0692 45.70493,0.0488 68.55785,0.0232 -0.003,0.0147 -0.014,0.0284 -0.006,0.0443 v 7.2e-4 l 0.28496,0.008 c 27.21273,0.0824 54.43154,0.0411 81.64602,0.0105 3.3592,-0.0726 7.92326,0.10947 10.57479,-0.13213 -1.71141,-0.31854 -3.8289,-0.47513 -5.76009,-0.70283 -1.42312,-0.22842 4.10121,-0.15163 4.92545,-0.42662 -2.36621,-0.46582 -5.51856,-0.69077 -8.38825,-0.94811 -4.51132,-0.17416 3.69215,-0.53299 3.16297,-0.88416 -4.05372,-0.26731 -8.48953,-0.0903 -12.37236,0.26356 -0.87959,-0.40807 1.40515,-1.2319 1.50316,-1.79783 -1.71943,-0.0543 -4.33335,0.61959 -6.10853,0.9193 -3.03507,0.77062 -0.9363,-0.40753 0.10939,-0.74992 0.24886,-0.37844 5.3493,-1.37129 1.23576,-1.1428 -5.05908,0.2356 -7.80405,1.38547 -9.54703,2.44444 -0.37994,0.14282 -1.27022,0.87843 -1.1142,0.3992 -0.23333,-0.49736 0.50641,-1.56721 -1.10069,-1.67765 -1.71295,0.8347 -4.92199,1.43491 -8.39501,1.80978 -1.93786,-0.22449 3.0483,-1.40069 1.44914,-1.8892 -4.50368,0.22464 -6.72272,1.32133 -9.33498,2.10778 -1.80448,-0.82593 -3.34538,-1.74156 -5.87624,-2.47817 -1.9005,-0.27674 -1.84297,-0.0341 -0.63341,0.22491 0.20809,0.79427 -1.06825,1.56384 -2.41477,2.27435 -1.03687,0.72993 -0.65731,-0.20334 -1.098,-0.50604 -0.63089,-1.09635 -3.74085,0.30435 -4.33796,0.70494 -0.86863,0.084 0.49881,-0.94201 0.79817,-1.25666 -0.0917,-0.41933 4.26978,-1.44678 1.07369,-1.16669 -4.81406,0.6152 -8.40989,1.64184 -11.40268,2.72627 -0.34411,-0.0351 -0.69702,-0.0658 -1.04667,-0.0984 0.11931,-0.68499 0.62929,-1.36981 1.67873,-2.00165 -1.82871,-0.10623 -2.96625,0.18137 -4.37385,0.6006 -0.74751,-0.01 -1.41084,0.84316 -2.16191,0.85583 -0.0403,-0.62186 -0.087,-2.04388 -0.8828,-2.58026 -2.27313,0.46839 -3.04346,1.24822 -3.52898,1.95668 -0.5385,0.0309 -1.07138,0.0659 -1.5977,0.10472 -0.5438,-0.0714 -1.17889,-0.16517 -1.857,-0.25653 0.30641,-0.42753 1.55797,-0.9838 1.63011,-1.40074 -1.71944,-0.0543 -4.33333,0.6189 -6.10853,0.9186 -0.54398,0.13812 -0.91716,0.21211 -1.16687,0.24107 -0.0746,0.004 -0.20802,0.007 -0.26876,0.0112 -0.55969,-0.0461 0.77607,-0.74931 1.54638,-1.00154 0.21776,-0.33112 4.14916,-1.13291 2.37291,-1.17512 z"
       sodipodi:nodetypes="sccccccccccccccccccccccccccccccccccccccccccccccccccccccccccccccccccccccs" />
    <path
       id="path2636-4"
       style="fill:#ffffff;stroke-width:3.7795"
       d="m 302.5224,169.25101 c -0.22634,0.002 -0.6441,0.0459 -1.32489,0.15278 -5.34986,0.58321 -6.21304,1.98663 -8.95278,3.01544 -1.7715,-0.15536 -0.36395,-1.30176 -1.06828,-1.80087 -1.4465,0.32701 -4.82892,1.15004 -8.02631,1.37309 -1.72287,0.28498 -3.91367,0.254 -2.2095,-0.26928 0.41757,-0.41693 3.12247,-1.23755 2.35131,-1.4342 -4.02349,0.46401 -5.85216,1.44333 -8.53681,2.19108 -1.89694,-0.46375 -2.44038,-1.52811 -4.60132,-2.14015 -2.01028,-0.63832 -0.59115,0.89908 -2.13791,1.16175 -1.04077,0.40091 -1.62456,1.15742 -3.44931,1.29351 -0.51822,-0.43035 0.0638,-1.96646 -2.30809,-0.92175 -0.86032,0.2833 -2.6213,1.61942 -3.06979,0.68623 0.31991,-0.80589 1.10127,-1.62661 2.85371,-2.34259 -4.52347,0.58185 -7.9575,1.52415 -10.83545,2.47308 -0.35152,0.33772 -2.02969,0.82838 -2.00421,0.1776 -0.28562,-0.72009 0.0742,-1.44732 1.17228,-2.1306 -2.83405,0.32991 -4.72814,0.9492 -5.40895,1.6239 -2.34015,-0.0956 -1.25745,-1.15173 -1.4775,-1.62772 0.0387,-0.335 0.25607,-1.06738 -0.68337,-0.34503 -1.4216,0.43419 -0.30202,1.40359 -1.97991,1.53415 -1.81511,-0.3672 -5.12736,-0.84019 -6.9148,-0.83517 1.86988,0.22438 4.87443,1.28543 2.59845,1.50739 -0.71653,0.0932 -5.19891,-0.25627 -3.87607,0.0344 1.32534,0.34724 3.48454,0.63899 3.63027,1.11785 -0.48733,0.2831 4.18748,0.0803 5.85868,0.1534 26.2394,0.0599 52.52091,0.0648 78.73558,0.0873 23.28903,0.0415 46.59963,0.0491 69.85708,0.0694 -0.36946,-0.0646 -0.82472,-0.0996 -1.2371,-0.14771 -1.6947,-0.17317 -7.89783,-0.55455 -2.99146,-0.7155 1.43001,-0.0734 6.18999,-0.10981 2.39452,-0.36539 -3.45935,-0.34908 -7.21008,-0.53962 -10.95024,-0.44622 0.85716,-0.33522 3.79406,-0.43965 5.52509,-0.68115 2.44401,-0.17995 -0.93218,-0.12119 -1.80973,-0.14067 -3.12482,-0.12194 -6.35502,0.56559 -8.76506,0.46215 0.68601,-0.51856 2.36706,-1.38469 2.15953,-1.70537 -2.73772,0.46843 -5.39316,0.97821 -7.6252,1.55575 -1.17768,-0.53955 1.35419,-1.42985 2.75647,-1.9791 1.09941,-0.27336 2.5867,-0.84655 -0.13641,-0.41949 -5.34984,0.58321 -6.21437,1.986 -8.95412,3.01481 -1.77152,-0.15534 -0.36396,-1.3011 -1.06829,-1.80022 -1.4465,0.327 -4.82756,1.14938 -8.02495,1.37245 -1.72288,0.28497 -3.91366,0.25401 -2.2095,-0.26926 0.41756,-0.41695 3.12246,-1.23757 2.3513,-1.4342 -4.02349,0.46399 -5.85215,1.44394 -8.53681,2.1917 -1.89693,-0.46377 -2.44036,-1.52874 -4.60132,-2.14078 -2.01027,-0.63834 -0.59113,0.89906 -2.13791,1.16176 -1.04075,0.40089 -1.62455,1.15739 -3.4493,1.2935 -0.51823,-0.43036 0.0638,-1.96583 -2.30809,-0.92111 -0.86032,0.28326 -2.6213,1.61879 -3.06979,0.68557 0.31991,-0.80589 1.10127,-1.62661 2.8537,-2.34258 -4.52346,0.58187 -7.95885,1.52478 -10.83679,2.47372 -0.68366,-0.0692 -1.38112,-0.13024 -2.08525,-0.18589 -0.0553,-0.59996 0.33963,-1.19922 1.25331,-1.76775 -2.71036,0.31549 -3.47944,1.33603 -5.29819,1.5373 -1.27253,-0.66883 -0.93328,-0.94145 -1.1024,-1.41654 -0.0847,-0.23788 -0.22844,-1.19197 -1.16788,-0.4696 -0.85328,0.2606 -0.79588,0.71209 -0.9724,1.06116 -0.85893,0.0451 -1.71116,0.12031 -2.53497,0.19927 -0.97789,-0.15932 -2.07637,-0.31031 -3.10491,-0.41633 0.65988,-0.41864 1.30668,-0.84793 1.17362,-1.05354 -2.73772,0.46845 -5.3945,0.97886 -7.62654,1.55641 -1.17767,-0.53957 1.35417,-1.4305 2.75647,-1.97972 0.82455,-0.20505 1.86748,-0.57842 1.18848,-0.57228 z"
       sodipodi:nodetypes="cccccccccccccccccccccccccccccccccccccccccccccccccccccccscccccccsc" />
    <path
       style="fill:none;stroke:#000000;stroke-width:0.500001;stroke-linecap:round;stroke-linejoin:round;stroke-miterlimit:4;stroke-dasharray:none;stroke-opacity:1"
       clip-path="none"
       d="m 298.38936,258.70008 c 0.0856,-0.0558 0.16915,-0.11572 0.25288,-0.16752 0.0857,-0.0516 0.16918,-0.10248 0.25291,-0.14195 0.0856,-0.0394 0.16918,-0.0736 0.25308,-0.0948 0.0856,-0.0212 0.169,-0.0334 0.25289,-0.0334 0.0857,0 0.16902,0.0121 0.25291,0.0334 0.0857,0.0212 0.16917,0.0554 0.25291,0.0948 0.0857,0.0394 0.16917,0.0904 0.2529,0.14195 0.0857,0.0518 0.16918,0.11168 0.25307,0.16752 0.0857,0.0558 0.16901,0.11592 0.2529,0.16751 0.0857,0.0518 0.16902,0.1027 0.2529,0.14217 0.0856,0.0394 0.16918,0.0736 0.25291,0.0948 0.0857,0.0212 0.16917,0.033 0.25291,0.033 0.0857,0 0.16917,-0.0117 0.25306,-0.033 0.0856,-0.0212 0.169,-0.0554 0.25291,-0.0948 0.0857,-0.0394 0.169,-0.0904 0.2529,-0.14217 0.0857,-0.0516 0.16918,-0.11168 0.25291,-0.16751 0.0856,-0.0558 0.16916,-0.11572 0.2529,-0.16752 0.0857,-0.0516 0.16917,-0.10248 0.25307,-0.14195 0.0857,-0.0394 0.169,-0.0736 0.25291,-0.0948 0.0857,-0.0212 0.169,-0.0334 0.25289,-0.0334 0.0856,0 0.16917,0.0121 0.2529,0.0334 0.0857,0.0212 0.16918,0.0554 0.25291,0.0948 0.0857,0.0394 0.16917,0.0904 0.25307,0.14195 0.0856,0.0518 0.16901,0.11168 0.2529,0.16752 0.0857,0.0558 0.16901,0.11592 0.25291,0.16751 0.0857,0.0518 0.16917,0.1027 0.2529,0.14217 0.0856,0.0394 0.16918,0.0736 0.25307,0.0948 0.0857,0.0212 0.16917,0.033 0.2529,0.033 0.0857,0 0.16902,-0.0117 0.25291,-0.033 0.0857,-0.0212 0.16917,-0.0554 0.25291,-0.0948 0.0857,-0.0394 0.16917,-0.0904 0.2529,-0.14217 0.0857,-0.0516 0.16918,-0.11168 0.25306,-0.16751 0.0857,-0.0558 0.16918,-0.11572 0.25291,-0.16752 0.0857,-0.0516 0.169,-0.10248 0.25291,-0.14195 0.0856,-0.0394 0.16917,-0.0736 0.2529,-0.0948 0.0857,-0.0212 0.16916,-0.0334 0.2529,-0.0334 0.0856,0 0.16917,0.0121 0.25307,0.0334 0.0856,0.0212 0.16918,0.0554 0.2529,0.0948 0.0857,0.0394 0.16917,0.0904 0.25291,0.14195 0.0857,0.0518 0.16917,0.11168 0.2529,0.16752 0.0857,0.0558 0.16917,0.11592 0.25306,0.16751 0.0856,0.0518 0.16901,0.1027 0.25291,0.14217 0.0857,0.0394 0.16917,0.0736 0.2529,0.0948 0.0857,0.0212 0.16918,0.033 0.25291,0.033 0.0856,0 0.16917,-0.0117 0.25291,-0.033 0.0857,-0.0212 0.16917,-0.0554 0.25306,-0.0948 0.0857,-0.0394 0.16902,-0.0904 0.25291,-0.14217 0.0856,-0.0516 0.16917,-0.11168 0.2529,-0.16751 0.0857,-0.0558 0.16918,-0.11572 0.25291,-0.16752 0.0857,-0.0516 0.16918,-0.10248 0.25307,-0.14195 0.0857,-0.0394 0.16901,-0.0736 0.2529,-0.0948 0.0857,-0.0212 0.169,-0.0334 0.25291,-0.0334 0.0857,0 0.16917,0.0121 0.2529,0.0334 0.0857,0.0212 0.16918,0.0554 0.25289,0.0948 0.0856,0.0394 0.16918,0.0904 0.25308,0.14195 0.0856,0.0518 0.169,0.11168 0.25291,0.16752 0.0857,0.0558 0.169,0.11592 0.25289,0.16751 0.0856,0.0518 0.16917,0.1027 0.25291,0.14217 0.0857,0.0394 0.16917,0.0736 0.25291,0.0948 0.0857,0.0212 0.16917,0.033 0.25306,0.033 0.0857,0 0.16901,-0.0117 0.25291,-0.033 0.0857,-0.0212 0.16901,-0.0554 0.2529,-0.0948 0.0857,-0.0394 0.16917,-0.0904 0.25291,-0.14217 0.0857,-0.0516 0.16917,-0.11168 0.2529,-0.16751"
       id="path2601" />
    <path
       style="fill:none;stroke:#000000;stroke-width:0.500002;stroke-linecap:round;stroke-linejoin:round;stroke-miterlimit:4;stroke-dasharray:none;stroke-opacity:1"
       clip-path="none"
       d="m 309.5308,245.51391 c 0.0821,-0.0558 0.16201,-0.11571 0.24223,-0.16751 0.0821,-0.0516 0.16202,-0.10249 0.24241,-0.14196 0.0821,-0.0395 0.162,-0.0735 0.24239,-0.0949 0.0821,-0.0212 0.16201,-0.0334 0.2424,-0.0334 0.0821,0 0.16201,0.0121 0.2424,0.0334 0.0821,0.0212 0.16201,0.0554 0.24239,0.0949 0.0821,0.0394 0.16202,0.0904 0.2424,0.14196 0.0821,0.0518 0.16203,0.11167 0.2424,0.16751 0.0821,0.0558 0.16202,0.11593 0.2424,0.16751 0.0821,0.0518 0.162,0.1027 0.2424,0.14217 0.0821,0.0394 0.16201,0.0735 0.2424,0.0949 0.0821,0.0212 0.162,0.033 0.24241,0.033 0.0821,0 0.162,-0.0117 0.24238,-0.033 0.0821,-0.0212 0.16202,-0.0554 0.2424,-0.0949 0.0821,-0.0395 0.16202,-0.0904 0.2424,-0.14217 0.0821,-0.0516 0.16201,-0.1117 0.24239,-0.16751 0.0821,-0.0558 0.16202,-0.11571 0.24225,-0.16751 0.0821,-0.0516 0.16201,-0.10249 0.24239,-0.14196 0.0821,-0.0395 0.16202,-0.0735 0.2424,-0.0949 0.0821,-0.0212 0.16202,-0.0334 0.24241,-0.0334 0.0821,0 0.16201,0.0121 0.24225,0.0334 0.0821,0.0212 0.162,0.0554 0.24239,0.0949 0.0821,0.0394 0.16201,0.0904 0.24238,0.14196 0.0821,0.0518 0.16203,0.11167 0.24226,0.16751 0.0821,0.0558 0.162,0.11593 0.2424,0.16751 0.0821,0.0518 0.162,0.1027 0.24239,0.14217 0.0821,0.0394 0.16201,0.0735 0.24241,0.0949 0.0821,0.0212 0.162,0.033 0.24239,0.033 0.0821,0 0.16201,-0.0117 0.2424,-0.033 0.0821,-0.0212 0.16201,-0.0554 0.24239,-0.0949 0.0821,-0.0395 0.16202,-0.0904 0.24241,-0.14217 0.0821,-0.0516 0.16202,-0.1117 0.2424,-0.16751 0.0821,-0.0558 0.162,-0.11571 0.24239,-0.16751 0.0821,-0.0516 0.16201,-0.10249 0.24241,-0.14196 0.0821,-0.0395 0.162,-0.0735 0.2424,-0.0949 0.0821,-0.0212 0.162,-0.0334 0.24238,-0.0334 0.0821,0 0.16202,0.0121 0.2424,0.0334 0.0821,0.0212 0.16202,0.0554 0.2424,0.0949 0.0821,0.0394 0.16202,0.0904 0.2424,0.14196 0.0821,0.0518 0.162,0.11167 0.2424,0.16751 0.0821,0.0558 0.162,0.11593 0.24223,0.16751 0.0821,0.0518 0.16203,0.1027 0.2424,0.14217 0.0821,0.0394 0.16203,0.0735 0.2424,0.0949 0.0821,0.0212 0.16202,0.033 0.24226,0.033 0.0821,0 0.162,-0.0117 0.2424,-0.033 0.0821,-0.0212 0.162,-0.0554 0.24238,-0.0949 0.0821,-0.0395 0.16202,-0.0904 0.2424,-0.14217 0.0821,-0.0516 0.16202,-0.1117 0.2424,-0.16751"
       id="path2601-8"
       sodipodi:nodetypes="ccccscccccccscccccccscccccccscccccccscccccccscccc" />
    <path
       style="fill:none;stroke:#000000;stroke-width:0.499999;stroke-linecap:round;stroke-linejoin:round;stroke-miterlimit:4;stroke-dasharray:none;stroke-opacity:1"
       clip-path="none"
       d="m 324.52207,244.35341 c 0.0761,-0.0558 0.15017,-0.11571 0.22482,-0.16751 0.0761,-0.0516 0.15016,-0.10248 0.22488,-0.14196 0.0761,-0.0395 0.15017,-0.0736 0.22483,-0.0949 0.0761,-0.0212 0.15016,-0.0334 0.22487,-0.0334 0.0761,0 0.15017,0.0121 0.22488,0.0334 0.0761,0.0212 0.15016,0.0554 0.22483,0.0949 0.0761,0.0394 0.15015,0.0904 0.22486,0.14196 0.0761,0.0518 0.15018,0.11168 0.22489,0.16751 0.0761,0.0558 0.15016,0.11594 0.22483,0.16752 0.0761,0.0518 0.15015,0.10271 0.22486,0.14215 0.0761,0.0395 0.15017,0.0736 0.22484,0.0949 0.0761,0.0212 0.15016,0.033 0.22487,0.033 0.0761,0 0.15017,-0.0117 0.22487,-0.033 0.0761,-0.0212 0.15018,-0.0554 0.22483,-0.0949 0.0761,-0.0395 0.15017,-0.0904 0.22488,-0.14215 0.0761,-0.0516 0.15017,-0.1117 0.22488,-0.16752 0.0761,-0.0558 0.15016,-0.11571 0.22482,-0.16751 0.0761,-0.0516 0.15016,-0.10248 0.22487,-0.14196 0.0761,-0.0395 0.15018,-0.0736 0.22483,-0.0949 0.0761,-0.0212 0.15016,-0.0334 0.22487,-0.0334 0.0761,0 0.15018,0.0121 0.22488,0.0334 0.0761,0.0212 0.15018,0.0554 0.22483,0.0949 0.0761,0.0394 0.15016,0.0904 0.22487,0.14196 0.0761,0.0518 0.15018,0.11168 0.22489,0.16751 0.0761,0.0558 0.15016,0.11594 0.22482,0.16752 0.0761,0.0518 0.15016,0.10271 0.22487,0.14215 0.0761,0.0395 0.15017,0.0736 0.22484,0.0949 0.0761,0.0212 0.15015,0.033 0.22487,0.033 0.0761,0 0.15017,-0.0117 0.22487,-0.033 0.0761,-0.0212 0.15017,-0.0554 0.22483,-0.0949 0.0761,-0.0395 0.15016,-0.0904 0.22487,-0.14215 0.0761,-0.0516 0.15018,-0.1117 0.22489,-0.16752"
       id="path2601-0"
       sodipodi:nodetypes="ccccscccccccscccccccscccccccscccc" />
    <path
       style="fill:none;stroke:#000000;stroke-width:0.500001;stroke-linecap:round;stroke-linejoin:round;stroke-miterlimit:4;stroke-dasharray:none;stroke-opacity:1"
       clip-path="none"
       d="m 316.73497,252.52175 c 0.0856,-0.0558 0.16916,-0.11571 0.25289,-0.16751 0.0857,-0.0516 0.16917,-0.10248 0.25291,-0.14196 0.0856,-0.0394 0.16917,-0.0735 0.25307,-0.0948 0.0856,-0.0212 0.16901,-0.0334 0.2529,-0.0334 0.0857,0 0.16901,0.0121 0.2529,0.0334 0.0857,0.0212 0.16918,0.0554 0.25291,0.0948 0.0857,0.0395 0.16918,0.0904 0.25291,0.14196 0.0857,0.0518 0.16917,0.11167 0.25306,0.16751 0.0857,0.0558 0.16902,0.11593 0.25291,0.16751 0.0857,0.0518 0.16901,0.1027 0.2529,0.14217 0.0856,0.0394 0.16918,0.0736 0.2529,0.0949 0.0857,0.0212 0.16918,0.033 0.25292,0.033 0.0857,0 0.16916,-0.0117 0.25306,-0.033 0.0856,-0.0212 0.169,-0.0554 0.2529,-0.0949 0.0857,-0.0394 0.16901,-0.0904 0.25291,-0.14217 0.0857,-0.0516 0.16917,-0.11167 0.2529,-0.16751 0.0856,-0.0558 0.16917,-0.11571 0.2529,-0.16751 0.0857,-0.0516 0.16917,-0.10248 0.25307,-0.14196 0.0857,-0.0394 0.16901,-0.0735 0.25291,-0.0948 0.0857,-0.0212 0.16901,-0.0334 0.25289,-0.0334 0.0856,0 0.16918,0.0121 0.25291,0.0334 0.0857,0.0212 0.16917,0.0554 0.25291,0.0948 0.0857,0.0395 0.16917,0.0904 0.25306,0.14196 0.0856,0.0518 0.16901,0.11167 0.25291,0.16751 0.0857,0.0558 0.16901,0.11593 0.2529,0.16751 0.0857,0.0518 0.16917,0.1027 0.25291,0.14217 0.0856,0.0394 0.16917,0.0736 0.25306,0.0949 0.0857,0.0212 0.16918,0.033 0.25291,0.033 0.0857,0 0.16901,-0.0117 0.25291,-0.033 0.0857,-0.0212 0.16917,-0.0554 0.2529,-0.0949 0.0857,-0.0394 0.16918,-0.0904 0.25291,-0.14217 0.0857,-0.0516 0.16917,-0.11167 0.25306,-0.16751 0.0857,-0.0558 0.16918,-0.11571 0.2529,-0.16751 0.0857,-0.0516 0.16901,-0.10248 0.25292,-0.14196 0.0856,-0.0394 0.16916,-0.0735 0.2529,-0.0948 0.0857,-0.0212 0.16916,-0.0334 0.25289,-0.0334 0.0856,0 0.16918,0.0121 0.25308,0.0334 0.0856,0.0212 0.16917,0.0554 0.25289,0.0948 0.0857,0.0395 0.16918,0.0904 0.25291,0.14196 0.0857,0.0518 0.16917,0.11167 0.2529,0.16751 0.0857,0.0558 0.16918,0.11593 0.25307,0.16751 0.0856,0.0518 0.16901,0.1027 0.2529,0.14217 0.0857,0.0394 0.16917,0.0736 0.25291,0.0949 0.0857,0.0212 0.16917,0.033 0.2529,0.033 0.0856,0 0.16918,-0.0117 0.25291,-0.033 0.0857,-0.0212 0.16917,-0.0554 0.25307,-0.0949 0.0857,-0.0394 0.16901,-0.0904 0.2529,-0.14217 0.0856,-0.0516 0.16917,-0.11167 0.25291,-0.16751 0.0857,-0.0558 0.16917,-0.11571 0.25291,-0.16751 0.0857,-0.0516 0.16917,-0.10248 0.25306,-0.14196 0.0857,-0.0394 0.16902,-0.0735 0.25291,-0.0948 0.0857,-0.0212 0.16899,-0.0334 0.2529,-0.0334 0.0857,0 0.16918,0.0121 0.25291,0.0334 0.0857,0.0212 0.16917,0.0554 0.25289,0.0948 0.0856,0.0395 0.16917,0.0904 0.25307,0.14196 0.0856,0.0518 0.16901,0.11167 0.25292,0.16751 0.0857,0.0558 0.16899,0.11593 0.25288,0.16751 0.0856,0.0518 0.16918,0.1027 0.25291,0.14217 0.0857,0.0394 0.16917,0.0736 0.25291,0.0949 0.0857,0.0212 0.16917,0.033 0.25306,0.033 0.0857,0 0.16902,-0.0117 0.25291,-0.033 0.0857,-0.0212 0.16901,-0.0554 0.25291,-0.0949 0.0857,-0.0394 0.16917,-0.0904 0.2529,-0.14217 0.0857,-0.0516 0.16918,-0.11167 0.25291,-0.16751"
       id="path2601-4" />
    <path
       style="fill:none;stroke:#000000;stroke-width:0.500002;stroke-linecap:round;stroke-linejoin:round;stroke-miterlimit:4;stroke-dasharray:none;stroke-opacity:1"
       clip-path="none"
       d="m 318.98579,259.50154 c 0.0821,-0.0558 0.16201,-0.1157 0.24223,-0.16751 0.0821,-0.0516 0.16202,-0.10247 0.24241,-0.14195 0.0821,-0.0395 0.162,-0.0735 0.24239,-0.0949 0.0821,-0.0212 0.16201,-0.0334 0.2424,-0.0334 0.0821,0 0.16201,0.0122 0.2424,0.0334 0.0821,0.0212 0.16201,0.0554 0.24239,0.0949 0.0821,0.0394 0.16202,0.0904 0.2424,0.14195 0.0821,0.0518 0.16203,0.11168 0.2424,0.16751 0.0821,0.0558 0.16202,0.11594 0.2424,0.16752 0.0821,0.0518 0.162,0.1027 0.2424,0.14217 0.0821,0.0394 0.16201,0.0735 0.2424,0.0949 0.0821,0.0212 0.162,0.033 0.2424,0.033 0.0821,0 0.16201,-0.0117 0.24239,-0.033 0.0821,-0.0212 0.16202,-0.0554 0.2424,-0.0949 0.0821,-0.0395 0.16202,-0.0904 0.2424,-0.14217 0.0821,-0.0516 0.16201,-0.1117 0.24239,-0.16752 0.0821,-0.0558 0.16202,-0.1157 0.24225,-0.16751 0.0821,-0.0516 0.16201,-0.10247 0.24239,-0.14195 0.0821,-0.0395 0.16202,-0.0735 0.2424,-0.0949 0.0821,-0.0212 0.16202,-0.0334 0.24241,-0.0334 0.0821,0 0.16201,0.0122 0.24225,0.0334 0.0821,0.0212 0.162,0.0554 0.24239,0.0949 0.0821,0.0394 0.16201,0.0904 0.24238,0.14195 0.0821,0.0518 0.16203,0.11168 0.24226,0.16751 0.0821,0.0558 0.162,0.11594 0.2424,0.16752 0.0821,0.0518 0.162,0.1027 0.24239,0.14217 0.0821,0.0394 0.16201,0.0735 0.24241,0.0949 0.0821,0.0212 0.162,0.033 0.24238,0.033 0.0821,0 0.16202,-0.0117 0.24241,-0.033 0.0821,-0.0212 0.16201,-0.0554 0.24239,-0.0949 0.0821,-0.0395 0.16202,-0.0904 0.24241,-0.14217 0.0821,-0.0516 0.16201,-0.1117 0.2424,-0.16752 0.0821,-0.0558 0.162,-0.1157 0.24239,-0.16751 0.0821,-0.0516 0.16201,-0.10247 0.2424,-0.14195 0.0821,-0.0395 0.16201,-0.0735 0.24241,-0.0949 0.0821,-0.0212 0.162,-0.0334 0.24238,-0.0334 0.0821,0 0.16202,0.0122 0.2424,0.0334 0.0821,0.0212 0.16202,0.0554 0.2424,0.0949 0.0821,0.0394 0.16202,0.0904 0.2424,0.14195 0.0821,0.0518 0.16201,0.11168 0.24239,0.16751 0.0821,0.0558 0.16202,0.11594 0.24224,0.16752 0.0821,0.0518 0.16202,0.1027 0.2424,0.14217 0.0821,0.0394 0.16203,0.0735 0.2424,0.0949 0.0821,0.0212 0.16202,0.033 0.24226,0.033 0.0821,0 0.162,-0.0117 0.2424,-0.033 0.0821,-0.0212 0.162,-0.0554 0.24238,-0.0949 0.0821,-0.0395 0.16202,-0.0904 0.2424,-0.14217 0.0821,-0.0516 0.16202,-0.1117 0.2424,-0.16752"
       id="path2601-8-4"
       sodipodi:nodetypes="ccccscccccccscccccccscccccccscccccccscccccccscccc" />
    <path
       style="fill:none;stroke:#000000;stroke-width:0.499999;stroke-linecap:round;stroke-linejoin:round;stroke-miterlimit:4;stroke-dasharray:none;stroke-opacity:1"
       clip-path="none"
       d="m 286.01376,260.04533 c 0.0761,-0.0558 0.15017,-0.11571 0.22482,-0.16751 0.0761,-0.0515 0.15016,-0.10248 0.22488,-0.14196 0.0761,-0.0395 0.15017,-0.0736 0.22483,-0.0949 0.0761,-0.0212 0.15016,-0.0334 0.22487,-0.0334 0.0761,0 0.15017,0.0121 0.22488,0.0334 0.0761,0.0212 0.15017,0.0554 0.22483,0.0949 0.0761,0.0395 0.15015,0.0904 0.22487,0.14196 0.0761,0.0518 0.15017,0.11167 0.22488,0.16751 0.0761,0.0558 0.15017,0.11594 0.22483,0.16752 0.0761,0.0518 0.15016,0.10271 0.22487,0.14215 0.0761,0.0395 0.15017,0.0736 0.22483,0.0949 0.0761,0.0212 0.15016,0.033 0.22487,0.033 0.0761,0 0.15017,-0.0117 0.22488,-0.033 0.0761,-0.0212 0.15017,-0.0554 0.22483,-0.0949 0.0761,-0.0394 0.15016,-0.0904 0.22487,-0.14215 0.0761,-0.0516 0.15018,-0.1117 0.22489,-0.16752 0.0761,-0.0558 0.15016,-0.11571 0.22482,-0.16751 0.0761,-0.0515 0.15016,-0.10248 0.22487,-0.14196 0.0761,-0.0395 0.15017,-0.0736 0.22483,-0.0949 0.0761,-0.0212 0.15016,-0.0334 0.22487,-0.0334 0.0761,0 0.15018,0.0121 0.22488,0.0334 0.0761,0.0212 0.15017,0.0554 0.22483,0.0949 0.0761,0.0395 0.15016,0.0904 0.22487,0.14196 0.0761,0.0518 0.15017,0.11167 0.22489,0.16751 0.0761,0.0558 0.15016,0.11594 0.22482,0.16752 0.0761,0.0518 0.15016,0.10271 0.22487,0.14215 0.0761,0.0395 0.15017,0.0736 0.22484,0.0949 0.0761,0.0212 0.15015,0.033 0.22487,0.033 0.0761,0 0.15017,-0.0117 0.22487,-0.033 0.0761,-0.0212 0.15017,-0.0554 0.22483,-0.0949 0.0761,-0.0394 0.15016,-0.0904 0.22487,-0.14215 0.0761,-0.0516 0.15018,-0.1117 0.22489,-0.16752"
       id="path2601-0-6"
       sodipodi:nodetypes="ccccscccccccscccccccscccccccscccc" />
    <path
       style="fill:none;stroke:#000000;stroke-width:0.499999;stroke-linecap:round;stroke-linejoin:round;stroke-miterlimit:4;stroke-dasharray:none;stroke-opacity:1"
       clip-path="none"
       d="m 296.97464,245.13218 c 0.0761,-0.0558 0.15017,-0.11572 0.22482,-0.16752 0.0761,-0.0516 0.15016,-0.10248 0.22487,-0.14195 0.0762,-0.0394 0.15018,-0.0736 0.22484,-0.0949 0.0761,-0.0212 0.15016,-0.0334 0.22487,-0.0334 0.0761,0 0.15017,0.0121 0.22487,0.0334 0.0761,0.0212 0.15017,0.0554 0.22484,0.0949 0.0761,0.0394 0.15015,0.0904 0.22486,0.14195 0.0762,0.0518 0.15018,0.11168 0.22489,0.16752 0.0761,0.0558 0.15016,0.11593 0.22483,0.16752 0.0761,0.0518 0.15015,0.1027 0.22486,0.14215 0.0762,0.0394 0.15018,0.0735 0.22484,0.0948 0.0761,0.0212 0.15015,0.033 0.22487,0.033 0.0761,0 0.15017,-0.0117 0.22487,-0.033 0.0761,-0.0212 0.15018,-0.0554 0.22483,-0.0948 0.0761,-0.0395 0.15016,-0.0904 0.22488,-0.14215 0.0761,-0.0516 0.15017,-0.11171 0.22488,-0.16752 0.0761,-0.0558 0.15016,-0.11572 0.22482,-0.16752 0.0761,-0.0516 0.15016,-0.10248 0.22487,-0.14195 0.0761,-0.0394 0.15017,-0.0736 0.22483,-0.0949 0.0761,-0.0212 0.15016,-0.0334 0.22487,-0.0334 0.0761,0 0.15018,0.0121 0.22488,0.0334 0.0761,0.0212 0.15017,0.0554 0.22483,0.0949 0.0761,0.0394 0.15016,0.0904 0.22487,0.14195 0.0761,0.0518 0.15018,0.11168 0.22489,0.16752 0.0761,0.0558 0.15016,0.11593 0.22482,0.16752 0.0761,0.0518 0.15016,0.1027 0.22488,0.14215 0.0761,0.0394 0.15016,0.0735 0.22483,0.0948 0.0761,0.0212 0.15015,0.033 0.22487,0.033 0.0761,0 0.15017,-0.0117 0.22487,-0.033 0.0761,-0.0212 0.15017,-0.0554 0.22483,-0.0948 0.0761,-0.0395 0.15016,-0.0904 0.22487,-0.14215 0.0761,-0.0516 0.15018,-0.11171 0.22489,-0.16752"
       id="path2601-0-5"
       sodipodi:nodetypes="ccccscccccccscccccccscccccccscccc" />
    <path
       style="fill:none;stroke:#000000;stroke-width:0.499999;stroke-linecap:round;stroke-linejoin:round;stroke-miterlimit:4;stroke-dasharray:none;stroke-opacity:1"
       clip-path="none"
       d="m 284.06848,245.11985 c 0.0761,-0.0558 0.15017,-0.11571 0.22482,-0.16751 0.0761,-0.0516 0.15016,-0.10248 0.22488,-0.14196 0.0761,-0.0395 0.15017,-0.0736 0.22483,-0.0949 0.0761,-0.0212 0.15016,-0.0334 0.22487,-0.0334 0.0761,0 0.15017,0.0121 0.22487,0.0334 0.0761,0.0212 0.15018,0.0554 0.22484,0.0949 0.0761,0.0395 0.15015,0.0904 0.22486,0.14196 0.0761,0.0518 0.15018,0.11167 0.22489,0.16751 0.0761,0.0558 0.15017,0.11594 0.22482,0.16752 0.0761,0.0518 0.15016,0.1027 0.22487,0.14215 0.0762,0.0395 0.15017,0.0736 0.22484,0.0949 0.0761,0.0212 0.15016,0.033 0.22487,0.033 0.0761,0 0.15017,-0.0117 0.22487,-0.033 0.0761,-0.0212 0.15017,-0.0554 0.22483,-0.0949 0.0761,-0.0394 0.15017,-0.0904 0.22488,-0.14215 0.0761,-0.0516 0.15017,-0.1117 0.22489,-0.16752 0.0761,-0.0558 0.15015,-0.11571 0.22481,-0.16751 0.0761,-0.0516 0.15016,-0.10248 0.22488,-0.14196 0.0761,-0.0395 0.15016,-0.0736 0.22483,-0.0949 0.0761,-0.0212 0.15016,-0.0334 0.22487,-0.0334 0.0761,0 0.15018,0.0121 0.22488,0.0334 0.0761,0.0212 0.15016,0.0554 0.22483,0.0949 0.0761,0.0395 0.15016,0.0904 0.22487,0.14196 0.0761,0.0518 0.15017,0.11167 0.22488,0.16751 0.0761,0.0558 0.15016,0.11594 0.22482,0.16752 0.0761,0.0518 0.15016,0.1027 0.22488,0.14215 0.0761,0.0395 0.15017,0.0736 0.22483,0.0949 0.0761,0.0212 0.15016,0.033 0.22487,0.033 0.0761,0 0.15017,-0.0117 0.22487,-0.033 0.0761,-0.0212 0.15017,-0.0554 0.22483,-0.0949 0.0761,-0.0394 0.15016,-0.0904 0.22488,-0.14215 0.0761,-0.0516 0.15017,-0.1117 0.22488,-0.16752"
       id="path2601-0-4"
       sodipodi:nodetypes="ccccscccccccscccccccscccccccscccc" />
    <path
       style="fill:none;stroke:#000000;stroke-width:0.500002;stroke-linecap:round;stroke-linejoin:round;stroke-miterlimit:4;stroke-dasharray:none;stroke-opacity:1"
       clip-path="none"
       d="m 284.02771,251.85347 c 0.0821,-0.0558 0.162,-0.11571 0.24224,-0.16751 0.0821,-0.0516 0.16201,-0.10248 0.2424,-0.14195 0.0821,-0.0395 0.162,-0.0736 0.24239,-0.0949 0.0821,-0.0212 0.16201,-0.0334 0.2424,-0.0334 0.0821,0 0.16201,0.0121 0.24241,0.0334 0.0821,0.0212 0.162,0.0554 0.24238,0.0949 0.0821,0.0394 0.16202,0.0904 0.2424,0.14195 0.0821,0.0518 0.16202,0.11167 0.2424,0.16751 0.0821,0.0558 0.16202,0.11593 0.2424,0.16751 0.0821,0.0518 0.16201,0.1027 0.2424,0.14218 0.0821,0.0394 0.16201,0.0735 0.2424,0.0948 0.0821,0.0212 0.162,0.033 0.24241,0.033 0.0821,0 0.162,-0.0117 0.24238,-0.033 0.0821,-0.0212 0.16202,-0.0554 0.2424,-0.0948 0.0821,-0.0395 0.16202,-0.0904 0.2424,-0.14218 0.0821,-0.0516 0.16202,-0.11169 0.24239,-0.16751 0.0821,-0.0558 0.16203,-0.11571 0.24225,-0.16751 0.0821,-0.0516 0.16201,-0.10248 0.24239,-0.14195 0.0821,-0.0395 0.16202,-0.0736 0.2424,-0.0949 0.0821,-0.0212 0.16202,-0.0334 0.2424,-0.0334 0.0821,0 0.16202,0.0121 0.24226,0.0334 0.0821,0.0212 0.162,0.0554 0.24239,0.0949 0.0821,0.0394 0.16201,0.0904 0.24239,0.14195 0.0821,0.0518 0.16202,0.11167 0.24224,0.16751 0.0821,0.0558 0.16202,0.11593 0.24241,0.16751 0.0821,0.0518 0.162,0.1027 0.24239,0.14218 0.0821,0.0394 0.16201,0.0735 0.2424,0.0948 0.0821,0.0212 0.16201,0.033 0.24239,0.033 0.0821,0 0.16202,-0.0117 0.24241,-0.033 0.0821,-0.0212 0.16201,-0.0554 0.24239,-0.0948 0.0821,-0.0395 0.16203,-0.0904 0.2424,-0.14218 0.0821,-0.0516 0.16203,-0.11169 0.2424,-0.16751 0.0821,-0.0558 0.162,-0.11571 0.2424,-0.16751 0.0821,-0.0516 0.162,-0.10248 0.2424,-0.14195 0.0821,-0.0395 0.16201,-0.0736 0.2424,-0.0949 0.0821,-0.0212 0.16201,-0.0334 0.24238,-0.0334 0.0821,0 0.16203,0.0121 0.2424,0.0334 0.0821,0.0212 0.16203,0.0554 0.2424,0.0949 0.0821,0.0394 0.16202,0.0904 0.24241,0.14195 0.0821,0.0518 0.162,0.11167 0.2424,0.16751 0.0821,0.0558 0.16201,0.11593 0.24223,0.16751 0.0821,0.0518 0.16202,0.1027 0.2424,0.14218 0.0821,0.0394 0.16202,0.0735 0.2424,0.0948 0.0821,0.0212 0.16202,0.033 0.24225,0.033 0.0821,0 0.162,-0.0117 0.24241,-0.033 0.0821,-0.0212 0.162,-0.0554 0.24237,-0.0948 0.0821,-0.0395 0.16203,-0.0904 0.2424,-0.14218 0.0821,-0.0516 0.16202,-0.11169 0.24241,-0.16751"
       id="path2601-8-6"
       sodipodi:nodetypes="ccccscccccccscccccccscccccccscccccccscccccccscccc" />
    <path
       style="fill:none;stroke:#000000;stroke-width:0.499999;stroke-linecap:round;stroke-linejoin:round;stroke-miterlimit:4;stroke-dasharray:none;stroke-opacity:1"
       clip-path="none"
       d="m 305.74906,252.14149 c 0.0761,-0.0558 0.15016,-0.11571 0.22481,-0.16751 0.0761,-0.0515 0.15016,-0.10248 0.22488,-0.14196 0.0761,-0.0394 0.15017,-0.0735 0.22484,-0.0949 0.0761,-0.0212 0.15016,-0.0334 0.22486,-0.0334 0.0761,0 0.15018,0.0121 0.22488,0.0334 0.0761,0.0212 0.15017,0.0554 0.22483,0.0949 0.0761,0.0395 0.15015,0.0904 0.22487,0.14196 0.0761,0.0518 0.15018,0.11167 0.22489,0.16751 0.0761,0.0558 0.15016,0.11594 0.22482,0.16752 0.0761,0.0518 0.15016,0.1027 0.22487,0.14215 0.0761,0.0395 0.15017,0.0735 0.22484,0.0948 0.0761,0.0212 0.15015,0.033 0.22486,0.033 0.0761,0 0.15018,-0.0117 0.22488,-0.033 0.0761,-0.0212 0.15017,-0.0554 0.22483,-0.0948 0.0761,-0.0394 0.15016,-0.0904 0.22487,-0.14215 0.0761,-0.0516 0.15018,-0.1117 0.22489,-0.16752 0.0761,-0.0558 0.15016,-0.11571 0.22482,-0.16751 0.0761,-0.0515 0.15016,-0.10248 0.22487,-0.14196 0.0761,-0.0394 0.15017,-0.0735 0.22483,-0.0949 0.0761,-0.0212 0.15016,-0.0334 0.22487,-0.0334 0.0761,0 0.15018,0.0121 0.22488,0.0334 0.0761,0.0212 0.15017,0.0554 0.22483,0.0949 0.0761,0.0395 0.15016,0.0904 0.22487,0.14196 0.0761,0.0518 0.15017,0.11167 0.22489,0.16751 0.0761,0.0558 0.15016,0.11594 0.22482,0.16752 0.0761,0.0518 0.15016,0.1027 0.22487,0.14215 0.0761,0.0395 0.15017,0.0735 0.22484,0.0948 0.0761,0.0212 0.15015,0.033 0.22487,0.033 0.0761,0 0.15017,-0.0117 0.22487,-0.033 0.0761,-0.0212 0.15017,-0.0554 0.22483,-0.0948 0.0761,-0.0394 0.15016,-0.0904 0.22487,-0.14215 0.0761,-0.0516 0.15018,-0.1117 0.22489,-0.16752"
       id="path2601-0-1"
       sodipodi:nodetypes="ccccscccccccscccccccscccccccscccc" />
    <g
       id="g6294"
       transform="matrix(0.25972506,0,0,0.17258597,230.47298,219.27654)"
       style="stroke-width:4.72326">
      <path
         style="fill:none;stroke:#000000;stroke-width:4.72326;stroke-linecap:round;stroke-linejoin:round;stroke-miterlimit:4;stroke-dasharray:none;stroke-opacity:1"
         clip-path="none"
         d="m 193.89714,126.04913 c 0.43434,-0.22329 0.86682,-0.4628 1.29708,-0.66985 0.43433,-0.20626 0.86675,-0.40981 1.29707,-0.56766 0.43435,-0.15796 0.86676,-0.29411 1.29702,-0.37929 0.43433,-0.0847 0.86681,-0.13346 1.29707,-0.13346 0.43434,0 0.86675,0.0485 1.29702,0.13346 0.43433,0.0847 0.86681,0.22142 1.29707,0.37929 0.43434,0.15796 0.86674,0.36138 1.29708,0.56766 0.43433,0.20696 0.86675,0.44656 1.297,0.66985 0.43435,0.2233 0.86682,0.4636 1.29709,0.66986 0.43433,0.20719 0.86674,0.41067 1.297,0.56854 0.43434,0.15796 0.86681,0.29409 1.29708,0.37927 0.43434,0.0847 0.86675,0.13206 1.29708,0.13206 0.43434,0 0.86674,-0.0467 1.297,-0.13206 0.43434,-0.0847 0.86682,-0.22142 1.29708,-0.37927 0.43435,-0.15796 0.86675,-0.3614 1.29709,-0.56854 0.43433,-0.20626 0.86674,-0.44656 1.297,-0.66986 0.43433,-0.22329 0.86681,-0.4628 1.29707,-0.66985 0.43435,-0.20626 0.86676,-0.40981 1.29702,-0.56766 0.43433,-0.15796 0.86681,-0.29411 1.29707,-0.37929 0.43434,-0.0847 0.86675,-0.13346 1.29708,-0.13346 0.43434,0 0.86675,0.0485 1.29673,0.13346 0.43433,0.0847 0.86681,0.22142 1.29707,0.37929 0.43434,0.15796 0.86674,0.36138 1.29708,0.56766 0.43433,0.20696 0.86675,0.44656 1.29701,0.66985 0.43434,0.2233 0.86682,0.4636 1.29708,0.66986 0.43433,0.20719 0.86674,0.41067 1.29707,0.56854 0.43434,0.15796 0.86675,0.29409 1.29701,0.37927 0.43434,0.0847 0.86682,0.13206 1.2968,0.13206 0.43433,0 0.86674,-0.0467 1.29707,-0.13206 0.43434,-0.0847 0.86675,-0.22142 1.297,-0.37927 0.43435,-0.15796 0.86683,-0.3614 1.29709,-0.56854 0.43434,-0.20626 0.86674,-0.44656 1.29679,-0.66986 0.43434,-0.22329 0.86674,-0.4628 1.297,-0.66985 0.43435,-0.20626 0.86683,-0.40981 1.29709,-0.56766 0.43433,-0.15796 0.86674,-0.29411 1.29707,-0.37929 0.43434,-0.0847 0.86675,-0.13346 1.29672,-0.13346 0.43435,0 0.86683,0.0485 1.29709,0.13346 0.43433,0.0847 0.86674,0.22142 1.29707,0.37929 0.43434,0.15796 0.86674,0.36138 1.29701,0.56766 0.43434,0.20696 0.86682,0.44656 1.29707,0.66985 0.43435,0.2233 0.86675,0.4636 1.29701,0.66986 0.43434,0.20719 0.86682,0.41067 1.29708,0.56854 0.43434,0.15796 0.86675,0.29409 1.29708,0.37927 0.43434,0.0847 0.86675,0.13206 1.29701,0.13206 0.43433,0 0.86681,-0.0467 1.29708,-0.13206 0.43433,-0.0847 0.86675,-0.22142 1.29701,-0.37927 0.43433,-0.15796 0.86681,-0.3614 1.29707,-0.56854 0.43434,-0.20626 0.86674,-0.44656 1.29708,-0.66986 0.43434,-0.22329 0.86675,-0.4628 1.297,-0.66985 0.43435,-0.20626 0.86683,-0.40981 1.29709,-0.56766 0.43433,-0.15796 0.86674,-0.29411 1.29708,-0.37929 0.43433,-0.0847 0.86674,-0.13346 1.297,-0.13346 0.43434,0 0.86682,0.0485 1.29708,0.13346 0.43434,0.0847 0.86674,0.22142 1.29701,0.37929 0.43433,0.15796 0.86681,0.36138 1.29707,0.56766 0.43435,0.20696 0.86675,0.44656 1.29709,0.66985 0.43433,0.2233 0.86674,0.4636 1.297,0.66986 0.43434,0.20719 0.86682,0.41067 1.29708,0.56854 0.43434,0.15796 0.86675,0.29409 1.29701,0.37927 0.43434,0.0847 0.86681,0.13206 1.29708,0.13206 0.43433,0 0.86675,-0.0467 1.29707,-0.13206 0.43434,-0.0847 0.86675,-0.22142 1.29701,-0.37927 0.43434,-0.15796 0.86682,-0.3614 1.29708,-0.56854 0.43434,-0.20626 0.86674,-0.44656 1.29708,-0.66986 0.43433,-0.22329 0.86675,-0.4628 1.29701,-0.66985 0.43433,-0.20626 0.86681,-0.40981 1.29708,-0.56766 0.43433,-0.15796 0.86674,-0.29411 1.297,-0.37929 0.43434,-0.0847 0.86682,-0.13346 1.29707,-0.13346 0.43435,0 0.86675,0.0485 1.29709,0.13346 0.43434,0.0847 0.86674,0.22142 1.297,0.37929 0.43435,0.15796 0.86682,0.36138 1.29708,0.56766 0.43434,0.20696 0.86675,0.44656 1.29701,0.66985 0.43434,0.2233 0.86682,0.4636 1.29708,0.66986 0.43433,0.20719 0.86675,0.41067 1.29707,0.56854 0.43435,0.15796 0.86675,0.29409 1.29702,0.37927 0.43433,0.0847 0.86681,0.13206 1.29707,0.13206 0.43434,0 0.86675,-0.0467 1.29708,-0.13206 0.43434,-0.0847 0.86675,-0.22142 1.29701,-0.37927 0.43434,-0.15796 0.86682,-0.3614 1.29708,-0.56854 0.43433,-0.20626 0.86675,-0.44656 1.297,-0.66986"
         id="path2601-0-7"
         sodipodi:nodetypes="ccccscccccccscccccccscccccccscccccccscccccccscccccccscccccccscccccccscccccccscccc" />
      <path
         style="fill:none;stroke:#000000;stroke-width:4.72326;stroke-linecap:round;stroke-linejoin:round;stroke-miterlimit:4;stroke-dasharray:none;stroke-opacity:1"
         clip-path="none"
         d="m 297.66013,126.04913 c 0.43434,-0.22329 0.86682,-0.4628 1.29708,-0.66985 0.43433,-0.20626 0.86675,-0.40981 1.29707,-0.56766 0.43435,-0.15796 0.86676,-0.29411 1.29702,-0.37929 0.43433,-0.0847 0.86681,-0.13346 1.29707,-0.13346 0.43434,0 0.86675,0.0485 1.29702,0.13346 0.43433,0.0847 0.86681,0.22142 1.29707,0.37929 0.43434,0.15796 0.86674,0.36138 1.29708,0.56766 0.43433,0.20696 0.86675,0.44656 1.297,0.66985 0.43435,0.2233 0.86682,0.4636 1.29709,0.66986 0.43433,0.20719 0.86674,0.41067 1.297,0.56854 0.43434,0.15796 0.86681,0.29409 1.29708,0.37927 0.43434,0.0847 0.86675,0.13206 1.29708,0.13206 0.43434,0 0.86674,-0.0467 1.297,-0.13206 0.43434,-0.0847 0.86682,-0.22142 1.29708,-0.37927 0.43435,-0.15796 0.86675,-0.3614 1.29709,-0.56854 0.43433,-0.20626 0.86674,-0.44656 1.297,-0.66986 0.43433,-0.22329 0.86681,-0.4628 1.29707,-0.66985 0.43435,-0.20626 0.86676,-0.40981 1.29702,-0.56766 0.43433,-0.15796 0.86681,-0.29411 1.29707,-0.37929 0.43434,-0.0847 0.86675,-0.13346 1.29708,-0.13346 0.43434,0 0.86675,0.0485 1.29673,0.13346 0.43433,0.0847 0.86681,0.22142 1.29707,0.37929 0.43434,0.15796 0.86674,0.36138 1.29708,0.56766 0.43433,0.20696 0.86675,0.44656 1.29701,0.66985 0.43434,0.2233 0.86682,0.4636 1.29708,0.66986 0.43433,0.20719 0.86674,0.41067 1.29707,0.56854 0.43434,0.15796 0.86675,0.29409 1.29701,0.37927 0.43434,0.0847 0.86682,0.13206 1.2968,0.13206 0.43433,0 0.86674,-0.0467 1.29707,-0.13206 0.43434,-0.0847 0.86675,-0.22142 1.297,-0.37927 0.43435,-0.15796 0.86683,-0.3614 1.29709,-0.56854 0.43434,-0.20626 0.86674,-0.44656 1.29679,-0.66986 0.43434,-0.22329 0.86674,-0.4628 1.297,-0.66985 0.43435,-0.20626 0.86683,-0.40981 1.29709,-0.56766 0.43433,-0.15796 0.86674,-0.29411 1.29707,-0.37929 0.43434,-0.0847 0.86675,-0.13346 1.29672,-0.13346 0.43435,0 0.86683,0.0485 1.29709,0.13346 0.43433,0.0847 0.86674,0.22142 1.29707,0.37929 0.43434,0.15796 0.86674,0.36138 1.29701,0.56766 0.43434,0.20696 0.86682,0.44656 1.29707,0.66985 0.43435,0.2233 0.86675,0.4636 1.29701,0.66986 0.43434,0.20719 0.86682,0.41067 1.29708,0.56854 0.43434,0.15796 0.86675,0.29409 1.29708,0.37927 0.43434,0.0847 0.86675,0.13206 1.29701,0.13206 0.43433,0 0.86681,-0.0467 1.29708,-0.13206 0.43433,-0.0847 0.86675,-0.22142 1.29701,-0.37927 0.43433,-0.15796 0.86681,-0.3614 1.29707,-0.56854 0.43434,-0.20626 0.86674,-0.44656 1.29708,-0.66986 0.43434,-0.22329 0.86675,-0.4628 1.297,-0.66985 0.43435,-0.20626 0.86683,-0.40981 1.29709,-0.56766 0.43433,-0.15796 0.86674,-0.29411 1.29708,-0.37929 0.43433,-0.0847 0.86674,-0.13346 1.297,-0.13346 0.43434,0 0.86682,0.0485 1.29708,0.13346 0.43434,0.0847 0.86674,0.22142 1.29701,0.37929 0.43433,0.15796 0.86681,0.36138 1.29707,0.56766 0.43435,0.20696 0.86675,0.44656 1.29709,0.66985 0.43433,0.2233 0.86674,0.4636 1.297,0.66986 0.43434,0.20719 0.86682,0.41067 1.29708,0.56854 0.43434,0.15796 0.86675,0.29409 1.29701,0.37927 0.43434,0.0847 0.86681,0.13206 1.29708,0.13206 0.43433,0 0.86675,-0.0467 1.29707,-0.13206 0.43434,-0.0847 0.86675,-0.22142 1.29701,-0.37927 0.43434,-0.15796 0.86682,-0.3614 1.29708,-0.56854 0.43434,-0.20626 0.86674,-0.44656 1.29708,-0.66986 0.43433,-0.22329 0.86675,-0.4628 1.29701,-0.66985 0.43433,-0.20626 0.86681,-0.40981 1.29708,-0.56766 0.43433,-0.15796 0.86674,-0.29411 1.297,-0.37929 0.43434,-0.0847 0.86682,-0.13346 1.29707,-0.13346 0.43435,0 0.86675,0.0485 1.29709,0.13346 0.43434,0.0847 0.86674,0.22142 1.297,0.37929 0.43435,0.15796 0.86682,0.36138 1.29708,0.56766 0.43434,0.20696 0.86675,0.44656 1.29701,0.66985 0.43434,0.2233 0.86682,0.4636 1.29708,0.66986 0.43433,0.20719 0.86675,0.41067 1.29707,0.56854 0.43435,0.15796 0.86675,0.29409 1.29702,0.37927 0.43433,0.0847 0.86681,0.13206 1.29707,0.13206 0.43434,0 0.86675,-0.0467 1.29708,-0.13206 0.43434,-0.0847 0.86675,-0.22142 1.29701,-0.37927 0.43434,-0.15796 0.86682,-0.3614 1.29708,-0.56854 0.43433,-0.20626 0.86675,-0.44656 1.297,-0.66986"
         id="path2601-0-7-1"
         sodipodi:nodetypes="ccccscccccccscccccccscccccccscccccccscccccccscccccccscccccccscccccccscccccccscccc" />
    </g>
    <rect
       style="fill:#ffffff;fill-opacity:1;stroke:none;stroke-width:0.5;stroke-miterlimit:4;stroke-dasharray:none"
       id="rect5759"
       width="16.535883"
       height="103.34258"
       x="262.79987"
       y="174.18015" />
    <path
       style="fill:none;stroke:#000000;stroke-width:0.5;stroke-linecap:butt;stroke-linejoin:miter;stroke-miterlimit:4;stroke-dasharray:none;stroke-opacity:1"
       d="M 280.09335,263.86865 H 262.79986"
       id="path5599" />
    <path
       style="fill:none;stroke:#000000;stroke-width:0.5;stroke-linecap:butt;stroke-linejoin:miter;stroke-miterlimit:4;stroke-dasharray:none;stroke-opacity:1"
       d="M 280.83293,241.03085 H 262.79986"
       id="path5601" />
    <path
       style="fill:none;stroke:#000000;stroke-width:0.5;stroke-linecap:butt;stroke-linejoin:miter;stroke-miterlimit:4;stroke-dasharray:none;stroke-opacity:1;marker-start:url(#Arrow1Mstart);marker-end:url(#Arrow1Mend)"
       d="m 271.81639,174.25953 v 66.77132"
       id="path5607" />
    <path
       style="fill:none;stroke:#000000;stroke-width:0.5;stroke-linecap:butt;stroke-linejoin:miter;stroke-miterlimit:4;stroke-dasharray:none;stroke-opacity:1;marker-end:url(#marker5671)"
       d="M 271.81639,275.8205 271.4466,263.86865"
       id="path5609" />
    <rect
       style="fill:#ffffff;fill-opacity:1;stroke:none;stroke-width:0.5;stroke-miterlimit:4;stroke-dasharray:none"
       id="rect5761"
       width="41.311127"
       height="15.410734"
       x="236.9886"
       y="200.33954" />
    <text
       xml:space="preserve"
       style="font-style:italic;font-size:9.33332px;line-height:1.25;font-family:'Latin Modern Roman';-inkscape-font-specification:'Latin Modern Roman, Italic'"
       x="239.79674"
       y="210.96289"
       id="text5705"><tspan
         sodipodi:role="line"
         id="tspan5703"
         x="239.79674"
         y="210.96289"
         dx="0 2">h=<tspan
   style="font-style:normal;font-variant:normal;font-weight:normal;font-stretch:normal;font-family:'Latin Modern Roman';-inkscape-font-specification:'Latin Modern Roman, '"
   id="tspan5707"
   dx="2">5.0</tspan><tspan
   id="tspan5721"
   style="font-style:normal;font-variant:normal;font-weight:normal;font-stretch:normal;font-family:FZShuSong-Z01;-inkscape-font-specification:FZShuSong-Z01"
   dx="1"></tspan></tspan></text>
    <rect
       style="fill:#ffffff;fill-opacity:1;stroke:none;stroke-width:0.5;stroke-miterlimit:4;stroke-dasharray:none"
       id="rect5761-4"
       width="41.311127"
       height="15.410734"
       x="236.92384"
       y="245.21196" />
    <text
       xml:space="preserve"
       style="font-style:italic;font-size:9.33332px;line-height:1.25;font-family:'Latin Modern Roman';-inkscape-font-specification:'Latin Modern Roman, Italic'"
       x="239.48874"
       y="255.63678"
       id="text5711"><tspan
         sodipodi:role="line"
         id="tspan5709"
         x="239.48874"
         y="255.63678"
         dx="0 2">d=<tspan
   style="font-style:normal;font-variant:normal;font-weight:normal;font-stretch:normal;font-family:'Latin Modern Roman';-inkscape-font-specification:'Latin Modern Roman, '"
   id="tspan5713"
   dx="2">1.5</tspan><tspan
   id="tspan5725"
   style="font-style:normal;font-variant:normal;font-weight:normal;font-stretch:normal;font-family:FZShuSong-Z01;-inkscape-font-specification:FZShuSong-Z01"
   dx="1"></tspan></tspan></text>
    <text
       xml:space="preserve"
       style="font-style:italic;font-size:9.33332px;line-height:1.25;font-family:'Latin Modern Roman';-inkscape-font-specification:'Latin Modern Roman, Italic'"
       x="289.49216"
       y="233.72043"
       id="text5717"><tspan
         sodipodi:role="line"
         id="tspan5715"
         x="289.49216"
         y="233.72043"
         dx="0 2">S=<tspan
   style="font-style:normal;font-variant:normal;font-weight:normal;font-stretch:normal;font-family:'Latin Modern Roman';-inkscape-font-specification:'Latin Modern Roman, '"
   id="tspan5727"
   dx="2">50<tspan
   style="font-style:normal;font-variant:normal;font-weight:normal;font-stretch:normal;font-family:FZShuSong-Z01;-inkscape-font-specification:FZShuSong-Z01"
   id="tspan5729"
   dx="1"></tspan><tspan
   style="font-size:65%;baseline-shift:super"
   id="tspan5733">2</tspan></tspan></tspan></text>
  </g>
</svg>
