<?xml version="1.0" encoding="UTF-8" standalone="no"?>
<svg
   xmlns:dc="http://purl.org/dc/elements/1.1/"
   xmlns:cc="http://creativecommons.org/ns#"
   xmlns:rdf="http://www.w3.org/1999/02/22-rdf-syntax-ns#"
   xmlns:svg="http://www.w3.org/2000/svg"
   xmlns="http://www.w3.org/2000/svg"
   xmlns:sodipodi="http://sodipodi.sourceforge.net/DTD/sodipodi-0.dtd"
   xmlns:inkscape="http://www.inkscape.org/namespaces/inkscape"
   width="210mm"
   height="297mm"
   viewBox="0 0 210 297"
   version="1.1"
   id="svg4485"
   inkscape:version="1.0.1 (3bc2e813f5, 2020-09-07)"
   sodipodi:docname="fig01.25.svg">
  <defs
     id="defs4479">
    <marker
       style="overflow:visible"
       id="Arrow1Mstart"
       refX="0"
       refY="0"
       orient="auto"
       inkscape:stockid="Arrow1Mstart"
       inkscape:isstock="true">
      <path
         transform="matrix(0.4,0,0,0.4,4,0)"
         style="fill:#000000;fill-opacity:1;fill-rule:evenodd;stroke:#000000;stroke-width:1pt;stroke-opacity:1"
         d="M 0,0 5,-5 -12.5,0 5,5 Z"
         id="path861" />
    </marker>
    <marker
       style="overflow:visible"
       id="marker2168"
       refX="0"
       refY="0"
       orient="auto"
       inkscape:stockid="Arrow1Mend"
       inkscape:isstock="true">
      <path
         transform="matrix(-0.4,0,0,-0.4,-4,0)"
         style="fill:#000000;fill-opacity:1;fill-rule:evenodd;stroke:#000000;stroke-width:1pt;stroke-opacity:1"
         d="M 0,0 5,-5 -12.5,0 5,5 Z"
         id="path2166" />
    </marker>
    <marker
       style="overflow:visible"
       id="marker1133-0"
       refX="0"
       refY="0"
       orient="auto"
       inkscape:stockid="Arrow1Mend"
       inkscape:isstock="true">
      <path
         transform="matrix(-0.4,0,0,-0.4,-4,0)"
         style="fill:#000000;fill-opacity:1;fill-rule:evenodd;stroke:#000000;stroke-width:1pt;stroke-opacity:1"
         d="M 0,0 5,-5 -12.5,0 5,5 Z"
         id="path1131-3" />
    </marker>
    <marker
       style="overflow:visible"
       id="marker1133"
       refX="0"
       refY="0"
       orient="auto"
       inkscape:stockid="Arrow1Mend"
       inkscape:isstock="true">
      <path
         transform="matrix(-0.4,0,0,-0.4,-4,0)"
         style="fill:#000000;fill-opacity:1;fill-rule:evenodd;stroke:#000000;stroke-width:1pt;stroke-opacity:1"
         d="M 0,0 5,-5 -12.5,0 5,5 Z"
         id="path1131" />
    </marker>
    <marker
       style="overflow:visible"
       id="Arrow1Mend"
       refX="0"
       refY="0"
       orient="auto"
       inkscape:stockid="Arrow1Mend"
       inkscape:isstock="true"
       inkscape:collect="always">
      <path
         transform="matrix(-0.4,0,0,-0.4,-4,0)"
         style="fill:#000000;fill-opacity:1;fill-rule:evenodd;stroke:#000000;stroke-width:1pt;stroke-opacity:1"
         d="M 0,0 5,-5 -12.5,0 5,5 Z"
         id="path864" />
    </marker>
    <defs
       id="id-071fc39d-ee7f-41b0-94d1-cd8ea83ea612">
      <g
         id="id-bfa27220-85b3-4f58-84ee-12da27c63983">
        <symbol
           overflow="visible"
           id="id-d96419a5-aaf0-4b6b-bcf4-fb46802e3b00">
          <path
             style="stroke:none;stroke-width:0"
             d=""
             id="id-ed2f1030-0c9c-4107-89a2-3a1b409ef576" />
        </symbol>
        <symbol
           overflow="visible"
           id="id-2108768a-da37-4354-9a57-7acec4b03fd9">
          <path
             style="stroke:none;stroke-width:0"
             d="m 4.3125,-3.3125 c 0,-0.625 -0.328125,-0.65625 -0.40625,-0.65625 -0.234375,0 -0.46875,0.234375 -0.46875,0.4375 0,0.140625 0.09375,0.21875 0.15625,0.265625 0.234375,0.21875 0.3125,0.515625 0.3125,0.75 0,0.390625 -0.5625,2.390625 -1.59375,2.390625 -0.6875,0 -0.6875,-0.625 -0.6875,-0.796875 0,-0.375 0.140625,-0.84375 0.453125,-1.65625 0.140625,-0.375 0.171875,-0.46875 0.171875,-0.625 0,-0.453125 -0.328125,-0.765625 -0.765625,-0.765625 -0.859375,0 -1.21875,1.28125 -1.21875,1.390625 0,0.078125 0.0625,0.109375 0.125,0.109375 0.09375,0 0.109375,-0.0625 0.140625,-0.171875 0.1875,-0.65625 0.546875,-1.09375 0.921875,-1.09375 0.171875,0 0.21875,0.109375 0.21875,0.296875 0,0.140625 -0.046875,0.3125 -0.125,0.515625 -0.3125,0.875 -0.53125,1.4375 -0.53125,1.890625 0,0.84375 0.640625,1.125 1.25,1.125 1.515625,0 2.046875,-2.828125 2.046875,-3.40625 z m 0,0"
             id="id-63dfde38-25ec-4680-ab1a-120fd680c2f3" />
        </symbol>
        <symbol
           overflow="visible"
           id="id-34fda5a0-1618-4c1d-a0f7-b1fdd98cf87d">
          <path
             style="stroke:none;stroke-width:0"
             d="m 4.703125,-5.921875 c 0.03125,-0.125 0.03125,-0.140625 0.03125,-0.171875 0,-0.078125 -0.046875,-0.125 -0.140625,-0.125 -0.125,0 -0.90625,0.0625 -1.09375,0.078125 -0.078125,0.015625 -0.1875,0.03125 -0.1875,0.171875 0,0.125 0.109375,0.125 0.25,0.125 0.421875,0 0.421875,0.0625 0.421875,0.140625 0,0.0625 -0.078125,0.375 -0.125,0.5625 L 3.6875,-4.453125 C 3.59375,-4.109375 3.5,-3.765625 3.421875,-3.40625 3.25,-3.734375 2.984375,-3.96875 2.578125,-3.96875 1.53125,-3.96875 0.375,-2.71875 0.375,-1.359375 0.375,-0.375 1,0.09375 1.609375,0.09375 c 0.578125,0 1.046875,-0.484375 1.203125,-0.65625 0.09375,0.5 0.546875,0.65625 0.828125,0.65625 0.265625,0 0.484375,-0.109375 0.6875,-0.484375 0.15625,-0.296875 0.28125,-0.859375 0.28125,-0.890625 0,-0.046875 -0.03125,-0.109375 -0.109375,-0.109375 -0.109375,0 -0.125,0.046875 -0.15625,0.21875 C 4.140625,-0.390625 3.953125,-0.125 3.671875,-0.125 c -0.234375,0 -0.28125,-0.21875 -0.28125,-0.40625 0,-0.125 0.046875,-0.375 0.046875,-0.40625 z M 2.84375,-1.078125 C 2.8125,-0.9375 2.796875,-0.921875 2.65625,-0.75 2.328125,-0.359375 1.96875,-0.125 1.625,-0.125 c -0.4375,0 -0.578125,-0.453125 -0.578125,-0.84375 0,-0.4375 0.25,-1.46875 0.46875,-1.90625 0.28125,-0.53125 0.703125,-0.859375 1.0625,-0.859375 0.59375,0 0.734375,0.71875 0.734375,0.765625 0,0.046875 -0.015625,0.09375 -0.03125,0.140625 z m 0,0"
             id="id-8b2d3fa7-4ee0-415b-b90a-f68aab9b8ec9" />
        </symbol>
        <symbol
           overflow="visible"
           id="id-d03cc1ed-252a-49e8-8a8f-7acc4dad4668">
          <path
             style="stroke:none;stroke-width:0"
             d="m 1.90625,-3.59375 h 0.859375 c 0.15625,0 0.265625,0 0.265625,-0.15625 0,-0.109375 -0.09375,-0.109375 -0.25,-0.109375 H 1.984375 l 0.359375,-1.5 c 0,-0.140625 -0.109375,-0.25 -0.265625,-0.25 -0.296875,0 -0.359375,0.25 -0.390625,0.34375 l -0.34375,1.40625 H 0.5 c -0.171875,0 -0.28125,0 -0.28125,0.15625 0,0.109375 0.09375,0.109375 0.25,0.109375 h 0.8125 l -0.625,2.453125 c -0.0625,0.265625 -0.0625,0.28125 -0.0625,0.40625 0,0.53125 0.40625,0.828125 0.875,0.828125 0.921875,0 1.453125,-1.28125 1.453125,-1.375 0,-0.046875 -0.03125,-0.109375 -0.109375,-0.109375 -0.09375,0 -0.109375,0.03125 -0.171875,0.1875 C 2.375,-0.5625 1.921875,-0.125 1.484375,-0.125 c -0.1875,0 -0.296875,-0.109375 -0.296875,-0.40625 0,-0.203125 0.03125,-0.3125 0.0625,-0.453125 z m 0,0"
             id="id-7e599d2a-99e7-4055-9255-1f319979319f" />
        </symbol>
        <symbol
           overflow="visible"
           id="id-009138dc-a6ae-416e-9db8-c964e6fdcf30">
          <path
             style="stroke:none;stroke-width:0"
             d=""
             id="id-89be8276-302c-4171-936c-f17b4f3b3009" />
        </symbol>
        <symbol
           overflow="visible"
           id="id-ddb791c5-baff-4c18-90be-1989947f4ac5">
          <path
             style="stroke:none;stroke-width:0"
             d="m 3.296875,-1.90625 c 0,-0.4375 0,-2.078125 -1.46875,-2.078125 -1.46875,0 -1.46875,1.640625 -1.46875,2.078125 0,0.421875 0,2.03125 1.46875,2.03125 1.46875,0 1.46875,-1.609375 1.46875,-2.03125 z m -1.46875,1.84375 c -0.25,0 -0.65625,-0.125 -0.8125,-0.625 -0.09375,-0.34375 -0.09375,-0.921875 -0.09375,-1.296875 0,-0.40625 0,-0.859375 0.09375,-1.1875 0.140625,-0.53125 0.59375,-0.609375 0.8125,-0.609375 0.265625,0 0.671875,0.125 0.796875,0.578125 0.09375,0.3125 0.09375,0.75 0.09375,1.21875 0,0.375 0,0.984375 -0.09375,1.3125 C 2.453125,-0.140625 2.015625,-0.0625 1.828125,-0.0625 Z m 0,0"
             id="id-aca16c35-80c2-4dae-a74e-d1790552fbd9" />
        </symbol>
        <symbol
           overflow="visible"
           id="id-2f868a7a-5ac1-4bc5-b7b1-0f6ff6bcae18">
          <path
             style="stroke:none;stroke-width:0"
             d=""
             id="id-c0dc838e-4609-44c6-9321-8ece2565035a" />
        </symbol>
        <symbol
           overflow="visible"
           id="id-917318fd-22d3-4846-be9b-416b3547430e">
          <path
             style="stroke:none;stroke-width:0"
             d="M 8.25,0.453125 C 7.84375,0.484375 7.8125,0.796875 7.8125,0.890625 7.8125,1.1875 8.046875,1.34375 8.25,1.34375 8.46875,1.34375 8.703125,1.1875 8.703125,0.875 8.703125,0.390625 8.21875,0 7.6875,0 6.765625,0 6.25,1.1875 5.84375,2.5625 5.609375,3.34375 4.453125,7.828125 3.5,13.140625 3.34375,14 2.90625,16.46875 2.546875,17.828125 c -0.140625,0.515625 -0.515625,1.875 -1.03125,1.875 -0.078125,0 -0.34375,-0.01563 -0.5625,-0.21875 0.40625,-0.04687 0.453125,-0.359375 0.453125,-0.4375 0,-0.3125 -0.25,-0.453125 -0.453125,-0.453125 -0.203125,0 -0.4375,0.140625 -0.4375,0.453125 0,0.5 0.484375,0.875 1.015625,0.875 0.90625,0 1.4375,-1.1875 1.84375,-2.546875 0.234375,-0.796875 1.390625,-5.28125 2.34375,-10.578125 0.140625,-0.875 0.59375,-3.34375 0.9375,-4.6875 C 6.8125,1.59375 7.1875,0.21875 7.6875,0.21875 c 0.078125,0 0.34375,0.015625 0.5625,0.234375 z m 0,0"
             id="id-3d246397-c608-4c38-b6a0-147b6e7cbe98" />
        </symbol>
        <symbol
           overflow="visible"
           id="id-6b5fc4be-2219-4574-a9b8-8dbe1e540f5e">
          <path
             style="stroke:none;stroke-width:0"
             d=""
             id="id-6128969a-d41b-40ad-b800-189666885117" />
        </symbol>
        <symbol
           overflow="visible"
           id="id-93cadcf3-47c4-4469-a61a-fa0955e391b1">
          <path
             style="stroke:none;stroke-width:0"
             d="m 1.609375,-2.34375 h 0.65625 c 0.109375,0 0.203125,0 0.203125,-0.140625 0,-0.09375 -0.078125,-0.09375 -0.1875,-0.09375 H 1.671875 L 1.875,-3.40625 c 0.03125,-0.09375 0.03125,-0.125 0.03125,-0.125 0,-0.15625 -0.109375,-0.203125 -0.21875,-0.203125 -0.0625,0 -0.21875,0.03125 -0.28125,0.234375 L 1.171875,-2.578125 H 0.53125 c -0.125,0 -0.125,0 -0.15625,0.015625 -0.03125,0.03125 -0.046875,0.109375 -0.046875,0.140625 0.015625,0.078125 0.0625,0.078125 0.1875,0.078125 H 1.125 l -0.359375,1.421875 c -0.03125,0.125 -0.078125,0.328125 -0.078125,0.40625 0,0.34375 0.3125,0.578125 0.671875,0.578125 0.6875,0 1.09375,-0.828125 1.09375,-0.921875 0,-0.015625 -0.015625,-0.09375 -0.109375,-0.09375 -0.078125,0 -0.09375,0.03125 -0.125,0.109375 -0.203125,0.453125 -0.546875,0.703125 -0.84375,0.703125 -0.21875,0 -0.21875,-0.21875 -0.21875,-0.296875 0,-0.078125 0,-0.09375 0.03125,-0.203125 z m 0,0"
             id="id-5c8e00ad-5ddf-4fda-bda3-678076ac2adc" />
        </symbol>
      </g>
    </defs>
  </defs>
  <sodipodi:namedview
     id="base"
     pagecolor="#ffffff"
     bordercolor="#666666"
     borderopacity="1.0"
     inkscape:pageopacity="0.0"
     inkscape:pageshadow="2"
     inkscape:zoom="3.5000797"
     inkscape:cx="369.48776"
     inkscape:cy="608.77422"
     inkscape:document-units="mm"
     inkscape:current-layer="layer1"
     inkscape:document-rotation="0"
     showgrid="true"
     inkscape:object-paths="true"
     inkscape:snap-intersection-paths="true"
     inkscape:snap-smooth-nodes="true"
     inkscape:snap-midpoints="true"
     inkscape:snap-object-midpoints="true"
     inkscape:window-width="1301"
     inkscape:window-height="728"
     inkscape:window-x="26"
     inkscape:window-y="0"
     inkscape:window-maximized="0">
    <inkscape:grid
       type="xygrid"
       id="grid4527" />
  </sodipodi:namedview>
  <metadata
     id="metadata4482">
    <rdf:RDF>
      <cc:Work
         rdf:about="">
        <dc:format>image/svg+xml</dc:format>
        <dc:type
           rdf:resource="http://purl.org/dc/dcmitype/StillImage" />
        <dc:title></dc:title>
      </cc:Work>
    </rdf:RDF>
  </metadata>
  <g
     inkscape:label="图层 1"
     inkscape:groupmode="layer"
     id="layer1">
    <path
       style="fill:none;stroke:#000000;stroke-width:0.132292;stroke-linecap:butt;stroke-linejoin:miter;stroke-miterlimit:4;stroke-dasharray:none;stroke-opacity:1"
       d="m 78.052083,154.78125 h -3.5"
       id="path2147" />
    <path
       style="fill:none;stroke:#000000;stroke-width:0.132292;stroke-linecap:butt;stroke-linejoin:miter;stroke-miterlimit:4;stroke-dasharray:none;stroke-opacity:1"
       d="m 78.052083,177.27083 h -3.5"
       id="path2147-8" />
    <path
       style="fill:none;stroke:#000000;stroke-width:0.132292;stroke-linecap:butt;stroke-linejoin:miter;stroke-miterlimit:4;stroke-dasharray:none;stroke-opacity:1;marker-start:url(#Arrow1Mstart);marker-end:url(#marker2168)"
       d="M 75.40625,177.27083 V 154.78125"
       id="path2164"
       sodipodi:nodetypes="cc" />
    <g
       id="g5159"
       style="stroke-width:0.13229167;stroke-miterlimit:4;stroke-dasharray:none">
      <path
         style="fill:none;stroke:#000000;stroke-width:0.13229167;stroke-linecap:butt;stroke-linejoin:miter;stroke-opacity:1;stroke-miterlimit:4;stroke-dasharray:none"
         d="m 80.697916,154.78125 -2.645834,2.64583"
         id="path5114" />
      <path
         style="fill:none;stroke:#000000;stroke-width:0.13229167;stroke-linecap:butt;stroke-linejoin:miter;stroke-opacity:1;stroke-miterlimit:4;stroke-dasharray:none"
         d="m 84.666666,154.78125 -6.614584,6.61458"
         id="path5116" />
      <path
         style="fill:none;stroke:#000000;stroke-width:0.13229167;stroke-linecap:butt;stroke-linejoin:miter;stroke-opacity:1;stroke-miterlimit:4;stroke-dasharray:none"
         d="M 88.635416,154.78125 78.052082,165.36458"
         id="path5118" />
      <path
         style="fill:none;stroke:#000000;stroke-width:0.13229167;stroke-linecap:butt;stroke-linejoin:miter;stroke-opacity:1;stroke-miterlimit:4;stroke-dasharray:none"
         d="M 92.604166,154.78125 78.052082,169.33333"
         id="path5120" />
      <path
         style="fill:none;stroke:#000000;stroke-width:0.13229167;stroke-linecap:butt;stroke-linejoin:miter;stroke-opacity:1;stroke-miterlimit:4;stroke-dasharray:none"
         d="M 96.572915,154.78125 78.052082,173.30208"
         id="path5122" />
      <path
         style="fill:none;stroke:#000000;stroke-width:0.13229167;stroke-linecap:butt;stroke-linejoin:miter;stroke-opacity:1;stroke-miterlimit:4;stroke-dasharray:none"
         d="M 100.54167,154.78125 78.052082,177.27083"
         id="path5124" />
      <path
         style="fill:none;stroke:#000000;stroke-width:0.13229167;stroke-linecap:butt;stroke-linejoin:miter;stroke-opacity:1;stroke-miterlimit:4;stroke-dasharray:none"
         d="M 104.51042,154.78125 82.020832,177.27083"
         id="path5126" />
      <path
         style="fill:none;stroke:#000000;stroke-width:0.13229167;stroke-linecap:butt;stroke-linejoin:miter;stroke-opacity:1;stroke-miterlimit:4;stroke-dasharray:none"
         d="M 108.47917,154.78125 85.989582,177.27083"
         id="path5128" />
      <path
         style="fill:none;stroke:#000000;stroke-width:0.13229167;stroke-linecap:butt;stroke-linejoin:miter;stroke-opacity:1;stroke-miterlimit:4;stroke-dasharray:none"
         d="M 112.44792,154.78125 89.958332,177.27083"
         id="path5130" />
      <path
         style="fill:none;stroke:#000000;stroke-width:0.13229167;stroke-linecap:butt;stroke-linejoin:miter;stroke-opacity:1;stroke-miterlimit:4;stroke-dasharray:none"
         d="M 93.927082,177.27083 115.09375,156.10416"
         id="path5132" />
      <path
         style="fill:none;stroke:#000000;stroke-width:0.13229167;stroke-linecap:butt;stroke-linejoin:miter;stroke-opacity:1;stroke-miterlimit:4;stroke-dasharray:none"
         d="M 97.895832,177.27083 115.09375,160.07291"
         id="path5134" />
      <path
         style="fill:none;stroke:#000000;stroke-width:0.13229167;stroke-linecap:butt;stroke-linejoin:miter;stroke-opacity:1;stroke-miterlimit:4;stroke-dasharray:none"
         d="m 101.86458,177.27083 13.22917,-13.22917"
         id="path5136" />
      <path
         style="fill:none;stroke:#000000;stroke-width:0.13229167;stroke-linecap:butt;stroke-linejoin:miter;stroke-opacity:1;stroke-miterlimit:4;stroke-dasharray:none"
         d="m 105.83333,177.27083 9.26042,-9.26042"
         id="path5138" />
      <path
         style="fill:none;stroke:#000000;stroke-width:0.13229167;stroke-linecap:butt;stroke-linejoin:miter;stroke-opacity:1;stroke-miterlimit:4;stroke-dasharray:none"
         d="m 109.80208,177.27083 5.29167,-5.29167"
         id="path5140" />
      <path
         style="fill:none;stroke:#000000;stroke-width:0.13229167;stroke-linecap:butt;stroke-linejoin:miter;stroke-opacity:1;stroke-miterlimit:4;stroke-dasharray:none"
         d="m 113.77083,177.27083 1.32292,-1.32292"
         id="path5142" />
    </g>
    <rect
       style="fill:#ffffff;fill-opacity:1;stroke:none;stroke-width:0.132292;stroke-linecap:square;stroke-miterlimit:4;stroke-dasharray:none;stroke-opacity:1"
       id="rect5201"
       width="4.1010413"
       height="7.9375"
       x="73.355728"
       y="162.0573" />
    <rect
       style="fill:#ffffff;fill-opacity:1;stroke:none;stroke-width:0.132292;stroke-linecap:square;stroke-miterlimit:4;stroke-dasharray:none;stroke-opacity:1"
       id="rect5287"
       width="21.166666"
       height="9.260417"
       x="85.989586"
       y="161.39583" />
    <g
       id="g6962"
       transform="translate(21.378883,56.643153)">
      <path
         style="fill:none;stroke:#000000;stroke-width:0.132292;stroke-linecap:butt;stroke-linejoin:miter;stroke-miterlimit:4;stroke-dasharray:none;stroke-opacity:1;marker-end:url(#marker1133)"
         d="m 56.6732,120.62768 h 46.54779"
         id="path22" />
      <path
         style="fill:none;stroke:#000000;stroke-width:0.132292;stroke-linecap:butt;stroke-linejoin:miter;stroke-miterlimit:4;stroke-dasharray:none;stroke-opacity:1;marker-end:url(#Arrow1Mend)"
         d="M 56.6732,120.62768 V 84.527659"
         id="path24" />
      <g
         style="fill:#000000;fill-opacity:1"
         id="id-9b001993-6fce-4066-a7d1-275504af9236"
         transform="matrix(0.352778,0,0,0.352778,1.3952721,76.363457)">
        <g
           transform="translate(148.712,134.765)"
           id="g6547">
          <path
             style="stroke:none;stroke-width:0"
             d="m 6.796875,-3.890625 c 0,-1.40625 -0.953125,-2.4375 -2.359375,-2.4375 -2,0 -3.984375,2.0625 -3.984375,4.109375 0,1.46875 1.015625,2.421875 2.359375,2.421875 2,0 3.984375,-2 3.984375,-4.09375 z M 2.875,-0.078125 c -0.859375,0 -1.5625,-0.640625 -1.5625,-1.90625 0,-0.46875 0.15625,-1.796875 0.890625,-2.828125 0.65625,-0.875 1.515625,-1.265625 2.171875,-1.265625 0.875,0 1.609375,0.640625 1.609375,1.859375 C 5.984375,-3.640625 5.75,-2.328125 5,-1.3125 4.328125,-0.421875 3.5,-0.078125 2.875,-0.078125 Z m 0,0"
             id="id-0388602a-72ac-41de-a16f-06f1595f746d" />
        </g>
      </g>
      <path
         style="fill:#000000;fill-opacity:1;stroke:none;stroke-width:0"
         d="m 1.90625,-3.59375 h 0.859375 c 0.15625,0 0.265625,0 0.265625,-0.15625 0,-0.109375 -0.09375,-0.109375 -0.25,-0.109375 H 1.984375 l 0.359375,-1.5 c 0,-0.140625 -0.109375,-0.25 -0.265625,-0.25 -0.296875,0 -0.359375,0.25 -0.390625,0.34375 l -0.34375,1.40625 H 0.5 c -0.171875,0 -0.28125,0 -0.28125,0.15625 0,0.109375 0.09375,0.109375 0.25,0.109375 h 0.8125 l -0.625,2.453125 c -0.0625,0.265625 -0.0625,0.28125 -0.0625,0.40625 0,0.53125 0.40625,0.828125 0.875,0.828125 0.921875,0 1.453125,-1.28125 1.453125,-1.375 0,-0.046875 -0.03125,-0.109375 -0.109375,-0.109375 -0.09375,0 -0.109375,0.03125 -0.171875,0.1875 C 2.375,-0.5625 1.921875,-0.125 1.484375,-0.125 c -0.1875,0 -0.296875,-0.109375 -0.296875,-0.40625 0,-0.203125 0.03125,-0.3125 0.0625,-0.453125 z m 0,0"
         id="id-7b807218-df5a-4198-b19d-6056cb0318d5"
         transform="matrix(0.35277801,0,0,0.35277801,100.94393,119.51968)" />
      <g
         style="fill:#000000;fill-opacity:1"
         id="id-3f238a48-ba66-4af1-a909-2d4b4ded6ed7"
         transform="matrix(0.352778,0,0,0.352778,10.731621,24.528046)">
        <g
           transform="translate(133.768,178.6)"
           id="g6579">
          <path
             style="stroke:none;stroke-width:0"
             d="m 4.3125,-3.3125 c 0,-0.625 -0.328125,-0.65625 -0.40625,-0.65625 -0.234375,0 -0.46875,0.234375 -0.46875,0.4375 0,0.140625 0.09375,0.21875 0.15625,0.265625 0.234375,0.21875 0.3125,0.515625 0.3125,0.75 0,0.390625 -0.5625,2.390625 -1.59375,2.390625 -0.6875,0 -0.6875,-0.625 -0.6875,-0.796875 0,-0.375 0.140625,-0.84375 0.453125,-1.65625 0.140625,-0.375 0.171875,-0.46875 0.171875,-0.625 0,-0.453125 -0.328125,-0.765625 -0.765625,-0.765625 -0.859375,0 -1.21875,1.28125 -1.21875,1.390625 0,0.078125 0.0625,0.109375 0.125,0.109375 0.09375,0 0.109375,-0.0625 0.140625,-0.171875 0.1875,-0.65625 0.546875,-1.09375 0.921875,-1.09375 0.171875,0 0.21875,0.109375 0.21875,0.296875 0,0.140625 -0.046875,0.3125 -0.125,0.515625 -0.3125,0.875 -0.53125,1.4375 -0.53125,1.890625 0,0.84375 0.640625,1.125 1.25,1.125 1.515625,0 2.046875,-2.828125 2.046875,-3.40625 z m 0,0"
             id="id-246a479e-5ae3-4dc2-86e9-e48e3e4ab8e2" />
        </g>
      </g>
    </g>
    <path
       style="fill:#000000;fill-opacity:1;stroke:none;stroke-width:0"
       d="m 114.95631,179.10807 h 0.30316 c 0.0551,0 0.0937,0 0.0937,-0.0551 0,-0.0386 -0.0331,-0.0386 -0.0882,-0.0386 h -0.28112 l 0.12678,-0.52917 c 0,-0.0496 -0.0386,-0.0882 -0.0937,-0.0882 -0.10473,0 -0.12678,0.0882 -0.1378,0.12127 l -0.12127,0.49609 h -0.29766 c -0.0606,0 -0.0992,0 -0.0992,0.0551 0,0.0386 0.0331,0.0386 0.0882,0.0386 h 0.28663 l -0.22049,0.8654 c -0.022,0.0937 -0.022,0.0992 -0.022,0.14332 0,0.18741 0.14331,0.29215 0.30868,0.29215 0.32521,0 0.51263,-0.452 0.51263,-0.48507 0,-0.0165 -0.011,-0.0386 -0.0386,-0.0386 -0.0331,0 -0.0386,0.011 -0.0606,0.0662 -0.0937,0.22599 -0.25356,0.38034 -0.4079,0.38034 -0.0661,0 -0.10473,-0.0386 -0.10473,-0.14332 0,-0.0717 0.011,-0.11024 0.0221,-0.15985 z m 0,0"
       id="id-7b807218-df5a-4198-b19d-6056cb0318d5-6" />
    <path
       style="fill:none;stroke:#000000;stroke-width:0.264583px;stroke-linecap:butt;stroke-linejoin:miter;stroke-opacity:1"
       d="M 78.052082,154.78125 H 115.09375"
       id="path7159" />
    <path
       style="fill:none;stroke:#000000;stroke-width:0.13229167;stroke-linecap:butt;stroke-linejoin:miter;stroke-opacity:1;stroke-miterlimit:4;stroke-dasharray:none"
       d="M 115.09375,177.27083 V 154.78125"
       id="path7161" />
    <g
       id="g7409"
       transform="translate(-22.344277,18.630369)">
      <g
         style="fill:#000000;fill-opacity:1"
         id="id-b3da8190-d89a-4af5-a901-d40f7871289a"
         transform="matrix(0.352778,0,0,0.352778,-4.2140448,95.270914)">
        <g
           transform="translate(285.127,149.179)"
           id="g7238">
          <path
             style="stroke:none;stroke-width:0"
             d="m 4.3125,-3.3125 c 0,-0.625 -0.328125,-0.65625 -0.40625,-0.65625 -0.234375,0 -0.46875,0.234375 -0.46875,0.4375 0,0.140625 0.09375,0.21875 0.15625,0.265625 0.234375,0.21875 0.3125,0.515625 0.3125,0.75 0,0.390625 -0.5625,2.390625 -1.59375,2.390625 -0.6875,0 -0.6875,-0.625 -0.6875,-0.796875 0,-0.375 0.140625,-0.84375 0.453125,-1.65625 0.140625,-0.375 0.171875,-0.46875 0.171875,-0.625 0,-0.453125 -0.328125,-0.765625 -0.765625,-0.765625 -0.859375,0 -1.21875,1.28125 -1.21875,1.390625 0,0.078125 0.0625,0.109375 0.125,0.109375 0.09375,0 0.109375,-0.0625 0.140625,-0.171875 0.1875,-0.65625 0.546875,-1.09375 0.921875,-1.09375 0.171875,0 0.21875,0.109375 0.21875,0.296875 0,0.140625 -0.046875,0.3125 -0.125,0.515625 -0.3125,0.875 -0.53125,1.4375 -0.53125,1.890625 0,0.84375 0.640625,1.125 1.25,1.125 1.515625,0 2.046875,-2.828125 2.046875,-3.40625 z m 0,0"
             id="id-7e631582-e49b-4956-9e2a-ab6895312dc0" />
        </g>
      </g>
      <g
         style="fill:#000000;fill-opacity:1"
         id="id-9b353cfd-8e02-45bd-bfc3-8ce21777cf84"
         transform="matrix(0.352778,0,0,0.352778,-4.2140448,95.270914)">
        <g
           transform="translate(289.604,150.175)"
           id="g7242">
          <path
             style="stroke:none;stroke-width:0"
             d="m 3.296875,-1.90625 c 0,-0.4375 0,-2.078125 -1.46875,-2.078125 -1.46875,0 -1.46875,1.640625 -1.46875,2.078125 0,0.421875 0,2.03125 1.46875,2.03125 1.46875,0 1.46875,-1.609375 1.46875,-2.03125 z m -1.46875,1.84375 c -0.25,0 -0.65625,-0.125 -0.8125,-0.625 -0.09375,-0.34375 -0.09375,-0.921875 -0.09375,-1.296875 0,-0.40625 0,-0.859375 0.09375,-1.1875 0.140625,-0.53125 0.59375,-0.609375 0.8125,-0.609375 0.265625,0 0.671875,0.125 0.796875,0.578125 0.09375,0.3125 0.09375,0.75 0.09375,1.21875 0,0.375 0,0.984375 -0.09375,1.3125 C 2.453125,-0.140625 2.015625,-0.0625 1.828125,-0.0625 Z m 0,0"
             id="id-dc307135-3600-438e-af87-7bff9340832d" />
        </g>
      </g>
    </g>
    <g
       id="g7434"
       transform="translate(-8.8618855,19.033175)">
      <g
         style="fill:#000000;fill-opacity:1"
         id="id-fe44aea9-f098-4848-9cc5-28c717175ba3"
         transform="matrix(0.352778,0,0,0.352778,-4.2140448,95.270914)">
        <g
           transform="translate(295.291,136.975)"
           id="g7246">
          <path
             style="stroke:none;stroke-width:0"
             d="M 8.25,0.453125 C 7.84375,0.484375 7.8125,0.796875 7.8125,0.890625 7.8125,1.1875 8.046875,1.34375 8.25,1.34375 8.46875,1.34375 8.703125,1.1875 8.703125,0.875 8.703125,0.390625 8.21875,0 7.6875,0 6.765625,0 6.25,1.1875 5.84375,2.5625 5.609375,3.34375 4.453125,7.828125 3.5,13.140625 3.34375,14 2.90625,16.46875 2.546875,17.828125 c -0.140625,0.515625 -0.515625,1.875 -1.03125,1.875 -0.078125,0 -0.34375,-0.01563 -0.5625,-0.21875 0.40625,-0.04687 0.453125,-0.359375 0.453125,-0.4375 0,-0.3125 -0.25,-0.453125 -0.453125,-0.453125 -0.203125,0 -0.4375,0.140625 -0.4375,0.453125 0,0.5 0.484375,0.875 1.015625,0.875 0.90625,0 1.4375,-1.1875 1.84375,-2.546875 0.234375,-0.796875 1.390625,-5.28125 2.34375,-10.578125 0.140625,-0.875 0.59375,-3.34375 0.9375,-4.6875 C 6.8125,1.59375 7.1875,0.21875 7.6875,0.21875 c 0.078125,0 0.34375,0.015625 0.5625,0.234375 z m 0,0"
             id="id-ee7e55be-719d-4bc3-802b-87da56b71a7e" />
        </g>
      </g>
      <g
         style="fill:#000000;fill-opacity:1"
         id="id-f41042bf-8a85-4ef3-83c2-da6470b785e5"
         transform="matrix(0.352778,0,0,0.352778,-4.2140448,95.270914)">
        <g
           transform="translate(304.506,139.438)"
           id="g7250">
          <path
             style="stroke:none;stroke-width:0"
             d="m 1.609375,-2.34375 h 0.65625 c 0.109375,0 0.203125,0 0.203125,-0.140625 0,-0.09375 -0.078125,-0.09375 -0.1875,-0.09375 H 1.671875 L 1.875,-3.40625 c 0.03125,-0.09375 0.03125,-0.125 0.03125,-0.125 0,-0.15625 -0.109375,-0.203125 -0.21875,-0.203125 -0.0625,0 -0.21875,0.03125 -0.28125,0.234375 L 1.171875,-2.578125 H 0.53125 c -0.125,0 -0.125,0 -0.15625,0.015625 -0.03125,0.03125 -0.046875,0.109375 -0.046875,0.140625 0.015625,0.078125 0.0625,0.078125 0.1875,0.078125 H 1.125 l -0.359375,1.421875 c -0.03125,0.125 -0.078125,0.328125 -0.078125,0.40625 0,0.34375 0.3125,0.578125 0.671875,0.578125 0.6875,0 1.09375,-0.828125 1.09375,-0.921875 0,-0.015625 -0.015625,-0.09375 -0.109375,-0.09375 -0.078125,0 -0.09375,0.03125 -0.125,0.109375 -0.203125,0.453125 -0.546875,0.703125 -0.84375,0.703125 -0.21875,0 -0.21875,-0.21875 -0.21875,-0.296875 0,-0.078125 0,-0.09375 0.03125,-0.203125 z m 0,0"
             id="id-a39b6796-a27f-4290-bb77-ab1863e1681e" />
        </g>
      </g>
      <g
         style="fill:#000000;fill-opacity:1"
         id="id-add86d1d-ef49-4fdb-935d-567c96aee74e"
         transform="matrix(0.352778,0,0,0.352778,-4.2140448,95.270914)">
        <g
           transform="translate(300.41,157.398)"
           id="g7254">
          <path
             style="stroke:none;stroke-width:0"
             d="m 3.296875,-1.90625 c 0,-0.4375 0,-2.078125 -1.46875,-2.078125 -1.46875,0 -1.46875,1.640625 -1.46875,2.078125 0,0.421875 0,2.03125 1.46875,2.03125 1.46875,0 1.46875,-1.609375 1.46875,-2.03125 z m -1.46875,1.84375 c -0.25,0 -0.65625,-0.125 -0.8125,-0.625 -0.09375,-0.34375 -0.09375,-0.921875 -0.09375,-1.296875 0,-0.40625 0,-0.859375 0.09375,-1.1875 0.140625,-0.53125 0.59375,-0.609375 0.8125,-0.609375 0.265625,0 0.671875,0.125 0.796875,0.578125 0.09375,0.3125 0.09375,0.75 0.09375,1.21875 0,0.375 0,0.984375 -0.09375,1.3125 C 2.453125,-0.140625 2.015625,-0.0625 1.828125,-0.0625 Z m 0,0"
             id="id-ecce012a-e1b2-486c-9195-6495bbe78791" />
        </g>
      </g>
      <g
         style="fill:#000000;fill-opacity:1"
         id="id-64f09153-035b-4ac9-bdbd-419191a39510"
         transform="matrix(0.352778,0,0,0.352778,-4.2140448,95.270914)">
        <g
           transform="translate(309.39,149.179)"
           id="g7258">
          <path
             style="stroke:none;stroke-width:0"
             d="m 4.3125,-3.3125 c 0,-0.625 -0.328125,-0.65625 -0.40625,-0.65625 -0.234375,0 -0.46875,0.234375 -0.46875,0.4375 0,0.140625 0.09375,0.21875 0.15625,0.265625 0.234375,0.21875 0.3125,0.515625 0.3125,0.75 0,0.390625 -0.5625,2.390625 -1.59375,2.390625 -0.6875,0 -0.6875,-0.625 -0.6875,-0.796875 0,-0.375 0.140625,-0.84375 0.453125,-1.65625 0.140625,-0.375 0.171875,-0.46875 0.171875,-0.625 0,-0.453125 -0.328125,-0.765625 -0.765625,-0.765625 -0.859375,0 -1.21875,1.28125 -1.21875,1.390625 0,0.078125 0.0625,0.109375 0.125,0.109375 0.09375,0 0.109375,-0.0625 0.140625,-0.171875 0.1875,-0.65625 0.546875,-1.09375 0.921875,-1.09375 0.171875,0 0.21875,0.109375 0.21875,0.296875 0,0.140625 -0.046875,0.3125 -0.125,0.515625 -0.3125,0.875 -0.53125,1.4375 -0.53125,1.890625 0,0.84375 0.640625,1.125 1.25,1.125 1.515625,0 2.046875,-2.828125 2.046875,-3.40625 z m 0,0"
             id="id-aa3f5f41-70ba-4216-8055-9f2583479260" />
        </g>
      </g>
      <g
         style="fill:#000000;fill-opacity:1"
         id="id-3c0a95b1-768d-4be8-995a-5636e17ffa0c"
         transform="matrix(0.352778,0,0,0.352778,-4.2140448,95.270914)">
        <g
           transform="translate(313.867,150.175)"
           id="g7262">
          <path
             style="stroke:none;stroke-width:0"
             d="m 3.296875,-1.90625 c 0,-0.4375 0,-2.078125 -1.46875,-2.078125 -1.46875,0 -1.46875,1.640625 -1.46875,2.078125 0,0.421875 0,2.03125 1.46875,2.03125 1.46875,0 1.46875,-1.609375 1.46875,-2.03125 z m -1.46875,1.84375 c -0.25,0 -0.65625,-0.125 -0.8125,-0.625 -0.09375,-0.34375 -0.09375,-0.921875 -0.09375,-1.296875 0,-0.40625 0,-0.859375 0.09375,-1.1875 0.140625,-0.53125 0.59375,-0.609375 0.8125,-0.609375 0.265625,0 0.671875,0.125 0.796875,0.578125 0.09375,0.3125 0.09375,0.75 0.09375,1.21875 0,0.375 0,0.984375 -0.09375,1.3125 C 2.453125,-0.140625 2.015625,-0.0625 1.828125,-0.0625 Z m 0,0"
             id="id-b8502e48-51e3-439c-b137-ae95f24aef8a" />
        </g>
      </g>
      <g
         transform="matrix(0.352778,0,0,0.352778,107.97571,147.89798)"
         id="g7266"
         style="fill:#000000;fill-opacity:1">
        <path
           style="stroke:none;stroke-width:0"
           d="m 4.703125,-5.921875 c 0.03125,-0.125 0.03125,-0.140625 0.03125,-0.171875 0,-0.078125 -0.046875,-0.125 -0.140625,-0.125 -0.125,0 -0.90625,0.0625 -1.09375,0.078125 -0.078125,0.015625 -0.1875,0.03125 -0.1875,0.171875 0,0.125 0.109375,0.125 0.25,0.125 0.421875,0 0.421875,0.0625 0.421875,0.140625 0,0.0625 -0.078125,0.375 -0.125,0.5625 L 3.6875,-4.453125 C 3.59375,-4.109375 3.5,-3.765625 3.421875,-3.40625 3.25,-3.734375 2.984375,-3.96875 2.578125,-3.96875 1.53125,-3.96875 0.375,-2.71875 0.375,-1.359375 0.375,-0.375 1,0.09375 1.609375,0.09375 c 0.578125,0 1.046875,-0.484375 1.203125,-0.65625 0.09375,0.5 0.546875,0.65625 0.828125,0.65625 0.265625,0 0.484375,-0.109375 0.6875,-0.484375 0.15625,-0.296875 0.28125,-0.859375 0.28125,-0.890625 0,-0.046875 -0.03125,-0.109375 -0.109375,-0.109375 -0.109375,0 -0.125,0.046875 -0.15625,0.21875 C 4.140625,-0.390625 3.953125,-0.125 3.671875,-0.125 c -0.234375,0 -0.28125,-0.21875 -0.28125,-0.40625 0,-0.125 0.046875,-0.375 0.046875,-0.40625 z M 2.84375,-1.078125 C 2.8125,-0.9375 2.796875,-0.921875 2.65625,-0.75 2.328125,-0.359375 1.96875,-0.125 1.625,-0.125 c -0.4375,0 -0.578125,-0.453125 -0.578125,-0.84375 0,-0.4375 0.25,-1.46875 0.46875,-1.90625 0.28125,-0.53125 0.703125,-0.859375 1.0625,-0.859375 0.59375,0 0.734375,0.71875 0.734375,0.765625 0,0.046875 -0.015625,0.09375 -0.03125,0.140625 z m 0,0"
           id="id-5f0290ca-a9bf-47c1-8e3b-b616f273093f" />
      </g>
      <g
         transform="matrix(0.352778,0,0,0.352778,109.66022,147.89798)"
         id="g7269"
         style="fill:#000000;fill-opacity:1">
        <path
           style="stroke:none;stroke-width:0"
           d="m 1.90625,-3.59375 h 0.859375 c 0.15625,0 0.265625,0 0.265625,-0.15625 0,-0.109375 -0.09375,-0.109375 -0.25,-0.109375 H 1.984375 l 0.359375,-1.5 c 0,-0.140625 -0.109375,-0.25 -0.265625,-0.25 -0.296875,0 -0.359375,0.25 -0.390625,0.34375 l -0.34375,1.40625 H 0.5 c -0.171875,0 -0.28125,0 -0.28125,0.15625 0,0.109375 0.09375,0.109375 0.25,0.109375 h 0.8125 l -0.625,2.453125 c -0.0625,0.265625 -0.0625,0.28125 -0.0625,0.40625 0,0.53125 0.40625,0.828125 0.875,0.828125 0.921875,0 1.453125,-1.28125 1.453125,-1.375 0,-0.046875 -0.03125,-0.109375 -0.109375,-0.109375 -0.09375,0 -0.109375,0.03125 -0.171875,0.1875 C 2.375,-0.5625 1.921875,-0.125 1.484375,-0.125 c -0.1875,0 -0.296875,-0.109375 -0.296875,-0.40625 0,-0.203125 0.03125,-0.3125 0.0625,-0.453125 z m 0,0"
           id="id-e52a470a-9f6b-499c-befa-3e91c02668bc" />
      </g>
    </g>
  </g>
</svg>
